<?xml version="1.0" encoding="utf-8"?>
<!-- Generator: Adobe Illustrator 22.1.0, SVG Export Plug-In . SVG Version: 6.00 Build 0)  -->
<svg version="1.1" id="Layer_1" focusable="false" xmlns="http://www.w3.org/2000/svg" xmlns:xlink="http://www.w3.org/1999/xlink"
	 x="0px" y="0px" viewBox="0 0 15.3 14.1" style="enable-background:new 0 0 15.3 14.1;" xml:space="preserve">
<g transform="matrix(1 0 0 -1 0 0)">
	<g>
		<path id="MJMAIN-65" d="M2-9.2c0,0.5,0.1,1,0.3,1.4c0.2,0.4,0.4,0.8,0.7,1s0.6,0.5,0.9,0.6S4.5-6,4.8-6c0.5,0,0.9-0.1,1.3-0.3
			C6.4-6.5,6.7-6.7,6.9-7s0.3-0.6,0.4-0.9c0.1-0.3,0.1-0.6,0.1-1c0-0.1,0-0.1-0.1-0.2H3.4v-0.2c0-1.4,0.5-2.2,1.4-2.5
			c0.2-0.1,0.4-0.1,0.6-0.1c0.4,0,0.7,0.1,1,0.4c0.2,0.2,0.3,0.4,0.4,0.6l0.1,0.3c0,0,0.1,0,0.2,0h0c0.2,0,0.2,0,0.2-0.1
			c0,0,0-0.1,0-0.2c-0.2-0.5-0.5-0.9-0.9-1.2c-0.4-0.3-0.9-0.4-1.4-0.4c-0.9,0-1.6,0.3-2.2,1C2.3-10.8,2-10.1,2-9.2z M6.3-8.4
			C6.2-7.3,5.7-6.6,4.9-6.5h0c-0.1,0-0.1,0-0.2,0s-0.2,0-0.3-0.1C4.2-6.7,4-6.8,3.9-7C3.8-7.1,3.7-7.3,3.6-7.5
			C3.5-7.8,3.4-8.1,3.4-8.5v-0.1h2.9V-8.4z"/>
	</g>
	<g transform="scale(0.707)">
		<path id="MJMAIN-2212" d="M8.6-4.2c0,0,0,0,0,0.1s0,0.2,0.1,0.2h5.7c0.1-0.1,0.1-0.1,0.1-0.2s0-0.1-0.1-0.2H8.8
			c-0.1,0-0.1,0.1-0.1,0.2V-4.2z"/>
	</g>
</g>
</svg>
