<svg xmlns="http://www.w3.org/2000/svg" viewBox="0 0 68 72.5" x="0px" y="0px"><path fill="#000000" d="M665,448.828427 L665,450 C665,463.807119 676.192881,475 690,475 C691.104569,475 692,475.895431 692,477 C692,478.104569 691.104569,479 690,479 C673.983742,479 661,466.016258 661,450 L661,448.828427 L659.414214,450.414214 C658.633165,451.195262 657.366835,451.195262 656.585786,450.414214 C655.804738,449.633165 655.804738,448.366835 656.585786,447.585786 L661.585786,442.585786 C662.366835,441.804738 663.633165,441.804738 664.414214,442.585786 L669.414214,447.585786 C670.195262,448.366835 670.195262,449.633165 669.414214,450.414214 C668.633165,451.195262 667.366835,451.195262 666.585786,450.414214 L665,448.828427 L665,448.828427 Z M715,451.171573 L715,450 C715,436.192881 703.807119,425 690,425 C688.895431,425 688,424.104569 688,423 C688,421.895431 688.895431,421 690,421 C706.016258,421 719,433.983742 719,450 L719,451.171573 L720.585786,449.585786 C721.366835,448.804738 722.633165,448.804738 723.414214,449.585786 C724.195262,450.366835 724.195262,451.633165 723.414214,452.414214 L718.414214,457.414214 C717.633165,458.195262 716.366835,458.195262 715.585786,457.414214 L710.585786,452.414214 C709.804738,451.633165 709.804738,450.366835 710.585786,449.585786 C711.366835,448.804738 712.633165,448.804738 713.414214,449.585786 L715,451.171573 L715,451.171573 Z M676,450 C676,442.267548 682.267022,436 690,436 C697.732452,436 704,442.267022 704,450 C704,457.732452 697.732978,464 690,464 C682.267548,464 676,457.732978 676,450 Z M680,450 C680,455.523764 684.476612,460 690,460 C695.523764,460 700,455.523388 700,450 C700,444.476236 695.523388,440 690,440 C684.476236,440 680,444.476612 680,450 Z" transform="translate(-656 -421)"/><text x="0" y="73" fill="#000000" font-size="5px" font-weight="bold" font-family="'Helvetica Neue', Helvetica, Arial-Unicode, Arial, Sans-serif">Created by Andrejs Kirma</text><text x="0" y="78" fill="#000000" font-size="5px" font-weight="bold" font-family="'Helvetica Neue', Helvetica, Arial-Unicode, Arial, Sans-serif">from the Noun Project</text></svg>