<?xml version="1.0" encoding="utf-8"?>
<!-- Generator: Adobe Illustrator 22.1.0, SVG Export Plug-In . SVG Version: 6.00 Build 0)  -->
<svg version="1.1" id="Layer_1" xmlns="http://www.w3.org/2000/svg" xmlns:xlink="http://www.w3.org/1999/xlink" x="0px" y="0px"
	 viewBox="0 0 100 125" style="enable-background:new 0 0 100 125;" xml:space="preserve">
<title>Global warming RTE</title>
<path d="M28,46.5c0.4,0,0.8,0.1,1.2,0.3c0.5,0.3,0.9,0.6,1.4,1c0.6,0.5,1.4,0.7,2.3,0.7c0.6,0,1.1-0.1,1.7-0.4
	c0.5-0.3,1.1-0.7,1.5-1.1c0.5-0.4,1.1-0.6,1.7-0.5c0.4,0,0.8,0.1,1.2,0.3c0.5,0.3,0.9,0.6,1.4,1c0.6,0.5,1.4,0.7,2.3,0.7
	c0.6,0,1.1-0.1,1.7-0.4c0.5-0.3,1.1-0.7,1.5-1.1c0.5-0.4,1.1-0.6,1.7-0.5c0.4,0,0.8,0.1,1.2,0.3c0.5,0.3,0.9,0.6,1.4,1
	c0.6,0.5,1.4,0.7,2.3,0.7c0.6,0,1.1-0.1,1.7-0.4c0.5-0.3,1.1-0.7,1.5-1.1c0.5-0.4,1.1-0.6,1.7-0.5c0.4,0,0.8,0.1,1.2,0.3
	c0.5,0.3,0.9,0.6,1.4,1c0.6,0.5,1.4,0.7,2.3,0.7c0.3,0,0.5-0.2,0.5-0.5s-0.2-0.5-0.5-0.5c0,0,0,0,0,0c-0.4,0-0.8-0.1-1.2-0.3
	c-0.5-0.3-0.9-0.6-1.4-1c-0.6-0.5-1.4-0.7-2.3-0.7c-0.6,0-1.1,0.1-1.7,0.4c-0.5,0.3-1.1,0.7-1.5,1.1c-0.5,0.4-1.1,0.6-1.7,0.5
	c-0.4,0-0.8-0.1-1.2-0.3c-0.5-0.3-0.9-0.6-1.4-1c-0.6-0.5-1.4-0.7-2.3-0.7c-0.6,0-1.1,0.1-1.7,0.4c-0.5,0.3-1.1,0.7-1.5,1.1
	c-0.5,0.4-1.1,0.6-1.7,0.5c-0.4,0-0.8-0.1-1.2-0.3c-0.5-0.3-0.9-0.6-1.4-1c-0.6-0.5-1.4-0.7-2.3-0.7c-0.6,0-1.1,0.1-1.7,0.4
	c-0.5,0.3-1.1,0.7-1.5,1.1c-0.5,0.4-1.1,0.6-1.7,0.5c-0.4,0-0.8-0.1-1.2-0.3c-0.5-0.3-0.9-0.6-1.4-1c-0.6-0.5-1.4-0.7-2.3-0.7
	c-0.3,0-0.5,0.2-0.5,0.5S27.7,46.5,28,46.5L28,46.5z"/>
<path d="M28,50.5c0.4,0,0.8,0.1,1.2,0.3c0.5,0.3,0.9,0.6,1.4,1c0.6,0.5,1.4,0.7,2.3,0.7c0.6,0,1.1-0.1,1.7-0.4
	c0.5-0.3,1.1-0.7,1.5-1.1c0.5-0.4,1.1-0.6,1.7-0.5c0.4,0,0.8,0.1,1.2,0.3c0.5,0.3,0.9,0.6,1.4,1c0.6,0.5,1.4,0.7,2.3,0.7
	c0.6,0,1.1-0.1,1.7-0.4c0.5-0.3,1.1-0.7,1.5-1.1c0.5-0.4,1.1-0.6,1.7-0.5c0.4,0,0.8,0.1,1.2,0.3c0.5,0.3,0.9,0.6,1.4,1
	c0.6,0.5,1.4,0.7,2.3,0.7c0.6,0,1.1-0.1,1.7-0.4c0.5-0.3,1.1-0.7,1.5-1.1c0.5-0.4,1.1-0.6,1.7-0.5c0.4,0,0.8,0.1,1.2,0.3
	c0.5,0.3,0.9,0.6,1.4,1c0.6,0.5,1.4,0.7,2.3,0.7c0.3,0,0.5-0.2,0.5-0.5s-0.2-0.5-0.5-0.5c0,0,0,0,0,0c-0.4,0-0.8-0.1-1.2-0.3
	c-0.5-0.3-0.9-0.6-1.4-1c-0.6-0.5-1.4-0.7-2.3-0.7c-0.6,0-1.1,0.1-1.7,0.4c-0.5,0.3-1.1,0.7-1.5,1.1c-0.5,0.4-1.1,0.6-1.7,0.5
	c-0.4,0-0.8-0.1-1.2-0.3c-0.5-0.3-0.9-0.6-1.4-1c-0.6-0.5-1.4-0.7-2.3-0.7c-0.6,0-1.1,0.1-1.7,0.4c-0.5,0.3-1.1,0.7-1.5,1.1
	c-0.5,0.4-1.1,0.6-1.7,0.5c-0.4,0-0.8-0.1-1.2-0.3c-0.5-0.3-0.9-0.6-1.4-1c-0.6-0.5-1.4-0.7-2.3-0.7c-0.6,0-1.1,0.1-1.7,0.4
	c-0.5,0.3-1.1,0.7-1.5,1.1c-0.5,0.4-1.1,0.6-1.7,0.5c-0.4,0-0.8-0.1-1.2-0.3c-0.5-0.3-0.9-0.6-1.4-1c-0.6-0.5-1.4-0.7-2.3-0.7
	c-0.3,0-0.5,0.2-0.5,0.5S27.7,50.5,28,50.5L28,50.5z"/>
<path d="M72,50h0.5c0-2.5-2-4.5-4.5-4.5s-4.5,2-4.5,4.5s2,4.5,4.5,4.5c0,0,0,0,0,0c2.5,0,4.5-2,4.5-4.5h-1c0,1.9-1.6,3.5-3.5,3.5
	s-3.5-1.6-3.5-3.5s1.6-3.5,3.5-3.5c1.9,0,3.5,1.6,3.5,3.5L72,50z"/>
</svg>
