<?xml version="1.0" encoding="utf-8"?>
<!-- Generator: Adobe Illustrator 22.1.0, SVG Export Plug-In . SVG Version: 6.00 Build 0)  -->
<svg version="1.1" xmlns="http://www.w3.org/2000/svg" xmlns:xlink="http://www.w3.org/1999/xlink" x="0px" y="0px"
	 viewBox="0 0 128 160" style="enable-background:new 0 0 128 160;" xml:space="preserve">
<style type="text/css">
	.st0{fill:#FFFFFF;stroke:#0D0802;stroke-miterlimit:10;}
	.st1{display:none;}
	.st2{fill:#0D0802;}
</style>
<g id="Layer_4">
	<circle class="st0" cx="61.6" cy="80" r="17.2"/>
</g>
<g id="Layer_5">
	<path class="st1" d="M48.4,68.9c3.8-0.7,8.2-1.1,12.9-1.1c4.9,0,9.3,0.4,13.2,1.1c-1.1-1.3-2.4-2.4-3.8-3.3c-3-0.4-6.1-0.5-9.3-0.5
		c-3.2,0-6.3,0.2-9.3,0.5C50.7,66.5,49.5,67.6,48.4,68.9z"/>
	<path class="st2" d="M68.4,88.6c-0.7,0.1-1.3,0.7-1.2,1.4c0.1,0.7,0.7,1.3,1.4,1.2c2.3-0.2,4.5-0.5,6.6-0.9c0.7-0.9,1.3-2,1.8-3
		C74.4,87.9,71.5,88.4,68.4,88.6z"/>
	<path class="st2" d="M83.9,68.6c-3.7-1.4-8.3-2.5-13.2-3.1c1.4,0.9,2.7,2,3.8,3.3c10.2,1.9,16.6,5.8,16.6,9.5c0,3.6-5.7,7-14.1,8.9
		c-0.5,1.1-1.1,2.1-1.8,3c11.3-2.1,18.4-6.7,18.4-12C93.9,74.6,90.4,71.1,83.9,68.6z"/>
	<path class="st2" d="M53.3,92.4c-0.6,0.4-0.7,1.2-0.3,1.9c0.3,0.4,0.7,0.6,1.1,0.6c0.3,0,0.5-0.1,0.7-0.2l4.8-3.4
		c0.4-0.3,0.6-0.7,0.6-1.1c0-0.4-0.2-0.9-0.6-1.1l-4.8-3.1c-0.6-0.4-1.4-0.2-1.9,0.4c-0.4,0.6-0.2,1.4,0.4,1.9l0.6,0.4
		c-2.9-0.3-5.6-0.7-8-1.3c0.5,1.1,1.1,2.1,1.8,3c2.2,0.4,4.6,0.7,7.1,0.9L53.3,92.4z"/>
	<path class="st2" d="M31.5,78.4c0-3.6,6.5-7.6,16.9-9.5c1.1-1.3,2.4-2.4,3.8-3.3c-4.9,0.6-9.5,1.6-13.2,3.1c-6.5,2.5-10,6-10,9.7
		c0,5.4,7.4,10,18.8,12.1c-0.7-0.9-1.3-1.9-1.8-3C36.7,85.3,31.5,81.6,31.5,78.4z"/>
</g>
</svg>
