<?xml version="1.0" encoding="utf-8"?>
<!-- Generator: Adobe Illustrator 22.1.0, SVG Export Plug-In . SVG Version: 6.00 Build 0)  -->
<svg version="1.1" id="Layer_1" xmlns="http://www.w3.org/2000/svg" xmlns:xlink="http://www.w3.org/1999/xlink" x="0px" y="0px"
	 viewBox="0 0 100 125" style="enable-background:new 0 0 100 125;" xml:space="preserve">
<style type="text/css">
	.st0{display:none;fill:#D9E5ED;stroke:#0D0802;stroke-width:0.65;stroke-miterlimit:10;}
	.st1{fill:#0D0802;}
</style>
<circle class="st0" cx="49.9" cy="51.3" r="20.9"/>
<path class="st1" d="M56.1,65.3h3.4c1.3,0,2.3-1,2.3-2.3V39.6c0-1.3-1-2.3-2.3-2.3h-3.4c0,0.9-0.8,1.7-1.7,1.7h-8.8
	c-0.9,0-1.7-0.8-1.7-1.7h-3.4c-1.3,0-2.3,1-2.3,2.3V63c0,1.3,1,2.3,2.3,2.3h3.4c0-0.9,0.8-1.7,1.7-1.7h8.7
	C55.3,63.6,56.1,64.4,56.1,65.3z M39.7,39.7c0-0.5,0.4-0.9,0.9-0.9s0.9,0.4,0.9,0.9s-0.4,0.9-0.9,0.9S39.7,40.1,39.7,39.7z
	 M58.4,39.7c0-0.5,0.4-0.9,0.9-0.9s0.9,0.4,0.9,0.9s-0.4,0.9-0.9,0.9C58.7,40.5,58.4,40.1,58.4,39.7z M55.7,59.8v-1.5h-0.9v1.5h-1.2
	v-1.5h-0.9v1.5h-1.2v-1.5h-0.9v1.5h-1.2v-1.5h-0.9v1.5h-1.2v-1.5h-0.9v1.5H45v-1.5h-0.9v1.5h-1.2v-1.5v-14v-1.5h1.2v1.5H45v-1.5h1.2
	v1.5h0.9v-1.5h1.2v1.5h0.9v-1.5h1.2v1.5h0.9v-1.5h1.2v1.5h0.9v-1.5h1.2v1.5h0.9v-1.5h1.2v1.5v14v1.5C56.9,59.8,55.7,59.8,55.7,59.8z
	 M40.6,63.7c-0.5,0-0.9-0.4-0.9-0.9s0.4-0.9,0.9-0.9s0.9,0.4,0.9,0.9S41.1,63.7,40.6,63.7z M58.4,62.9c0-0.5,0.4-0.9,0.9-0.9
	s0.9,0.4,0.9,0.9s-0.4,0.9-0.9,0.9C58.7,63.7,58.4,63.3,58.4,62.9z M52.8,56.2c0.3-0.2,0.8-0.7,0.8-1.7c0-0.4-0.1-0.8-0.1-1.2
	c1.4-0.4,2.2-1.2,2.2-2s-0.9-1.6-2.2-2c0.1-0.4,0.1-0.9,0.1-1.2c0-1.1-0.4-1.5-0.7-1.7c-0.6-0.4-1.5-0.1-2.4,0.5
	c-0.1,0.1-0.3,0.3-0.5,0.4c-0.1-0.1-0.3-0.3-0.5-0.4c-0.9-0.7-1.8-0.9-2.4-0.5c-0.3,0.2-0.8,0.7-0.8,1.7c0,0.4,0.1,0.8,0.1,1.2
	c-1.4,0.4-2.2,1.2-2.2,2s0.9,1.6,2.2,2c-0.1,0.4-0.1,0.9-0.1,1.2c0,1.1,0.4,1.5,0.8,1.7c0.6,0.4,1.5,0.1,2.5-0.7
	c0.1-0.1,0.3-0.2,0.4-0.3c0.1,0.1,0.3,0.2,0.4,0.3C51.3,56.3,52.1,56.6,52.8,56.2z M47.1,48c0-0.5,0.1-0.9,0.4-1.1
	c0.4-0.2,1.1,0.1,1.9,0.8c-0.3,0.3-0.6,0.7-0.8,1.1c-0.5,0-0.9,0.1-1.3,0.2C47.1,48.7,47.1,48.4,47.1,48z M49.6,48.8
	c0.1-0.1,0.3-0.3,0.4-0.4c0.1,0.1,0.3,0.3,0.4,0.4c-0.1,0-0.3,0-0.4,0S49.7,48.8,49.6,48.8z M51.3,48.9c-0.3-0.4-0.5-0.7-0.8-1.1
	c0.8-0.8,1.6-1.1,1.9-0.8c0.2,0.1,0.4,0.5,0.4,1.1c0,0.3,0,0.7-0.1,1.1C52.2,49,51.8,48.9,51.3,48.9z M51.8,52.8
	c0.1-0.1,0.1-0.2,0.2-0.3c0.1-0.1,0.1-0.2,0.2-0.3c0.1,0.2,0.1,0.4,0.2,0.5C52.2,52.8,52.1,52.8,51.8,52.8z M54.9,51.3
	c0,0.4-0.6,0.9-1.7,1.2c-0.1-0.4-0.3-0.8-0.5-1.2c0.2-0.4,0.4-0.8,0.5-1.2C54.2,50.4,54.9,50.9,54.9,51.3z M52.4,49.8
	c-0.1,0.2-0.1,0.4-0.2,0.5c-0.1-0.1-0.1-0.2-0.2-0.3c-0.1-0.1-0.1-0.2-0.2-0.3C52.1,49.7,52.2,49.8,52.4,49.8z M48,49.7
	c-0.1,0.1-0.1,0.2-0.2,0.3c-0.1,0.1-0.1,0.2-0.2,0.3c-0.1-0.2-0.1-0.4-0.2-0.5C47.6,49.8,47.8,49.7,48,49.7z M45,51.3
	c0-0.4,0.6-0.9,1.7-1.2c0.1,0.4,0.3,0.8,0.5,1.2c-0.2,0.4-0.4,0.8-0.5,1.2C45.6,52.2,45,51.7,45,51.3z M47.4,52.7
	c0.1-0.2,0.1-0.4,0.2-0.5c0.1,0.1,0.1,0.2,0.2,0.3c0.1,0.1,0.1,0.2,0.2,0.3C47.8,52.8,47.6,52.8,47.4,52.7z M49,52.9
	c-0.2-0.3-0.4-0.5-0.5-0.8s-0.3-0.6-0.4-0.8c0.1-0.3,0.3-0.6,0.4-0.8c0.2-0.3,0.3-0.5,0.5-0.8c0.3,0,0.6,0,0.9,0s0.7,0,0.9,0
	c0.2,0.3,0.3,0.5,0.5,0.8c0.1,0.3,0.3,0.6,0.4,0.8c-0.1,0.3-0.3,0.6-0.4,0.8c-0.1,0.3-0.3,0.5-0.5,0.8c-0.3,0-0.6,0-0.9,0
	S49.3,52.9,49,52.9z M47.5,55.5c-0.2-0.1-0.4-0.5-0.4-1.1c0-0.3,0-0.7,0.1-1.1c0.4,0.1,0.8,0.1,1.3,0.2c0.3,0.4,0.5,0.7,0.8,1
	c-0.1,0.1-0.2,0.2-0.3,0.3C48.4,55.5,47.8,55.7,47.5,55.5z M50.3,53.7c-0.1,0.1-0.3,0.3-0.4,0.4c-0.1-0.1-0.3-0.3-0.4-0.4
	c0.1,0,0.3,0,0.4,0S50.2,53.7,50.3,53.7z M50.8,55c-0.1-0.1-0.2-0.2-0.3-0.3c0.3-0.3,0.5-0.7,0.8-1c0.5,0,0.9-0.1,1.3-0.2
	c0.1,0.4,0.1,0.7,0.1,1.1c0,0.5-0.1,0.9-0.4,1.1C52.1,55.7,51.5,55.5,50.8,55z"/>
</svg>
