<?xml version="1.0" encoding="utf-8"?>
<!-- Generator: Adobe Illustrator 22.1.0, SVG Export Plug-In . SVG Version: 6.00 Build 0)  -->
<svg version="1.1" id="Layer_1" xmlns="http://www.w3.org/2000/svg" xmlns:xlink="http://www.w3.org/1999/xlink" x="0px" y="0px"
	 viewBox="0 0 66 70" style="enable-background:new 0 0 66 70;" xml:space="preserve">
<style type="text/css">
	.st0{display:none;fill:#D9E5ED;stroke:#0D0802;stroke-width:0.65;stroke-miterlimit:10;}
	.st1{fill:#FFFFFF;}
	.st2{fill:#0D0802;}
</style>
<circle class="st0" cx="33" cy="28" r="20.9"/>
<circle class="st1" cx="33" cy="28" r="6"/>
<path class="st2" d="M26.4,28c0-3.6,2.9-6.6,6.6-6.6c3.6,0,6.6,2.9,6.6,6.6c0,3.6-2.9,6.6-6.6,6.6C29.4,34.6,26.4,31.6,26.4,28z
	 M27.5,28c0,3.1,2.5,5.5,5.5,5.5c3.1,0,5.5-2.5,5.5-5.5c0-3.1-2.5-5.5-5.5-5.5C29.9,22.5,27.5,24.9,27.5,28z M19.9,26.2V28
	c0,7.2,5.9,13.1,13.1,13.1c0.3,0,0.5,0.2,0.5,0.5s-0.2,0.5-0.5,0.5c-7.8,0-14.1-6.3-14.1-14.1v-1.8l-1.7,1.7c-0.2,0.2-0.5,0.2-0.7,0
	s-0.2-0.5,0-0.7l2.5-2.5c0.2-0.2,0.5-0.2,0.7,0l2.5,2.5c0.2,0.2,0.2,0.5,0,0.7s-0.5,0.2-0.7,0L19.9,26.2z M46.1,29.8V28
	c0-7.2-5.9-13.1-13.1-13.1c-0.3,0-0.5-0.2-0.5-0.5s0.2-0.5,0.5-0.5c7.8,0,14.1,6.3,14.1,14.1v1.8l1.7-1.7c0.2-0.2,0.5-0.2,0.7,0
	s0.2,0.5,0,0.7L47,31.4c-0.2,0.2-0.5,0.2-0.7,0l-2.5-2.5c-0.2-0.2-0.2-0.5,0-0.7s0.5-0.2,0.7,0L46.1,29.8L46.1,29.8z"/>
</svg>
