<?xml version="1.0" encoding="utf-8"?>
<!-- Generator: Adobe Illustrator 22.1.0, SVG Export Plug-In . SVG Version: 6.00 Build 0)  -->
<svg version="1.1" id="Layer_1" xmlns="http://www.w3.org/2000/svg" xmlns:xlink="http://www.w3.org/1999/xlink" x="0px" y="0px"
	 viewBox="0 0 52.4 44" style="enable-background:new 0 0 52.4 44;" xml:space="preserve">
<style type="text/css">
	.st0{display:none;fill:#D9E5ED;stroke:#0D0802;stroke-width:0.65;stroke-miterlimit:10;}
	.st1{fill:#0D0802;}
</style>
<circle class="st0" cx="25.9" cy="21.6" r="20.9"/>
<g>
	<path class="st1" d="M29.9,33.1h-8c-0.6,0-1-0.4-1-1c0-0.6,0.4-1,1-1h8c0.6,0,1,0.4,1,1C30.9,32.6,30.4,33.1,29.9,33.1z"/>
	<path class="st1" d="M25.9,40.1c-2.8,0-5-2.2-5-5c0-0.4,0-0.8,0-1.2c0-2.5,0-3.6-3.6-9.9c0,0,0-0.1-0.1-0.1
		c-0.8-1.5-1.3-3.8-1.3-5.8c0-5.7,4.3-10,10-10s10,4.3,10,10c0,2-0.5,4.3-1.3,5.8c0,0,0,0.1-0.1,0.1c-3.5,6.3-3.6,7.3-3.6,9.9
		c0,0.4,0,0.8,0,1.2C30.9,37.8,28.6,40.1,25.9,40.1z M19.1,23.2c3.7,6.6,3.7,7.9,3.8,10.7c0,0.4,0,0.7,0,1.2c0,1.7,1.3,3,3,3
		s3-1.3,3-3l0,0c0-0.4,0-0.8,0-1.2c0-2.8,0-4.1,3.8-10.7c0,0,0-0.1,0.1-0.1c0.7-1.2,1.2-3.2,1.2-5c0-4.6-3.4-8-8-8s-8,3.4-8,8
		c0,1.7,0.5,3.8,1.2,5C19.1,23.1,19.1,23.1,19.1,23.2z"/>
	<path class="st1" d="M25.9,29L25.9,29c-0.4,0-0.7-0.2-0.9-0.5l-2.3-4.1c-0.4-0.7-0.6-1.4-0.6-2.2c0-2.3,1.7-4.1,3.8-4.1
		s3.8,1.9,3.8,4.1c0,0.8-0.2,1.5-0.6,2.2l-2.3,4.1C26.6,28.8,26.2,29,25.9,29z M25.9,20.1c-1,0-1.8,1-1.8,2.1c0,0.4,0.1,0.8,0.3,1.2
		l0,0l1.4,2.6l1.5-2.6c0.2-0.4,0.3-0.8,0.3-1.2C27.6,21,26.8,20.1,25.9,20.1z"/>
	<path class="st1" d="M25.9,33.1c-0.6,0-1-0.4-1-1V28c0-0.6,0.4-1,1-1l0,0c0.6,0,1,0.4,1,1v4.1C26.9,32.6,26.4,33.1,25.9,33.1
		L25.9,33.1z"/>
	<path class="st1" d="M12.9,19.1h-2c-0.6,0-1-0.4-1-1s0.4-1,1-1h2c0.6,0,1,0.4,1,1S13.4,19.1,12.9,19.1z"/>
	<path class="st1" d="M40.9,19.1h-2c-0.6,0-1-0.4-1-1s0.4-1,1-1h2c0.6,0,1,0.4,1,1S41.4,19.1,40.9,19.1z"/>
	<path class="st1" d="M14.3,13.2c-0.2,0-0.3,0-0.4-0.1L12,12.2c-0.5-0.2-0.7-0.8-0.4-1.3c0.2-0.5,0.8-0.7,1.3-0.4l1.8,0.9
		c0.5,0.2,0.7,0.8,0.4,1.3C15,13,14.6,13.2,14.3,13.2z"/>
	<path class="st1" d="M39.3,25.8c-0.2,0-0.3,0-0.4-0.1L37,24.8c-0.5-0.2-0.7-0.8-0.4-1.3c0.2-0.5,0.8-0.7,1.3-0.4l1.8,0.9
		c0.5,0.2,0.7,0.8,0.4,1.3C40,25.6,39.6,25.8,39.3,25.8z"/>
	<path class="st1" d="M12.5,25.8c-0.4,0-0.7-0.2-0.9-0.6c-0.2-0.5,0-1.1,0.4-1.3l1.8-0.9c0.5-0.2,1.1,0,1.3,0.4
		c0.2,0.5,0,1.1-0.4,1.3l-1.8,0.9C12.8,25.8,12.6,25.8,12.5,25.8z"/>
	<path class="st1" d="M37.5,13.2c-0.4,0-0.7-0.2-0.9-0.6c-0.2-0.5,0-1.1,0.4-1.3l1.8-0.9c0.5-0.2,1.1,0,1.3,0.4
		c0.2,0.5,0,1.1-0.4,1.3L37.9,13C37.8,13.2,37.6,13.2,37.5,13.2z"/>
</g>
</svg>
