<?xml version="1.0" encoding="utf-8"?>
<!-- Generator: Adobe Illustrator 22.1.0, SVG Export Plug-In . SVG Version: 6.00 Build 0)  -->
<svg version="1.1" id="Layer_1" focusable="false" xmlns="http://www.w3.org/2000/svg" xmlns:xlink="http://www.w3.org/1999/xlink"
	 x="0px" y="0px" viewBox="0 0 70.1 18.6" style="enable-background:new 0 0 70.1 18.6;" xml:space="preserve">
<g transform="matrix(1 0 0 -1 0 0)">
	<g>
		<path id="MJMAIN-28" d="M1.3-10.6c0,0.6,0,1.2,0.1,1.8c0.1,0.6,0.2,1.1,0.3,1.5s0.3,0.8,0.5,1.2c0.2,0.4,0.4,0.7,0.5,0.9
			c0.1,0.2,0.3,0.5,0.6,0.7S3.8-4,3.9-3.9S4-3.8,4.2-3.7h0.2h0.1c0.1,0,0.2,0,0.2-0.1c0,0-0.1-0.1-0.2-0.3C4.2-4.2,4.1-4.5,3.8-4.8
			C3.6-5.1,3.4-5.5,3.1-6C2.9-6.5,2.7-7.1,2.6-7.9c-0.2-0.8-0.2-1.7-0.2-2.7s0.1-1.9,0.2-2.7c0.2-0.8,0.3-1.4,0.6-1.9
			c0.2-0.5,0.5-0.9,0.7-1.2c0.2-0.3,0.4-0.6,0.6-0.7c0.2-0.2,0.2-0.3,0.2-0.3c0-0.1-0.1-0.1-0.2-0.1h0H4.2l-0.4,0.3
			c-0.9,0.8-1.5,1.8-1.9,3S1.3-11.9,1.3-10.6z"/>
	</g>
	<g>
		<path id="MJMAIN-31" d="M8.4-6L8.2-6.1c-0.1,0-0.3-0.1-0.6-0.1S7.1-6.3,6.8-6.4H6.6v0.6h0.3c0.4,0,0.8,0.1,1.2,0.2
			c0.4,0.1,0.6,0.2,0.8,0.3C9-5.1,9.1-5,9.2-4.9c0,0,0.1,0,0.2,0c0.1,0,0.2,0,0.2-0.1v-4.2l0-4.2c0.1-0.1,0.1-0.1,0.2-0.1
			c0,0,0.2,0,0.3-0.1c0.2,0,0.5,0,0.9,0h0.4v-0.6h-0.2c-0.2,0-0.9,0-2.2,0c-1.3,0-2,0-2.2,0H6.6v0.6H7c0.2,0,0.4,0,0.5,0
			c0.1,0,0.3,0,0.3,0c0.1,0,0.2,0,0.2,0c0.1,0,0.1,0,0.1,0s0,0,0.1,0.1s0.1,0.1,0.1,0.1V-6z"/>
	</g>
	<g>
		<path id="MJMAIN-2B" d="M16.3-10.8c0,0,0,0.1,0,0.2s0.1,0.2,0.2,0.3h4.2v2.1l0,2.1C20.7-6,20.8-6,20.9-6C21-6,21.1-6,21.2-6.2
			v-4.2h4.2c0.1-0.1,0.2-0.2,0.2-0.3s-0.1-0.2-0.2-0.3h-4.2V-15c-0.1-0.1-0.2-0.2-0.3-0.2h0h0c-0.1,0-0.2,0.1-0.3,0.2v4.2h-4.2
			c-0.1,0.1-0.2,0.2-0.2,0.3V-10.8z"/>
	</g>
	<g transform="translate(2112,0)">
		<g>
			<path id="MJMATHI-74" d="M-2082.2-8.7c-0.1,0.1-0.1,0.1-0.1,0.1c0,0,0,0.1,0,0.2s0.1,0.2,0.1,0.2c0,0,0.1,0.1,0.1,0.1
				c0.1,0,0.3,0,0.7,0h0.7l0.3,1.1c0,0.1,0.1,0.2,0.1,0.4c0,0.2,0.1,0.3,0.1,0.4s0.1,0.2,0.1,0.3c0,0.1,0.1,0.2,0.1,0.2
				c0,0,0.1,0.1,0.1,0.2c0,0.1,0.1,0.1,0.2,0.1c0.1,0,0.2,0,0.3,0c0.2,0,0.3-0.1,0.3-0.2c0.1-0.1,0.1-0.2,0.1-0.3
				c0-0.1,0-0.3-0.1-0.7c-0.1-0.4-0.2-0.7-0.3-1.1l-0.1-0.5c0,0,0.2,0,0.7,0h0.7c0.1-0.1,0.1-0.1,0.1-0.2c0-0.2-0.1-0.4-0.2-0.5
				h-1.5l-0.5-2c-0.4-1.5-0.5-2.3-0.5-2.4c0-0.4,0.1-0.6,0.4-0.6c0.3,0,0.6,0.2,0.9,0.5s0.6,0.7,0.7,1.2c0,0.1,0,0.1,0.1,0.1
				c0,0,0.1,0,0.2,0h0.1c0.1,0,0.2,0,0.2-0.1c0,0,0-0.1,0-0.2c0-0.1-0.1-0.3-0.3-0.5c-0.1-0.2-0.3-0.4-0.5-0.7s-0.4-0.4-0.7-0.6
				c-0.3-0.2-0.6-0.2-0.9-0.2c-0.3,0-0.5,0.1-0.8,0.2c-0.3,0.1-0.4,0.4-0.5,0.7c0,0.1,0,0.2,0,0.4v0.3l0.5,2c0.3,1.3,0.5,2,0.5,2
				c0,0-0.2,0-0.7,0H-2082.2z"/>
		</g>
		<g transform="scale(0.707)">
			<path id="MJMAIN-32" d="M-2076.5-4.1c-0.2,0-0.3,0.1-0.4,0.2c-0.1,0.1-0.2,0.3-0.2,0.4c0,0.5,0.2,0.9,0.5,1.2s0.8,0.5,1.3,0.5
				c0.6,0,1.1-0.2,1.5-0.6s0.6-0.8,0.6-1.4c0-0.3-0.1-0.6-0.2-0.8c-0.1-0.3-0.3-0.5-0.5-0.7s-0.4-0.4-0.8-0.7
				c-0.2-0.2-0.6-0.5-1-0.9l-0.6-0.6l0.7,0c1,0,1.6,0,1.6,0c0,0,0.1,0.3,0.2,0.9v0h0.4v0c0,0,0-0.3-0.1-0.9
				c-0.1-0.6-0.1-0.9-0.1-0.9v0h-3.7v0.2v0.1c0,0,0,0.1,0.1,0.1c0,0.1,0.1,0.2,0.3,0.3c0.2,0.2,0.4,0.4,0.5,0.6
				c0.1,0.1,0.2,0.2,0.3,0.4c0.2,0.2,0.3,0.3,0.3,0.4c0.1,0.1,0.2,0.2,0.3,0.3s0.2,0.3,0.3,0.3c0.1,0.1,0.1,0.2,0.2,0.3
				c0.1,0.1,0.2,0.2,0.2,0.3c0,0.1,0.1,0.2,0.1,0.3c0.1,0.1,0.1,0.2,0.1,0.3c0,0.1,0,0.2,0.1,0.3c0,0.1,0,0.2,0,0.3
				c0,0.4-0.1,0.8-0.3,1.1c-0.2,0.3-0.5,0.5-1,0.5c-0.2,0-0.4-0.1-0.6-0.2s-0.3-0.2-0.3-0.3c-0.1-0.1-0.1-0.2-0.1-0.2c0,0,0,0,0,0
				c0.1,0,0.2,0,0.4-0.1s0.2-0.2,0.2-0.5c0-0.2-0.1-0.3-0.2-0.4C-2076.1-4.1-2076.3-4.1-2076.5-4.1z"/>
		</g>
	</g>
	<g transform="translate(2928,0)">
		<g>
			<path id="MJMAIN-29" d="M-2886.4-3.7L-2886.4-3.7c0.1,0,0.1,0,0.2,0h0.2l0.4-0.3c0.9-0.8,1.5-1.8,1.9-3c0.4-1.2,0.6-2.4,0.6-3.7
				c0-0.6,0-1.2-0.1-1.8c-0.1-0.6-0.2-1.1-0.3-1.5c-0.1-0.4-0.3-0.8-0.5-1.2c-0.2-0.4-0.4-0.7-0.5-0.9c-0.1-0.2-0.3-0.5-0.6-0.7
				c-0.3-0.3-0.4-0.4-0.4-0.5c0,0-0.2-0.1-0.3-0.3c0,0,0,0-0.1-0.1h-0.2c-0.1,0-0.1,0-0.2,0s-0.1,0-0.1,0c0,0,0,0.1,0,0.1
				c0,0,0.1,0.1,0.2,0.2c1.4,1.5,2.2,3.7,2.2,6.6s-0.7,5.1-2.2,6.6c-0.1,0.1-0.1,0.2-0.2,0.2C-2886.4-3.7-2886.4-3.7-2886.4-3.7z"/>
		</g>
		<g transform="translate(389,412)">
			<g transform="scale(0.707)">
				<path id="MJMAIN-2212" d="M-3269.9-418c0,0,0,0,0,0.1s0,0.2,0.1,0.2h5.7c0.1-0.1,0.1-0.1,0.1-0.2c0-0.1,0-0.1-0.1-0.2h-5.7
					c-0.1,0-0.1,0.1-0.1,0.2V-418z"/>
			</g>
			<g transform="scale(0.707)">
				<path id="MJMAIN-33" d="M-3261.9-415.8c-0.2,0-0.3,0.1-0.4,0.2c-0.1,0.1-0.2,0.3-0.2,0.4c0,0.4,0.2,0.7,0.5,1
					c0.3,0.3,0.7,0.4,1.1,0.4c0.2,0,0.4,0,0.4,0c0.5-0.1,0.9-0.3,1.1-0.5c0.3-0.3,0.4-0.6,0.4-0.9c0-0.3-0.1-0.7-0.3-1
					c-0.2-0.3-0.5-0.6-0.9-0.7l0,0c0,0,0,0,0.1,0c0.1,0,0.2,0,0.3-0.1c0.1,0,0.3-0.1,0.4-0.2c0.5-0.3,0.8-0.8,0.8-1.4
					c0-0.5-0.2-1-0.6-1.4s-0.9-0.6-1.5-0.6c-0.5,0-1,0.1-1.4,0.4c-0.4,0.3-0.6,0.6-0.6,1.1c0,0.2,0.1,0.3,0.2,0.4s0.3,0.2,0.4,0.2
					c0.2,0,0.3-0.1,0.5-0.2c0.1-0.1,0.2-0.3,0.2-0.4c0-0.1,0-0.1,0-0.2c0-0.1,0-0.1-0.1-0.2c0,0-0.1-0.1-0.1-0.1
					c0,0-0.1-0.1-0.1-0.1c0,0-0.1,0-0.1,0c0,0-0.1,0-0.1,0l0,0c0.3-0.3,0.7-0.4,1.2-0.4c0.4,0,0.6,0.2,0.8,0.5
					c0.1,0.2,0.2,0.5,0.2,1v0.2c0,0.6-0.2,1-0.6,1.3c-0.1,0-0.3,0.1-0.6,0.1l-0.4,0l0,0c0,0,0,0.1,0,0.2c0,0.1,0,0.2,0.1,0.2
					c0.2,0,0.4,0,0.6,0c0.2,0,0.4,0.2,0.6,0.4c0.2,0.2,0.3,0.6,0.3,1.1v0.1c0,0.4-0.1,0.6-0.3,0.8c-0.1,0.1-0.3,0.1-0.5,0.1
					c-0.2,0-0.4,0-0.6-0.1c-0.2-0.1-0.3-0.1-0.4-0.2c-0.1-0.1-0.1-0.1-0.1-0.1h0c0,0,0,0,0.1,0c0,0,0.1,0,0.1,0s0.1,0,0.1-0.1
					c0,0,0.1-0.1,0.1-0.1s0-0.1,0.1-0.1c0,0,0-0.1,0-0.2c0-0.1,0-0.3-0.1-0.4C-3261.5-415.7-3261.7-415.8-3261.9-415.8z"/>
			</g>
			<g transform="scale(0.707)">
				<path id="MJMAIN-2F" d="M-3254-413c0.1,0,0.1,0,0.1-0.1c0,0,0.1-0.1,0.1-0.1c0,0-0.6-1.6-1.7-4.7c-1.1-3.1-1.7-4.7-1.8-4.8
					c0-0.1-0.1-0.1-0.2-0.1c0,0-0.1,0-0.1,0s-0.1,0.1-0.1,0.1c0,0.1,0.6,1.7,1.7,4.8c1.1,3.1,1.7,4.7,1.7,4.8
					C-3254.1-413-3254.1-413-3254-413z"/>
			</g>
			<g transform="scale(0.707)">
				<path id="MJMAIN-32_1_" d="M-3252.2-416.1c-0.2,0-0.3,0.1-0.4,0.2c-0.1,0.1-0.2,0.3-0.2,0.4c0,0.5,0.2,0.9,0.5,1.2
					c0.3,0.3,0.8,0.5,1.3,0.5c0.6,0,1.1-0.2,1.5-0.6s0.6-0.8,0.6-1.4c0-0.3-0.1-0.6-0.2-0.8s-0.3-0.5-0.5-0.7
					c-0.2-0.2-0.4-0.4-0.8-0.7c-0.2-0.2-0.6-0.5-1-0.9l-0.6-0.6l0.7,0c1,0,1.6,0,1.6,0c0,0,0.1,0.3,0.2,0.9v0h0.4v0
					c0,0,0-0.3-0.1-0.9c-0.1-0.6-0.1-0.9-0.1-0.9v0h-3.7v0.2v0.1c0,0,0,0.1,0.1,0.1c0,0.1,0.1,0.2,0.3,0.3c0.2,0.2,0.4,0.4,0.5,0.6
					c0.1,0.1,0.2,0.2,0.3,0.4c0.2,0.2,0.3,0.3,0.3,0.4c0.1,0.1,0.2,0.2,0.3,0.3c0.1,0.2,0.2,0.3,0.3,0.3c0.1,0.1,0.1,0.2,0.2,0.3
					c0.1,0.1,0.2,0.2,0.2,0.3c0,0.1,0.1,0.2,0.1,0.3c0.1,0.1,0.1,0.2,0.1,0.3c0,0.1,0,0.2,0.1,0.3s0,0.2,0,0.3
					c0,0.4-0.1,0.8-0.3,1.1c-0.2,0.3-0.5,0.5-1,0.5c-0.2,0-0.4-0.1-0.6-0.2c-0.2-0.1-0.3-0.2-0.3-0.3s-0.1-0.2-0.1-0.2c0,0,0,0,0,0
					c0.1,0,0.2,0,0.4-0.1c0.1-0.1,0.2-0.2,0.2-0.5c0-0.2-0.1-0.3-0.2-0.4C-3251.8-416.1-3252-416.1-3252.2-416.1z"/>
			</g>
		</g>
	</g>
</g>
</svg>
