<?xml version="1.0" encoding="utf-8"?>
<!-- Generator: Adobe Illustrator 22.1.0, SVG Export Plug-In . SVG Version: 6.00 Build 0)  -->
<svg version="1.1" id="Layer_1" focusable="false" xmlns="http://www.w3.org/2000/svg" xmlns:xlink="http://www.w3.org/1999/xlink"
	 x="0px" y="0px" viewBox="0 0 17 14.1" style="enable-background:new 0 0 17 14.1;" xml:space="preserve">
<g transform="matrix(1 0 0 -1 0 0)">
	<g>
		<path id="MJMATHI-43" d="M0.7-7.6c0,1.1,0.3,2.1,0.9,3.1S3-2.8,4-2.2s1.9,0.9,2.8,0.9c0.8,0,1.5-0.2,2-0.7C8.9-2.1,9-2.2,9-2.3
			s0.1-0.1,0.1-0.1l0,0c0,0,0.2,0.1,0.4,0.4C9.6-2,9.7-2,9.7-1.9C9.8-1.8,9.9-1.8,10-1.7c0.1,0.1,0.1,0.1,0.1,0.2l0.2,0.2h0.1
			c0.1,0,0.2,0,0.2-0.1c0,0-0.1-0.7-0.4-1.9c-0.3-1.3-0.5-1.9-0.5-2c0,0,0-0.1-0.1-0.1c0,0-0.1,0-0.3,0H9.1C9-5.3,9-5.3,9-5.3
			c0,0,0,0,0,0.1c0,0.1,0,0.1,0,0.3c0,0.1,0,0.3,0,0.4c0,0.7-0.1,1.2-0.4,1.7S7.8-2,7.1-2C6.9-2,6.6-2,6.3-2.1
			C6-2.1,5.7-2.2,5.3-2.4C4.9-2.5,4.5-2.8,4.2-3.2C3.8-3.5,3.4-4,3.1-4.5C2.9-5,2.6-5.6,2.4-6.3C2.3-7,2.2-7.6,2.2-8
			c0-1.1,0.4-1.8,1.1-2.3c0.4-0.3,1-0.5,1.6-0.5c0.8,0,1.6,0.3,2.3,0.9c0.7,0.6,1.1,1.3,1.3,2.1c0,0.1,0.1,0.2,0.1,0.2s0.1,0,0.2,0
			c0.2,0,0.3,0,0.3-0.1c0,0,0-0.1,0-0.1c-0.3-1-0.8-1.8-1.7-2.6c-0.9-0.7-1.8-1.1-2.8-1.1c-1,0-1.9,0.3-2.7,1
			C1.1-9.7,0.7-8.8,0.7-7.6z"/>
	</g>
	<g transform="scale(0.707)">
		<path id="MJMATHI-3BA" d="M10.8-13.3c-0.1,0-0.2,0-0.2,0.1s-0.1,0.1-0.1,0.1c0,0,0,0.1,0,0.1c0,0.1,0.2,0.7,0.5,2
			c0.3,1.2,0.5,1.9,0.5,1.9c0.1,0.2,0.2,0.3,0.5,0.3c0.1,0,0.1,0,0.2-0.1c0.1,0,0.1-0.1,0.1-0.1c0,0,0-0.1,0-0.1
			c0-0.1-0.1-0.3-0.2-0.7l-0.2-0.7c0,0,0.1,0,0.2,0.1c0.1,0.1,0.2,0.1,0.3,0.1c0.1,0.1,0.3,0.3,0.7,0.6c0.4,0.3,0.7,0.5,0.9,0.6
			S14.3-9,14.6-9c0.1,0,0.3,0,0.3-0.1C15-9.2,15-9.3,15-9.4c0-0.2-0.1-0.3-0.2-0.4c-0.1-0.1-0.3-0.2-0.4-0.2c-0.1,0-0.2,0-0.3,0.1
			C14-9.8,14-9.7,14-9.6c0,0,0,0.1,0,0.1l-0.1,0c-0.2-0.1-0.5-0.3-0.8-0.6l-0.6-0.5l-0.1-0.1h0c0.1,0,0.3,0,0.5-0.1
			c0.2,0,0.5-0.1,0.7-0.2c0.4-0.2,0.6-0.4,0.6-0.8c0-0.1,0-0.2,0-0.4c0-0.2-0.1-0.3-0.1-0.5c0-0.3,0.1-0.4,0.3-0.4
			c0.3,0,0.6,0.4,0.7,1.1c0,0.1,0,0.1,0.1,0.1c0,0,0.1,0,0.2,0c0.1,0,0.2,0,0.2-0.1c0-0.2-0.1-0.4-0.3-0.8s-0.4-0.6-0.7-0.7
			c-0.1,0-0.2,0-0.3,0c-0.3,0-0.5,0.1-0.7,0.3c-0.2,0.2-0.3,0.4-0.3,0.7c0,0.1,0,0.2,0,0.3s0,0.2,0,0.2c0,0.2-0.1,0.3-0.2,0.4
			c-0.1,0.1-0.3,0.2-0.5,0.2c-0.2,0-0.4,0.1-0.5,0.1c-0.1,0-0.2,0-0.4,0h0l-0.2-1c-0.2-0.7-0.3-1-0.3-1C11.1-13.3,11-13.3,10.8-13.3
			z"/>
	</g>
</g>
</svg>
