<?xml version="1.0" encoding="utf-8"?>
<!-- Generator: Adobe Illustrator 22.1.0, SVG Export Plug-In . SVG Version: 6.00 Build 0)  -->
<svg version="1.1" id="Layer_1" focusable="false" xmlns="http://www.w3.org/2000/svg" xmlns:xlink="http://www.w3.org/1999/xlink"
	 x="0px" y="0px" viewBox="0 0 63.5 16.3" style="enable-background:new 0 0 63.5 16.3;" xml:space="preserve">
<g transform="matrix(1 0 0 -1 0 0)">
	<g>
		<path id="MJMATHI-3C8" d="M2.2-5.7c0.4,0,0.7-0.1,0.9-0.3s0.3-0.5,0.3-0.8c0-0.2-0.1-0.7-0.4-1.5s-0.4-1.4-0.4-1.7
			c0-0.4,0.2-0.7,0.4-0.9c0.2-0.2,0.4-0.3,0.6-0.3c0.2-0.1,0.3-0.1,0.4-0.1h0l1.1,4.6C6-3.8,6.3-2.2,6.4-2.2c0,0,0.1,0,0.2,0
			c0.2,0,0.3,0,0.3-0.1c0-0.1-0.4-1.6-1.1-4.6c-0.8-3-1.1-4.6-1.1-4.6c0,0,0,0,0.1,0c0.8,0,1.6,0.4,2.3,1.2S8-8.7,8-8
			c0,0.2,0,0.4-0.1,0.6C7.8-7.3,7.8-7.2,7.7-7.1C7.6-7,7.5-7,7.4-6.8C7.3-6.7,7.3-6.6,7.3-6.5c0,0.2,0.1,0.4,0.2,0.6
			c0.2,0.2,0.4,0.3,0.6,0.3c0.2,0,0.3-0.1,0.5-0.3s0.2-0.4,0.2-0.8c0-0.3-0.1-0.6-0.2-1.1C8.6-8.3,8.5-8.6,8.4-8.8
			c-0.3-0.9-0.8-1.6-1.6-2.3C6.1-11.7,5.3-12,4.6-12H4.4l-0.3-1.3c-0.2-0.9-0.3-1.3-0.3-1.3c0-0.1-0.1-0.1-0.3-0.1H3.3
			c-0.1,0.1-0.1,0.1-0.1,0.1c0,0,0.1,0.5,0.3,1.3C3.8-12.5,3.9-12,3.9-12c-0.1,0-0.1,0-0.2,0c-1.5,0.2-2.2,0.9-2.2,2
			c0,0.3,0.2,0.9,0.5,1.7s0.5,1.4,0.5,1.6c0,0,0,0,0,0c0,0.1,0,0.1,0,0.2c0,0,0,0.1-0.1,0.1c0,0-0.1,0.1-0.2,0.1H2.1
			c-0.2,0-0.4-0.1-0.6-0.3S1.2-6.9,1.1-7.1C1-7.3,1-7.5,0.9-7.7C0.9-7.9,0.8-8,0.8-8c0,0-0.1,0-0.2,0H0.4C0.3-7.9,0.3-7.9,0.3-7.9
			c0,0.1,0.1,0.3,0.2,0.6c0.1,0.3,0.3,0.6,0.7,1S1.8-5.7,2.2-5.7z"/>
	</g>
	<g transform="scale(0.707)">
		<path id="MJMATHI-46" d="M9.5-14c-0.1,0-0.2,0-0.2,0.1c0,0,0,0.1,0,0.1c0,0.1,0.1,0.2,0.1,0.2s0.1,0,0.2,0c0.2,0,0.4,0,0.6,0
			c0.1,0,0.2,0.1,0.2,0.1c0,0,0.2,1,0.7,2.8c0.5,1.8,0.7,2.7,0.7,2.8c0,0,0,0.1,0,0.1c-0.1,0-0.2,0-0.5,0H11c0,0-0.1,0.1-0.1,0.1
			c0,0,0,0.1,0,0.2c0,0.1,0.1,0.2,0.1,0.2h5.3c0,0,0.1-0.1,0.1-0.1c0,0,0-0.4-0.1-1.1c-0.1-0.7-0.1-1.1-0.1-1.1c0,0-0.1-0.1-0.2-0.1
			h-0.1c0,0-0.1,0.1-0.1,0.1c0,0,0,0.1,0,0.2c0,0.2,0,0.3,0,0.5c0,0.2,0,0.4-0.1,0.5c0,0.1-0.1,0.2-0.2,0.3
			c-0.1,0.1-0.2,0.1-0.4,0.2c-0.2,0-0.3,0-0.5,0.1c-0.2,0-0.4,0-0.7,0h-0.2c-0.5,0-0.8,0-0.9,0c0,0-0.1,0-0.1-0.1
			c0,0-0.1-0.4-0.3-1.3l-0.3-1.3h0.5c0,0,0.1,0,0.2,0c0.1,0,0.2,0,0.3,0c0.1,0,0.1,0,0.2,0c0.1,0,0.2,0,0.2,0.1s0.1,0.1,0.2,0.1
			c0.1,0.1,0.2,0.2,0.2,0.3c0.1,0.1,0.1,0.3,0.1,0.4s0,0.2,0,0.2c0,0,0.1,0,0.2,0h0.1c0,0,0.1-0.1,0.1-0.1c0,0-0.1-0.4-0.3-1.3
			S14-11.9,14-11.9c0,0-0.1-0.1-0.2-0.1h-0.1c0,0-0.1,0.1-0.1,0.1c0,0,0,0.1,0,0.2c0,0.1,0,0.3,0,0.4c0,0.2-0.1,0.3-0.2,0.4
			c-0.1,0-0.4,0.1-0.9,0.1h-0.5l-0.3-1.3c-0.2-0.8-0.3-1.2-0.3-1.3c0-0.1,0.3-0.1,0.9-0.1h0.2c0,0,0.1-0.1,0.1-0.1c0,0,0-0.1,0-0.2
			c0-0.1-0.1-0.1-0.1-0.2h-0.2c-0.3,0-0.8,0-1.5,0c-0.4,0-0.8,0-1,0C9.7-14,9.6-14,9.5-14z"/>
	</g>
	<g>
		<path id="MJMAIN-28" d="M19.2-8.4c0,0.6,0,1.2,0.1,1.8c0.1,0.6,0.2,1.1,0.3,1.5s0.3,0.8,0.5,1.2s0.4,0.7,0.5,0.9
			c0.1,0.2,0.3,0.5,0.6,0.7c0.3,0.3,0.4,0.4,0.5,0.5c0,0.1,0.2,0.2,0.3,0.3h0.2h0.1c0.1,0,0.2,0,0.2-0.1c0,0-0.1-0.1-0.2-0.3
			s-0.3-0.4-0.6-0.7c-0.2-0.3-0.5-0.7-0.7-1.2s-0.4-1.1-0.6-1.9s-0.2-1.7-0.2-2.7s0.1-1.9,0.2-2.7c0.2-0.8,0.3-1.4,0.6-1.9
			c0.2-0.5,0.5-0.9,0.7-1.2c0.2-0.3,0.4-0.6,0.6-0.7c0.2-0.2,0.2-0.3,0.2-0.3c0-0.1-0.1-0.1-0.2-0.1h0h-0.2L21.7-15
			c-0.9,0.8-1.5,1.8-1.9,3C19.4-10.9,19.2-9.7,19.2-8.4z"/>
	</g>
	<g transform="translate(1670,0)">
		<g>
			<path id="MJMATHI-78" d="M-1646-7.9c0.1,0.4,0.3,0.8,0.8,1.4s1,0.8,1.6,0.8c0.3,0,0.6-0.1,0.9-0.3c0.3-0.2,0.5-0.4,0.6-0.6
				c0.4,0.6,0.9,0.9,1.4,0.9c0.3,0,0.6-0.1,0.9-0.3c0.3-0.2,0.4-0.5,0.4-0.8c0-0.3-0.1-0.5-0.2-0.7c-0.1-0.2-0.3-0.3-0.4-0.3
				c-0.1,0-0.2-0.1-0.3-0.1c-0.2,0-0.3,0.1-0.4,0.2c-0.1,0.1-0.2,0.2-0.2,0.4c0,0.4,0.2,0.7,0.7,0.9c-0.1,0.1-0.3,0.2-0.6,0.2
				c-0.1,0-0.2,0-0.3,0c-0.4-0.1-0.6-0.5-0.8-0.9c-0.6-2.1-0.8-3.3-0.8-3.6c0-0.3,0.1-0.4,0.2-0.6c0.1-0.1,0.3-0.2,0.5-0.2
				c0.3,0,0.7,0.2,1,0.5c0.3,0.3,0.6,0.7,0.7,1.1c0,0.1,0.1,0.1,0.1,0.2c0,0,0.1,0,0.2,0h0.1c0.1,0,0.2,0,0.2-0.1c0,0,0-0.1,0-0.2
				c-0.1-0.5-0.4-1-0.9-1.4c-0.4-0.4-0.9-0.6-1.5-0.6c-0.7,0-1.1,0.3-1.5,0.9c-0.4-0.6-0.8-0.9-1.3-0.9h-0.1c-0.5,0-0.8,0.1-1,0.4
				c-0.2,0.2-0.3,0.5-0.3,0.8c0,0.3,0.1,0.5,0.3,0.7c0.2,0.2,0.4,0.3,0.6,0.3c0.4,0,0.6-0.2,0.6-0.6c0-0.2-0.1-0.3-0.2-0.5
				c-0.1-0.1-0.2-0.2-0.3-0.3s-0.2-0.1-0.2-0.1l0,0c0,0,0,0,0.1-0.1c0.1,0,0.1-0.1,0.2-0.1s0.2-0.1,0.3,0c0.3,0,0.6,0.2,0.9,0.6
				c0.1,0.1,0.2,0.5,0.3,0.9c0.1,0.5,0.3,1,0.4,1.5c0.1,0.5,0.2,0.8,0.2,0.9c0,0.3,0.1,0.4,0.1,0.5c0,0.3-0.1,0.4-0.2,0.6
				c-0.1,0.1-0.3,0.2-0.5,0.2c-0.4,0-0.7-0.1-1-0.4c-0.3-0.3-0.6-0.7-0.7-1.1c0-0.1,0-0.1-0.1-0.1c0,0-0.1,0-0.2,0h-0.2
				C-1646-7.9-1646-7.9-1646-7.9z"/>
		</g>
		<g transform="scale(0.707)">
			<path id="MJMAIN-31" d="M-1636.7-8.3l-0.1,0c-0.1,0-0.2-0.1-0.4-0.1s-0.4-0.1-0.6-0.1h-0.2V-8h0.2c0.3,0,0.6,0.1,0.9,0.1
				c0.3,0.1,0.4,0.2,0.6,0.2s0.2,0.1,0.3,0.2c0,0,0.1,0,0.1,0c0.1,0,0.1,0,0.2-0.1v-2.9l0-3c0,0,0.1-0.1,0.1-0.1s0.1,0,0.2,0
				c0.1,0,0.3,0,0.6,0h0.3V-14h-0.1c-0.1,0-0.7,0-1.6,0c-0.9,0-1.4,0-1.5,0h-0.1v0.5h0.3c0.1,0,0.3,0,0.4,0c0.1,0,0.2,0,0.2,0
				s0.1,0,0.2,0c0,0,0.1,0,0.1,0s0,0,0.1,0c0,0,0.1,0,0.1,0V-8.3z"/>
		</g>
	</g>
	<g>
		<path id="MJMAIN-2C" d="M38.7-11.4c0,0,0,0.1,0,0.3s0.1,0.4,0.2,0.6c0.1,0.2,0.3,0.3,0.6,0.3c0.3,0,0.5-0.1,0.7-0.3
			c0.2-0.2,0.3-0.6,0.3-1.2c0-0.3,0-0.6-0.1-0.9s-0.2-0.6-0.3-0.8c-0.1-0.2-0.2-0.4-0.4-0.6s-0.2-0.3-0.3-0.4
			c-0.1-0.1-0.2-0.1-0.2-0.1c0,0-0.1,0-0.2,0.1c-0.1,0.1-0.1,0.1-0.1,0.2s0.1,0.1,0.2,0.2c0.1,0.1,0.2,0.3,0.3,0.4
			c0.1,0.2,0.3,0.4,0.4,0.7c0.1,0.3,0.2,0.6,0.2,1v0.2l0,0c0,0,0,0-0.1,0c0,0-0.1,0-0.1,0c0,0-0.1,0-0.1,0c-0.1,0-0.1,0-0.2,0
			c-0.3,0-0.5,0.1-0.6,0.2L38.7-11.4z"/>
	</g>
	<g transform="translate(3142,0)">
		<g>
			<path id="MJMATHI-78_1_" d="M-3097.5-7.9c0.1,0.4,0.3,0.8,0.8,1.4c0.4,0.5,1,0.8,1.6,0.8c0.3,0,0.6-0.1,0.9-0.3
				c0.3-0.2,0.5-0.4,0.6-0.6c0.4,0.6,0.9,0.9,1.4,0.9c0.3,0,0.6-0.1,0.9-0.3s0.4-0.5,0.4-0.8c0-0.3-0.1-0.5-0.2-0.7
				s-0.3-0.3-0.4-0.3c-0.1,0-0.2-0.1-0.3-0.1c-0.2,0-0.3,0.1-0.4,0.2c-0.1,0.1-0.2,0.2-0.2,0.4c0,0.4,0.2,0.7,0.7,0.9
				c-0.1,0.1-0.3,0.2-0.6,0.2c-0.1,0-0.2,0-0.3,0c-0.4-0.1-0.6-0.5-0.8-0.9c-0.6-2.1-0.8-3.3-0.8-3.6c0-0.3,0.1-0.4,0.2-0.6
				c0.1-0.1,0.3-0.2,0.5-0.2c0.3,0,0.7,0.2,1,0.5c0.3,0.3,0.6,0.7,0.7,1.1c0,0.1,0.1,0.1,0.1,0.2c0,0,0.1,0,0.2,0h0.1
				c0.1,0,0.2,0,0.2-0.1c0,0,0-0.1,0-0.2c-0.1-0.5-0.4-1-0.9-1.4s-0.9-0.6-1.5-0.6c-0.7,0-1.1,0.3-1.5,0.9c-0.4-0.6-0.8-0.9-1.3-0.9
				h-0.1c-0.5,0-0.8,0.1-1,0.4c-0.2,0.2-0.3,0.5-0.3,0.8c0,0.3,0.1,0.5,0.3,0.7c0.2,0.2,0.4,0.3,0.6,0.3c0.4,0,0.6-0.2,0.6-0.6
				c0-0.2-0.1-0.3-0.2-0.5c-0.1-0.1-0.2-0.2-0.3-0.3c-0.1,0-0.2-0.1-0.2-0.1l0,0c0,0,0,0,0.1-0.1c0.1,0,0.1-0.1,0.2-0.1
				c0.1,0,0.2-0.1,0.3,0c0.3,0,0.6,0.2,0.9,0.6c0.1,0.1,0.2,0.5,0.3,0.9c0.1,0.5,0.3,1,0.4,1.5c0.1,0.5,0.2,0.8,0.2,0.9
				c0,0.3,0.1,0.4,0.1,0.5c0,0.3-0.1,0.4-0.2,0.6c-0.1,0.1-0.3,0.2-0.5,0.2c-0.4,0-0.7-0.1-1-0.4c-0.3-0.3-0.6-0.7-0.7-1.1
				c0-0.1,0-0.1-0.1-0.1c0,0-0.1,0-0.2,0h-0.2C-3097.5-7.9-3097.5-7.9-3097.5-7.9z"/>
		</g>
		<g transform="scale(0.707)">
			<path id="MJMAIN-32" d="M-3089.2-9.8c-0.2,0-0.3,0.1-0.4,0.2c-0.1,0.1-0.2,0.3-0.2,0.4c0,0.5,0.2,0.9,0.5,1.2
				c0.3,0.3,0.8,0.5,1.3,0.5c0.6,0,1.1-0.2,1.5-0.6c0.4-0.4,0.6-0.8,0.6-1.4c0-0.3-0.1-0.6-0.2-0.8s-0.3-0.5-0.5-0.7
				s-0.4-0.4-0.8-0.7c-0.2-0.2-0.6-0.5-1-0.9l-0.6-0.6l0.7,0c1,0,1.6,0,1.6,0c0,0,0.1,0.3,0.2,0.9v0h0.4v0c0,0,0-0.3-0.1-0.9
				c-0.1-0.6-0.1-0.9-0.1-0.9v0h-3.7v0.2v0.1c0,0,0,0.1,0.1,0.1c0,0.1,0.1,0.2,0.3,0.3c0.2,0.2,0.4,0.4,0.5,0.6
				c0.1,0.1,0.2,0.2,0.3,0.4c0.2,0.2,0.3,0.3,0.3,0.4c0.1,0.1,0.2,0.2,0.3,0.3s0.2,0.3,0.3,0.3c0.1,0.1,0.1,0.2,0.2,0.3
				c0.1,0.1,0.2,0.2,0.2,0.3c0,0.1,0.1,0.2,0.1,0.3s0.1,0.2,0.1,0.3c0,0.1,0,0.2,0.1,0.3c0,0.1,0,0.2,0,0.3c0,0.4-0.1,0.8-0.3,1.1
				s-0.5,0.5-1,0.5c-0.2,0-0.4-0.1-0.6-0.2c-0.2-0.1-0.3-0.2-0.3-0.3c-0.1-0.1-0.1-0.2-0.1-0.2c0,0,0,0,0,0c0.1,0,0.2,0,0.4-0.1
				c0.1-0.1,0.2-0.2,0.2-0.5c0-0.2-0.1-0.3-0.2-0.4C-3088.8-9.7-3089-9.7-3089.2-9.8z"/>
		</g>
	</g>
	<g>
		<path id="MJMAIN-29" d="M58.9-1.4L58.9-1.4c0.1,0,0.1,0,0.2,0h0.2l0.4-0.3c0.9-0.8,1.5-1.8,1.9-3s0.6-2.4,0.6-3.7
			c0-0.6,0-1.2-0.1-1.8s-0.2-1.1-0.3-1.5c-0.1-0.4-0.3-0.8-0.5-1.2c-0.2-0.4-0.4-0.7-0.5-0.9c-0.1-0.2-0.3-0.5-0.6-0.7
			c-0.3-0.3-0.4-0.4-0.4-0.5c0,0-0.2-0.1-0.3-0.3c0,0,0,0-0.1-0.1h-0.2c-0.1,0-0.1,0-0.2,0c0,0-0.1,0-0.1,0s0,0.1,0,0.1
			c0,0,0.1,0.1,0.2,0.2c1.4,1.5,2.2,3.7,2.2,6.6S60.4-3.3,59-1.8c-0.1,0.1-0.1,0.2-0.2,0.2C58.8-1.5,58.9-1.5,58.9-1.4z"/>
	</g>
</g>
</svg>
