<?xml version="1.0" encoding="utf-8"?>
<!-- Generator: Adobe Illustrator 22.1.0, SVG Export Plug-In . SVG Version: 6.00 Build 0)  -->
<svg version="1.1" id="Layer_1" focusable="false" xmlns="http://www.w3.org/2000/svg" xmlns:xlink="http://www.w3.org/1999/xlink"
	 x="0px" y="0px" viewBox="0 0 113.3 35.6" style="enable-background:new 0 0 113.3 35.6;" xml:space="preserve">
<g transform="matrix(1 0 0 -1 0 0)">
	<g>
		<path id="MJMATHI-3B8" d="M0.5-18.7c0,0.9,0.2,1.9,0.5,3s0.9,2,1.5,2.7s1.3,1.2,1.9,1.3c0,0,0,0,0.1,0c0.1,0,0.1,0,0.2,0
			c0.5,0,0.9-0.3,1.2-0.7c0.4-0.6,0.5-1.3,0.5-2.2c0-1.1-0.2-2.2-0.6-3.3c-0.4-1.1-1-2-1.6-2.7c-0.7-0.7-1.3-1.1-1.9-1.1H2.2
			c-0.3,0-0.6,0.1-0.9,0.3c-0.2,0.2-0.4,0.4-0.5,0.7c-0.1,0.3-0.2,0.6-0.3,0.9C0.5-19.4,0.5-19.1,0.5-18.7z M5.3-13.6
			c0,0.9-0.2,1.4-0.7,1.4c-0.3,0-0.7-0.2-1-0.6c-0.3-0.4-0.6-0.9-0.8-1.4c-0.2-0.5-0.4-1-0.5-1.4s-0.2-0.6-0.2-0.7
			c0.5,0,0.9,0,1.4,0l1.4,0c0,0,0,0.2,0.1,0.5c0.1,0.3,0.1,0.7,0.2,1.1C5.3-14.3,5.3-13.9,5.3-13.6z M1.6-19.7c0-1,0.2-1.5,0.7-1.5
			c0.1,0,0.3,0,0.4,0.1c0.2,0.1,0.3,0.3,0.6,0.5c0.2,0.3,0.4,0.7,0.7,1.2c0.2,0.5,0.4,1.2,0.7,2L4.7-17H2c0,0,0-0.2-0.1-0.5
			c-0.1-0.3-0.2-0.7-0.2-1.1C1.6-19,1.6-19.4,1.6-19.7z"/>
	</g>
	<g>
		<path id="MJMAIN-28" d="M7.8-18c0,0.6,0,1.2,0.1,1.8c0.1,0.6,0.2,1.1,0.3,1.5c0.1,0.4,0.3,0.8,0.5,1.2s0.4,0.7,0.5,0.9
			s0.3,0.5,0.6,0.7c0.3,0.3,0.4,0.4,0.5,0.5c0,0.1,0.2,0.2,0.3,0.3h0.2H11c0.1,0,0.2,0,0.2-0.1c0,0-0.1-0.1-0.2-0.3
			c-0.2-0.2-0.3-0.4-0.6-0.7s-0.5-0.7-0.7-1.2c-0.2-0.5-0.4-1.1-0.6-1.9C8.9-16.1,8.9-17,8.9-18s0.1-1.9,0.2-2.7
			c0.2-0.8,0.3-1.4,0.6-1.9c0.2-0.5,0.5-0.9,0.7-1.2c0.2-0.3,0.4-0.6,0.6-0.7c0.2-0.2,0.2-0.3,0.2-0.3c0-0.1-0.1-0.1-0.2-0.1h0h-0.2
			l-0.4,0.3c-0.9,0.8-1.5,1.8-1.9,3C8-20.5,7.8-19.3,7.8-18z"/>
	</g>
	<g>
		<path id="MJMATHI-78" d="M12.7-17.5c0.1,0.4,0.3,0.8,0.8,1.4c0.4,0.5,1,0.8,1.6,0.8c0.3,0,0.6-0.1,0.9-0.3
			c0.3-0.2,0.5-0.4,0.6-0.6c0.4,0.6,0.9,0.9,1.4,0.9c0.3,0,0.6-0.1,0.9-0.3c0.3-0.2,0.4-0.5,0.4-0.8c0-0.3-0.1-0.5-0.2-0.7
			c-0.1-0.2-0.3-0.3-0.4-0.3c-0.1,0-0.2-0.1-0.3-0.1c-0.2,0-0.3,0.1-0.4,0.2c-0.1,0.1-0.2,0.2-0.2,0.4c0,0.4,0.2,0.7,0.7,0.9
			c-0.1,0.1-0.3,0.2-0.6,0.2c-0.1,0-0.2,0-0.3,0c-0.4-0.1-0.6-0.5-0.8-0.9c-0.6-2.1-0.8-3.3-0.8-3.6c0-0.3,0.1-0.4,0.2-0.6
			c0.1-0.1,0.3-0.2,0.5-0.2c0.3,0,0.7,0.2,1,0.5c0.3,0.3,0.6,0.7,0.7,1.1c0,0.1,0.1,0.1,0.1,0.2c0,0,0.1,0,0.2,0h0.1
			c0.1,0,0.2,0,0.2-0.1c0,0,0-0.1,0-0.2c-0.1-0.5-0.4-1-0.9-1.4c-0.4-0.4-0.9-0.6-1.5-0.6c-0.7,0-1.1,0.3-1.5,0.9
			c-0.4-0.6-0.8-0.9-1.3-0.9h-0.1c-0.5,0-0.8,0.1-1,0.4c-0.2,0.2-0.3,0.5-0.3,0.8c0,0.3,0.1,0.5,0.3,0.7c0.2,0.2,0.4,0.3,0.6,0.3
			c0.4,0,0.6-0.2,0.6-0.6c0-0.2-0.1-0.3-0.2-0.5c-0.1-0.1-0.2-0.2-0.3-0.3c-0.1,0-0.2-0.1-0.2-0.1l0,0c0,0,0,0,0.1-0.1
			c0.1,0,0.1-0.1,0.2-0.1c0.1,0,0.2-0.1,0.3,0c0.3,0,0.6,0.2,0.9,0.6c0.1,0.1,0.2,0.5,0.3,0.9s0.3,1,0.4,1.5
			c0.1,0.5,0.2,0.8,0.2,0.9c0,0.3,0.1,0.4,0.1,0.5c0,0.3-0.1,0.4-0.2,0.6c-0.1,0.1-0.3,0.2-0.5,0.2c-0.4,0-0.7-0.1-1-0.4
			c-0.3-0.3-0.6-0.7-0.7-1.1c0-0.1,0-0.1-0.1-0.1c0,0-0.1,0-0.2,0h-0.2C12.7-17.6,12.7-17.5,12.7-17.5z"/>
	</g>
	<g>
		<path id="MJMAIN-29" d="M20.8-11.1L20.8-11.1c0.1,0,0.1,0,0.2,0h0.2l0.4-0.3c0.9-0.8,1.5-1.8,1.9-3S24-16.8,24-18
			c0-0.6,0-1.2-0.1-1.8c-0.1-0.6-0.2-1.1-0.3-1.5s-0.3-0.8-0.5-1.2s-0.4-0.7-0.5-0.9c-0.1-0.2-0.3-0.5-0.6-0.7s-0.4-0.4-0.4-0.5
			c0,0-0.2-0.1-0.3-0.3c0,0,0,0-0.1-0.1H21c-0.1,0-0.1,0-0.2,0s-0.1,0-0.1,0c0,0,0,0.1,0,0.1c0,0,0.1,0.1,0.2,0.2
			c1.4,1.5,2.2,3.7,2.2,6.6s-0.7,5.1-2.2,6.6c-0.1,0.1-0.1,0.2-0.2,0.2C20.7-11.2,20.7-11.1,20.8-11.1z"/>
	</g>
	<g>
		<path id="MJMAIN-3D" d="M30-16.7c0,0.1,0.1,0.2,0.2,0.3h8.9c0.1-0.1,0.2-0.2,0.2-0.3c0-0.1-0.1-0.2-0.2-0.3l-4.4,0h-4.4
			C30.1-16.9,30-16.8,30-16.7z M30-19.4c0,0.1,0.1,0.2,0.2,0.3h8.9c0.1-0.1,0.2-0.2,0.2-0.3c0-0.1-0.1-0.2-0.2-0.3h-8.9
			C30.1-19.6,30-19.5,30-19.4z"/>
	</g>
	<g transform="translate(3155,0)">
		<g>
			<path id="MJSZ3-7B" d="M-3102.4-34.6L-3102.4-34.6l-0.5-0.1l-0.2,0.1c-0.9,0.4-1.6,0.8-2.2,1.4c-0.6,0.6-0.9,1.2-1.1,1.9
				c0,0.2-0.1,0.4-0.1,0.7s0,1.7,0,4.2c0,3,0,4.5,0,4.6c-0.1,0.4-0.2,0.8-0.3,1.1c-0.1,0.3-0.3,0.6-0.5,0.9s-0.4,0.5-0.6,0.7
				c-0.2,0.2-0.4,0.4-0.6,0.5c-0.2,0.1-0.3,0.2-0.4,0.3c-0.1,0.1-0.2,0.1-0.2,0.1c0,0,0,0.1,0,0.2c0,0,0,0.1,0,0.1c0,0,0,0.1,0,0.1
				c0,0,0,0,0,0s0,0,0,0c0,0,0,0,0.1,0c0,0,0.1,0,0.1,0c0.6,0.3,1.1,0.7,1.6,1.3c0.5,0.6,0.8,1.3,0.9,2.1c0,0.1,0,1.6,0,4.6
				c0,2.5,0,3.9,0,4.2c0,0.3,0,0.5,0.1,0.7c0.3,1.4,1.4,2.5,3.3,3.3l0.2,0.1h0.4l0.1-0.1v-0.2c0-0.1,0-0.2,0-0.3l-0.1-0.1
				c-0.1,0-0.2-0.1-0.3-0.2s-0.3-0.2-0.5-0.3c-0.2-0.1-0.3-0.2-0.5-0.4c-0.2-0.2-0.3-0.3-0.5-0.5c-0.2-0.2-0.3-0.4-0.4-0.7
				c-0.1-0.3-0.2-0.5-0.3-0.8c0-0.2-0.1-0.4-0.1-0.7s0-1.7,0-4.2c0-2.5,0-3.9,0-4.2s0-0.5-0.1-0.7c-0.1-0.4-0.2-0.7-0.4-1
				s-0.4-0.6-0.6-0.8c-0.2-0.2-0.4-0.4-0.7-0.6c-0.2-0.2-0.5-0.4-0.7-0.5s-0.4-0.2-0.5-0.3s-0.2-0.1-0.2-0.1l-0.1,0l0.2-0.1
				c0.8-0.4,1.4-0.9,2-1.4c0.5-0.6,0.8-1.2,1-1.9c0-0.2,0.1-0.4,0.1-0.7s0-1.7,0-4.2c0-0.4,0-1,0-1.7c0-1.9,0-2.9,0.1-3.1
				c0,0,0-0.1,0-0.1c0-0.2,0.1-0.4,0.2-0.6c0.1-0.2,0.2-0.4,0.3-0.5c0.1-0.2,0.2-0.3,0.4-0.5c0.1-0.1,0.3-0.3,0.4-0.4
				s0.3-0.2,0.4-0.3c0.1-0.1,0.3-0.2,0.4-0.3c0.1-0.1,0.2-0.1,0.3-0.2c0.1,0,0.2-0.1,0.2-0.1l0.1,0c0,0,0-0.1,0-0.3V-34.6z"/>
		</g>
		<g transform="translate(917,0)">
			<g transform="translate(-15,0)">
				<g>
					<path id="MJMAIN-31" d="M-3997.5-4.4l-0.2-0.1c-0.1,0-0.3-0.1-0.6-0.1c-0.2,0-0.5-0.1-0.8-0.1h-0.3v0.6h0.3
						c0.4,0,0.8,0.1,1.2,0.2c0.4,0.1,0.6,0.2,0.8,0.3s0.3,0.2,0.4,0.3c0,0,0.1,0,0.2,0c0.1,0,0.2,0,0.2-0.1v-4.2l0-4.2
						c0.1-0.1,0.1-0.1,0.2-0.1c0,0,0.2,0,0.3-0.1s0.5,0,0.9,0h0.4v-0.6h-0.2c-0.2,0-0.9,0-2.2,0c-1.3,0-2,0-2.2,0h-0.2v0.6h0.4
						c0.2,0,0.4,0,0.5,0s0.3,0,0.3,0c0.1,0,0.2,0,0.2,0c0.1,0,0.1,0,0.1,0s0,0,0.1,0.1c0,0,0.1,0.1,0.1,0.1V-4.4z"/>
				</g>
				<g>
					<path id="MJMAIN-30" d="M-3999.1-23.8c0.5,0.8,1.2,1.1,2.1,1.1c0.4,0,0.9-0.1,1.3-0.4c0.4-0.2,0.8-0.7,1.1-1.3
						c0.3-0.8,0.5-1.8,0.5-3.2c0-1.4-0.2-2.5-0.6-3.3c-0.2-0.4-0.4-0.7-0.8-0.9c-0.3-0.2-0.6-0.4-0.9-0.4c-0.2-0.1-0.5-0.1-0.7-0.1
						c-0.2,0-0.5,0-0.7,0.1c-0.2,0.1-0.5,0.2-0.9,0.4c-0.3,0.2-0.6,0.6-0.8,0.9c-0.4,0.8-0.6,1.9-0.6,3.3
						C-3999.9-25.9-3999.7-24.7-3999.1-23.8z M-3996-23.6c-0.3,0.3-0.6,0.4-1,0.4c-0.4,0-0.7-0.1-1-0.4c-0.2-0.2-0.4-0.6-0.5-1
						c-0.1-0.4-0.1-1.3-0.1-2.7c0-1.5,0-2.4,0.1-2.9c0.1-0.5,0.2-0.8,0.5-1.1c0.3-0.3,0.6-0.4,1-0.4c0.4,0,0.7,0.1,0.9,0.4
						c0.3,0.3,0.4,0.7,0.5,1.2s0.1,1.4,0.1,2.8c0,1.3,0,2.2-0.1,2.7C-3995.6-24.2-3995.8-23.9-3996-23.6z"/>
				</g>
			</g>
			<g transform="translate(1486,0)">
				<g transform="translate(0,650)">
					<g>
						<path id="MJMATHI-78_1_" d="M-5479.8-658.4c0.1,0.4,0.3,0.8,0.8,1.4c0.4,0.5,1,0.8,1.6,0.8c0.3,0,0.6-0.1,0.9-0.3
							c0.3-0.2,0.5-0.4,0.6-0.6c0.4,0.6,0.9,0.9,1.4,0.9c0.3,0,0.6-0.1,0.9-0.3c0.3-0.2,0.4-0.5,0.4-0.8c0-0.3-0.1-0.5-0.2-0.7
							c-0.1-0.2-0.3-0.3-0.4-0.3s-0.2-0.1-0.3-0.1c-0.2,0-0.3,0.1-0.4,0.2c-0.1,0.1-0.2,0.2-0.2,0.4c0,0.4,0.2,0.7,0.7,0.9
							c-0.1,0.1-0.3,0.2-0.6,0.2c-0.1,0-0.2,0-0.3,0c-0.4-0.1-0.6-0.5-0.8-0.9c-0.6-2.1-0.8-3.3-0.8-3.6c0-0.3,0.1-0.4,0.2-0.6
							c0.1-0.1,0.3-0.2,0.5-0.2c0.3,0,0.7,0.2,1,0.5s0.6,0.7,0.7,1.1c0,0.1,0.1,0.1,0.1,0.2c0,0,0.1,0,0.2,0h0.1
							c0.1,0,0.2,0,0.2-0.1c0,0,0-0.1,0-0.2c-0.1-0.5-0.4-1-0.9-1.4c-0.4-0.4-0.9-0.6-1.5-0.6c-0.7,0-1.1,0.3-1.5,0.9
							c-0.4-0.6-0.8-0.9-1.3-0.9h-0.1c-0.5,0-0.8,0.1-1,0.4c-0.2,0.2-0.3,0.5-0.3,0.8c0,0.3,0.1,0.5,0.3,0.7
							c0.2,0.2,0.4,0.3,0.6,0.3c0.4,0,0.6-0.2,0.6-0.6c0-0.2-0.1-0.3-0.2-0.5c-0.1-0.1-0.2-0.2-0.3-0.3s-0.2-0.1-0.2-0.1l0,0
							c0,0,0,0,0.1-0.1c0.1,0,0.1-0.1,0.2-0.1c0.1,0,0.2-0.1,0.3,0c0.3,0,0.6,0.2,0.9,0.6c0.1,0.1,0.2,0.5,0.3,0.9
							c0.1,0.5,0.3,1,0.4,1.5c0.1,0.5,0.2,0.8,0.2,0.9c0,0.3,0.1,0.4,0.1,0.5c0,0.3-0.1,0.4-0.2,0.6c-0.1,0.1-0.3,0.2-0.5,0.2
							c-0.4,0-0.7-0.1-1-0.4s-0.6-0.7-0.7-1.1c0-0.1,0-0.1-0.1-0.1s-0.1,0-0.2,0h-0.2C-5479.8-658.5-5479.8-658.5-5479.8-658.4z"/>
					</g>
					<g>
						<path id="MJMAIN-2265" d="M-5467.5-653.9c0,0.1,0,0.1,0.1,0.2s0.1,0.1,0.1,0.1c0.1,0,0.8-0.3,2.1-0.9c1.4-0.6,2.7-1.3,4-1.9
							c1.3-0.6,2-1,2-1c0.1,0,0.1-0.1,0.1-0.2s0-0.2-0.1-0.2c0,0-1.4-0.7-4.1-1.9l-4-1.9h-0.1c-0.2,0-0.3,0.1-0.3,0.3c0,0,0,0,0,0
							c0,0.1,0.1,0.1,0.2,0.2c0.2,0.1,0.9,0.4,2.1,1c0.7,0.3,1.3,0.6,1.8,0.9l3.5,1.6l-3.7,1.8c-0.6,0.3-1.4,0.7-2.2,1.1
							c-0.8,0.4-1.3,0.6-1.4,0.7C-5467.5-654.1-5467.5-654-5467.5-653.9z M-5467.5-664.1c0,0.1,0.1,0.2,0.2,0.3h8.1
							c0.1-0.1,0.2-0.1,0.2-0.3c0-0.1-0.1-0.2-0.2-0.3h-8.1C-5467.5-664.3-5467.5-664.2-5467.5-664.1z"/>
					</g>
					<g>
						<path id="MJMAIN-30_1_" d="M-5452.6-654.3c0.5,0.8,1.2,1.1,2.1,1.1c0.4,0,0.9-0.1,1.3-0.4c0.4-0.2,0.8-0.7,1.1-1.3
							c0.3-0.8,0.5-1.8,0.5-3.2c0-1.4-0.2-2.5-0.6-3.3c-0.2-0.4-0.4-0.7-0.8-0.9s-0.6-0.4-0.9-0.4c-0.2-0.1-0.5-0.1-0.7-0.1
							c-0.2,0-0.5,0-0.7,0.1s-0.5,0.2-0.9,0.4c-0.3,0.2-0.6,0.6-0.8,0.9c-0.4,0.8-0.6,1.9-0.6,3.3
							C-5453.4-656.4-5453.2-655.1-5452.6-654.3z M-5449.5-654.1c-0.3,0.3-0.6,0.4-1,0.4c-0.4,0-0.7-0.1-1-0.4
							c-0.2-0.2-0.4-0.6-0.5-1c-0.1-0.4-0.1-1.3-0.1-2.7c0-1.5,0-2.4,0.1-2.9c0.1-0.5,0.2-0.8,0.5-1.1c0.3-0.3,0.6-0.4,1-0.4
							c0.4,0,0.7,0.1,0.9,0.4c0.3,0.3,0.4,0.7,0.5,1.2s0.1,1.4,0.1,2.8c0,1.3,0,2.2-0.1,2.7S-5449.3-654.4-5449.5-654.1z"/>
					</g>
				</g>
				<g transform="translate(0,-750)">
					<g>
						<path id="MJMATHI-78_2_" d="M-5479.8,722.1c0.1,0.4,0.3,0.8,0.8,1.4c0.4,0.5,1,0.8,1.6,0.8c0.3,0,0.6-0.1,0.9-0.3
							c0.3-0.2,0.5-0.4,0.6-0.6c0.4,0.6,0.9,0.9,1.4,0.9c0.3,0,0.6-0.1,0.9-0.3c0.3-0.2,0.4-0.5,0.4-0.8c0-0.3-0.1-0.5-0.2-0.7
							c-0.1-0.2-0.3-0.3-0.4-0.3s-0.2-0.1-0.3-0.1c-0.2,0-0.3,0.1-0.4,0.2c-0.1,0.1-0.2,0.2-0.2,0.4c0,0.4,0.2,0.7,0.7,0.9
							c-0.1,0.1-0.3,0.2-0.6,0.2c-0.1,0-0.2,0-0.3,0c-0.4-0.1-0.6-0.5-0.8-0.9c-0.6-2.1-0.8-3.3-0.8-3.6c0-0.3,0.1-0.4,0.2-0.6
							c0.1-0.1,0.3-0.2,0.5-0.2c0.3,0,0.7,0.2,1,0.5s0.6,0.7,0.7,1.1c0,0.1,0.1,0.1,0.1,0.2c0,0,0.1,0,0.2,0h0.1
							c0.1,0,0.2,0,0.2-0.1c0,0,0-0.1,0-0.2c-0.1-0.5-0.4-1-0.9-1.4c-0.4-0.4-0.9-0.6-1.5-0.6c-0.7,0-1.1,0.3-1.5,0.9
							c-0.4-0.6-0.8-0.9-1.3-0.9h-0.1c-0.5,0-0.8,0.1-1,0.4c-0.2,0.2-0.3,0.5-0.3,0.8c0,0.3,0.1,0.5,0.3,0.7
							c0.2,0.2,0.4,0.3,0.6,0.3c0.4,0,0.6-0.2,0.6-0.6c0-0.2-0.1-0.3-0.2-0.5c-0.1-0.1-0.2-0.2-0.3-0.3s-0.2-0.1-0.2-0.1l0,0
							c0,0,0,0,0.1-0.1c0.1,0,0.1-0.1,0.2-0.1c0.1,0,0.2-0.1,0.3,0c0.3,0,0.6,0.2,0.9,0.6c0.1,0.1,0.2,0.5,0.3,0.9
							c0.1,0.5,0.3,1,0.4,1.5c0.1,0.5,0.2,0.8,0.2,0.9c0,0.3,0.1,0.4,0.1,0.5c0,0.3-0.1,0.4-0.2,0.6c-0.1,0.1-0.3,0.2-0.5,0.2
							c-0.4,0-0.7-0.1-1-0.4s-0.6-0.7-0.7-1.1c0-0.1,0-0.1-0.1-0.1s-0.1,0-0.2,0h-0.2C-5479.8,722-5479.8,722-5479.8,722.1z"/>
					</g>
					<g>
						<path id="MJMAIN-3C" d="M-5459,717.9c0,0,0,0,0-0.1c0-0.1,0-0.1-0.1-0.2s-0.1-0.1-0.1-0.1c-0.1,0-0.8,0.3-2.1,1
							c-1.4,0.6-2.7,1.3-4,1.9l-2,1c-0.1,0-0.1,0.1-0.1,0.2c0,0.1,0,0.2,0.1,0.2c5.3,2.5,8,3.8,8.2,3.8c0,0,0.1,0,0.1-0.1
							c0.1-0.1,0.1-0.1,0.1-0.2s0-0.1-0.1-0.2c0,0-1.3-0.6-3.8-1.8l-3.7-1.8l3.7-1.8C-5460.4,718.6-5459.1,718-5459,717.9
							c0,0,0,0,0-0.1V717.9z"/>
					</g>
					<g>
						<path id="MJMAIN-30_2_" d="M-5452.6,726.2c0.5,0.8,1.2,1.1,2.1,1.1c0.4,0,0.9-0.1,1.3-0.4c0.4-0.2,0.8-0.7,1.1-1.3
							c0.3-0.8,0.5-1.8,0.5-3.2c0-1.4-0.2-2.5-0.6-3.3c-0.2-0.4-0.4-0.7-0.8-0.9c-0.3-0.2-0.6-0.4-0.9-0.4c-0.2-0.1-0.5-0.1-0.7-0.1
							c-0.2,0-0.5,0-0.7,0.1s-0.5,0.2-0.9,0.4c-0.3,0.2-0.6,0.6-0.8,0.9c-0.4,0.8-0.6,1.9-0.6,3.3
							C-5453.4,724.1-5453.2,725.3-5452.6,726.2z M-5449.5,726.4c-0.3,0.3-0.6,0.4-1,0.4c-0.4,0-0.7-0.1-1-0.4
							c-0.2-0.2-0.4-0.6-0.5-1c-0.1-0.4-0.1-1.3-0.1-2.7c0-1.5,0-2.4,0.1-2.9c0.1-0.5,0.2-0.8,0.5-1.1c0.3-0.3,0.6-0.4,1-0.4
							c0.4,0,0.7,0.1,0.9,0.4c0.3,0.3,0.4,0.7,0.5,1.2s0.1,1.4,0.1,2.8c0,1.3,0,2.2-0.1,2.7S-5449.3,726.1-5449.5,726.4z"/>
					</g>
				</g>
			</g>
		</g>
	</g>
</g>
</svg>
