<?xml version="1.0" encoding="utf-8"?>
<!-- Generator: Adobe Illustrator 22.1.0, SVG Export Plug-In . SVG Version: 6.00 Build 0)  -->
<svg version="1.1" id="Layer_1" focusable="false" xmlns="http://www.w3.org/2000/svg" xmlns:xlink="http://www.w3.org/1999/xlink"
	 x="0px" y="0px" viewBox="0 0 143.9 39.3" style="enable-background:new 0 0 143.9 39.3;" xml:space="preserve">
<g transform="matrix(1 0 0 -1 0 0)">
	<g>
		<path id="MJMATHI-43" d="M0.7-21.7c0,1.1,0.3,2.1,0.9,3.1c0.6,1,1.4,1.8,2.4,2.3c0.9,0.6,1.9,0.9,2.8,0.9c0.8,0,1.5-0.2,2-0.7
			C8.9-16.2,9-16.3,9-16.4c0.1-0.1,0.1-0.1,0.1-0.1l0,0c0,0,0.2,0.1,0.4,0.4c0.1,0.1,0.1,0.1,0.2,0.2s0.1,0.1,0.2,0.2
			c0.1,0.1,0.1,0.1,0.1,0.2l0.2,0.2h0.1c0.1,0,0.2,0,0.2-0.1c0,0-0.1-0.7-0.4-1.9c-0.3-1.3-0.5-1.9-0.5-2c0,0,0-0.1-0.1-0.1
			s-0.1,0-0.3,0H9.1C9-19.4,9-19.4,9-19.3c0,0,0,0,0,0.1c0,0.1,0,0.1,0,0.3c0,0.1,0,0.3,0,0.4c0,0.7-0.1,1.2-0.4,1.7S7.8-16,7.1-16
			c-0.2,0-0.5,0-0.8-0.1c-0.3-0.1-0.6-0.2-1-0.3c-0.4-0.2-0.8-0.4-1.2-0.8c-0.4-0.4-0.7-0.8-1-1.3c-0.3-0.5-0.5-1.1-0.7-1.9
			s-0.3-1.3-0.3-1.7c0-1.1,0.4-1.8,1.1-2.3c0.4-0.3,1-0.5,1.6-0.5c0.8,0,1.6,0.3,2.3,0.9c0.7,0.6,1.1,1.3,1.3,2.1
			c0,0.1,0.1,0.2,0.1,0.2c0,0,0.1,0,0.2,0c0.2,0,0.3,0,0.3-0.1c0,0,0-0.1,0-0.1c-0.3-1-0.8-1.8-1.7-2.6s-1.8-1.1-2.8-1.1
			c-1,0-1.9,0.3-2.7,1C1.1-23.8,0.7-22.9,0.7-21.7z"/>
	</g>
	<g>
		<path id="MJMAIN-3D" d="M15.2-20.4c0,0.1,0.1,0.2,0.2,0.3h8.9c0.1-0.1,0.2-0.2,0.2-0.3c0-0.1-0.1-0.2-0.2-0.3l-4.4,0h-4.4
			C15.3-20.6,15.2-20.5,15.2-20.4z M15.2-23.1c0,0.1,0.1,0.2,0.2,0.3h8.9c0.1-0.1,0.2-0.2,0.2-0.3c0-0.1-0.1-0.2-0.2-0.3h-8.9
			C15.3-23.3,15.2-23.2,15.2-23.1z"/>
	</g>
	<g transform="translate(2094,0)">
		<g>
			<path id="MJSZ3-28" d="M-2055.1-38.3c0,0,0-0.1-0.1-0.1h-0.4c0,0-0.1,0.1-0.4,0.4c-0.2,0.2-0.5,0.4-0.6,0.6s-0.4,0.5-0.8,0.9
				s-0.6,0.8-0.9,1.1c-0.3,0.4-0.5,0.8-0.9,1.4c-0.3,0.6-0.6,1.2-0.9,1.7c-0.2,0.6-0.5,1.3-0.8,2.1c-0.3,0.8-0.5,1.6-0.6,2.5
				s-0.3,1.8-0.4,2.8c-0.1,1.1-0.2,2.1-0.2,3.3c0,6.6,1.7,11.8,5.1,15.5c0.2,0.2,0.4,0.4,0.6,0.6c0.2,0.2,0.3,0.3,0.5,0.4
				c0.1,0.1,0.2,0.2,0.2,0.2h0.4c0.1-0.1,0.1-0.1,0.1-0.1c0,0-0.1-0.2-0.3-0.4s-0.4-0.5-0.7-0.8s-0.6-0.8-1-1.3
				c-0.4-0.5-0.7-1.2-1.1-2c-0.4-0.8-0.7-1.7-1.1-2.7s-0.6-2.1-0.8-3.5c-0.2-1.4-0.4-2.8-0.4-4.4c0-0.4,0-0.9,0-1.5
				c0-3.6,0.4-6.8,1.3-9.5s2.2-5,4-6.9C-2055.1-38.2-2055.1-38.3-2055.1-38.3z"/>
		</g>
		<g transform="translate(736,0)">
			<g transform="translate(120,0)">
				<rect x="-2908.9" y="-21.3" width="9.7" height="-0.8"/>
				<g>
					<path id="MJMAIN-32" d="M-2906-9.8c-0.3,0-0.5,0.1-0.6,0.3s-0.2,0.4-0.2,0.6c0,0.7,0.2,1.2,0.7,1.7s1.1,0.7,1.8,0.7
						c0.8,0,1.6-0.3,2.1-0.8c0.6-0.5,0.9-1.2,0.9-2c0-0.4-0.1-0.8-0.3-1.1c-0.2-0.4-0.4-0.7-0.7-0.9c-0.3-0.3-0.6-0.6-1.1-1
						c-0.3-0.3-0.8-0.7-1.4-1.3l-0.8-0.8l1.1,0c1.5,0,2.2,0,2.3,0.1c0.1,0,0.2,0.4,0.3,1.2v0h0.6v0c0,0-0.1-0.5-0.2-1.3
						c-0.1-0.8-0.2-1.2-0.2-1.3v0h-5.2v0.3v0.2c0,0.1,0,0.1,0.1,0.2c0.1,0.1,0.2,0.2,0.4,0.5c0.3,0.3,0.5,0.6,0.7,0.8
						c0.1,0.1,0.2,0.3,0.5,0.5c0.2,0.3,0.4,0.4,0.5,0.5c0.1,0.1,0.2,0.2,0.4,0.5c0.2,0.2,0.3,0.4,0.4,0.5c0.1,0.1,0.2,0.2,0.3,0.4
						c0.1,0.2,0.2,0.3,0.3,0.4s0.1,0.3,0.2,0.4c0.1,0.1,0.1,0.3,0.2,0.4s0.1,0.3,0.1,0.4s0,0.3,0,0.5c0,0.6-0.2,1.1-0.5,1.5
						c-0.3,0.4-0.8,0.6-1.4,0.6c-0.3,0-0.6-0.1-0.8-0.2s-0.4-0.3-0.5-0.5c-0.1-0.1-0.1-0.2-0.1-0.3c0,0,0,0,0.1,0
						c0.2,0,0.3-0.1,0.5-0.2c0.2-0.1,0.3-0.3,0.3-0.6c0-0.2-0.1-0.4-0.2-0.6S-2905.8-9.8-2906-9.8z"/>
				</g>
				<g>
					<path id="MJMATHI-3C0" d="M-2906.2-34.9c-0.3,0-0.5,0.2-0.5,0.5v0.2l0.2,0.4c0.7,1.5,1.2,2.7,1.5,3.8l0.1,0.3h-0.4
						c-0.4,0-0.6,0-0.8,0c-0.1,0-0.3-0.1-0.5-0.3c-0.1-0.1-0.2-0.1-0.3-0.3c-0.1-0.1-0.2-0.2-0.3-0.3c-0.1-0.1-0.1-0.1-0.1-0.2
						c0,0-0.1,0-0.2,0c-0.2,0-0.3,0-0.3,0.1c0,0.1,0.1,0.2,0.3,0.5c0.2,0.3,0.4,0.6,0.8,0.9c0.3,0.3,0.7,0.5,1,0.5
						c0.1,0,1.1,0,3.1,0c1.5,0,2.2,0,2.3,0c0.2-0.1,0.3-0.2,0.3-0.4c0-0.3-0.1-0.5-0.4-0.6c-0.1,0-0.4,0-1,0h-0.9l0-0.2
						c-0.1-0.7-0.2-1.2-0.2-1.7c0-0.5,0-0.9,0.1-1.3c0.1-0.4,0.2-0.7,0.3-0.9c0.1-0.2,0.1-0.3,0.1-0.4c0-0.2-0.1-0.3-0.2-0.4
						s-0.3-0.2-0.5-0.2c-0.1,0-0.2,0-0.3,0c-0.1,0-0.1,0.1-0.2,0.3c-0.1,0.2-0.2,0.5-0.2,0.8c0,0.1,0,0.3,0,0.6c0,0.5,0,0.9,0.1,1.5
						c0.1,0.5,0.2,0.9,0.3,1.3c0.1,0.3,0.1,0.5,0.1,0.6h-1.4l0-0.1c0,0-0.1-0.4-0.3-1.1c-0.2-0.7-0.4-1.5-0.6-2.2
						c-0.2-0.8-0.4-1.2-0.4-1.4C-2905.7-34.8-2905.9-34.9-2906.2-34.9z"/>
				</g>
			</g>
		</g>
		<g>
			<path id="MJSZ3-29" d="M-2041.1-5.2c0,0.1,0,0.1,0,0.1c0,0,0.1,0,0.2,0h0.1h0.2c0,0,0.1-0.1,0.4-0.4c0.2-0.2,0.5-0.4,0.6-0.6
				c0.2-0.2,0.4-0.5,0.8-0.9s0.6-0.8,0.9-1.1c0.3-0.4,0.5-0.8,0.9-1.4c0.3-0.6,0.6-1.2,0.9-1.7c0.2-0.6,0.5-1.3,0.8-2.1
				c0.3-0.8,0.5-1.6,0.6-2.5c0.1-0.8,0.3-1.8,0.4-2.8c0.1-1.1,0.2-2.2,0.2-3.3c0-1.1,0-2-0.1-2.8c-0.4-5.3-2.1-9.6-5-12.7
				c-0.2-0.2-0.4-0.4-0.6-0.6c-0.2-0.2-0.3-0.3-0.5-0.4c-0.1-0.1-0.2-0.2-0.2-0.2h-0.2c-0.1,0-0.2,0-0.2,0c0,0-0.1,0.1-0.1,0.1
				c0.5,0.5,1,1.1,1.5,1.7c2.7,3.6,4,8.5,4,14.8c0,1.9-0.1,3.6-0.4,5.3c-0.2,1.6-0.5,3-0.9,4.1s-0.8,2.1-1.3,3.1
				c-0.5,1-1,1.7-1.4,2.3c-0.4,0.5-0.9,1.1-1.4,1.6c0,0,0,0-0.1,0.1C-2041-5.3-2041-5.3-2041.1-5.2C-2041-5.2-2041-5.2-2041.1-5.2
				L-2041.1-5.2z"/>
		</g>
		<g transform="translate(2406,1177)">
			<g transform="scale(0.707)">
				<path id="MJMAIN-33" d="M-4436-1181.3c-0.2,0-0.3,0.1-0.4,0.2c-0.1,0.1-0.2,0.3-0.2,0.4c0,0.4,0.2,0.7,0.5,1
					c0.3,0.3,0.7,0.4,1.1,0.4c0.2,0,0.4,0,0.4,0c0.5-0.1,0.9-0.3,1.1-0.5c0.3-0.3,0.4-0.6,0.4-0.9c0-0.3-0.1-0.7-0.3-1
					c-0.2-0.3-0.5-0.6-0.9-0.7l0,0c0,0,0,0,0.1,0c0.1,0,0.2,0,0.3-0.1s0.3-0.1,0.4-0.2c0.5-0.3,0.8-0.8,0.8-1.4c0-0.5-0.2-1-0.6-1.4
					c-0.4-0.4-0.9-0.6-1.5-0.6c-0.5,0-1,0.1-1.4,0.4c-0.4,0.3-0.6,0.6-0.6,1.1c0,0.2,0.1,0.3,0.2,0.4c0.1,0.1,0.3,0.2,0.4,0.2
					c0.2,0,0.3-0.1,0.5-0.2c0.1-0.1,0.2-0.3,0.2-0.4c0-0.1,0-0.1,0-0.2c0-0.1,0-0.1-0.1-0.2s-0.1-0.1-0.1-0.1s-0.1-0.1-0.1-0.1
					c0,0-0.1,0-0.1,0s-0.1,0-0.1,0l0,0c0.3-0.3,0.7-0.4,1.2-0.4c0.4,0,0.6,0.2,0.8,0.5c0.1,0.2,0.2,0.5,0.2,1v0.2
					c0,0.6-0.2,1-0.6,1.3c-0.1,0-0.3,0.1-0.6,0.1l-0.4,0l0,0c0,0,0,0.1,0,0.2c0,0.1,0,0.2,0.1,0.2c0.2,0,0.4,0,0.6,0
					c0.2,0,0.4,0.2,0.6,0.4c0.2,0.2,0.3,0.6,0.3,1.1v0.1c0,0.4-0.1,0.6-0.3,0.8c-0.1,0.1-0.3,0.1-0.5,0.1c-0.2,0-0.4,0-0.6-0.1
					s-0.3-0.1-0.4-0.2c-0.1-0.1-0.1-0.1-0.1-0.1h0c0,0,0,0,0.1,0s0.1,0,0.1,0s0.1,0,0.1-0.1c0,0,0.1-0.1,0.1-0.1
					c0-0.1,0-0.1,0.1-0.1c0,0,0-0.1,0-0.2c0-0.1,0-0.3-0.1-0.4S-4435.8-1181.2-4436-1181.3z"/>
			</g>
			<g transform="scale(0.707)">
				<path id="MJMAIN-2F" d="M-4428.2-1178.4c0.1,0,0.1,0,0.1-0.1c0,0,0.1-0.1,0.1-0.1c0,0-0.6-1.6-1.7-4.7c-1.1-3.1-1.7-4.7-1.8-4.8
					c0-0.1-0.1-0.1-0.2-0.1c0,0-0.1,0-0.1,0c0,0-0.1,0.1-0.1,0.1c0,0.1,0.6,1.7,1.7,4.8c1.1,3.1,1.7,4.7,1.7,4.8
					C-4428.3-1178.5-4428.3-1178.4-4428.2-1178.4z"/>
			</g>
			<g transform="scale(0.707)">
				<path id="MJMAIN-32_1_" d="M-4426.4-1181.6c-0.2,0-0.3,0.1-0.4,0.2c-0.1,0.1-0.2,0.3-0.2,0.4c0,0.5,0.2,0.9,0.5,1.2
					s0.8,0.5,1.3,0.5c0.6,0,1.1-0.2,1.5-0.6c0.4-0.4,0.6-0.8,0.6-1.4c0-0.3-0.1-0.6-0.2-0.8c-0.1-0.3-0.3-0.5-0.5-0.7
					s-0.4-0.4-0.8-0.7c-0.2-0.2-0.6-0.5-1-0.9l-0.6-0.6l0.7,0c1,0,1.6,0,1.6,0c0,0,0.1,0.3,0.2,0.9v0h0.4v0c0,0,0-0.3-0.1-0.9
					c-0.1-0.6-0.1-0.9-0.1-0.9v0h-3.7v0.2v0.1c0,0,0,0.1,0.1,0.1c0,0.1,0.1,0.2,0.3,0.3c0.2,0.2,0.4,0.4,0.5,0.6
					c0.1,0.1,0.2,0.2,0.3,0.4c0.2,0.2,0.3,0.3,0.3,0.4s0.2,0.2,0.3,0.3c0.1,0.2,0.2,0.3,0.3,0.3c0.1,0.1,0.1,0.2,0.2,0.3
					s0.2,0.2,0.2,0.3c0,0.1,0.1,0.2,0.1,0.3s0.1,0.2,0.1,0.3c0,0.1,0,0.2,0.1,0.3c0,0.1,0,0.2,0,0.3c0,0.4-0.1,0.8-0.3,1.1
					c-0.2,0.3-0.5,0.5-1,0.5c-0.2,0-0.4-0.1-0.6-0.2c-0.2-0.1-0.3-0.2-0.3-0.3c-0.1-0.1-0.1-0.2-0.1-0.2c0,0,0,0,0,0
					c0.1,0,0.2,0,0.4-0.1c0.1-0.1,0.2-0.2,0.2-0.5c0-0.2-0.1-0.3-0.2-0.4C-4426-1181.5-4426.2-1181.6-4426.4-1181.6z"/>
			</g>
		</g>
	</g>
	<g transform="translate(5829,0)">
		<g>
			<path id="MJMAIN-63" d="M-5742.6-21c0,0-0.1,0-0.3,0c-0.2,0-0.4,0.1-0.5,0.2c-0.1,0.1-0.2,0.3-0.2,0.5c0,0.2,0.1,0.4,0.2,0.5
				c0,0,0.1,0.1,0.1,0.1s0,0-0.1,0c-0.2,0-0.5,0.1-0.7,0.1c-0.5,0-0.8-0.1-1.1-0.4c-0.4-0.4-0.7-1.2-0.7-2.2c0-0.8,0.1-1.4,0.4-1.8
				c0.4-0.6,0.9-0.9,1.5-0.9c0.4,0,0.7,0.1,0.9,0.4c0.2,0.2,0.4,0.5,0.5,0.9c0,0.1,0,0.1,0.1,0.1c0,0,0.1,0,0.2,0h0.2
				c0.1-0.1,0.1-0.1,0.1-0.1c0,0,0-0.1-0.1-0.2s-0.1-0.3-0.2-0.5c-0.1-0.2-0.2-0.4-0.4-0.5c-0.2-0.2-0.4-0.3-0.7-0.4
				c-0.3-0.1-0.6-0.2-1-0.2c-0.8,0-1.5,0.3-2.1,0.9c-0.6,0.6-0.9,1.3-0.9,2.2c0,1,0.3,1.8,0.9,2.4c0.6,0.6,1.3,0.9,2.1,0.9
				s1.4-0.1,1.7-0.4c0.3-0.3,0.5-0.5,0.5-0.9c0-0.2-0.1-0.4-0.2-0.5L-5742.6-21z"/>
		</g>
		<g>
			<path id="MJMAIN-6F" d="M-5741.2-22.2c0,0.9,0.3,1.6,0.9,2.3c0.6,0.6,1.3,1,2.2,1c0.8,0,1.6-0.3,2.2-0.9c0.6-0.6,0.9-1.4,0.9-2.3
				c0-0.9-0.3-1.6-0.9-2.2s-1.3-0.9-2.2-0.9c-0.9,0-1.6,0.3-2.2,0.9C-5740.9-23.8-5741.2-23.1-5741.2-22.2z M-5738.1-24.8
				c1.1,0,1.7,0.8,1.7,2.3v0.4v0.3c0,0.2,0,0.4,0,0.5c0,0.1,0,0.3-0.1,0.5s-0.1,0.4-0.2,0.5c-0.1,0.1-0.2,0.3-0.4,0.4
				c-0.2,0.1-0.4,0.2-0.7,0.3c0,0-0.1,0-0.2,0c-0.3,0-0.5-0.1-0.8-0.2c-0.4-0.2-0.7-0.5-0.8-0.9c-0.1-0.4-0.2-0.8-0.2-1.3v-0.3
				c0-0.9,0.1-1.5,0.3-1.9C-5739.3-24.5-5738.8-24.8-5738.1-24.8z"/>
		</g>
		<g>
			<path id="MJMAIN-73" d="M-5730.5-20.8c0,0.4-0.1,0.7-0.4,1c-0.3,0.3-0.6,0.4-1.1,0.4c-0.3,0-0.6-0.1-0.9-0.2
				c-0.3-0.2-0.4-0.4-0.4-0.7c0,0,0-0.1,0-0.2c0-0.1,0.1-0.2,0.2-0.3c0.1-0.1,0.3-0.3,0.6-0.3c0.2,0,0.4-0.1,0.6-0.1
				c0.2,0,0.4-0.1,0.6-0.1c0.2,0,0.3-0.1,0.4-0.2c0.2-0.1,0.3-0.2,0.5-0.3c0.1-0.1,0.3-0.3,0.4-0.6c0.1-0.3,0.2-0.6,0.2-0.9
				c0-0.6-0.2-1-0.5-1.4s-0.9-0.6-1.7-0.6h-0.1c-0.5,0-0.9,0.2-1.3,0.5l-0.1-0.1l-0.1-0.1c-0.1-0.1-0.1-0.1-0.2-0.2l-0.2-0.1h-0.1
				h-0.1c0,0-0.1,0-0.1,0.1v1.1v0.8c0,0.2,0,0.3,0,0.3c0,0,0.1,0.1,0.1,0.1h0.1c0.1,0,0.2,0,0.2-0.1c0,0,0.1-0.1,0.1-0.2
				c0-0.1,0-0.2,0.1-0.4c0.1-0.2,0.1-0.4,0.3-0.6c0.3-0.5,0.8-0.7,1.4-0.7c0.9,0,1.4,0.4,1.4,1.1c0,0.3-0.1,0.5-0.3,0.7
				c-0.2,0.2-0.6,0.4-1.2,0.5c-0.6,0.1-1,0.2-1.2,0.3c-0.3,0.2-0.6,0.4-0.8,0.6c-0.2,0.3-0.3,0.6-0.3,0.9c0,0.4,0.1,0.7,0.2,0.9
				c0.2,0.3,0.4,0.4,0.6,0.6s0.5,0.2,0.7,0.3s0.4,0.1,0.6,0.1h0.2c0.4,0,0.7-0.1,1-0.2l0.2-0.1l0.1,0.1c0.1,0.1,0.2,0.2,0.3,0.2h0.1
				h0.1c0,0,0.1,0,0.1-0.1v-1.8l-0.1-0.1h-0.4C-5730.5-20.9-5730.5-20.9-5730.5-20.8z"/>
		</g>
		<g transform="scale(0.707)">
			<path id="MJMAIN-32_2_" d="M-5728-15.2c-0.2,0-0.3,0.1-0.4,0.2s-0.2,0.3-0.2,0.4c0,0.5,0.2,0.9,0.5,1.2c0.3,0.3,0.8,0.5,1.3,0.5
				c0.6,0,1.1-0.2,1.5-0.6c0.4-0.4,0.6-0.8,0.6-1.4c0-0.3-0.1-0.6-0.2-0.8c-0.1-0.3-0.3-0.5-0.5-0.7c-0.2-0.2-0.4-0.4-0.8-0.7
				c-0.2-0.2-0.6-0.5-1-0.9l-0.6-0.6l0.7,0c1,0,1.6,0,1.6,0c0,0,0.1,0.3,0.2,0.9v0h0.4v0c0,0,0-0.3-0.1-0.9
				c-0.1-0.6-0.1-0.9-0.1-0.9v0h-3.7v0.2v0.1c0,0,0,0.1,0.1,0.1s0.1,0.2,0.3,0.3c0.2,0.2,0.4,0.4,0.5,0.6c0.1,0.1,0.2,0.2,0.3,0.4
				c0.2,0.2,0.3,0.3,0.3,0.4c0.1,0.1,0.2,0.2,0.3,0.3c0.1,0.2,0.2,0.3,0.3,0.3c0.1,0.1,0.1,0.2,0.2,0.3c0.1,0.1,0.2,0.2,0.2,0.3
				c0,0.1,0.1,0.2,0.1,0.3s0.1,0.2,0.1,0.3c0,0.1,0,0.2,0.1,0.3c0,0.1,0,0.2,0,0.3c0,0.4-0.1,0.8-0.3,1.1s-0.5,0.5-1,0.5
				c-0.2,0-0.4-0.1-0.6-0.2c-0.2-0.1-0.3-0.2-0.3-0.3c-0.1-0.1-0.1-0.2-0.1-0.2c0,0,0,0,0,0c0.1,0,0.2,0,0.4-0.1
				c0.1-0.1,0.2-0.2,0.2-0.5c0-0.2-0.1-0.3-0.2-0.4C-5727.7-15.2-5727.8-15.2-5728-15.2z"/>
		</g>
	</g>
	<g transform="translate(7622,0)">
		<g>
			<path id="MJSZ2-28" d="M-7513.3-23.9c0,0,0,0.7,0,2.1c0,1.4,0.1,2.8,0.3,4.1c0.2,1.3,0.5,2.3,0.9,3.2s0.7,1.7,1.2,2.4
				s0.9,1.3,1.3,1.7s0.8,0.8,1.2,1.1h0.4c0.1-0.1,0.1-0.1,0.1-0.1c0,0-0.1-0.1-0.2-0.3c-0.1-0.2-0.3-0.4-0.6-0.7
				c-0.2-0.3-0.5-0.6-0.8-1.1c-0.3-0.4-0.6-1-0.9-1.6c-0.3-0.7-0.5-1.4-0.8-2.2c-0.3-0.8-0.4-1.8-0.6-2.9c-0.1-1.1-0.2-2.4-0.2-3.7
				c0-1.1,0-2,0.1-2.7c0.1-1.3,0.3-2.6,0.6-3.7c0.3-1.1,0.6-2,1-2.7c0.4-0.7,0.7-1.3,1.1-1.8s0.6-0.8,0.9-1.1
				c0.2-0.2,0.3-0.4,0.3-0.4c0,0,0-0.1-0.1-0.1h-0.4c-0.4,0.3-0.8,0.7-1.2,1.1s-0.8,1-1.3,1.7c-0.5,0.8-0.9,1.6-1.2,2.4
				c-0.3,0.9-0.6,1.9-0.9,3.2L-7513.3-23.9z"/>
		</g>
		<g transform="translate(597,0)">
			<g transform="translate(120,0)">
				<rect x="-8222.8" y="-21.3" width="17.7" height="-0.8"/>
				<g transform="translate(60,676)">
					<g>
						<path id="MJMATHI-3C0_1_" d="M-8280.1-691.9c-0.3,0-0.5,0.2-0.5,0.5v0.2l0.2,0.4c0.7,1.5,1.2,2.7,1.5,3.8l0.1,0.3h-0.4
							c-0.4,0-0.6,0-0.8,0s-0.3-0.1-0.5-0.3c-0.1-0.1-0.2-0.1-0.3-0.3c-0.1-0.1-0.2-0.2-0.3-0.3s-0.1-0.1-0.1-0.2c0,0-0.1,0-0.2,0
							c-0.2,0-0.3,0-0.3,0.1c0,0.1,0.1,0.2,0.3,0.5c0.2,0.3,0.4,0.6,0.8,0.9c0.3,0.3,0.7,0.5,1,0.5c0.1,0,1.1,0,3.1,0
							c1.5,0,2.2,0,2.3,0c0.2-0.1,0.3-0.2,0.3-0.4c0-0.3-0.1-0.5-0.4-0.6c-0.1,0-0.4,0-1,0h-0.9l0-0.2c-0.1-0.7-0.2-1.2-0.2-1.7
							c0-0.5,0-0.9,0.1-1.3c0.1-0.4,0.2-0.7,0.3-0.9s0.1-0.3,0.1-0.4c0-0.2-0.1-0.3-0.2-0.4s-0.3-0.2-0.5-0.2c-0.1,0-0.2,0-0.3,0
							c-0.1,0-0.1,0.1-0.2,0.3c-0.1,0.2-0.2,0.5-0.2,0.8c0,0.1,0,0.3,0,0.6c0,0.5,0,0.9,0.1,1.5s0.2,0.9,0.3,1.3
							c0.1,0.3,0.1,0.5,0.1,0.6h-1.4l0-0.1c0,0-0.1-0.4-0.3-1.1c-0.2-0.7-0.4-1.5-0.6-2.2s-0.4-1.2-0.4-1.4
							C-8279.6-691.8-8279.8-691.9-8280.1-691.9z"/>
					</g>
					<g>
						<path id="MJMATHI-3BA" d="M-8272.8-691.9c-0.1,0-0.2,0-0.3,0.1c-0.1,0.1-0.1,0.1-0.2,0.2c0,0,0,0.1,0,0.1c0,0.1,0.2,1,0.7,2.8
							c0.4,1.7,0.7,2.7,0.7,2.7c0.1,0.3,0.3,0.4,0.6,0.4c0.1,0,0.2,0,0.3-0.1c0.1-0.1,0.1-0.1,0.1-0.2c0-0.1,0-0.1,0-0.1
							c0-0.1-0.1-0.5-0.2-1l-0.2-0.9c0,0,0.1,0,0.2,0.1c0.1,0.1,0.3,0.1,0.4,0.2c0.2,0.1,0.5,0.4,1,0.8c0.5,0.4,0.9,0.7,1.3,0.9
							c0.3,0.2,0.7,0.3,1,0.3c0.2,0,0.4-0.1,0.5-0.2c0.1-0.1,0.2-0.2,0.2-0.4c0-0.2-0.1-0.4-0.3-0.6c-0.2-0.2-0.4-0.3-0.6-0.3
							c-0.2,0-0.3,0.1-0.4,0.2c-0.1,0.1-0.2,0.2-0.2,0.4c0,0,0,0.1,0,0.2l-0.1-0.1c-0.3-0.1-0.7-0.4-1.1-0.8l-0.9-0.7l-0.2-0.1h0.1
							c0.2,0,0.4,0,0.8-0.1c0.4-0.1,0.7-0.2,0.9-0.3c0.5-0.3,0.8-0.6,0.8-1.1c0-0.1,0-0.3-0.1-0.5c0-0.2-0.1-0.5-0.1-0.7
							c0-0.4,0.1-0.6,0.4-0.6c0.4,0,0.8,0.5,1.1,1.5c0,0.1,0.1,0.2,0.1,0.2c0,0,0.1,0,0.2,0c0.2,0,0.3,0,0.3-0.1
							c0-0.2-0.1-0.6-0.4-1.1s-0.6-0.9-1-1c-0.1,0-0.2,0-0.4,0c-0.4,0-0.7,0.1-1,0.4c-0.2,0.3-0.4,0.6-0.4,1c0,0.2,0,0.3,0,0.4
							c0,0.1,0,0.2,0,0.3c0,0.2-0.1,0.4-0.3,0.6c-0.2,0.1-0.4,0.3-0.7,0.3c-0.3,0.1-0.5,0.1-0.7,0.1c-0.2,0-0.3,0-0.5,0h-0.1
							l-0.3-1.4c-0.2-0.9-0.4-1.4-0.4-1.5C-8272.3-691.8-8272.5-691.9-8272.8-691.9z"/>
					</g>
				</g>
				<g>
					<path id="MJMAIN-32_3_" d="M-8215.9-28.8c-0.3,0-0.5,0.1-0.6,0.3c-0.1,0.2-0.2,0.4-0.2,0.6c0,0.7,0.2,1.2,0.7,1.7
						c0.5,0.5,1.1,0.7,1.8,0.7c0.8,0,1.6-0.3,2.1-0.8c0.6-0.5,0.9-1.2,0.9-2c0-0.4-0.1-0.8-0.3-1.1c-0.2-0.4-0.4-0.7-0.7-0.9
						c-0.3-0.3-0.6-0.6-1.1-1c-0.3-0.3-0.8-0.7-1.4-1.3l-0.8-0.8l1.1,0c1.5,0,2.2,0,2.3,0.1c0.1,0,0.2,0.4,0.3,1.2v0h0.6v0
						c0,0-0.1-0.5-0.2-1.3c-0.1-0.8-0.2-1.2-0.2-1.3v0h-5.2v0.3v0.2c0,0.1,0,0.1,0.1,0.2s0.2,0.2,0.4,0.5c0.3,0.3,0.5,0.6,0.7,0.8
						c0.1,0.1,0.2,0.3,0.5,0.5c0.2,0.3,0.4,0.4,0.5,0.5s0.2,0.2,0.4,0.5c0.2,0.2,0.3,0.4,0.4,0.5s0.2,0.2,0.3,0.4
						c0.1,0.2,0.2,0.3,0.3,0.4s0.1,0.3,0.2,0.4c0.1,0.1,0.1,0.3,0.2,0.4s0.1,0.3,0.1,0.4c0,0.1,0,0.3,0,0.5c0,0.6-0.2,1.1-0.5,1.5
						c-0.3,0.4-0.8,0.6-1.4,0.6c-0.3,0-0.6-0.1-0.8-0.2c-0.2-0.2-0.4-0.3-0.5-0.5c-0.1-0.1-0.1-0.2-0.1-0.3c0,0,0,0,0.1,0
						c0.2,0,0.3-0.1,0.5-0.2c0.2-0.1,0.3-0.3,0.3-0.6c0-0.2-0.1-0.4-0.2-0.6C-8215.4-28.7-8215.7-28.8-8215.9-28.8z"/>
				</g>
			</g>
		</g>
		<g>
			<path id="MJSZ2-29" d="M-7485.9-9.4c0,0.1,0.1,0.2,0.2,0.2h0.1h0.2c0.4-0.3,0.8-0.7,1.2-1.1s0.8-1,1.3-1.7
				c0.5-0.8,0.9-1.6,1.2-2.4s0.6-1.9,0.9-3.2c0.2-1.3,0.3-2.6,0.3-4.1c0-1.4-0.1-2.8-0.3-4c-0.2-1.3-0.5-2.3-0.9-3.2
				s-0.7-1.7-1.2-2.4c-0.5-0.7-0.9-1.3-1.3-1.7s-0.7-0.8-1.2-1.1h-0.2c-0.1,0-0.2,0-0.2,0c0,0-0.1,0.1-0.1,0.1
				c0.3,0.3,0.6,0.7,1,1.2c1.6,2.2,2.6,5,2.9,8.4c0.1,0.7,0.1,1.6,0.1,2.7c0,1.1,0,2-0.1,2.7c-0.4,4-1.6,7.2-3.7,9.4
				C-7485.9-9.4-7485.9-9.4-7485.9-9.4z"/>
		</g>
	</g>
</g>
</svg>
