<?xml version="1.0" encoding="utf-8"?>
<!-- Generator: Adobe Illustrator 22.1.0, SVG Export Plug-In . SVG Version: 6.00 Build 0)  -->
<svg version="1.1" id="Layer_1" focusable="false" xmlns="http://www.w3.org/2000/svg" xmlns:xlink="http://www.w3.org/1999/xlink"
	 x="0px" y="0px" viewBox="0 0 383 34.9" style="enable-background:new 0 0 383 34.9;" xml:space="preserve">
<g transform="matrix(1 0 0 -1 0 0)">
	<g>
		<path id="MJMATHI-6E" d="M0.3-16.8c0,0.1,0,0.1,0,0.2c0,0.1,0.1,0.3,0.2,0.5c0.1,0.3,0.2,0.5,0.3,0.7C0.9-15.2,1-15,1.2-14.8
			s0.4,0.2,0.6,0.2c0.3,0,0.6-0.1,0.8-0.3s0.4-0.3,0.4-0.5s0.1-0.2,0.1-0.3c0,0,0,0,0,0l0.2,0.2c0.6,0.6,1.2,0.9,1.9,0.9
			c0.5,0,0.9-0.1,1.2-0.4C6.8-15.2,7-15.6,7-16.1c0-0.5-0.2-1.2-0.5-2.2c-0.4-1-0.5-1.6-0.5-1.8c0-0.2,0.1-0.4,0.2-0.4
			c0.1,0,0.1,0,0.1,0c0.3,0,0.5,0.2,0.7,0.5c0.2,0.3,0.4,0.7,0.5,1.1c0,0.1,0.1,0.1,0.3,0.1c0.2,0,0.3,0,0.3-0.1c0,0,0-0.1-0.1-0.2
			c-0.1-0.3-0.2-0.5-0.3-0.8c-0.1-0.3-0.3-0.5-0.6-0.8s-0.6-0.4-1-0.4c-0.4,0-0.8,0.1-0.9,0.4S4.9-20,4.9-19.8
			c0,0.2,0.2,0.7,0.5,1.7s0.5,1.6,0.5,2.1c0,0.5-0.2,0.8-0.6,0.8H5.2c-0.8,0-1.5-0.5-2-1.4l-0.1-0.2l-0.5-1.9
			c-0.3-1.2-0.5-1.9-0.5-2c-0.1-0.3-0.3-0.4-0.6-0.4c-0.1,0-0.2,0-0.3,0.1c-0.1,0.1-0.1,0.1-0.2,0.2s0,0.1,0,0.1
			c0,0.1,0.2,0.9,0.5,2.3s0.5,2.2,0.6,2.3c0,0,0,0.2,0,0.3c0,0.4-0.1,0.5-0.3,0.5c-0.4,0-0.6-0.5-0.9-1.4c-0.1-0.2-0.1-0.3-0.1-0.3
			c0-0.1-0.1-0.1-0.3-0.1H0.4C0.3-16.8,0.3-16.8,0.3-16.8z"/>
	</g>
	<g transform="scale(0.707)">
		<path id="MJMATHI-3BA" d="M9.2-23C9.1-23,9-23,9-22.9s-0.1,0.1-0.1,0.1c0,0,0,0.1,0,0.1c0,0.1,0.2,0.7,0.5,2
			c0.3,1.2,0.5,1.9,0.5,1.9c0.1,0.2,0.2,0.3,0.5,0.3c0.1,0,0.1,0,0.2-0.1c0.1,0,0.1-0.1,0.1-0.1c0,0,0-0.1,0-0.1
			c0-0.1-0.1-0.3-0.2-0.7l-0.2-0.7c0,0,0.1,0,0.2,0.1s0.2,0.1,0.3,0.1c0.1,0.1,0.3,0.3,0.7,0.6c0.4,0.3,0.7,0.5,0.9,0.6
			c0.2,0.1,0.5,0.2,0.7,0.2c0.1,0,0.3,0,0.3-0.1c0.1-0.1,0.1-0.2,0.1-0.3c0-0.2-0.1-0.3-0.2-0.4c-0.1-0.1-0.3-0.2-0.4-0.2
			c-0.1,0-0.2,0-0.3,0.1c-0.1,0.1-0.1,0.2-0.1,0.3c0,0,0,0.1,0,0.1l-0.1,0c-0.2-0.1-0.5-0.3-0.8-0.6l-0.6-0.5l-0.1-0.1h0
			c0.1,0,0.3,0,0.5-0.1s0.5-0.1,0.7-0.2c0.4-0.2,0.6-0.4,0.6-0.8c0-0.1,0-0.2,0-0.4s-0.1-0.3-0.1-0.5c0-0.3,0.1-0.4,0.3-0.4
			c0.3,0,0.6,0.4,0.7,1.1c0,0.1,0,0.1,0.1,0.1s0.1,0,0.2,0c0.1,0,0.2,0,0.2-0.1c0-0.2-0.1-0.4-0.3-0.8c-0.2-0.4-0.4-0.6-0.7-0.7
			c-0.1,0-0.2,0-0.3,0c-0.3,0-0.5,0.1-0.7,0.3c-0.2,0.2-0.3,0.4-0.3,0.7c0,0.1,0,0.2,0,0.3c0,0.1,0,0.2,0,0.2c0,0.2-0.1,0.3-0.2,0.4
			c-0.1,0.1-0.3,0.2-0.5,0.2s-0.4,0.1-0.5,0.1c-0.1,0-0.2,0-0.4,0h0l-0.2-1c-0.2-0.7-0.3-1-0.3-1C9.5-22.9,9.4-23,9.2-23z"/>
	</g>
	<g>
		<path id="MJMAIN-28" d="M16.8-17.3c0,0.6,0,1.2,0.1,1.8c0.1,0.6,0.2,1.1,0.3,1.5c0.1,0.4,0.3,0.8,0.5,1.2c0.2,0.4,0.4,0.7,0.5,0.9
			c0.1,0.2,0.3,0.5,0.6,0.7c0.3,0.3,0.4,0.4,0.5,0.5c0,0.1,0.2,0.2,0.3,0.3h0.2h0.1c0.1,0,0.2,0,0.2-0.1c0,0-0.1-0.1-0.2-0.3
			c-0.2-0.2-0.3-0.4-0.6-0.7c-0.2-0.3-0.5-0.7-0.7-1.2c-0.2-0.5-0.4-1.1-0.6-1.9s-0.2-1.7-0.2-2.7c0-1,0.1-1.9,0.2-2.7
			s0.3-1.4,0.6-1.9c0.2-0.5,0.5-0.9,0.7-1.2c0.2-0.3,0.4-0.6,0.6-0.7c0.2-0.2,0.2-0.3,0.2-0.3c0-0.1-0.1-0.1-0.2-0.1h0h-0.2
			l-0.4,0.3c-0.9,0.8-1.5,1.8-1.9,3S16.8-18.6,16.8-17.3z"/>
	</g>
	<g>
		<path id="MJMATHI-70" d="M21.2-16.8c0,0,0,0.1,0,0.1c0,0,0,0.1,0.1,0.3c0,0.2,0.1,0.3,0.1,0.4c0.1,0.1,0.1,0.3,0.2,0.5
			c0.1,0.2,0.2,0.3,0.3,0.4c0.1,0.1,0.2,0.2,0.4,0.3s0.3,0.1,0.5,0.1c0.7,0,1.1-0.3,1.3-0.9l0.1,0.1c0.6,0.5,1.1,0.8,1.6,0.8
			c0.6,0,1.1-0.2,1.4-0.7c0.3-0.4,0.5-1,0.5-1.6c0-1-0.4-1.9-1.1-2.8c-0.7-0.8-1.5-1.3-2.4-1.3c-0.2,0-0.4,0-0.5,0.1
			c-0.1,0-0.2,0.1-0.3,0.2c-0.1,0.1-0.2,0.2-0.3,0.2l-0.1,0.1c0,0-0.1-0.4-0.3-1.2s-0.3-1.2-0.3-1.2c0-0.1,0-0.1,0.1-0.1
			s0.2,0,0.5,0h0.3c0.1-0.1,0.1-0.1,0.1-0.1c0,0,0-0.1,0-0.3c0-0.1-0.1-0.2-0.1-0.2c0,0-0.1,0-0.2-0.1c0,0-0.1,0-0.2,0
			c-0.1,0-0.2,0-0.5,0c-0.2,0-0.5,0-0.9,0c-0.7,0-1.1,0-1.2,0h-0.1c-0.1,0.1-0.1,0.1-0.1,0.2c0,0.3,0.1,0.4,0.2,0.5h0.3
			c0.3,0,0.5,0.1,0.5,0.2c0,0.1,0.3,1.2,0.9,3.3S23-16,23-15.9c0,0,0,0.1,0,0.2c0,0.4-0.1,0.6-0.3,0.6c-0.2,0-0.4-0.1-0.5-0.4
			s-0.2-0.5-0.3-0.9s-0.1-0.5-0.2-0.5c0,0-0.1,0-0.2,0h-0.2C21.2-16.8,21.2-16.8,21.2-16.8z M23.3-19.3c0.2-0.7,0.5-1.1,1-1.1
			c0.3,0,0.5,0.1,0.8,0.3s0.5,0.5,0.6,0.8c0.2,0.3,0.3,0.8,0.5,1.5c0.2,0.7,0.3,1.2,0.3,1.5v0.1c0,0.7-0.3,1-0.9,1
			c-0.1,0-0.2,0-0.3,0c-0.1,0-0.2-0.1-0.3-0.1c-0.1-0.1-0.2-0.1-0.3-0.2s-0.2-0.1-0.2-0.2c-0.1-0.1-0.1-0.1-0.2-0.2
			s-0.1-0.1-0.2-0.2c0-0.1-0.1-0.1-0.1-0.1l0-0.1c0,0,0-0.1,0-0.2c0-0.1-0.1-0.3-0.2-0.6c-0.1-0.3-0.1-0.5-0.2-0.7
			C23.5-18.8,23.3-19.3,23.3-19.3z"/>
	</g>
	<g>
		<path id="MJMAIN-29" d="M28.7-10.3L28.7-10.3c0.1,0,0.1,0,0.2,0h0.2l0.4-0.3c0.9-0.8,1.5-1.8,1.9-3S32-16,32-17.3
			c0-0.6,0-1.2-0.1-1.8c-0.1-0.6-0.2-1.1-0.3-1.5c-0.1-0.4-0.3-0.8-0.5-1.2c-0.2-0.4-0.4-0.7-0.5-0.9c-0.1-0.2-0.3-0.5-0.6-0.7
			c-0.3-0.3-0.4-0.4-0.4-0.5c0,0-0.2-0.1-0.3-0.3c0,0,0,0-0.1-0.1h-0.2c-0.1,0-0.1,0-0.2,0c0,0-0.1,0-0.1,0c0,0,0,0.1,0,0.1
			c0,0,0.1,0.1,0.2,0.2c1.4,1.5,2.2,3.7,2.2,6.6s-0.7,5.1-2.2,6.6c-0.1,0.1-0.1,0.2-0.2,0.2C28.7-10.4,28.7-10.4,28.7-10.3z"/>
	</g>
	<g>
		<path id="MJMAIN-3D" d="M38-15.9c0,0.1,0.1,0.2,0.2,0.3H47c0.1-0.1,0.2-0.2,0.2-0.3c0-0.1-0.1-0.2-0.2-0.3l-4.4,0h-4.4
			C38-16.2,38-16.1,38-15.9z M38-18.6c0,0.1,0.1,0.2,0.2,0.3H47c0.1-0.1,0.2-0.2,0.2-0.3c0-0.1-0.1-0.2-0.2-0.3h-8.9
			C38-18.9,38-18.8,38-18.6z"/>
	</g>
	<g transform="translate(3446,0)">
		<g transform="translate(397,0)">
			<rect x="-3789.4" y="-16.9" width="16.6" height="-0.8"/>
			<g>
				<path id="MJMATHI-4E" d="M-3784.1-2.5c0,0-0.1,0-0.1,0c-0.2,0-0.4,0-0.4,0s-0.1,0.1-0.1,0.2c0,0.3,0.1,0.4,0.2,0.5
					c0,0,0.5,0,1.4,0c0.7,0,1.1,0,1.2,0c0.1,0,0.2,0,0.2-0.1c2-4.6,3-7,3-7.1l0.8,3c0.5,2,0.7,3,0.7,3.1c0,0.3-0.3,0.4-0.9,0.4
					c-0.2,0-0.3,0.1-0.3,0.2c0,0,0,0.1,0,0.2c0,0.1,0.1,0.2,0.1,0.3c0,0,0.1,0,0.1,0.1c0,0,0.2,0,0.4,0c0.3,0,0.6,0,1.2,0
					c0.5,0,0.8,0,1.1,0c0.2,0,0.4,0,0.4,0c0.1,0,0.2,0,0.2-0.1c0-0.2,0-0.3-0.1-0.4c0,0-0.1-0.1-0.3-0.1c-0.7,0-1.1-0.2-1.2-0.6
					l-2.1-8.2c0-0.1-0.1-0.1-0.3-0.1c-0.1,0-0.2,0-0.2,0c0,0-0.6,1.4-1.8,4.2l-1.8,4.2l-0.9-3.6c-0.6-2.4-0.9-3.6-0.9-3.7
					c0-0.3,0.4-0.5,1-0.5h0.1c0.1,0,0.1-0.1,0.1-0.1c0,0,0-0.1,0-0.3c0-0.1-0.1-0.2-0.1-0.3h-0.2c-0.3,0-0.8,0-1.5,0
					c-0.3,0-0.5,0-0.7,0s-0.4,0-0.5,0c-0.1,0-0.2,0-0.2,0c-0.1,0-0.2,0-0.2,0.1c0,0,0,0.1,0,0.2c0,0.1,0.1,0.2,0.1,0.2
					c0,0.1,0.1,0.1,0.3,0.1c0.6,0,1,0.2,1.2,0.5c0,0.1,0.4,1.3,1,3.9l0.9,3.8C-3783.3-2.5-3783.6-2.5-3784.1-2.5z"/>
			</g>
			<g transform="translate(60,-686)">
				<g>
					<path id="MJMAIN-32" d="M-3847.1,661.6c-0.3,0-0.5,0.1-0.6,0.3c-0.1,0.2-0.2,0.4-0.2,0.6c0,0.7,0.2,1.2,0.7,1.7
						s1.1,0.7,1.8,0.7c0.8,0,1.6-0.3,2.1-0.8s0.9-1.2,0.9-2c0-0.4-0.1-0.8-0.3-1.1s-0.4-0.7-0.7-0.9c-0.3-0.3-0.6-0.6-1.1-1
						c-0.3-0.3-0.8-0.7-1.4-1.3l-0.8-0.8l1.1,0c1.5,0,2.2,0,2.3,0.1c0.1,0,0.2,0.4,0.3,1.2v0h0.6v0c0,0-0.1-0.5-0.2-1.3
						c-0.1-0.8-0.2-1.2-0.2-1.3v0h-5.2v0.3v0.2c0,0.1,0,0.1,0.1,0.2c0.1,0.1,0.2,0.2,0.4,0.5c0.3,0.3,0.5,0.6,0.7,0.8
						c0.1,0.1,0.2,0.3,0.5,0.5c0.2,0.3,0.4,0.4,0.5,0.5c0.1,0.1,0.2,0.2,0.4,0.5c0.2,0.2,0.3,0.4,0.4,0.5c0.1,0.1,0.2,0.2,0.3,0.4
						c0.1,0.2,0.2,0.3,0.3,0.4c0.1,0.1,0.1,0.3,0.2,0.4c0.1,0.1,0.1,0.3,0.2,0.4c0,0.1,0.1,0.3,0.1,0.4s0,0.3,0,0.5
						c0,0.6-0.2,1.1-0.5,1.5c-0.3,0.4-0.8,0.6-1.4,0.6c-0.3,0-0.6-0.1-0.8-0.2c-0.2-0.2-0.4-0.3-0.5-0.5c-0.1-0.1-0.1-0.2-0.1-0.3
						c0,0,0,0,0.1,0c0.2,0,0.3-0.1,0.5-0.2s0.3-0.3,0.3-0.6c0-0.2-0.1-0.4-0.2-0.6C-3846.6,661.7-3846.8,661.7-3847.1,661.6z"/>
				</g>
				<g>
					<path id="MJMATHI-3C0" d="M-3839.8,655.5c-0.3,0-0.5,0.2-0.5,0.5v0.2l0.2,0.4c0.7,1.5,1.2,2.7,1.5,3.8l0.1,0.3h-0.4
						c-0.4,0-0.6,0-0.8,0c-0.1,0-0.3-0.1-0.5-0.3c-0.1-0.1-0.2-0.1-0.3-0.3c-0.1-0.1-0.2-0.2-0.3-0.3c-0.1-0.1-0.1-0.1-0.1-0.2
						c0,0-0.1,0-0.2,0c-0.2,0-0.3,0-0.3,0.1c0,0.1,0.1,0.2,0.3,0.5c0.2,0.3,0.4,0.6,0.8,0.9c0.3,0.3,0.7,0.5,1,0.5
						c0.1,0,1.1,0,3.1,0c1.5,0,2.2,0,2.3,0c0.2-0.1,0.3-0.2,0.3-0.4c0-0.3-0.1-0.5-0.4-0.6c-0.1,0-0.4,0-1,0h-0.9l0-0.2
						c-0.1-0.7-0.2-1.2-0.2-1.7c0-0.5,0-0.9,0.1-1.3c0.1-0.4,0.2-0.7,0.3-0.9c0.1-0.2,0.1-0.3,0.1-0.4c0-0.2-0.1-0.3-0.2-0.4
						c-0.1-0.1-0.3-0.2-0.5-0.2c-0.1,0-0.2,0-0.3,0c-0.1,0-0.1,0.1-0.2,0.3c-0.1,0.2-0.2,0.5-0.2,0.8c0,0.1,0,0.3,0,0.6
						c0,0.5,0,0.9,0.1,1.5c0.1,0.5,0.2,0.9,0.3,1.3c0.1,0.3,0.1,0.5,0.1,0.6h-1.4l0-0.1c0,0-0.1-0.4-0.3-1.1
						c-0.2-0.7-0.4-1.5-0.6-2.2c-0.2-0.8-0.4-1.2-0.4-1.4C-3839.3,655.6-3839.5,655.5-3839.8,655.5z"/>
				</g>
			</g>
		</g>
	</g>
	<g transform="translate(5325,0)">
		<g>
			<path id="MJSZ2-222B" d="M-5249.2-31.9c0.2-0.2,0.4-0.4,0.7-0.4h0c0.3,0,0.5,0.3,0.8,0.8c0.3,0.6,0.5,1.3,0.7,2.3
				c0.2,1,0.4,1.9,0.6,2.9c0.2,1,0.4,2,0.6,3.2c0,0.2,0.1,0.3,0.1,0.4c0.7,3.9,1.4,7.6,2.2,11s1.3,5.6,1.7,6.6
				c0.1,0.2,0.1,0.3,0.1,0.4s0.1,0.3,0.2,0.6c0.1,0.3,0.2,0.6,0.4,0.8c0.1,0.2,0.3,0.5,0.5,0.7c0.2,0.2,0.4,0.4,0.6,0.6
				c0.2,0.1,0.5,0.2,0.7,0.2c0.5,0,0.9-0.2,1.2-0.5s0.4-0.7,0.4-1.1c0-0.2-0.1-0.4-0.2-0.6c-0.1-0.1-0.2-0.2-0.3-0.3
				c-0.1,0-0.2-0.1-0.3,0c-0.2,0-0.4,0.1-0.5,0.2c-0.2,0.1-0.2,0.3-0.2,0.6c0,0.4,0.2,0.7,0.7,0.8l0,0.1c0,0-0.1,0.1-0.1,0.1
				s-0.1,0.1-0.1,0.1c-0.1,0.1-0.3,0.1-0.5,0.1c-0.1,0-0.3-0.1-0.4-0.2c-0.1-0.1-0.3-0.4-0.4-0.8c-0.2-0.4-0.4-0.9-0.5-1.6
				c-0.2-0.7-0.4-1.6-0.7-2.8s-0.5-2.6-0.8-4.3c-0.5-3.1-1.1-6.1-1.7-8.8s-1.1-4.8-1.4-6s-0.6-2.1-0.8-2.7c-0.7-2.2-1.6-3.2-2.6-3.2
				c-0.4,0-0.7,0.1-1,0.4c-0.3,0.3-0.5,0.7-0.5,1.2c0,0.3,0.1,0.5,0.3,0.7c0.2,0.1,0.4,0.2,0.5,0.2c0.2,0,0.4-0.1,0.5-0.2
				c0.2-0.1,0.2-0.3,0.2-0.6C-5248.5-31.5-5248.7-31.8-5249.2-31.9z"/>
		</g>
		<g transform="scale(0.707)">
			<path id="MJMAIN-221E" d="M-5235.5-3.5c0,0.6,0.2,1.1,0.6,1.5c0.4,0.4,0.8,0.7,1.4,0.7c0.6,0,1.1-0.2,1.6-0.6
				c0.2-0.2,0.5-0.5,0.7-0.8l0.1-0.2l0.1,0.1c0.7,1,1.4,1.5,2.3,1.5c0.6,0,1-0.2,1.4-0.7c0.4-0.4,0.5-1,0.6-1.6
				c0-0.6-0.2-1.1-0.5-1.5c-0.4-0.5-0.8-0.7-1.4-0.7c-0.6,0-1.1,0.2-1.6,0.6c-0.3,0.2-0.5,0.5-0.7,0.8l-0.1,0.2l-0.1-0.1
				c-0.7-1-1.4-1.5-2.3-1.5c-0.6,0-1,0.2-1.4,0.7S-5235.5-4.1-5235.5-3.5z M-5227.1-3.5c0,0.4-0.1,0.9-0.4,1.2s-0.6,0.6-1.1,0.6
				c-0.1,0-0.3,0-0.4,0s-0.3-0.1-0.4-0.1c-0.1-0.1-0.2-0.1-0.3-0.2c-0.1-0.1-0.2-0.1-0.3-0.2c-0.1-0.1-0.2-0.2-0.2-0.2
				c-0.1-0.1-0.1-0.2-0.2-0.2c-0.1-0.1-0.1-0.2-0.1-0.2c0-0.1-0.1-0.1-0.1-0.2l0-0.1l0.3-0.4c0.2-0.3,0.4-0.5,0.5-0.6
				s0.2-0.3,0.4-0.4c0.2-0.2,0.3-0.3,0.5-0.3c0.2-0.1,0.3-0.1,0.5-0.1c0.4,0,0.7,0.2,1,0.5S-5227.1-3.9-5227.1-3.5z M-5235.1-3.5
				c0-0.5,0.1-0.9,0.4-1.2c0.3-0.4,0.6-0.6,1.1-0.6c0.8,0,1.5,0.5,2.1,1.6l-0.3,0.4c-0.4,0.5-0.7,0.9-0.9,1c-0.3,0.3-0.7,0.4-1,0.4
				c-0.4,0-0.7-0.2-1-0.5S-5235.1-3-5235.1-3.5z"/>
		</g>
		<g transform="translate(556,-898)">
			<g transform="scale(0.707)">
				<path id="MJMAIN-2212" d="M-5798.2,867.1c0,0,0,0,0,0.1s0,0.2,0.1,0.2h5.7c0.1-0.1,0.1-0.1,0.1-0.2c0-0.1,0-0.1-0.1-0.2h-5.7
					c-0.1,0-0.1,0.1-0.1,0.2V867.1z"/>
			</g>
			<g transform="scale(0.707)">
				<path id="MJMAIN-221E_1_" d="M-5790.8,866.9c0,0.6,0.2,1.1,0.6,1.5c0.4,0.4,0.8,0.7,1.4,0.7c0.6,0,1.1-0.2,1.6-0.6
					c0.2-0.2,0.5-0.5,0.7-0.8l0.1-0.2l0.1,0.1c0.7,1,1.4,1.5,2.3,1.5c0.6,0,1-0.2,1.4-0.7s0.5-1,0.6-1.6c0-0.6-0.2-1.1-0.5-1.5
					c-0.4-0.5-0.8-0.7-1.4-0.7c-0.6,0-1.1,0.2-1.6,0.6c-0.3,0.2-0.5,0.5-0.7,0.8l-0.1,0.2l-0.1-0.1c-0.7-1-1.4-1.5-2.3-1.5
					c-0.6,0-1,0.2-1.4,0.7S-5790.8,866.3-5790.8,866.9z M-5782.4,866.9c0,0.4-0.1,0.9-0.4,1.2c-0.2,0.4-0.6,0.6-1.1,0.6
					c-0.1,0-0.3,0-0.4,0s-0.3-0.1-0.4-0.1c-0.1-0.1-0.2-0.1-0.3-0.2c-0.1-0.1-0.2-0.1-0.3-0.2c-0.1-0.1-0.2-0.2-0.2-0.2
					s-0.1-0.2-0.2-0.2c-0.1-0.1-0.1-0.2-0.1-0.2s-0.1-0.1-0.1-0.2l0-0.1l0.3-0.4c0.2-0.3,0.4-0.5,0.5-0.6s0.2-0.3,0.4-0.4
					c0.2-0.2,0.3-0.3,0.5-0.3c0.2-0.1,0.3-0.1,0.5-0.1c0.4,0,0.7,0.2,1,0.5S-5782.4,866.4-5782.4,866.9z M-5790.5,866.8
					c0-0.5,0.1-0.9,0.4-1.2c0.3-0.4,0.6-0.6,1.1-0.6c0.8,0,1.5,0.5,2.1,1.6l-0.3,0.4c-0.4,0.5-0.7,0.9-0.9,1c-0.3,0.3-0.7,0.4-1,0.4
					c-0.4,0-0.7-0.2-1-0.5C-5790.3,867.7-5790.5,867.3-5790.5,866.8z"/>
			</g>
		</g>
	</g>
	<g>
		<path id="MJMATHI-64" d="M108.3-11.3c0,0,0.3,0,1,0.1c0.7,0,1,0.1,1,0.1c0.1,0,0.2,0,0.2-0.1c0-0.1-0.3-1.5-1-4.2
			c-0.7-2.7-1-4.1-1-4.2c0-0.1,0-0.1,0-0.2c0-0.4,0.1-0.6,0.4-0.6c0.1,0,0.2,0.1,0.3,0.1c0.2,0.2,0.4,0.6,0.6,1.3
			c0.1,0.2,0.1,0.3,0.1,0.3c0,0,0.1,0,0.1,0h0.1h0.1c0.1,0,0.2,0,0.2-0.1c0,0,0-0.1,0-0.2c-0.1-0.5-0.3-0.8-0.4-1.1
			s-0.3-0.5-0.4-0.6c-0.1-0.1-0.2-0.2-0.4-0.2c-0.1,0-0.2,0-0.3,0c-0.3,0-0.6,0.1-0.8,0.2c-0.2,0.1-0.4,0.3-0.4,0.4l-0.1,0.2
			c0,0,0,0-0.1,0c0,0,0,0-0.1-0.1c-0.5-0.5-1.1-0.8-1.7-0.8c-0.5,0-1,0.2-1.4,0.6c-0.4,0.4-0.6,1-0.6,1.8c0,0.4,0.1,0.9,0.3,1.4
			s0.4,0.9,0.7,1.2c0.4,0.5,0.9,0.9,1.3,1.1c0.4,0.2,0.8,0.3,1.2,0.3c0.5,0,0.9-0.2,1.2-0.6c0-0.1,0.1-0.1,0.1-0.1
			c0,0,0.1,0.5,0.4,1.5c0.2,1,0.4,1.5,0.4,1.5c0,0.1,0,0.2-0.1,0.2s-0.2,0.1-0.5,0.1h-0.3c-0.1,0.1-0.1,0.1-0.1,0.1c0,0,0,0.1,0,0.3
			C108.2-11.3,108.2-11.3,108.3-11.3z M108.1-16.2c-0.2,0.7-0.6,1.1-1,1.1c-0.3,0-0.6-0.1-0.9-0.4c-0.3-0.3-0.5-0.7-0.7-1.1
			c-0.3-0.7-0.5-1.5-0.6-2.3c0,0,0-0.1,0-0.2s0-0.1,0-0.2c0-0.4,0.1-0.7,0.3-0.9c0.2-0.2,0.4-0.2,0.6-0.3c0.5,0,1,0.3,1.5,1l0.1,0.2
			L108.1-16.2z"/>
	</g>
	<g>
		<path id="MJMATHI-78" d="M111.2-16.7c0.1,0.4,0.3,0.8,0.8,1.4c0.4,0.5,1,0.8,1.6,0.8c0.3,0,0.6-0.1,0.9-0.3s0.5-0.4,0.6-0.6
			c0.4,0.6,0.9,0.9,1.4,0.9c0.3,0,0.6-0.1,0.9-0.3c0.3-0.2,0.4-0.5,0.4-0.8c0-0.3-0.1-0.5-0.2-0.7c-0.1-0.2-0.3-0.3-0.4-0.3
			s-0.2-0.1-0.3-0.1c-0.2,0-0.3,0.1-0.4,0.2s-0.2,0.2-0.2,0.4c0,0.4,0.2,0.7,0.7,0.9c-0.1,0.1-0.3,0.2-0.6,0.2c-0.1,0-0.2,0-0.3,0
			c-0.4-0.1-0.6-0.5-0.8-0.9c-0.6-2.1-0.8-3.3-0.8-3.6c0-0.3,0.1-0.4,0.2-0.6c0.1-0.1,0.3-0.2,0.5-0.2c0.3,0,0.7,0.2,1,0.5
			c0.3,0.3,0.6,0.7,0.7,1.1c0,0.1,0.1,0.1,0.1,0.2s0.1,0,0.2,0h0.1c0.1,0,0.2,0,0.2-0.1c0,0,0-0.1,0-0.2c-0.1-0.5-0.4-1-0.9-1.4
			c-0.4-0.4-0.9-0.6-1.5-0.6c-0.7,0-1.1,0.3-1.5,0.9c-0.4-0.6-0.8-0.9-1.3-0.9h-0.1c-0.5,0-0.8,0.1-1,0.4c-0.2,0.2-0.3,0.5-0.3,0.8
			c0,0.3,0.1,0.5,0.3,0.7c0.2,0.2,0.4,0.3,0.6,0.3c0.4,0,0.6-0.2,0.6-0.6c0-0.2-0.1-0.3-0.2-0.5c-0.1-0.1-0.2-0.2-0.3-0.3
			c-0.1,0-0.2-0.1-0.2-0.1l0,0c0,0,0,0,0.1-0.1c0.1,0,0.1-0.1,0.2-0.1c0.1,0,0.2-0.1,0.3,0c0.3,0,0.6,0.2,0.9,0.6
			c0.1,0.1,0.2,0.5,0.3,0.9c0.1,0.5,0.3,1,0.4,1.5s0.2,0.8,0.2,0.9c0,0.3,0.1,0.4,0.1,0.5c0,0.3-0.1,0.4-0.2,0.6
			c-0.1,0.1-0.3,0.2-0.5,0.2c-0.4,0-0.7-0.1-1-0.4c-0.3-0.3-0.6-0.7-0.7-1.1c0-0.1,0-0.1-0.1-0.1c0,0-0.1,0-0.2,0h-0.2
			C111.2-16.8,111.2-16.8,111.2-16.7z"/>
	</g>
	<g transform="translate(8669,0)">
		<g>
			<path id="MJSZ2-222B_1_" d="M-8546.6-31.9c0.2-0.2,0.4-0.4,0.7-0.4h0c0.3,0,0.5,0.3,0.8,0.8c0.3,0.6,0.5,1.3,0.7,2.3
				c0.2,1,0.4,1.9,0.6,2.9c0.2,1,0.4,2,0.6,3.2c0,0.2,0.1,0.3,0.1,0.4c0.7,3.9,1.4,7.6,2.2,11s1.3,5.6,1.7,6.6
				c0.1,0.2,0.1,0.3,0.1,0.4s0.1,0.3,0.2,0.6s0.2,0.6,0.4,0.8c0.1,0.2,0.3,0.5,0.5,0.7c0.2,0.2,0.4,0.4,0.6,0.6
				c0.2,0.1,0.5,0.2,0.7,0.2c0.5,0,0.9-0.2,1.2-0.5c0.3-0.3,0.4-0.7,0.4-1.1c0-0.2-0.1-0.4-0.2-0.6c-0.1-0.1-0.2-0.2-0.3-0.3
				c-0.1,0-0.2-0.1-0.3,0c-0.2,0-0.4,0.1-0.5,0.2c-0.2,0.1-0.2,0.3-0.2,0.6c0,0.4,0.2,0.7,0.7,0.8l0,0.1c0,0-0.1,0.1-0.1,0.1
				c0,0-0.1,0.1-0.1,0.1c-0.1,0.1-0.3,0.1-0.5,0.1c-0.1,0-0.3-0.1-0.4-0.2c-0.1-0.1-0.3-0.4-0.4-0.8s-0.4-0.9-0.5-1.6
				c-0.2-0.7-0.4-1.6-0.7-2.8c-0.3-1.2-0.5-2.6-0.8-4.3c-0.5-3.1-1.1-6.1-1.7-8.8s-1.1-4.8-1.4-6c-0.3-1.2-0.6-2.1-0.8-2.7
				c-0.7-2.2-1.6-3.2-2.6-3.2c-0.4,0-0.7,0.1-1,0.4c-0.3,0.3-0.5,0.7-0.5,1.2c0,0.3,0.1,0.5,0.3,0.7c0.2,0.1,0.4,0.2,0.5,0.2
				c0.2,0,0.4-0.1,0.5-0.2s0.2-0.3,0.2-0.6C-8545.9-31.5-8546.1-31.8-8546.6-31.9z"/>
		</g>
		<g transform="scale(0.707)">
			<path id="MJMAIN-221E_2_" d="M-8532.9-3.5c0,0.6,0.2,1.1,0.6,1.5c0.4,0.4,0.8,0.7,1.4,0.7c0.6,0,1.1-0.2,1.6-0.6
				c0.3-0.2,0.5-0.5,0.7-0.8l0.1-0.2l0.1,0.1c0.7,1,1.4,1.5,2.3,1.5c0.6,0,1-0.2,1.4-0.7s0.5-1,0.6-1.6c0-0.6-0.2-1.1-0.5-1.5
				s-0.8-0.7-1.4-0.7c-0.6,0-1.1,0.2-1.6,0.6c-0.3,0.2-0.5,0.5-0.7,0.8l-0.1,0.2l-0.1-0.1c-0.7-1-1.4-1.5-2.3-1.5
				c-0.6,0-1,0.2-1.4,0.7S-8532.9-4.1-8532.9-3.5z M-8524.5-3.5c0,0.4-0.1,0.9-0.4,1.2c-0.2,0.4-0.6,0.6-1.1,0.6c-0.1,0-0.3,0-0.4,0
				s-0.3-0.1-0.4-0.1c-0.1-0.1-0.2-0.1-0.3-0.2c-0.1-0.1-0.2-0.1-0.3-0.2s-0.2-0.2-0.2-0.2c-0.1-0.1-0.1-0.2-0.2-0.2
				s-0.1-0.2-0.1-0.2c0-0.1-0.1-0.1-0.1-0.2l0-0.1l0.3-0.4c0.2-0.3,0.4-0.5,0.5-0.6c0.1-0.1,0.3-0.3,0.4-0.4s0.3-0.3,0.5-0.3
				c0.2-0.1,0.3-0.1,0.5-0.1c0.4,0,0.7,0.2,1,0.5S-8524.5-3.9-8524.5-3.5z M-8532.5-3.5c0-0.5,0.1-0.9,0.4-1.2
				c0.3-0.4,0.6-0.6,1.1-0.6c0.8,0,1.5,0.5,2.1,1.6l-0.3,0.4c-0.4,0.5-0.7,0.9-0.9,1c-0.3,0.3-0.7,0.4-1,0.4c-0.4,0-0.7-0.2-1-0.5
				C-8532.4-2.7-8532.5-3-8532.5-3.5z"/>
		</g>
		<g transform="translate(556,-898)">
			<g transform="scale(0.707)">
				<path id="MJMAIN-2212_1_" d="M-9095.6,867.1c0,0,0,0,0,0.1s0,0.2,0.1,0.2h5.7c0.1-0.1,0.1-0.1,0.1-0.2c0-0.1,0-0.1-0.1-0.2h-5.7
					c-0.1,0-0.1,0.1-0.1,0.2V867.1z"/>
			</g>
			<g transform="scale(0.707)">
				<path id="MJMAIN-221E_3_" d="M-9088.2,866.9c0,0.6,0.2,1.1,0.6,1.5c0.4,0.4,0.8,0.7,1.4,0.7c0.6,0,1.1-0.2,1.6-0.6
					c0.3-0.2,0.5-0.5,0.7-0.8l0.1-0.2l0.1,0.1c0.7,1,1.4,1.5,2.3,1.5c0.6,0,1-0.2,1.4-0.7s0.5-1,0.6-1.6c0-0.6-0.2-1.1-0.5-1.5
					c-0.4-0.5-0.8-0.7-1.4-0.7c-0.6,0-1.1,0.2-1.6,0.6c-0.2,0.2-0.5,0.5-0.7,0.8l-0.1,0.2l-0.1-0.1c-0.7-1-1.4-1.5-2.3-1.5
					c-0.6,0-1,0.2-1.4,0.7S-9088.2,866.3-9088.2,866.9z M-9079.8,866.9c0,0.4-0.1,0.9-0.4,1.2c-0.2,0.4-0.6,0.6-1.1,0.6
					c-0.1,0-0.3,0-0.4,0c-0.1,0-0.3-0.1-0.4-0.1c-0.1-0.1-0.2-0.1-0.3-0.2c-0.1-0.1-0.2-0.1-0.3-0.2c-0.1-0.1-0.2-0.2-0.2-0.2
					c-0.1-0.1-0.1-0.2-0.2-0.2c-0.1-0.1-0.1-0.2-0.1-0.2s-0.1-0.1-0.1-0.2l0-0.1l0.3-0.4c0.2-0.3,0.4-0.5,0.5-0.6
					c0.1-0.1,0.3-0.3,0.4-0.4c0.2-0.2,0.3-0.3,0.5-0.3c0.2-0.1,0.3-0.1,0.5-0.1c0.4,0,0.7,0.2,1,0.5S-9079.8,866.4-9079.8,866.9z
					 M-9087.9,866.8c0-0.5,0.1-0.9,0.4-1.2c0.3-0.4,0.6-0.6,1.1-0.6c0.8,0,1.5,0.5,2.1,1.6l-0.3,0.4c-0.4,0.5-0.7,0.9-0.9,1
					c-0.3,0.3-0.7,0.4-1,0.4c-0.4,0-0.7-0.2-1-0.5C-9087.7,867.7-9087.9,867.3-9087.9,866.8z"/>
			</g>
		</g>
	</g>
	<g>
		<path id="MJMATHI-64_1_" d="M154.9-11.3c0,0,0.3,0,1,0.1c0.7,0,1,0.1,1,0.1c0.1,0,0.2,0,0.2-0.1c0-0.1-0.3-1.5-1-4.2
			c-0.7-2.7-1-4.1-1-4.2s0-0.1,0-0.2c0-0.4,0.1-0.6,0.4-0.6c0.1,0,0.2,0.1,0.3,0.1c0.2,0.2,0.4,0.6,0.6,1.3c0.1,0.2,0.1,0.3,0.1,0.3
			c0,0,0.1,0,0.1,0h0.1h0.1c0.1,0,0.2,0,0.2-0.1c0,0,0-0.1,0-0.2c-0.1-0.5-0.3-0.8-0.4-1.1s-0.3-0.5-0.4-0.6
			c-0.1-0.1-0.2-0.2-0.4-0.2c-0.1,0-0.2,0-0.3,0c-0.3,0-0.6,0.1-0.8,0.2c-0.2,0.1-0.4,0.3-0.4,0.4l-0.1,0.2c0,0,0,0-0.1,0
			c0,0,0,0-0.1-0.1c-0.5-0.5-1.1-0.8-1.7-0.8c-0.5,0-1,0.2-1.4,0.6c-0.4,0.4-0.6,1-0.6,1.8c0,0.4,0.1,0.9,0.3,1.4s0.4,0.9,0.7,1.2
			c0.4,0.5,0.9,0.9,1.3,1.1c0.4,0.2,0.8,0.3,1.2,0.3c0.5,0,0.9-0.2,1.2-0.6c0-0.1,0.1-0.1,0.1-0.1c0,0,0.1,0.5,0.4,1.5
			s0.4,1.5,0.4,1.5c0,0.1,0,0.2-0.1,0.2s-0.2,0.1-0.5,0.1h-0.3c-0.1,0.1-0.1,0.1-0.1,0.1c0,0,0,0.1,0,0.3
			C154.8-11.3,154.8-11.3,154.9-11.3z M154.7-16.2c-0.2,0.7-0.6,1.1-1,1.1c-0.3,0-0.6-0.1-0.9-0.4c-0.3-0.3-0.5-0.7-0.7-1.1
			c-0.3-0.7-0.5-1.5-0.6-2.3c0,0,0-0.1,0-0.2s0-0.1,0-0.2c0-0.4,0.1-0.7,0.3-0.9c0.2-0.2,0.4-0.2,0.6-0.3c0.5,0,1,0.3,1.5,1l0.1,0.2
			L154.7-16.2z"/>
	</g>
	<g transform="translate(11273,0)">
		<g>
			<path id="MJMATHI-78_1_" d="M-11115.2-16.7c0.1,0.4,0.3,0.8,0.8,1.4c0.4,0.5,1,0.8,1.6,0.8c0.3,0,0.6-0.1,0.9-0.3
				s0.5-0.4,0.6-0.6c0.4,0.6,0.9,0.9,1.4,0.9c0.3,0,0.6-0.1,0.9-0.3c0.3-0.2,0.4-0.5,0.4-0.8c0-0.3-0.1-0.5-0.2-0.7
				c-0.1-0.2-0.3-0.3-0.4-0.3c-0.1,0-0.2-0.1-0.3-0.1c-0.2,0-0.3,0.1-0.4,0.2s-0.2,0.2-0.2,0.4c0,0.4,0.2,0.7,0.7,0.9
				c-0.1,0.1-0.3,0.2-0.6,0.2c-0.1,0-0.2,0-0.3,0c-0.4-0.1-0.6-0.5-0.8-0.9c-0.6-2.1-0.8-3.3-0.8-3.6c0-0.3,0.1-0.4,0.2-0.6
				c0.1-0.1,0.3-0.2,0.5-0.2c0.3,0,0.7,0.2,1,0.5c0.3,0.3,0.6,0.7,0.7,1.1c0,0.1,0.1,0.1,0.1,0.2c0,0,0.1,0,0.2,0h0.1
				c0.1,0,0.2,0,0.2-0.1c0,0,0-0.1,0-0.2c-0.1-0.5-0.4-1-0.9-1.4c-0.4-0.4-0.9-0.6-1.5-0.6c-0.7,0-1.1,0.3-1.5,0.9
				c-0.4-0.6-0.8-0.9-1.3-0.9h-0.1c-0.5,0-0.8,0.1-1,0.4c-0.2,0.2-0.3,0.5-0.3,0.8c0,0.3,0.1,0.5,0.3,0.7c0.2,0.2,0.4,0.3,0.6,0.3
				c0.4,0,0.6-0.2,0.6-0.6c0-0.2-0.1-0.3-0.2-0.5s-0.2-0.2-0.3-0.3c-0.1,0-0.2-0.1-0.2-0.1l0,0c0,0,0,0,0.1-0.1
				c0.1,0,0.1-0.1,0.2-0.1c0.1,0,0.2-0.1,0.3,0c0.3,0,0.6,0.2,0.9,0.6c0.1,0.1,0.2,0.5,0.3,0.9c0.1,0.5,0.3,1,0.4,1.5
				s0.2,0.8,0.2,0.9c0,0.3,0.1,0.4,0.1,0.5c0,0.3-0.1,0.4-0.2,0.6c-0.1,0.1-0.3,0.2-0.5,0.2c-0.4,0-0.7-0.1-1-0.4
				c-0.3-0.3-0.6-0.7-0.7-1.1c0-0.1,0-0.1-0.1-0.1c0,0-0.1,0-0.2,0h-0.2C-11115.2-16.8-11115.2-16.8-11115.2-16.7z"/>
		</g>
		<g transform="scale(0.707)">
			<path id="MJMAIN-2032" d="M-11107.2-14.6c0,0-0.1,0-0.3,0.1c-0.1,0-0.2,0.1-0.2,0.1c0,0,0.2,0.8,0.5,2.3s0.6,2.2,0.6,2.3
				c0.1,0.2,0.3,0.3,0.5,0.3c0.1,0,0.3,0,0.4-0.1s0.2-0.2,0.2-0.4c0,0,0-0.1,0-0.1c0,0-0.3-0.8-0.9-2.2
				C-11106.8-13.9-11107.1-14.6-11107.2-14.6C-11107.1-14.6-11107.1-14.6-11107.2-14.6z"/>
		</g>
	</g>
	<g transform="translate(12141,0)">
		<g>
			<path id="MJMATHI-65" d="M-11971.3-18.4c0,0.5,0.1,1,0.3,1.4c0.2,0.4,0.4,0.8,0.7,1.1c0.3,0.3,0.6,0.5,0.9,0.7s0.7,0.3,1,0.4
				s0.6,0.1,0.9,0.1h0c0.4,0,0.8-0.1,1.1-0.3c0.3-0.2,0.5-0.5,0.5-0.9c0-0.8-0.5-1.4-1.5-1.6c-0.5-0.1-1.1-0.2-1.9-0.2
				c-0.3,0-0.5,0-0.5,0c0,0,0-0.2-0.1-0.5c-0.1-0.3-0.1-0.6-0.1-0.8c0-0.4,0.1-0.8,0.3-1c0.2-0.3,0.5-0.4,0.9-0.4
				c0.4,0,0.8,0.1,1.3,0.3s0.9,0.5,1.3,0.9c0.1,0.1,0.1,0.1,0.2,0.1c0,0,0.1,0,0.2-0.1c0.1-0.1,0.1-0.1,0.1-0.2c0,0,0-0.1-0.1-0.2
				c-0.1-0.1-0.2-0.2-0.4-0.4c-0.2-0.1-0.4-0.3-0.6-0.4c-0.2-0.1-0.5-0.3-0.9-0.3c-0.3-0.1-0.7-0.1-1.1-0.1c-0.7,0-1.3,0.2-1.7,0.7
				C-11971-19.7-11971.3-19.1-11971.3-18.4z M-11966.6-15.8c-0.1,0.5-0.4,0.7-0.9,0.7c-0.3,0-0.6-0.1-0.9-0.2
				c-0.3-0.1-0.5-0.3-0.6-0.5c-0.2-0.2-0.3-0.4-0.4-0.6s-0.2-0.4-0.2-0.5c0-0.1-0.1-0.2-0.1-0.3c0,0,0.1,0,0.3,0
				c1,0,1.8,0.1,2.2,0.3C-11966.8-16.6-11966.6-16.3-11966.6-15.8z"/>
		</g>
		<g transform="translate(466,412)">
			<g transform="scale(0.707)">
				<path id="MJMATHI-69" d="M-12429.5-421.1c0,0.2,0.1,0.3,0.2,0.4c0.1,0.1,0.3,0.2,0.4,0.2c0.1,0,0.2,0,0.3-0.1
					c0.1-0.1,0.1-0.2,0.1-0.3c0-0.2-0.1-0.3-0.2-0.4c-0.1-0.1-0.3-0.2-0.4-0.2c-0.1,0-0.2,0-0.3,0.1
					C-12429.4-421.4-12429.5-421.3-12429.5-421.1z M-12431.1-424.2c0,0.1,0,0.2,0.1,0.3c0.1,0.2,0.1,0.3,0.2,0.5
					c0.1,0.2,0.2,0.4,0.4,0.5c0.2,0.2,0.4,0.2,0.6,0.2c0.3,0,0.5-0.1,0.6-0.2c0.2-0.2,0.3-0.4,0.3-0.6c0-0.1,0-0.3-0.1-0.6
					s-0.2-0.6-0.4-1c-0.2-0.4-0.3-0.8-0.4-1.1c0-0.1,0-0.2,0-0.3c0-0.2,0.1-0.2,0.2-0.2c0.1,0,0.1,0,0.2,0c0.1,0,0.1,0.1,0.2,0.1
					c0.1,0.1,0.2,0.2,0.3,0.3s0.2,0.4,0.2,0.6c0,0.1,0,0.1,0,0.1c0,0,0.1,0,0.2,0c0.1,0,0.2,0,0.2-0.1c0-0.1,0-0.2-0.1-0.3
					c-0.1-0.2-0.1-0.3-0.2-0.5c-0.1-0.2-0.3-0.3-0.4-0.5s-0.4-0.2-0.6-0.2c-0.2,0-0.4,0.1-0.6,0.2c-0.2,0.1-0.3,0.3-0.3,0.6
					c0,0.1,0,0.2,0,0.3c0,0.1,0.2,0.5,0.4,1.1c0.3,0.7,0.4,1.1,0.4,1.2c0,0.1,0.1,0.3,0.1,0.4c0,0.2-0.1,0.2-0.2,0.2h0
					c-0.2,0-0.4-0.1-0.5-0.3s-0.3-0.5-0.4-0.8c0,0,0,0,0,0c0,0,0,0,0,0s0,0,0,0c0,0,0,0,0,0s0,0,0,0c0,0,0,0-0.1,0L-12431.1-424.2
					C-12431.1-424.2-12431.1-424.2-12431.1-424.2z"/>
			</g>
			<g transform="scale(0.707)">
				<path id="MJMATHI-70_1_" d="M-12427.7-424.2C-12427.7-424.2-12427.7-424.2-12427.7-424.2c0,0.1,0,0.2,0.1,0.3
					c0,0.1,0.1,0.2,0.1,0.3c0,0.1,0.1,0.2,0.1,0.3c0.1,0.1,0.1,0.2,0.2,0.3c0.1,0.1,0.2,0.1,0.3,0.2c0.1,0.1,0.2,0.1,0.3,0.1
					c0.5,0,0.8-0.2,0.9-0.6l0.1,0.1c0.4,0.4,0.8,0.5,1.2,0.5c0.4,0,0.8-0.2,1-0.5c0.2-0.3,0.4-0.7,0.4-1.1c0-0.7-0.3-1.4-0.7-2
					s-1.1-0.9-1.7-0.9c-0.1,0-0.3,0-0.4,0.1c-0.1,0-0.1,0.1-0.2,0.1c-0.1,0.1-0.1,0.1-0.2,0.2l-0.1,0.1c0,0-0.1-0.3-0.2-0.9
					s-0.2-0.9-0.2-0.9c0,0,0-0.1,0.1-0.1s0.2,0,0.4,0h0.2c0,0,0.1-0.1,0.1-0.1s0-0.1,0-0.2c0-0.1,0-0.1-0.1-0.1s-0.1,0-0.1,0
					c0,0,0,0-0.1,0c-0.1,0-0.2,0-0.3,0c-0.2,0-0.4,0-0.6,0c-0.5,0-0.8,0-0.9,0h-0.1c0,0-0.1,0.1-0.1,0.1c0,0.2,0.1,0.3,0.1,0.3h0.2
					c0.2,0,0.4,0,0.4,0.1c0,0,0.2,0.8,0.6,2.4s0.6,2.3,0.6,2.4c0,0,0,0.1,0,0.1c0,0.3-0.1,0.4-0.2,0.4c-0.1,0-0.3-0.1-0.4-0.3
					c-0.1-0.2-0.2-0.4-0.2-0.6c-0.1-0.2-0.1-0.3-0.1-0.4c0,0-0.1,0-0.2,0L-12427.7-424.2
					C-12427.7-424.2-12427.7-424.2-12427.7-424.2z M-12426.2-426c0.1-0.5,0.4-0.7,0.7-0.7c0.2,0,0.4,0.1,0.6,0.2
					c0.2,0.2,0.3,0.3,0.5,0.6c0.1,0.2,0.2,0.6,0.4,1.1s0.2,0.8,0.2,1.1v0.1c0,0.5-0.2,0.7-0.6,0.7c-0.1,0-0.1,0-0.2,0
					c-0.1,0-0.1,0-0.2-0.1c-0.1,0-0.1-0.1-0.2-0.1c-0.1,0-0.1-0.1-0.2-0.1s-0.1-0.1-0.1-0.1c0,0-0.1-0.1-0.1-0.1
					c0,0-0.1-0.1-0.1-0.1l0,0c0,0,0-0.1,0-0.1s-0.1-0.2-0.1-0.4c-0.1-0.2-0.1-0.4-0.1-0.5C-12426.1-425.6-12426.2-426-12426.2-426z"
					/>
			</g>
			<g transform="scale(0.707)">
				<path id="MJMAIN-28_1_" d="M-12422-424.6c0,0.5,0,0.9,0.1,1.3c0.1,0.4,0.1,0.8,0.2,1.1c0.1,0.3,0.2,0.6,0.4,0.9
					c0.2,0.3,0.3,0.5,0.4,0.7c0.1,0.2,0.2,0.3,0.4,0.5c0.2,0.2,0.3,0.3,0.3,0.3c0,0,0.1,0.1,0.2,0.2h0.1h0c0.1,0,0.1,0,0.1-0.1
					c0,0-0.1-0.1-0.2-0.2c-0.1-0.1-0.2-0.3-0.4-0.5c-0.2-0.2-0.3-0.5-0.5-0.8s-0.3-0.8-0.4-1.4s-0.2-1.2-0.2-1.9
					c0-0.7,0.1-1.3,0.2-1.9s0.2-1,0.4-1.4c0.2-0.3,0.3-0.6,0.5-0.8c0.2-0.2,0.3-0.4,0.4-0.5c0.1-0.1,0.2-0.2,0.2-0.2
					c0-0.1,0-0.1-0.1-0.1h0h-0.1l-0.3,0.2c-0.6,0.6-1.1,1.3-1.3,2.1S-12422-425.5-12422-424.6z"/>
			</g>
			<g transform="scale(0.707)">
				<path id="MJMATHI-78_2_" d="M-12418.6-424.2c0,0.3,0.2,0.6,0.5,1c0.3,0.4,0.7,0.5,1.1,0.6c0.2,0,0.4-0.1,0.6-0.2
					s0.3-0.3,0.4-0.4c0.3,0.4,0.6,0.6,1,0.6c0.2,0,0.5-0.1,0.6-0.2c0.2-0.1,0.3-0.3,0.3-0.6c0-0.2,0-0.3-0.1-0.5
					c-0.1-0.1-0.2-0.2-0.3-0.2c-0.1,0-0.2,0-0.2,0c-0.1,0-0.2,0-0.3,0.1c-0.1,0.1-0.1,0.2-0.1,0.3c0,0.3,0.2,0.5,0.5,0.6
					c-0.1,0.1-0.2,0.1-0.4,0.1c-0.1,0-0.1,0-0.2,0c-0.2-0.1-0.4-0.3-0.6-0.7c-0.4-1.5-0.6-2.3-0.6-2.5c0-0.2,0.1-0.3,0.2-0.4
					c0.1-0.1,0.2-0.1,0.3-0.1c0.2,0,0.5,0.1,0.7,0.3s0.4,0.5,0.5,0.8c0,0.1,0,0.1,0.1,0.1s0.1,0,0.2,0h0c0.1,0,0.1,0,0.1-0.1
					c0,0,0,0,0-0.1c-0.1-0.4-0.3-0.7-0.6-1c-0.3-0.3-0.7-0.4-1.1-0.4c-0.5,0-0.8,0.2-1,0.6c-0.3-0.4-0.6-0.6-0.9-0.6h-0.1
					c-0.3,0-0.6,0.1-0.7,0.3c-0.1,0.2-0.2,0.4-0.2,0.5c0,0.2,0.1,0.4,0.2,0.5s0.3,0.2,0.4,0.2c0.3,0,0.4-0.1,0.4-0.4
					c0-0.1,0-0.2-0.1-0.3c-0.1-0.1-0.2-0.2-0.2-0.2s-0.1,0-0.1,0l0,0c0,0,0,0,0.1,0c0,0,0.1,0,0.2-0.1c0.1,0,0.1,0,0.2,0
					c0.2,0,0.4,0.1,0.6,0.4c0.1,0.1,0.1,0.3,0.2,0.7c0.1,0.3,0.2,0.7,0.3,1.1s0.1,0.6,0.2,0.7c0,0.2,0,0.3,0,0.4
					c0,0.2,0,0.3-0.1,0.4c-0.1,0.1-0.2,0.1-0.3,0.1c-0.3,0-0.5-0.1-0.7-0.3s-0.4-0.5-0.5-0.8c0-0.1,0-0.1,0-0.1s-0.1,0-0.2,0h-0.1
					C-12418.6-424.2-12418.6-424.2-12418.6-424.2z"/>
			</g>
			<g transform="scale(0.707)">
				<path id="MJMAIN-2212_2_" d="M-12412.6-424.7c0,0,0,0,0,0.1s0,0.2,0.1,0.2h5.7c0.1-0.1,0.1-0.1,0.1-0.2c0-0.1,0-0.1-0.1-0.2
					h-5.7c-0.1,0-0.1,0.1-0.1,0.2V-424.7z"/>
			</g>
			<g transform="translate(1831,0)">
				<g transform="scale(0.707)">
					<path id="MJMATHI-78_3_" d="M-14236.3-424.2c0,0.3,0.2,0.6,0.5,1c0.3,0.4,0.7,0.5,1.1,0.6c0.2,0,0.4-0.1,0.6-0.2
						s0.3-0.3,0.4-0.4c0.3,0.4,0.6,0.6,1,0.6c0.2,0,0.5-0.1,0.6-0.2c0.2-0.1,0.3-0.3,0.3-0.6c0-0.2,0-0.3-0.1-0.5s-0.2-0.2-0.3-0.2
						c-0.1,0-0.2,0-0.2,0c-0.1,0-0.2,0-0.3,0.1c-0.1,0.1-0.1,0.2-0.1,0.3c0,0.3,0.2,0.5,0.5,0.6c-0.1,0.1-0.2,0.1-0.4,0.1
						c-0.1,0-0.1,0-0.2,0c-0.3-0.1-0.4-0.3-0.6-0.7c-0.4-1.5-0.6-2.3-0.6-2.5c0-0.2,0.1-0.3,0.2-0.4s0.2-0.1,0.3-0.1
						c0.2,0,0.5,0.1,0.7,0.3c0.2,0.2,0.4,0.5,0.5,0.8c0,0.1,0,0.1,0.1,0.1c0,0,0.1,0,0.2,0h0c0.1,0,0.1,0,0.1-0.1c0,0,0,0,0-0.1
						c-0.1-0.4-0.3-0.7-0.6-1c-0.3-0.3-0.7-0.4-1.1-0.4c-0.5,0-0.8,0.2-1,0.6c-0.3-0.4-0.6-0.6-0.9-0.6h-0.1c-0.3,0-0.6,0.1-0.7,0.3
						s-0.2,0.4-0.2,0.5c0,0.2,0.1,0.4,0.2,0.5c0.1,0.1,0.3,0.2,0.4,0.2c0.3,0,0.4-0.1,0.4-0.4c0-0.1,0-0.2-0.1-0.3
						c-0.1-0.1-0.2-0.2-0.2-0.2s-0.1,0-0.1,0l0,0c0,0,0,0,0.1,0c0,0,0.1,0,0.2-0.1c0.1,0,0.1,0,0.2,0c0.2,0,0.4,0.1,0.6,0.4
						c0.1,0.1,0.1,0.3,0.2,0.7s0.2,0.7,0.3,1.1c0.1,0.4,0.1,0.6,0.2,0.7c0,0.2,0,0.3,0,0.4c0,0.2,0,0.3-0.1,0.4s-0.2,0.1-0.3,0.1
						c-0.3,0-0.5-0.1-0.7-0.3c-0.2-0.2-0.4-0.5-0.5-0.8c0-0.1,0-0.1,0-0.1c0,0-0.1,0-0.2,0h-0.1
						C-14236.3-424.2-14236.3-424.2-14236.3-424.2z"/>
				</g>
				<g transform="scale(0.5)">
					<path id="MJMAIN-2032_1_" d="M-14230.6-423.2c0,0-0.1,0-0.2,0c-0.1,0-0.1,0.1-0.2,0.1c0,0,0.1,0.6,0.4,1.6
						c0.3,1,0.4,1.6,0.4,1.6c0.1,0.1,0.2,0.2,0.4,0.2c0.1,0,0.2,0,0.3-0.1c0.1-0.1,0.2-0.2,0.2-0.3c0,0,0-0.1,0-0.1
						c0,0-0.2-0.6-0.6-1.6C-14230.4-422.6-14230.6-423.1-14230.6-423.2C-14230.6-423.1-14230.6-423.2-14230.6-423.2z"/>
				</g>
			</g>
			<g transform="scale(0.707)">
				<path id="MJMAIN-29_1_" d="M-12396.7-419.6L-12396.7-419.6c0.1,0,0.1,0,0.1,0h0.1l0.3-0.2c0.6-0.6,1.1-1.3,1.3-2.1
					c0.3-0.8,0.4-1.7,0.4-2.6c0-0.4,0-0.9-0.1-1.3c-0.1-0.4-0.1-0.8-0.2-1.1c-0.1-0.3-0.2-0.6-0.4-0.9c-0.2-0.3-0.3-0.5-0.4-0.7
					s-0.2-0.3-0.4-0.5c-0.2-0.2-0.3-0.3-0.3-0.3c0,0-0.1-0.1-0.2-0.2c0,0,0,0,0,0h-0.1c-0.1,0-0.1,0-0.1,0s0,0,0,0c0,0,0,0,0,0.1
					c0,0,0,0,0.1,0.1c1,1.1,1.5,2.6,1.5,4.7c0,2.1-0.5,3.6-1.5,4.7c-0.1,0.1-0.1,0.1-0.1,0.1
					C-12396.7-419.7-12396.7-419.7-12396.7-419.6z"/>
			</g>
		</g>
	</g>
	<g transform="translate(15593,0)">
		<g>
			<path id="MJSZ2-222B_2_" d="M-15374.1-31.9c0.2-0.2,0.4-0.4,0.7-0.4h0c0.3,0,0.5,0.3,0.8,0.8c0.3,0.6,0.5,1.3,0.7,2.3
				c0.2,1,0.4,1.9,0.6,2.9c0.2,1,0.4,2,0.6,3.2c0,0.2,0.1,0.3,0.1,0.4c0.7,3.9,1.4,7.6,2.2,11s1.3,5.6,1.7,6.6
				c0.1,0.2,0.1,0.3,0.1,0.4s0.1,0.3,0.2,0.6s0.2,0.6,0.4,0.8c0.1,0.2,0.3,0.5,0.5,0.7c0.2,0.2,0.4,0.4,0.6,0.6
				c0.2,0.1,0.5,0.2,0.7,0.2c0.5,0,0.9-0.2,1.2-0.5s0.4-0.7,0.4-1.1c0-0.2-0.1-0.4-0.2-0.6c-0.1-0.1-0.2-0.2-0.3-0.3
				c-0.1,0-0.2-0.1-0.3,0c-0.2,0-0.4,0.1-0.5,0.2c-0.2,0.1-0.2,0.3-0.2,0.6c0,0.4,0.2,0.7,0.7,0.8l0,0.1c0,0-0.1,0.1-0.1,0.1
				c0,0-0.1,0.1-0.1,0.1c-0.1,0.1-0.3,0.1-0.5,0.1c-0.1,0-0.3-0.1-0.4-0.2c-0.1-0.1-0.3-0.4-0.4-0.8s-0.4-0.9-0.5-1.6
				c-0.2-0.7-0.4-1.6-0.7-2.8c-0.3-1.2-0.5-2.6-0.8-4.3c-0.5-3.1-1.1-6.1-1.7-8.8c-0.6-2.8-1.1-4.8-1.4-6c-0.3-1.2-0.6-2.1-0.8-2.7
				c-0.7-2.2-1.6-3.2-2.6-3.2c-0.4,0-0.7,0.1-1,0.4c-0.3,0.3-0.5,0.7-0.5,1.2c0,0.3,0.1,0.5,0.3,0.7c0.2,0.1,0.4,0.2,0.5,0.2
				c0.2,0,0.4-0.1,0.5-0.2s0.2-0.3,0.2-0.6C-15373.4-31.5-15373.6-31.8-15374.1-31.9z"/>
		</g>
		<g transform="scale(0.707)">
			<path id="MJMAIN-221E_4_" d="M-15360.4-3.5c0,0.6,0.2,1.1,0.6,1.5s0.8,0.7,1.4,0.7c0.6,0,1.1-0.2,1.6-0.6
				c0.3-0.2,0.5-0.5,0.7-0.8l0.1-0.2l0.1,0.1c0.7,1,1.4,1.5,2.3,1.5c0.6,0,1-0.2,1.4-0.7s0.5-1,0.6-1.6c0-0.6-0.2-1.1-0.5-1.5
				s-0.8-0.7-1.4-0.7c-0.6,0-1.1,0.2-1.6,0.6c-0.3,0.2-0.5,0.5-0.7,0.8l-0.1,0.2l-0.1-0.1c-0.7-1-1.4-1.5-2.3-1.5
				c-0.6,0-1,0.2-1.4,0.7S-15360.4-4.1-15360.4-3.5z M-15352-3.5c0,0.4-0.1,0.9-0.4,1.2c-0.2,0.4-0.6,0.6-1.1,0.6
				c-0.1,0-0.3,0-0.4,0c-0.1,0-0.3-0.1-0.4-0.1c-0.1-0.1-0.2-0.1-0.3-0.2c-0.1-0.1-0.2-0.1-0.3-0.2c-0.1-0.1-0.2-0.2-0.2-0.2
				c-0.1-0.1-0.1-0.2-0.2-0.2s-0.1-0.2-0.1-0.2c0-0.1-0.1-0.1-0.1-0.2l0-0.1l0.3-0.4c0.2-0.3,0.4-0.5,0.5-0.6
				c0.1-0.1,0.3-0.3,0.4-0.4s0.3-0.3,0.5-0.3c0.2-0.1,0.3-0.1,0.5-0.1c0.4,0,0.7,0.2,1,0.5S-15352-3.9-15352-3.5z M-15360-3.5
				c0-0.5,0.1-0.9,0.4-1.2c0.3-0.4,0.6-0.6,1.1-0.6c0.8,0,1.5,0.5,2.1,1.6l-0.3,0.4c-0.4,0.5-0.7,0.9-0.9,1c-0.3,0.3-0.7,0.4-1,0.4
				c-0.4,0-0.7-0.2-1-0.5S-15360-3-15360-3.5z"/>
		</g>
		<g transform="translate(556,-898)">
			<g transform="scale(0.707)">
				<path id="MJMAIN-2212_3_" d="M-15923.1,867.1c0,0,0,0,0,0.1s0,0.2,0.1,0.2h5.7c0.1-0.1,0.1-0.1,0.1-0.2c0-0.1,0-0.1-0.1-0.2
					h-5.7c-0.1,0-0.1,0.1-0.1,0.2V867.1z"/>
			</g>
			<g transform="scale(0.707)">
				<path id="MJMAIN-221E_5_" d="M-15915.7,866.9c0,0.6,0.2,1.1,0.6,1.5c0.4,0.4,0.8,0.7,1.4,0.7c0.6,0,1.1-0.2,1.6-0.6
					c0.3-0.2,0.5-0.5,0.7-0.8l0.1-0.2l0.1,0.1c0.7,1,1.4,1.5,2.3,1.5c0.6,0,1-0.2,1.4-0.7s0.5-1,0.6-1.6c0-0.6-0.2-1.1-0.5-1.5
					c-0.4-0.5-0.8-0.7-1.4-0.7c-0.6,0-1.1,0.2-1.6,0.6c-0.3,0.2-0.5,0.5-0.7,0.8l-0.1,0.2l-0.1-0.1c-0.7-1-1.4-1.5-2.3-1.5
					c-0.6,0-1,0.2-1.4,0.7S-15915.7,866.3-15915.7,866.9z M-15907.4,866.9c0,0.4-0.1,0.9-0.4,1.2c-0.2,0.4-0.6,0.6-1.1,0.6
					c-0.1,0-0.3,0-0.4,0c-0.1,0-0.3-0.1-0.4-0.1c-0.1-0.1-0.2-0.1-0.3-0.2c-0.1-0.1-0.2-0.1-0.3-0.2c-0.1-0.1-0.2-0.2-0.2-0.2
					s-0.1-0.2-0.2-0.2c-0.1-0.1-0.1-0.2-0.1-0.2s-0.1-0.1-0.1-0.2l0-0.1l0.3-0.4c0.2-0.3,0.4-0.5,0.5-0.6c0.1-0.1,0.3-0.3,0.4-0.4
					c0.2-0.2,0.3-0.3,0.5-0.3c0.2-0.1,0.3-0.1,0.5-0.1c0.4,0,0.7,0.2,1,0.5S-15907.4,866.4-15907.4,866.9z M-15915.4,866.8
					c0-0.5,0.1-0.9,0.4-1.2c0.3-0.4,0.6-0.6,1.1-0.6c0.8,0,1.5,0.5,2.1,1.6l-0.3,0.4c-0.4,0.5-0.7,0.9-0.9,1c-0.3,0.3-0.7,0.4-1,0.4
					c-0.4,0-0.7-0.2-1-0.5C-15915.2,867.7-15915.4,867.3-15915.4,866.8z"/>
			</g>
		</g>
	</g>
	<g>
		<path id="MJMATHI-64_2_" d="M251.4-11.3c0,0,0.3,0,1,0.1c0.7,0,1,0.1,1,0.1c0.1,0,0.2,0,0.2-0.1c0-0.1-0.3-1.5-1-4.2
			c-0.7-2.7-1-4.1-1-4.2s0-0.1,0-0.2c0-0.4,0.1-0.6,0.4-0.6c0.1,0,0.2,0.1,0.3,0.1c0.2,0.2,0.4,0.6,0.6,1.3c0.1,0.2,0.1,0.3,0.1,0.3
			c0,0,0.1,0,0.1,0h0.1h0.1c0.1,0,0.2,0,0.2-0.1c0,0,0-0.1,0-0.2c-0.1-0.5-0.3-0.8-0.4-1.1c-0.2-0.3-0.3-0.5-0.4-0.6
			c-0.1-0.1-0.2-0.2-0.4-0.2c-0.1,0-0.2,0-0.3,0c-0.3,0-0.6,0.1-0.8,0.2c-0.2,0.1-0.4,0.3-0.4,0.4l-0.1,0.2c0,0,0,0-0.1,0
			c0,0,0,0-0.1-0.1c-0.5-0.5-1.1-0.8-1.7-0.8c-0.5,0-1,0.2-1.4,0.6c-0.4,0.4-0.6,1-0.6,1.8c0,0.4,0.1,0.9,0.3,1.4s0.4,0.9,0.7,1.2
			c0.4,0.5,0.9,0.9,1.3,1.1c0.4,0.2,0.8,0.3,1.2,0.3c0.5,0,0.9-0.2,1.2-0.6c0-0.1,0.1-0.1,0.1-0.1c0,0,0.1,0.5,0.4,1.5
			s0.4,1.5,0.4,1.5c0,0.1,0,0.2-0.1,0.2s-0.2,0.1-0.5,0.1h-0.3c-0.1,0.1-0.1,0.1-0.1,0.1c0,0,0,0.1,0,0.3
			C251.3-11.3,251.3-11.3,251.4-11.3z M251.2-16.2c-0.2,0.7-0.6,1.1-1,1.1c-0.3,0-0.6-0.1-0.9-0.4c-0.3-0.3-0.5-0.7-0.7-1.1
			c-0.3-0.7-0.5-1.5-0.6-2.3c0,0,0-0.1,0-0.2s0-0.1,0-0.2c0-0.4,0.1-0.7,0.3-0.9c0.2-0.2,0.4-0.2,0.6-0.3c0.5,0,1,0.3,1.5,1l0.1,0.2
			L251.2-16.2z"/>
	</g>
	<g transform="translate(18198,0)">
		<g>
			<path id="MJMATHI-78_4_" d="M-17943.7-16.7c0.1,0.4,0.3,0.8,0.8,1.4c0.4,0.5,1,0.8,1.6,0.8c0.3,0,0.6-0.1,0.9-0.3
				s0.5-0.4,0.6-0.6c0.4,0.6,0.9,0.9,1.4,0.9c0.3,0,0.6-0.1,0.9-0.3c0.3-0.2,0.4-0.5,0.4-0.8c0-0.3-0.1-0.5-0.2-0.7
				c-0.1-0.2-0.3-0.3-0.4-0.3c-0.1,0-0.2-0.1-0.3-0.1c-0.2,0-0.3,0.1-0.4,0.2s-0.2,0.2-0.2,0.4c0,0.4,0.2,0.7,0.7,0.9
				c-0.1,0.1-0.3,0.2-0.6,0.2c-0.1,0-0.2,0-0.3,0c-0.4-0.1-0.6-0.5-0.8-0.9c-0.6-2.1-0.8-3.3-0.8-3.6c0-0.3,0.1-0.4,0.2-0.6
				s0.3-0.2,0.5-0.2c0.3,0,0.7,0.2,1,0.5c0.3,0.3,0.6,0.7,0.7,1.1c0,0.1,0.1,0.1,0.1,0.2s0.1,0,0.2,0h0.1c0.1,0,0.2,0,0.2-0.1
				c0,0,0-0.1,0-0.2c-0.1-0.5-0.4-1-0.9-1.4c-0.4-0.4-0.9-0.6-1.5-0.6c-0.7,0-1.1,0.3-1.5,0.9c-0.4-0.6-0.8-0.9-1.3-0.9h-0.1
				c-0.5,0-0.8,0.1-1,0.4c-0.2,0.2-0.3,0.5-0.3,0.8c0,0.3,0.1,0.5,0.3,0.7s0.4,0.3,0.6,0.3c0.4,0,0.6-0.2,0.6-0.6
				c0-0.2-0.1-0.3-0.2-0.5s-0.2-0.2-0.3-0.3c-0.1,0-0.2-0.1-0.2-0.1l0,0c0,0,0,0,0.1-0.1c0.1,0,0.1-0.1,0.2-0.1c0.1,0,0.2-0.1,0.3,0
				c0.3,0,0.6,0.2,0.9,0.6c0.1,0.1,0.2,0.5,0.3,0.9c0.1,0.5,0.3,1,0.4,1.5c0.1,0.5,0.2,0.8,0.2,0.9c0,0.3,0.1,0.4,0.1,0.5
				c0,0.3-0.1,0.4-0.2,0.6c-0.1,0.1-0.3,0.2-0.5,0.2c-0.4,0-0.7-0.1-1-0.4c-0.3-0.3-0.6-0.7-0.7-1.1c0-0.1,0-0.1-0.1-0.1
				c0,0-0.1,0-0.2,0h-0.2C-17943.6-16.8-17943.7-16.8-17943.7-16.7z"/>
		</g>
		<g transform="scale(0.707)">
			<path id="MJMAIN-32_1_" d="M-17935.4-18.6c-0.2,0-0.3,0.1-0.4,0.2c-0.1,0.1-0.2,0.3-0.2,0.4c0,0.5,0.2,0.9,0.5,1.2
				c0.3,0.3,0.8,0.5,1.3,0.5c0.6,0,1.1-0.2,1.5-0.6c0.4-0.4,0.6-0.8,0.6-1.4c0-0.3-0.1-0.6-0.2-0.8c-0.1-0.3-0.3-0.5-0.5-0.7
				c-0.2-0.2-0.4-0.4-0.8-0.7c-0.2-0.2-0.6-0.5-1-0.9l-0.6-0.6l0.7,0c1,0,1.6,0,1.6,0c0,0,0.1,0.3,0.2,0.9v0h0.4v0
				c0,0-0.1-0.3-0.1-0.9c-0.1-0.6-0.1-0.9-0.1-0.9v0h-3.7v0.2v0.1c0,0,0,0.1,0.1,0.1c0,0.1,0.1,0.2,0.3,0.3c0.2,0.2,0.4,0.4,0.5,0.6
				c0.1,0.1,0.2,0.2,0.3,0.4c0.2,0.2,0.3,0.3,0.3,0.4c0.1,0.1,0.2,0.2,0.3,0.3s0.2,0.3,0.3,0.3c0.1,0.1,0.1,0.2,0.2,0.3
				c0.1,0.1,0.2,0.2,0.2,0.3s0.1,0.2,0.1,0.3c0.1,0.1,0.1,0.2,0.1,0.3c0,0.1,0.1,0.2,0.1,0.3c0,0.1,0,0.2,0,0.3
				c0,0.4-0.1,0.8-0.3,1.1c-0.2,0.3-0.5,0.5-1,0.5c-0.2,0-0.4-0.1-0.6-0.2c-0.2-0.1-0.3-0.2-0.3-0.3s-0.1-0.2-0.1-0.2c0,0,0,0,0.1,0
				c0.1,0,0.2,0,0.4-0.1c0.1-0.1,0.2-0.2,0.2-0.5c0-0.2-0.1-0.3-0.2-0.4C-17935-18.6-17935.2-18.6-17935.4-18.6z"/>
		</g>
	</g>
	<g transform="translate(19224,0)">
		<g>
			<path id="MJMATHI-3C8" d="M-18953.9-14.6c0.4,0,0.7-0.1,0.9-0.3c0.2-0.2,0.3-0.5,0.3-0.8c0-0.2-0.1-0.7-0.4-1.5
				c-0.3-0.8-0.4-1.4-0.4-1.7c0-0.4,0.2-0.7,0.4-0.9c0.2-0.2,0.4-0.3,0.6-0.3c0.2-0.1,0.3-0.1,0.4-0.1h0l1.1,4.6
				c0.8,3.1,1.2,4.6,1.2,4.6c0,0,0.1,0,0.2,0c0.2,0,0.3,0,0.3-0.1c0-0.1-0.4-1.6-1.1-4.6c-0.8-3-1.1-4.6-1.1-4.6s0,0,0.1,0
				c0.8,0,1.6,0.4,2.3,1.2c0.7,0.8,1.1,1.6,1.1,2.3c0,0.2,0,0.4-0.1,0.6s-0.2,0.3-0.3,0.3c-0.1,0.1-0.2,0.1-0.3,0.3
				s-0.1,0.2-0.1,0.3c0,0.2,0.1,0.4,0.2,0.6c0.2,0.2,0.4,0.3,0.6,0.3c0.2,0,0.3-0.1,0.5-0.3s0.2-0.4,0.2-0.8c0-0.3-0.1-0.6-0.2-1.1
				c-0.1-0.5-0.2-0.8-0.3-0.9c-0.3-0.9-0.8-1.6-1.6-2.3c-0.8-0.6-1.5-0.9-2.3-0.9h-0.1l-0.3-1.3c-0.2-0.9-0.3-1.3-0.3-1.3
				c0-0.1-0.1-0.1-0.3-0.1h-0.2c-0.1,0.1-0.1,0.1-0.1,0.1c0,0,0.1,0.5,0.3,1.3c0.2,0.8,0.3,1.3,0.3,1.3c-0.1,0-0.1,0-0.2,0
				c-1.5,0.2-2.2,0.9-2.2,2c0,0.3,0.2,0.9,0.5,1.7c0.3,0.8,0.5,1.4,0.5,1.6c0,0,0,0,0,0c0,0.1,0,0.1,0,0.2s0,0.1-0.1,0.1
				s-0.1,0.1-0.2,0.1h-0.1c-0.2,0-0.4-0.1-0.6-0.3c-0.2-0.2-0.3-0.4-0.4-0.6c-0.1-0.2-0.2-0.4-0.2-0.6s-0.1-0.3-0.1-0.3
				c0,0-0.1,0-0.2,0h-0.2c-0.1,0.1-0.1,0.1-0.1,0.1c0,0.1,0.1,0.3,0.2,0.6s0.3,0.6,0.7,1C-18954.6-14.8-18954.3-14.6-18953.9-14.6z"
				/>
		</g>
		<g transform="scale(0.707)">
			<path id="MJMAIN-2217" d="M-18944.8-13.5c-0.1,0.9-0.1,1.4-0.1,1.5c0,0.1,0.1,0.2,0.2,0.3c0,0,0,0,0,0c0,0,0,0,0.1,0
				c0.1,0,0.2,0,0.2-0.1c0.1-0.1,0.1-0.1,0.1-0.2c0-0.1,0-0.4-0.1-0.8c0-0.4-0.1-0.6-0.1-0.7l0.6,0.4c0.4,0.3,0.6,0.4,0.6,0.4
				c0,0,0.1,0,0.1,0c0.1,0,0.2,0,0.2-0.1s0.1-0.2,0.1-0.3c0-0.1,0-0.2-0.1-0.2c0,0-0.3-0.1-0.7-0.3s-0.6-0.3-0.7-0.3l0.7-0.3
				l0.7-0.3c0.1-0.1,0.1-0.1,0.1-0.2c0-0.1,0-0.2-0.1-0.2s-0.1-0.1-0.2-0.1c-0.1,0-0.1,0-0.2,0.1c-0.1,0-0.2,0.2-0.5,0.4l-0.6,0.4
				c0.1-0.9,0.1-1.4,0.1-1.5c0-0.1,0-0.1-0.1-0.2c0-0.1-0.1-0.1-0.3-0.1s-0.2,0-0.3,0.1c0,0.1-0.1,0.1-0.1,0.2c0,0.1,0,0.4,0.1,0.8
				s0.1,0.6,0.1,0.7l-0.6-0.4c-0.4-0.3-0.6-0.4-0.6-0.4c0,0-0.1,0-0.1,0c-0.1,0-0.2,0-0.2,0.1s-0.1,0.2-0.1,0.3c0,0,0,0.1,0,0.1
				c0,0,0,0,0,0.1s0,0,0,0.1c0,0,0,0,0.1,0.1c0,0,0.1,0,0.1,0.1c0,0,0.1,0,0.2,0.1s0.2,0.1,0.2,0.1c0.1,0,0.2,0.1,0.3,0.1
				c0.1,0.1,0.3,0.1,0.4,0.2l-1.3,0.6c-0.1,0.1-0.1,0.1-0.1,0.2c0,0.1,0,0.2,0.1,0.2c0.1,0.1,0.1,0.1,0.2,0.1c0.1,0,0.1,0,0.2-0.1
				c0.1,0,0.2-0.2,0.5-0.4L-18944.8-13.5z"/>
		</g>
		<g transform="scale(0.707)">
			<path id="MJMATHI-3BA_1_" d="M-18946.2-23c-0.1,0-0.2,0-0.2,0.1s-0.1,0.1-0.1,0.1c0,0,0,0.1,0,0.1c0,0.1,0.2,0.7,0.5,2
				c0.3,1.2,0.5,1.9,0.5,1.9c0.1,0.2,0.2,0.3,0.5,0.3c0.1,0,0.1,0,0.2-0.1s0.1-0.1,0.1-0.1c0,0,0-0.1,0-0.1c0-0.1-0.1-0.3-0.2-0.7
				l-0.2-0.7c0,0,0.1,0,0.2,0.1c0.1,0.1,0.2,0.1,0.3,0.1c0.1,0.1,0.3,0.3,0.7,0.6c0.4,0.3,0.7,0.5,0.9,0.6c0.2,0.1,0.5,0.2,0.7,0.2
				c0.1,0,0.3,0,0.3-0.1c0.1-0.1,0.1-0.2,0.1-0.3c0-0.2-0.1-0.3-0.2-0.4c-0.1-0.1-0.3-0.2-0.4-0.2c-0.1,0-0.2,0-0.3,0.1
				c-0.1,0.1-0.1,0.2-0.1,0.3c0,0,0,0.1,0,0.1l-0.1,0c-0.2-0.1-0.5-0.3-0.8-0.6l-0.6-0.5l-0.1-0.1h0c0.1,0,0.3,0,0.5-0.1
				c0.2,0,0.5-0.1,0.6-0.2c0.4-0.2,0.6-0.4,0.6-0.8c0-0.1,0-0.2,0-0.4s-0.1-0.3-0.1-0.5c0-0.3,0.1-0.4,0.3-0.4
				c0.3,0,0.6,0.4,0.7,1.1c0,0.1,0,0.1,0.1,0.1s0.1,0,0.2,0c0.1,0,0.2,0,0.2-0.1c0-0.2-0.1-0.4-0.3-0.8c-0.2-0.4-0.4-0.6-0.7-0.7
				c-0.1,0-0.2,0-0.3,0c-0.3,0-0.5,0.1-0.7,0.3c-0.2,0.2-0.3,0.4-0.3,0.7c0,0.1,0,0.2,0,0.3s0,0.2,0,0.2c0,0.2-0.1,0.3-0.2,0.4
				c-0.1,0.1-0.3,0.2-0.5,0.2s-0.4,0.1-0.5,0.1c-0.1,0-0.2,0-0.4,0h0l-0.2-1c-0.2-0.7-0.3-1-0.3-1
				C-18945.9-22.9-18946-23-18946.2-23z"/>
		</g>
	</g>
	<g>
		<path id="MJMAIN-28_2_" d="M285.4-17.3c0,0.6,0,1.2,0.1,1.8c0.1,0.6,0.2,1.1,0.3,1.5c0.1,0.4,0.3,0.8,0.5,1.2
			c0.2,0.4,0.4,0.7,0.5,0.9c0.1,0.2,0.3,0.5,0.6,0.7c0.3,0.3,0.4,0.4,0.5,0.5c0,0.1,0.2,0.2,0.3,0.3h0.2h0.1c0.1,0,0.2,0,0.2-0.1
			c0,0-0.1-0.1-0.2-0.3s-0.3-0.4-0.6-0.7c-0.2-0.3-0.5-0.7-0.7-1.2s-0.4-1.1-0.6-1.9s-0.2-1.7-0.2-2.7c0-1,0.1-1.9,0.2-2.7
			s0.3-1.4,0.6-1.9c0.2-0.5,0.5-0.9,0.7-1.2c0.2-0.3,0.4-0.6,0.6-0.7s0.2-0.3,0.2-0.3c0-0.1-0.1-0.1-0.2-0.1h0h-0.2l-0.4,0.3
			c-0.9,0.8-1.5,1.8-1.9,3C285.6-19.8,285.4-18.6,285.4-17.3z"/>
	</g>
	<g>
		<path id="MJMATHI-78_5_" d="M290.2-16.7c0.1,0.4,0.3,0.8,0.8,1.4c0.4,0.5,1,0.8,1.6,0.8c0.3,0,0.6-0.1,0.9-0.3
			c0.3-0.2,0.5-0.4,0.6-0.6c0.4,0.6,0.9,0.9,1.4,0.9c0.3,0,0.6-0.1,0.9-0.3c0.3-0.2,0.4-0.5,0.4-0.8c0-0.3-0.1-0.5-0.2-0.7
			c-0.1-0.2-0.3-0.3-0.4-0.3c-0.1,0-0.2-0.1-0.3-0.1c-0.2,0-0.3,0.1-0.4,0.2c-0.1,0.1-0.2,0.2-0.2,0.4c0,0.4,0.2,0.7,0.7,0.9
			c-0.1,0.1-0.3,0.2-0.6,0.2c-0.1,0-0.2,0-0.3,0c-0.4-0.1-0.6-0.5-0.8-0.9c-0.6-2.1-0.8-3.3-0.8-3.6c0-0.3,0.1-0.4,0.2-0.6
			s0.3-0.2,0.5-0.2c0.3,0,0.7,0.2,1,0.5c0.3,0.3,0.6,0.7,0.7,1.1c0,0.1,0.1,0.1,0.1,0.2c0,0,0.1,0,0.2,0h0.1c0.1,0,0.2,0,0.2-0.1
			c0,0,0-0.1,0-0.2c-0.1-0.5-0.4-1-0.9-1.4c-0.4-0.4-0.9-0.6-1.5-0.6c-0.7,0-1.1,0.3-1.5,0.9c-0.4-0.6-0.8-0.9-1.3-0.9h-0.1
			c-0.5,0-0.8,0.1-1,0.4c-0.2,0.2-0.3,0.5-0.3,0.8c0,0.3,0.1,0.5,0.3,0.7s0.4,0.3,0.6,0.3c0.4,0,0.6-0.2,0.6-0.6
			c0-0.2-0.1-0.3-0.2-0.5c-0.1-0.1-0.2-0.2-0.3-0.3c-0.1,0-0.2-0.1-0.2-0.1l0,0c0,0,0,0,0.1-0.1c0.1,0,0.1-0.1,0.2-0.1
			c0.1,0,0.2-0.1,0.3,0c0.3,0,0.6,0.2,0.9,0.6c0.1,0.1,0.2,0.5,0.3,0.9c0.1,0.5,0.3,1,0.4,1.5s0.2,0.8,0.2,0.9
			c0,0.3,0.1,0.4,0.1,0.5c0,0.3-0.1,0.4-0.2,0.6c-0.1,0.1-0.3,0.2-0.5,0.2c-0.4,0-0.7-0.1-1-0.4c-0.3-0.3-0.6-0.7-0.7-1.1
			c0-0.1,0-0.1-0.1-0.1c0,0-0.1,0-0.2,0h-0.2C290.2-16.8,290.2-16.8,290.2-16.7z"/>
	</g>
	<g>
		<path id="MJMAIN-2C" d="M298.6-20.3c0,0,0,0.1,0,0.3c0,0.2,0.1,0.4,0.2,0.6c0.1,0.2,0.3,0.3,0.6,0.3c0.3,0,0.5-0.1,0.7-0.3
			c0.2-0.2,0.3-0.6,0.3-1.2c0-0.3,0-0.6-0.1-0.9c-0.1-0.3-0.2-0.6-0.3-0.8s-0.2-0.4-0.4-0.6s-0.2-0.3-0.3-0.4
			c-0.1-0.1-0.2-0.1-0.2-0.1c0,0-0.1,0-0.2,0.1c-0.1,0.1-0.1,0.1-0.1,0.2c0,0,0.1,0.1,0.2,0.2c0.1,0.1,0.2,0.3,0.3,0.4
			c0.1,0.2,0.3,0.4,0.4,0.7c0.1,0.3,0.2,0.6,0.2,1v0.2l0,0c0,0,0,0-0.1,0s-0.1,0-0.1,0s-0.1,0-0.1,0c-0.1,0-0.1,0-0.2,0
			c-0.3,0-0.5,0.1-0.6,0.2L298.6-20.3z"/>
	</g>
	<g transform="translate(21791,0)">
		<g>
			<path id="MJMATHI-78_6_" d="M-21486.6-16.7c0.1,0.4,0.3,0.8,0.8,1.4c0.4,0.5,1,0.8,1.6,0.8c0.3,0,0.6-0.1,0.9-0.3
				c0.3-0.2,0.5-0.4,0.6-0.6c0.4,0.6,0.9,0.9,1.4,0.9c0.3,0,0.6-0.1,0.9-0.3c0.3-0.2,0.4-0.5,0.4-0.8c0-0.3-0.1-0.5-0.2-0.7
				c-0.1-0.2-0.3-0.3-0.4-0.3s-0.2-0.1-0.3-0.1c-0.2,0-0.3,0.1-0.4,0.2c-0.1,0.1-0.2,0.2-0.2,0.4c0,0.4,0.2,0.7,0.7,0.9
				c-0.1,0.1-0.3,0.2-0.6,0.2c-0.1,0-0.2,0-0.3,0c-0.4-0.1-0.6-0.5-0.8-0.9c-0.6-2.1-0.8-3.3-0.8-3.6c0-0.3,0.1-0.4,0.2-0.6
				s0.3-0.2,0.5-0.2c0.3,0,0.7,0.2,1,0.5c0.3,0.3,0.6,0.7,0.7,1.1c0,0.1,0.1,0.1,0.1,0.2s0.1,0,0.2,0h0.1c0.1,0,0.2,0,0.2-0.1
				c0,0,0-0.1,0-0.2c-0.1-0.5-0.4-1-0.9-1.4c-0.4-0.4-0.9-0.6-1.5-0.6c-0.7,0-1.1,0.3-1.5,0.9c-0.4-0.6-0.8-0.9-1.3-0.9h-0.1
				c-0.5,0-0.8,0.1-1,0.4c-0.2,0.2-0.3,0.5-0.3,0.8c0,0.3,0.1,0.5,0.3,0.7c0.2,0.2,0.4,0.3,0.6,0.3c0.4,0,0.6-0.2,0.6-0.6
				c0-0.2-0.1-0.3-0.2-0.5c-0.1-0.1-0.2-0.2-0.3-0.3c-0.1,0-0.2-0.1-0.2-0.1l0,0c0,0,0,0,0.1-0.1c0.1,0,0.1-0.1,0.2-0.1
				c0.1,0,0.2-0.1,0.3,0c0.3,0,0.6,0.2,0.9,0.6c0.1,0.1,0.2,0.5,0.3,0.9c0.1,0.5,0.3,1,0.4,1.5s0.2,0.8,0.2,0.9
				c0,0.3,0.1,0.4,0.1,0.5c0,0.3-0.1,0.4-0.2,0.6c-0.1,0.1-0.3,0.2-0.5,0.2c-0.4,0-0.7-0.1-1-0.4c-0.3-0.3-0.6-0.7-0.7-1.1
				c0-0.1,0-0.1-0.1-0.1c0,0-0.1,0-0.2,0h-0.2C-21486.6-16.8-21486.6-16.8-21486.6-16.7z"/>
		</g>
		<g transform="scale(0.707)">
			<path id="MJMAIN-32_2_" d="M-21478.3-18.6c-0.2,0-0.3,0.1-0.4,0.2c-0.1,0.1-0.2,0.3-0.2,0.4c0,0.5,0.2,0.9,0.5,1.2
				c0.3,0.3,0.8,0.5,1.3,0.5c0.6,0,1.1-0.2,1.5-0.6c0.4-0.4,0.6-0.8,0.6-1.4c0-0.3-0.1-0.6-0.2-0.8s-0.3-0.5-0.5-0.7
				s-0.4-0.4-0.8-0.7c-0.2-0.2-0.6-0.5-1-0.9l-0.6-0.6l0.8,0c1,0,1.6,0,1.6,0c0,0,0.1,0.3,0.2,0.9v0h0.4v0c0,0,0-0.3-0.1-0.9
				c-0.1-0.6-0.1-0.9-0.1-0.9v0h-3.7v0.2v0.1c0,0,0,0.1,0.1,0.1c0,0.1,0.1,0.2,0.3,0.3c0.2,0.2,0.4,0.4,0.5,0.6
				c0.1,0.1,0.2,0.2,0.3,0.4c0.2,0.2,0.3,0.3,0.3,0.4s0.2,0.2,0.3,0.3s0.2,0.3,0.3,0.3c0.1,0.1,0.1,0.2,0.2,0.3
				c0.1,0.1,0.2,0.2,0.2,0.3c0,0.1,0.1,0.2,0.1,0.3c0.1,0.1,0.1,0.2,0.1,0.3c0,0.1,0,0.2,0.1,0.3c0,0.1,0,0.2,0,0.3
				c0,0.4-0.1,0.8-0.3,1.1c-0.2,0.3-0.5,0.5-1,0.5c-0.2,0-0.4-0.1-0.6-0.2s-0.3-0.2-0.3-0.3c-0.1-0.1-0.1-0.2-0.1-0.2c0,0,0,0,0,0
				c0.1,0,0.2,0,0.4-0.1c0.1-0.1,0.2-0.2,0.2-0.5c0-0.2-0.1-0.3-0.2-0.4S-21478.1-18.6-21478.3-18.6z"/>
		</g>
	</g>
	<g>
		<path id="MJMAIN-29_2_" d="M318.8-10.3L318.8-10.3c0.1,0,0.1,0,0.2,0h0.2l0.4-0.3c0.9-0.8,1.5-1.8,1.9-3c0.4-1.2,0.6-2.4,0.6-3.7
			c0-0.6,0-1.2-0.1-1.8c-0.1-0.6-0.2-1.1-0.3-1.5c-0.1-0.4-0.3-0.8-0.5-1.2c-0.2-0.4-0.4-0.7-0.5-0.9c-0.1-0.2-0.3-0.5-0.6-0.7
			c-0.3-0.3-0.4-0.4-0.4-0.5s-0.2-0.1-0.3-0.3c0,0,0,0-0.1-0.1H319c-0.1,0-0.1,0-0.2,0s-0.1,0-0.1,0c0,0,0,0.1,0,0.1
			c0,0,0.1,0.1,0.2,0.2c1.4,1.5,2.2,3.7,2.2,6.6s-0.7,5.1-2.2,6.6c-0.1,0.1-0.1,0.2-0.2,0.2C318.7-10.4,318.8-10.4,318.8-10.3z"/>
	</g>
	<g transform="translate(23207,0)">
		<g>
			<path id="MJMATHI-3C8_1_" d="M-22881.4-14.6c0.4,0,0.7-0.1,0.9-0.3c0.2-0.2,0.3-0.5,0.3-0.8c0-0.2-0.1-0.7-0.4-1.5
				c-0.3-0.8-0.4-1.4-0.4-1.7c0-0.4,0.2-0.7,0.4-0.9c0.2-0.2,0.4-0.3,0.6-0.3c0.2-0.1,0.3-0.1,0.4-0.1h0l1.1,4.6
				c0.8,3.1,1.2,4.6,1.2,4.6c0,0,0.1,0,0.2,0c0.2,0,0.3,0,0.3-0.1c0-0.1-0.4-1.6-1.1-4.6c-0.8-3-1.1-4.6-1.1-4.6s0,0,0.1,0
				c0.8,0,1.6,0.4,2.3,1.2c0.7,0.8,1.1,1.6,1.1,2.3c0,0.2,0,0.4-0.1,0.6s-0.2,0.3-0.3,0.3c-0.1,0.1-0.2,0.1-0.3,0.3
				s-0.1,0.2-0.1,0.3c0,0.2,0.1,0.4,0.2,0.6c0.2,0.2,0.4,0.3,0.6,0.3c0.2,0,0.3-0.1,0.5-0.3c0.1-0.2,0.2-0.4,0.2-0.8
				c0-0.3-0.1-0.6-0.2-1.1c-0.1-0.5-0.2-0.8-0.3-0.9c-0.3-0.9-0.8-1.6-1.6-2.3c-0.8-0.6-1.5-0.9-2.3-0.9h-0.1l-0.3-1.3
				c-0.2-0.9-0.3-1.3-0.3-1.3c0-0.1-0.1-0.1-0.3-0.1h-0.2c-0.1,0.1-0.1,0.1-0.1,0.1c0,0,0.1,0.5,0.3,1.3c0.2,0.8,0.3,1.3,0.3,1.3
				c-0.1,0-0.1,0-0.2,0c-1.5,0.2-2.2,0.9-2.2,2c0,0.3,0.2,0.9,0.5,1.7c0.3,0.8,0.5,1.4,0.5,1.6c0,0,0,0,0,0c0,0.1,0,0.1,0,0.2
				s0,0.1-0.1,0.1s-0.1,0.1-0.2,0.1h-0.1c-0.2,0-0.4-0.1-0.6-0.3c-0.2-0.2-0.3-0.4-0.4-0.6s-0.2-0.4-0.2-0.6
				c-0.1-0.2-0.1-0.3-0.1-0.3c0,0-0.1,0-0.2,0h-0.2c-0.1,0.1-0.1,0.1-0.1,0.1c0,0.1,0.1,0.3,0.2,0.6s0.3,0.6,0.7,1
				C-22882.1-14.8-22881.8-14.6-22881.4-14.6z"/>
		</g>
		<g transform="scale(0.707)">
			<path id="MJMATHI-3BA_2_" d="M-22873.7-23c-0.1,0-0.2,0-0.2,0.1s-0.1,0.1-0.1,0.1c0,0,0,0.1,0,0.1c0,0.1,0.2,0.7,0.5,2
				c0.3,1.2,0.5,1.9,0.5,1.9c0.1,0.2,0.2,0.3,0.5,0.3c0.1,0,0.1,0,0.2-0.1c0.1,0,0.1-0.1,0.1-0.1c0,0,0-0.1,0-0.1
				c0-0.1-0.1-0.3-0.2-0.7l-0.2-0.7c0,0,0.1,0,0.2,0.1c0.1,0.1,0.2,0.1,0.3,0.1c0.1,0.1,0.3,0.3,0.7,0.6c0.4,0.3,0.7,0.5,0.9,0.6
				s0.5,0.2,0.7,0.2c0.1,0,0.3,0,0.3-0.1c0.1-0.1,0.1-0.2,0.1-0.3c0-0.2-0.1-0.3-0.2-0.4c-0.1-0.1-0.3-0.2-0.4-0.2
				c-0.1,0-0.2,0-0.3,0.1c-0.1,0.1-0.1,0.2-0.1,0.3c0,0,0,0.1,0,0.1l-0.1,0c-0.2-0.1-0.5-0.3-0.8-0.6l-0.6-0.5l-0.1-0.1h0
				c0.1,0,0.3,0,0.5-0.1c0.3,0,0.5-0.1,0.7-0.2c0.4-0.2,0.6-0.4,0.6-0.8c0-0.1,0-0.2,0-0.4c0-0.2-0.1-0.3-0.1-0.5
				c0-0.3,0.1-0.4,0.3-0.4c0.3,0,0.6,0.4,0.7,1.1c0,0.1,0,0.1,0.1,0.1s0.1,0,0.2,0c0.1,0,0.2,0,0.2-0.1c0-0.2-0.1-0.4-0.3-0.8
				c-0.2-0.4-0.4-0.6-0.7-0.7c-0.1,0-0.2,0-0.3,0c-0.3,0-0.5,0.1-0.7,0.3c-0.2,0.2-0.3,0.4-0.3,0.7c0,0.1,0,0.2,0,0.3s0,0.2,0,0.2
				c0,0.2-0.1,0.3-0.2,0.4s-0.3,0.2-0.5,0.2s-0.4,0.1-0.5,0.1c-0.1,0-0.2,0-0.4,0h0l-0.2-1c-0.2-0.7-0.3-1-0.3-1
				C-22873.4-22.9-22873.5-23-22873.7-23z"/>
		</g>
	</g>
	<g>
		<path id="MJMAIN-28_3_" d="M340.9-17.3c0,0.6,0,1.2,0.1,1.8c0.1,0.6,0.2,1.1,0.3,1.5c0.1,0.4,0.3,0.8,0.5,1.2
			c0.2,0.4,0.4,0.7,0.5,0.9c0.1,0.2,0.3,0.5,0.6,0.7c0.3,0.3,0.4,0.4,0.5,0.5c0,0.1,0.2,0.2,0.3,0.3h0.2h0.1c0.1,0,0.2,0,0.2-0.1
			c0,0-0.1-0.1-0.2-0.3s-0.3-0.4-0.6-0.7s-0.5-0.7-0.7-1.2c-0.2-0.5-0.4-1.1-0.6-1.9c-0.2-0.8-0.2-1.7-0.2-2.7c0-1,0.1-1.9,0.2-2.7
			c0.2-0.8,0.3-1.4,0.6-1.9c0.2-0.5,0.5-0.9,0.7-1.2c0.2-0.3,0.4-0.6,0.6-0.7s0.2-0.3,0.2-0.3c0-0.1-0.1-0.1-0.2-0.1h0h-0.2
			l-0.4,0.3c-0.9,0.8-1.5,1.8-1.9,3S340.9-18.6,340.9-17.3z"/>
	</g>
	<g transform="translate(24755,0)">
		<g>
			<path id="MJMATHI-78_7_" d="M-24409.3-16.7c0.1,0.4,0.3,0.8,0.8,1.4c0.4,0.5,1,0.8,1.6,0.8c0.3,0,0.6-0.1,0.9-0.3
				s0.5-0.4,0.6-0.6c0.4,0.6,0.9,0.9,1.4,0.9c0.3,0,0.6-0.1,0.9-0.3c0.3-0.2,0.4-0.5,0.4-0.8c0-0.3-0.1-0.5-0.2-0.7
				c-0.1-0.2-0.3-0.3-0.4-0.3s-0.2-0.1-0.3-0.1c-0.2,0-0.3,0.1-0.4,0.2s-0.2,0.2-0.2,0.4c0,0.4,0.2,0.7,0.7,0.9
				c-0.1,0.1-0.3,0.2-0.6,0.2c-0.1,0-0.2,0-0.3,0c-0.4-0.1-0.6-0.5-0.8-0.9c-0.6-2.1-0.8-3.3-0.8-3.6c0-0.3,0.1-0.4,0.2-0.6
				c0.2-0.1,0.3-0.2,0.5-0.2c0.3,0,0.7,0.2,1,0.5c0.3,0.3,0.6,0.7,0.7,1.1c0,0.1,0.1,0.1,0.1,0.2c0,0,0.1,0,0.2,0h0.1
				c0.1,0,0.2,0,0.2-0.1c0,0,0-0.1,0-0.2c-0.1-0.5-0.4-1-0.9-1.4c-0.4-0.4-0.9-0.6-1.5-0.6c-0.7,0-1.1,0.3-1.5,0.9
				c-0.4-0.6-0.8-0.9-1.3-0.9h-0.1c-0.5,0-0.8,0.1-1,0.4c-0.2,0.2-0.3,0.5-0.3,0.8c0,0.3,0.1,0.5,0.3,0.7c0.2,0.2,0.4,0.3,0.6,0.3
				c0.4,0,0.6-0.2,0.6-0.6c0-0.2-0.1-0.3-0.2-0.5s-0.2-0.2-0.3-0.3c-0.1,0-0.2-0.1-0.2-0.1l0,0c0,0,0,0,0.1-0.1
				c0.1,0,0.1-0.1,0.2-0.1c0.1,0,0.2-0.1,0.3,0c0.3,0,0.6,0.2,0.9,0.6c0.1,0.1,0.2,0.5,0.3,0.9c0.1,0.5,0.3,1,0.4,1.5
				c0.1,0.5,0.2,0.8,0.2,0.9c0,0.3,0.1,0.4,0.1,0.5c0,0.3-0.1,0.4-0.2,0.6c-0.1,0.1-0.3,0.2-0.5,0.2c-0.4,0-0.7-0.1-1-0.4
				c-0.3-0.3-0.6-0.7-0.7-1.1c0-0.1,0-0.1-0.1-0.1c0,0-0.1,0-0.2,0h-0.2C-24409.3-16.8-24409.3-16.8-24409.3-16.7z"/>
		</g>
		<g transform="scale(0.707)">
			<path id="MJMAIN-2032_2_" d="M-24401.3-14.6c0,0-0.1,0-0.3,0.1c-0.1,0-0.2,0.1-0.2,0.1c0,0,0.2,0.8,0.5,2.3s0.6,2.2,0.6,2.3
				c0.1,0.2,0.3,0.3,0.5,0.3c0.1,0,0.3,0,0.4-0.1s0.2-0.2,0.2-0.4c0,0,0-0.1,0-0.1c0,0-0.3-0.8-0.9-2.2S-24401.2-14.6-24401.3-14.6
				C-24401.2-14.6-24401.3-14.6-24401.3-14.6z"/>
		</g>
	</g>
	<g>
		<path id="MJMAIN-2C_1_" d="M358.2-20.3c0,0,0,0.1,0,0.3c0,0.2,0.1,0.4,0.2,0.6c0.1,0.2,0.3,0.3,0.6,0.3c0.3,0,0.5-0.1,0.7-0.3
			c0.2-0.2,0.3-0.6,0.3-1.2c0-0.3,0-0.6-0.1-0.9c-0.1-0.3-0.2-0.6-0.3-0.8s-0.2-0.4-0.4-0.6s-0.2-0.3-0.3-0.4
			c-0.1-0.1-0.2-0.1-0.2-0.1c0,0-0.1,0-0.2,0.1s-0.1,0.1-0.1,0.2c0,0,0.1,0.1,0.2,0.2c0.1,0.1,0.2,0.3,0.3,0.4
			c0.1,0.2,0.3,0.4,0.4,0.7c0.1,0.3,0.2,0.6,0.2,1v0.2l0,0c0,0,0,0-0.1,0s-0.1,0-0.1,0s-0.1,0-0.1,0c-0.1,0-0.1,0-0.2,0
			c-0.3,0-0.5,0.1-0.6,0.2L358.2-20.3z"/>
	</g>
	<g transform="translate(26068,0)">
		<g>
			<path id="MJMATHI-78_8_" d="M-25704-16.7c0.1,0.4,0.3,0.8,0.8,1.4c0.4,0.5,1,0.8,1.6,0.8c0.3,0,0.6-0.1,0.9-0.3s0.5-0.4,0.6-0.6
				c0.4,0.6,0.9,0.9,1.4,0.9c0.3,0,0.6-0.1,0.9-0.3c0.3-0.2,0.4-0.5,0.4-0.8c0-0.3-0.1-0.5-0.2-0.7c-0.1-0.2-0.3-0.3-0.4-0.3
				c-0.1,0-0.2-0.1-0.3-0.1c-0.2,0-0.3,0.1-0.4,0.2s-0.2,0.2-0.2,0.4c0,0.4,0.2,0.7,0.7,0.9c-0.1,0.1-0.3,0.2-0.6,0.2
				c-0.1,0-0.2,0-0.3,0c-0.4-0.1-0.6-0.5-0.8-0.9c-0.6-2.1-0.8-3.3-0.8-3.6c0-0.3,0.1-0.4,0.2-0.6s0.3-0.2,0.5-0.2
				c0.3,0,0.7,0.2,1,0.5c0.3,0.3,0.6,0.7,0.7,1.1c0,0.1,0.1,0.1,0.1,0.2s0.1,0,0.2,0h0.1c0.1,0,0.2,0,0.2-0.1c0,0,0-0.1,0-0.2
				c-0.1-0.5-0.4-1-0.9-1.4c-0.4-0.4-0.9-0.6-1.5-0.6c-0.7,0-1.1,0.3-1.5,0.9c-0.4-0.6-0.8-0.9-1.3-0.9h-0.1c-0.5,0-0.8,0.1-1,0.4
				c-0.2,0.2-0.3,0.5-0.3,0.8c0,0.3,0.1,0.5,0.3,0.7c0.2,0.2,0.4,0.3,0.6,0.3c0.4,0,0.6-0.2,0.6-0.6c0-0.2-0.1-0.3-0.2-0.5
				s-0.2-0.2-0.3-0.3c-0.1,0-0.2-0.1-0.2-0.1l0,0c0,0,0,0,0.1-0.1c0.1,0,0.1-0.1,0.2-0.1c0.1,0,0.2-0.1,0.3,0c0.3,0,0.6,0.2,0.9,0.6
				c0.1,0.1,0.2,0.5,0.3,0.9c0.1,0.5,0.3,1,0.4,1.5c0.1,0.5,0.2,0.8,0.2,0.9c0,0.3,0.1,0.4,0.1,0.5c0,0.3-0.1,0.4-0.2,0.6
				c-0.1,0.1-0.3,0.2-0.5,0.2c-0.4,0-0.7-0.1-1-0.4c-0.3-0.3-0.6-0.7-0.7-1.1c0-0.1,0-0.1-0.1-0.1c0,0-0.1,0-0.2,0h-0.2
				C-25704-16.8-25704-16.8-25704-16.7z"/>
		</g>
		<g transform="scale(0.707)">
			<path id="MJMAIN-32_3_" d="M-25695.7-18.6c-0.2,0-0.3,0.1-0.4,0.2c-0.1,0.1-0.2,0.3-0.2,0.4c0,0.5,0.2,0.9,0.5,1.2
				c0.3,0.3,0.8,0.5,1.3,0.5c0.6,0,1.1-0.2,1.5-0.6c0.4-0.4,0.6-0.8,0.6-1.4c0-0.3-0.1-0.6-0.2-0.8c-0.1-0.3-0.3-0.5-0.5-0.7
				c-0.2-0.2-0.4-0.4-0.8-0.7c-0.2-0.2-0.6-0.5-1-0.9l-0.6-0.6l0.7,0c1,0,1.6,0,1.6,0c0,0,0.1,0.3,0.2,0.9v0h0.4v0
				c0,0,0-0.3-0.1-0.9c-0.1-0.6-0.1-0.9-0.1-0.9v0h-3.7v0.2v0.1c0,0,0,0.1,0.1,0.1c0,0.1,0.1,0.2,0.3,0.3c0.2,0.2,0.4,0.4,0.5,0.6
				c0.1,0.1,0.2,0.2,0.3,0.4c0.2,0.2,0.3,0.3,0.3,0.4c0.1,0.1,0.2,0.2,0.3,0.3s0.2,0.3,0.3,0.3c0.1,0.1,0.1,0.2,0.2,0.3
				c0.1,0.1,0.2,0.2,0.2,0.3s0.1,0.2,0.1,0.3c0.1,0.1,0.1,0.2,0.1,0.3c0,0.1,0,0.2,0.1,0.3c0,0.1,0,0.2,0,0.3c0,0.4-0.1,0.8-0.3,1.1
				c-0.2,0.3-0.5,0.5-1,0.5c-0.2,0-0.4-0.1-0.6-0.2s-0.3-0.2-0.3-0.3c-0.1-0.1-0.1-0.2-0.1-0.2c0,0,0,0,0.1,0c0.1,0,0.2,0,0.4-0.1
				c0.1-0.1,0.2-0.2,0.2-0.5c0-0.2-0.1-0.3-0.2-0.4C-25695.3-18.6-25695.5-18.6-25695.7-18.6z"/>
		</g>
	</g>
	<g>
		<path id="MJMAIN-29_3_" d="M378.4-10.3L378.4-10.3c0.1,0,0.1,0,0.2,0h0.2l0.4-0.3c0.9-0.8,1.5-1.8,1.9-3s0.6-2.4,0.6-3.7
			c0-0.6,0-1.2-0.1-1.8c-0.1-0.6-0.2-1.1-0.3-1.5c-0.1-0.4-0.3-0.8-0.5-1.2c-0.2-0.4-0.4-0.7-0.5-0.9c-0.1-0.2-0.3-0.5-0.6-0.7
			c-0.3-0.3-0.4-0.4-0.4-0.5s-0.2-0.1-0.3-0.3c0,0,0,0-0.1-0.1h-0.2c-0.1,0-0.1,0-0.2,0s-0.1,0-0.1,0c0,0,0,0.1,0,0.1
			c0,0,0.1,0.1,0.2,0.2c1.4,1.5,2.2,3.7,2.2,6.6s-0.7,5.1-2.2,6.6c-0.1,0.1-0.1,0.2-0.2,0.2C378.3-10.4,378.4-10.4,378.4-10.3z"/>
	</g>
</g>
</svg>
