<?xml version="1.0" encoding="utf-8"?>
<!-- Generator: Adobe Illustrator 22.1.0, SVG Export Plug-In . SVG Version: 6.00 Build 0)  -->
<svg version="1.1" id="Layer_1" focusable="false" xmlns="http://www.w3.org/2000/svg" xmlns:xlink="http://www.w3.org/1999/xlink"
	 x="0px" y="0px" viewBox="0 0 259.3 34.9" style="enable-background:new 0 0 259.3 34.9;" xml:space="preserve">
<g transform="matrix(1 0 0 -1 0 0)">
	<g>
		<path id="MJMATHI-6E" d="M0.3-16.8c0,0.1,0,0.1,0,0.2c0,0.1,0.1,0.3,0.2,0.5s0.2,0.5,0.3,0.7S1-15,1.2-14.8s0.4,0.2,0.6,0.2
			c0.3,0,0.6-0.1,0.8-0.3c0.2-0.2,0.4-0.3,0.4-0.5c0.1-0.1,0.1-0.2,0.1-0.3c0,0,0,0,0,0l0.2,0.2c0.6,0.6,1.2,0.9,1.9,0.9
			c0.5,0,0.9-0.1,1.2-0.4C6.8-15.2,7-15.6,7-16.1c0-0.5-0.2-1.2-0.5-2.2c-0.4-1-0.5-1.6-0.5-1.8c0-0.2,0.1-0.4,0.2-0.4
			c0.1,0,0.1,0,0.1,0c0.3,0,0.5,0.2,0.7,0.5c0.2,0.3,0.4,0.7,0.5,1.1c0,0.1,0.1,0.1,0.3,0.1c0.2,0,0.3,0,0.3-0.1c0,0,0-0.1-0.1-0.2
			c-0.1-0.3-0.2-0.5-0.3-0.8s-0.3-0.5-0.6-0.8s-0.6-0.4-1-0.4c-0.4,0-0.8,0.1-0.9,0.4C5-20.3,4.9-20,4.9-19.8c0,0.2,0.2,0.7,0.5,1.7
			c0.3,0.9,0.5,1.6,0.5,2.1c0,0.5-0.2,0.8-0.6,0.8H5.2c-0.8,0-1.5-0.5-2-1.4l-0.1-0.2l-0.5-1.9c-0.3-1.2-0.5-1.9-0.5-2
			c-0.1-0.3-0.3-0.4-0.6-0.4c-0.1,0-0.2,0-0.3,0.1c-0.1,0.1-0.1,0.1-0.2,0.2c0,0.1,0,0.1,0,0.1c0,0.1,0.2,0.9,0.5,2.3
			s0.5,2.2,0.6,2.3c0,0,0,0.2,0,0.3c0,0.4-0.1,0.5-0.3,0.5c-0.4,0-0.6-0.5-0.9-1.4c-0.1-0.2-0.1-0.3-0.1-0.3c0-0.1-0.1-0.1-0.3-0.1
			H0.4C0.3-16.8,0.3-16.8,0.3-16.8z"/>
	</g>
	<g transform="scale(0.707)">
		<path id="MJMATHI-3BA" d="M9.2-23C9.1-23,9-23,9-22.9c-0.1,0-0.1,0.1-0.1,0.1c0,0,0,0.1,0,0.1c0,0.1,0.2,0.7,0.5,2
			c0.3,1.2,0.5,1.9,0.5,1.9c0.1,0.2,0.2,0.3,0.5,0.3c0.1,0,0.1,0,0.2-0.1s0.1-0.1,0.1-0.1s0-0.1,0-0.1c0-0.1-0.1-0.3-0.2-0.7
			l-0.2-0.7c0,0,0.1,0,0.2,0.1c0.1,0.1,0.2,0.1,0.3,0.1c0.1,0.1,0.3,0.3,0.7,0.6c0.4,0.3,0.7,0.5,0.9,0.6c0.2,0.1,0.5,0.2,0.7,0.2
			c0.1,0,0.3,0,0.3-0.1c0.1-0.1,0.1-0.2,0.1-0.3c0-0.2-0.1-0.3-0.2-0.4c-0.1-0.1-0.3-0.2-0.4-0.2c-0.1,0-0.2,0-0.3,0.1
			c-0.1,0.1-0.1,0.2-0.1,0.3c0,0,0,0.1,0,0.1l-0.1,0c-0.2-0.1-0.5-0.3-0.8-0.6l-0.6-0.5l-0.1-0.1h0c0.1,0,0.3,0,0.5-0.1
			c0.2,0,0.5-0.1,0.7-0.2c0.4-0.2,0.6-0.4,0.6-0.8c0-0.1,0-0.2,0-0.4c0-0.2-0.1-0.3-0.1-0.5c0-0.3,0.1-0.4,0.3-0.4
			c0.3,0,0.6,0.4,0.7,1.1c0,0.1,0,0.1,0.1,0.1c0,0,0.1,0,0.2,0c0.1,0,0.2,0,0.2-0.1c0-0.2-0.1-0.4-0.3-0.8s-0.4-0.6-0.7-0.7
			c-0.1,0-0.2,0-0.3,0c-0.3,0-0.5,0.1-0.7,0.3c-0.2,0.2-0.3,0.4-0.3,0.7c0,0.1,0,0.2,0,0.3c0,0.1,0,0.2,0,0.2c0,0.2-0.1,0.3-0.2,0.4
			s-0.3,0.2-0.5,0.2c-0.2,0-0.4,0.1-0.5,0.1c-0.1,0-0.2,0-0.4,0h0l-0.2-1c-0.2-0.7-0.3-1-0.3-1C9.5-22.9,9.4-23,9.2-23z"/>
	</g>
	<g>
		<path id="MJMAIN-28" d="M16.8-17.3c0,0.6,0,1.2,0.1,1.8c0.1,0.6,0.2,1.1,0.3,1.5s0.3,0.8,0.5,1.2s0.4,0.7,0.5,0.9
			c0.1,0.2,0.3,0.5,0.6,0.7c0.3,0.3,0.4,0.4,0.5,0.5c0,0.1,0.2,0.2,0.3,0.3h0.2h0.1c0.1,0,0.2,0,0.2-0.1c0,0-0.1-0.1-0.2-0.3
			s-0.3-0.4-0.6-0.7c-0.2-0.3-0.5-0.7-0.7-1.2c-0.2-0.5-0.4-1.1-0.6-1.9c-0.2-0.8-0.2-1.7-0.2-2.7s0.1-1.9,0.2-2.7
			c0.2-0.8,0.3-1.4,0.6-1.9c0.2-0.5,0.5-0.9,0.7-1.2c0.2-0.3,0.4-0.6,0.6-0.7c0.2-0.2,0.2-0.3,0.2-0.3c0-0.1-0.1-0.1-0.2-0.1h0h-0.2
			l-0.4,0.3c-0.9,0.8-1.5,1.8-1.9,3S16.8-18.6,16.8-17.3z"/>
	</g>
	<g>
		<path id="MJMATHI-70" d="M21.2-16.8c0,0,0,0.1,0,0.1c0,0,0,0.1,0.1,0.3c0,0.2,0.1,0.3,0.1,0.4s0.1,0.3,0.2,0.5
			c0.1,0.2,0.2,0.3,0.3,0.4c0.1,0.1,0.2,0.2,0.4,0.3s0.3,0.1,0.5,0.1c0.7,0,1.1-0.3,1.3-0.9l0.1,0.1c0.6,0.5,1.1,0.8,1.6,0.8
			c0.6,0,1.1-0.2,1.4-0.7s0.5-1,0.5-1.6c0-1-0.4-1.9-1.1-2.8s-1.5-1.3-2.4-1.3c-0.2,0-0.4,0-0.5,0.1c-0.1,0-0.2,0.1-0.3,0.2
			c-0.1,0.1-0.2,0.2-0.3,0.2l-0.1,0.1c0,0-0.1-0.4-0.3-1.2c-0.2-0.8-0.3-1.2-0.3-1.2c0-0.1,0-0.1,0.1-0.1s0.2,0,0.5,0h0.3
			c0.1-0.1,0.1-0.1,0.1-0.1c0,0,0-0.1,0-0.3c0-0.1-0.1-0.2-0.1-0.2c0,0-0.1,0-0.2-0.1c0,0-0.1,0-0.2,0c-0.1,0-0.2,0-0.5,0
			c-0.2,0-0.5,0-0.9,0c-0.7,0-1.1,0-1.2,0h-0.1c-0.1,0.1-0.1,0.1-0.1,0.2c0,0.3,0.1,0.4,0.2,0.5h0.3c0.3,0,0.5,0.1,0.5,0.2
			c0,0.1,0.3,1.2,0.9,3.3c0.5,2.2,0.8,3.3,0.9,3.4c0,0,0,0.1,0,0.2c0,0.4-0.1,0.6-0.3,0.6c-0.2,0-0.4-0.1-0.5-0.4
			c-0.1-0.3-0.2-0.5-0.3-0.9c-0.1-0.3-0.1-0.5-0.2-0.5c0,0-0.1,0-0.2,0h-0.2C21.2-16.8,21.2-16.8,21.2-16.8z M23.3-19.3
			c0.2-0.7,0.5-1.1,1-1.1c0.3,0,0.5,0.1,0.8,0.3c0.3,0.2,0.5,0.5,0.6,0.8c0.2,0.3,0.3,0.8,0.5,1.5s0.3,1.2,0.3,1.5v0.1
			c0,0.7-0.3,1-0.9,1c-0.1,0-0.2,0-0.3,0c-0.1,0-0.2-0.1-0.3-0.1c-0.1-0.1-0.2-0.1-0.3-0.2s-0.2-0.1-0.2-0.2s-0.1-0.1-0.2-0.2
			c-0.1-0.1-0.1-0.1-0.2-0.2c0-0.1-0.1-0.1-0.1-0.1l0-0.1c0,0,0-0.1,0-0.2s-0.1-0.3-0.2-0.6c-0.1-0.3-0.1-0.5-0.2-0.7
			C23.5-18.8,23.3-19.3,23.3-19.3z"/>
	</g>
	<g>
		<path id="MJMAIN-29" d="M28.7-10.3L28.7-10.3c0.1,0,0.1,0,0.2,0h0.2l0.4-0.3c0.9-0.8,1.5-1.8,1.9-3c0.4-1.2,0.6-2.4,0.6-3.7
			c0-0.6,0-1.2-0.1-1.8c-0.1-0.6-0.2-1.1-0.3-1.5c-0.1-0.4-0.3-0.8-0.5-1.2c-0.2-0.4-0.4-0.7-0.5-0.9s-0.3-0.5-0.6-0.7
			c-0.3-0.3-0.4-0.4-0.4-0.5c0,0-0.2-0.1-0.3-0.3c0,0,0,0-0.1-0.1h-0.2c-0.1,0-0.1,0-0.2,0c0,0-0.1,0-0.1,0c0,0,0,0.1,0,0.1
			c0,0,0.1,0.1,0.2,0.2c1.4,1.5,2.2,3.7,2.2,6.6s-0.7,5.1-2.2,6.6c-0.1,0.1-0.1,0.2-0.2,0.2C28.7-10.4,28.7-10.4,28.7-10.3z"/>
	</g>
	<g>
		<path id="MJMAIN-3D" d="M38-15.9c0,0.1,0.1,0.2,0.2,0.3H47c0.1-0.1,0.2-0.2,0.2-0.3c0-0.1-0.1-0.2-0.2-0.3l-4.4,0h-4.4
			C38-16.2,38-16.1,38-15.9z M38-18.6c0,0.1,0.1,0.2,0.2,0.3H47c0.1-0.1,0.2-0.2,0.2-0.3c0-0.1-0.1-0.2-0.2-0.3h-8.9
			C38-18.9,38-18.8,38-18.6z"/>
	</g>
	<g transform="translate(3446,0)">
		<g transform="translate(397,0)">
			<rect x="-3789.4" y="-16.9" width="16.6" height="-0.8"/>
			<g>
				<path id="MJMATHI-4E" d="M-3784.1-2.5c0,0-0.1,0-0.1,0c-0.2,0-0.4,0-0.4,0c0,0-0.1,0.1-0.1,0.2c0,0.3,0.1,0.4,0.2,0.5
					c0,0,0.5,0,1.4,0c0.7,0,1.1,0,1.2,0c0.1,0,0.2,0,0.2-0.1c2-4.6,3-7,3-7.1l0.8,3c0.5,2,0.7,3,0.7,3.1c0,0.3-0.3,0.4-0.9,0.4
					c-0.2,0-0.3,0.1-0.3,0.2c0,0,0,0.1,0,0.2c0,0.1,0.1,0.2,0.1,0.3c0,0,0.1,0,0.1,0.1c0,0,0.2,0,0.4,0c0.3,0,0.6,0,1.2,0
					c0.5,0,0.8,0,1.1,0c0.2,0,0.4,0,0.4,0c0.1,0,0.2,0,0.2-0.1c0-0.2,0-0.3-0.1-0.4c0,0-0.1-0.1-0.3-0.1c-0.7,0-1.1-0.2-1.2-0.6
					l-2.1-8.2c0-0.1-0.1-0.1-0.3-0.1c-0.1,0-0.2,0-0.2,0c0,0-0.6,1.4-1.8,4.2l-1.8,4.2l-0.9-3.6c-0.6-2.4-0.9-3.6-0.9-3.7
					c0-0.3,0.4-0.5,1-0.5h0.1c0.1,0,0.1-0.1,0.1-0.1s0-0.1,0-0.3c0-0.1-0.1-0.2-0.1-0.3h-0.2c-0.3,0-0.8,0-1.5,0c-0.3,0-0.5,0-0.7,0
					c-0.2,0-0.4,0-0.5,0c-0.1,0-0.2,0-0.2,0c-0.1,0-0.2,0-0.2,0.1c0,0,0,0.1,0,0.2s0.1,0.2,0.1,0.2c0,0.1,0.1,0.1,0.3,0.1
					c0.6,0,1,0.2,1.2,0.5c0,0.1,0.4,1.3,1,3.9l0.9,3.8C-3783.3-2.5-3783.6-2.5-3784.1-2.5z"/>
			</g>
			<g transform="translate(60,-686)">
				<g>
					<path id="MJMAIN-32" d="M-3847.1,661.6c-0.3,0-0.5,0.1-0.6,0.3c-0.1,0.2-0.2,0.4-0.2,0.6c0,0.7,0.2,1.2,0.7,1.7
						c0.5,0.5,1.1,0.7,1.8,0.7c0.8,0,1.6-0.3,2.1-0.8c0.6-0.5,0.9-1.2,0.9-2c0-0.4-0.1-0.8-0.3-1.1c-0.2-0.4-0.4-0.7-0.7-0.9
						c-0.3-0.3-0.6-0.6-1.1-1c-0.3-0.3-0.8-0.7-1.4-1.3l-0.8-0.8l1.1,0c1.5,0,2.2,0,2.3,0.1c0.1,0,0.2,0.4,0.3,1.2v0h0.6v0
						c0,0-0.1-0.5-0.2-1.3c-0.1-0.8-0.2-1.2-0.2-1.3v0h-5.2v0.3v0.2c0,0.1,0,0.1,0.1,0.2c0.1,0.1,0.2,0.2,0.4,0.5
						c0.3,0.3,0.5,0.6,0.7,0.8c0.1,0.1,0.2,0.3,0.5,0.5c0.2,0.3,0.4,0.4,0.5,0.5c0.1,0.1,0.2,0.2,0.4,0.5s0.3,0.4,0.4,0.5
						c0.1,0.1,0.2,0.2,0.3,0.4s0.2,0.3,0.3,0.4c0.1,0.1,0.1,0.3,0.2,0.4c0.1,0.1,0.1,0.3,0.2,0.4c0,0.1,0.1,0.3,0.1,0.4
						c0,0.1,0,0.3,0,0.5c0,0.6-0.2,1.1-0.5,1.5s-0.8,0.6-1.4,0.6c-0.3,0-0.6-0.1-0.8-0.2c-0.2-0.2-0.4-0.3-0.5-0.5
						c-0.1-0.1-0.1-0.2-0.1-0.3c0,0,0,0,0.1,0c0.2,0,0.3-0.1,0.5-0.2s0.3-0.3,0.3-0.6c0-0.2-0.1-0.4-0.2-0.6
						C-3846.6,661.7-3846.8,661.7-3847.1,661.6z"/>
				</g>
				<g>
					<path id="MJMATHI-3C0" d="M-3839.8,655.5c-0.3,0-0.5,0.2-0.5,0.5v0.2l0.2,0.4c0.7,1.5,1.2,2.7,1.5,3.8l0.1,0.3h-0.4
						c-0.4,0-0.6,0-0.8,0c-0.1,0-0.3-0.1-0.5-0.3c-0.1-0.1-0.2-0.1-0.3-0.3c-0.1-0.1-0.2-0.2-0.3-0.3c-0.1-0.1-0.1-0.1-0.1-0.2
						c0,0-0.1,0-0.2,0c-0.2,0-0.3,0-0.3,0.1c0,0.1,0.1,0.2,0.3,0.5c0.2,0.3,0.4,0.6,0.8,0.9c0.3,0.3,0.7,0.5,1,0.5
						c0.1,0,1.1,0,3.1,0c1.5,0,2.2,0,2.3,0c0.2-0.1,0.3-0.2,0.3-0.4c0-0.3-0.1-0.5-0.4-0.6c-0.1,0-0.4,0-1,0h-0.9l0-0.2
						c-0.1-0.7-0.2-1.2-0.2-1.7c0-0.5,0-0.9,0.1-1.3c0.1-0.4,0.2-0.7,0.3-0.9c0.1-0.2,0.1-0.3,0.1-0.4c0-0.2-0.1-0.3-0.2-0.4
						s-0.3-0.2-0.5-0.2c-0.1,0-0.2,0-0.3,0c-0.1,0-0.1,0.1-0.2,0.3c-0.1,0.2-0.2,0.5-0.2,0.8c0,0.1,0,0.3,0,0.6c0,0.5,0,0.9,0.1,1.5
						c0.1,0.5,0.2,0.9,0.3,1.3c0.1,0.3,0.1,0.5,0.1,0.6h-1.4l0-0.1c0,0-0.1-0.4-0.3-1.1s-0.4-1.5-0.6-2.2c-0.2-0.8-0.4-1.2-0.4-1.4
						C-3839.3,655.6-3839.5,655.5-3839.8,655.5z"/>
				</g>
			</g>
		</g>
	</g>
	<g transform="translate(5325,0)">
		<g>
			<path id="MJSZ2-222B" d="M-5249.2-31.9c0.2-0.2,0.4-0.4,0.7-0.4h0c0.3,0,0.5,0.3,0.8,0.8s0.5,1.3,0.7,2.3c0.2,1,0.4,1.9,0.6,2.9
				c0.2,1,0.4,2,0.6,3.2c0,0.2,0.1,0.3,0.1,0.4c0.7,3.9,1.4,7.6,2.2,11c0.8,3.4,1.3,5.6,1.7,6.6c0.1,0.2,0.1,0.3,0.1,0.4
				c0,0.1,0.1,0.3,0.2,0.6c0.1,0.3,0.2,0.6,0.4,0.8c0.1,0.2,0.3,0.5,0.5,0.7c0.2,0.2,0.4,0.4,0.6,0.6c0.2,0.1,0.5,0.2,0.7,0.2
				c0.5,0,0.9-0.2,1.2-0.5c0.3-0.3,0.4-0.7,0.4-1.1c0-0.2-0.1-0.4-0.2-0.6c-0.1-0.1-0.2-0.2-0.3-0.3c-0.1,0-0.2-0.1-0.3,0
				c-0.2,0-0.4,0.1-0.5,0.2c-0.2,0.1-0.2,0.3-0.2,0.6c0,0.4,0.2,0.7,0.7,0.8l0,0.1c0,0-0.1,0.1-0.1,0.1s-0.1,0.1-0.1,0.1
				c-0.1,0.1-0.3,0.1-0.5,0.1c-0.1,0-0.3-0.1-0.4-0.2c-0.1-0.1-0.3-0.4-0.4-0.8c-0.2-0.4-0.4-0.9-0.5-1.6c-0.2-0.7-0.4-1.6-0.7-2.8
				s-0.5-2.6-0.8-4.3c-0.5-3.1-1.1-6.1-1.7-8.8c-0.6-2.8-1.1-4.8-1.4-6c-0.3-1.2-0.6-2.1-0.8-2.7c-0.7-2.2-1.6-3.2-2.6-3.2
				c-0.4,0-0.7,0.1-1,0.4c-0.3,0.3-0.5,0.7-0.5,1.2c0,0.3,0.1,0.5,0.3,0.7c0.2,0.1,0.4,0.2,0.5,0.2c0.2,0,0.4-0.1,0.5-0.2
				c0.2-0.1,0.2-0.3,0.2-0.6C-5248.5-31.5-5248.7-31.8-5249.2-31.9z"/>
		</g>
		<g transform="scale(0.707)">
			<path id="MJMAIN-221E" d="M-5235.5-3.5c0,0.6,0.2,1.1,0.6,1.5c0.4,0.4,0.8,0.7,1.4,0.7c0.6,0,1.1-0.2,1.6-0.6
				c0.2-0.2,0.5-0.5,0.7-0.8l0.1-0.2l0.1,0.1c0.7,1,1.4,1.5,2.3,1.5c0.6,0,1-0.2,1.4-0.7s0.5-1,0.6-1.6c0-0.6-0.2-1.1-0.5-1.5
				c-0.4-0.5-0.8-0.7-1.4-0.7c-0.6,0-1.1,0.2-1.6,0.6c-0.2,0.2-0.5,0.5-0.7,0.8l-0.1,0.2l-0.1-0.1c-0.7-1-1.4-1.5-2.3-1.5
				c-0.6,0-1,0.2-1.4,0.7C-5235.3-4.6-5235.5-4.1-5235.5-3.5z M-5227.1-3.5c0,0.4-0.1,0.9-0.4,1.2c-0.2,0.4-0.6,0.6-1.1,0.6
				c-0.1,0-0.3,0-0.4,0s-0.3-0.1-0.4-0.1c-0.1-0.1-0.2-0.1-0.3-0.2c-0.1-0.1-0.2-0.1-0.3-0.2s-0.2-0.2-0.2-0.2
				c-0.1-0.1-0.1-0.2-0.2-0.2c-0.1-0.1-0.1-0.2-0.1-0.2c0-0.1-0.1-0.1-0.1-0.2l0-0.1l0.3-0.4c0.2-0.3,0.4-0.5,0.5-0.6
				c0.1-0.1,0.3-0.3,0.4-0.4c0.2-0.2,0.3-0.3,0.5-0.3c0.2-0.1,0.3-0.1,0.5-0.1c0.4,0,0.7,0.2,1,0.5S-5227.1-3.9-5227.1-3.5z
				 M-5235.1-3.5c0-0.5,0.1-0.9,0.4-1.2c0.3-0.4,0.6-0.6,1.1-0.6c0.8,0,1.5,0.5,2.1,1.6l-0.3,0.4c-0.4,0.5-0.7,0.9-0.9,1
				c-0.3,0.3-0.7,0.4-1,0.4c-0.4,0-0.7-0.2-1-0.5C-5235-2.7-5235.1-3-5235.1-3.5z"/>
		</g>
		<g transform="translate(556,-898)">
			<g transform="scale(0.707)">
				<path id="MJMAIN-2212" d="M-5798.2,867.1c0,0,0,0,0,0.1s0,0.2,0.1,0.2h5.7c0.1-0.1,0.1-0.1,0.1-0.2c0-0.1,0-0.1-0.1-0.2h-5.7
					c-0.1,0-0.1,0.1-0.1,0.2V867.1z"/>
			</g>
			<g transform="scale(0.707)">
				<path id="MJMAIN-221E_1_" d="M-5790.8,866.9c0,0.6,0.2,1.1,0.6,1.5c0.4,0.4,0.8,0.7,1.4,0.7c0.6,0,1.1-0.2,1.6-0.6
					c0.2-0.2,0.5-0.5,0.7-0.8l0.1-0.2l0.1,0.1c0.7,1,1.4,1.5,2.3,1.5c0.6,0,1-0.2,1.4-0.7c0.4-0.4,0.5-1,0.6-1.6
					c0-0.6-0.2-1.1-0.5-1.5c-0.4-0.5-0.8-0.7-1.4-0.7c-0.6,0-1.1,0.2-1.6,0.6c-0.2,0.2-0.5,0.5-0.7,0.8l-0.1,0.2l-0.1-0.1
					c-0.7-1-1.4-1.5-2.3-1.5c-0.6,0-1,0.2-1.4,0.7C-5790.6,865.7-5790.8,866.3-5790.8,866.9z M-5782.4,866.9c0,0.4-0.1,0.9-0.4,1.2
					c-0.2,0.4-0.6,0.6-1.1,0.6c-0.1,0-0.3,0-0.4,0s-0.3-0.1-0.4-0.1c-0.1-0.1-0.2-0.1-0.3-0.2c-0.1-0.1-0.2-0.1-0.3-0.2
					c-0.1-0.1-0.2-0.2-0.2-0.2c-0.1-0.1-0.1-0.2-0.2-0.2c-0.1-0.1-0.1-0.2-0.1-0.2s-0.1-0.1-0.1-0.2l0-0.1l0.3-0.4
					c0.2-0.3,0.4-0.5,0.5-0.6c0.1-0.1,0.2-0.3,0.4-0.4c0.2-0.2,0.3-0.3,0.5-0.3c0.2-0.1,0.3-0.1,0.5-0.1c0.4,0,0.7,0.2,1,0.5
					S-5782.4,866.4-5782.4,866.9z M-5790.5,866.8c0-0.5,0.1-0.9,0.4-1.2c0.3-0.4,0.6-0.6,1.1-0.6c0.8,0,1.5,0.5,2.1,1.6l-0.3,0.4
					c-0.4,0.5-0.7,0.9-0.9,1c-0.3,0.3-0.7,0.4-1,0.4c-0.4,0-0.7-0.2-1-0.5C-5790.3,867.7-5790.5,867.3-5790.5,866.8z"/>
			</g>
		</g>
	</g>
	<g>
		<path id="MJMATHI-64" d="M108.3-11.3c0,0,0.3,0,1,0.1c0.7,0,1,0.1,1,0.1c0.1,0,0.2,0,0.2-0.1c0-0.1-0.3-1.5-1-4.2
			c-0.7-2.7-1-4.1-1-4.2c0-0.1,0-0.1,0-0.2c0-0.4,0.1-0.6,0.4-0.6c0.1,0,0.2,0.1,0.3,0.1c0.2,0.2,0.4,0.6,0.6,1.3
			c0.1,0.2,0.1,0.3,0.1,0.3c0,0,0.1,0,0.1,0h0.1h0.1c0.1,0,0.2,0,0.2-0.1c0,0,0-0.1,0-0.2c-0.1-0.5-0.3-0.8-0.4-1.1
			c-0.2-0.3-0.3-0.5-0.4-0.6c-0.1-0.1-0.2-0.2-0.4-0.2c-0.1,0-0.2,0-0.3,0c-0.3,0-0.6,0.1-0.8,0.2c-0.2,0.1-0.4,0.3-0.4,0.4
			l-0.1,0.2c0,0,0,0-0.1,0c0,0,0,0-0.1-0.1c-0.5-0.5-1.1-0.8-1.7-0.8c-0.5,0-1,0.2-1.4,0.6s-0.6,1-0.6,1.8c0,0.4,0.1,0.9,0.3,1.4
			c0.2,0.5,0.4,0.9,0.7,1.2c0.4,0.5,0.9,0.9,1.3,1.1s0.8,0.3,1.2,0.3c0.5,0,0.9-0.2,1.2-0.6c0-0.1,0.1-0.1,0.1-0.1
			c0,0,0.1,0.5,0.4,1.5c0.2,1,0.4,1.5,0.4,1.5c0,0.1,0,0.2-0.1,0.2s-0.2,0.1-0.5,0.1h-0.3c-0.1,0.1-0.1,0.1-0.1,0.1c0,0,0,0.1,0,0.3
			C108.2-11.3,108.2-11.3,108.3-11.3z M108.1-16.2c-0.2,0.7-0.6,1.1-1,1.1c-0.3,0-0.6-0.1-0.9-0.4c-0.3-0.3-0.5-0.7-0.7-1.1
			c-0.3-0.7-0.5-1.5-0.6-2.3c0,0,0-0.1,0-0.2s0-0.1,0-0.2c0-0.4,0.1-0.7,0.3-0.9c0.2-0.2,0.4-0.2,0.6-0.3c0.5,0,1,0.3,1.5,1l0.1,0.2
			L108.1-16.2z"/>
	</g>
	<g>
		<path id="MJMATHI-78" d="M111.2-16.7c0.1,0.4,0.3,0.8,0.8,1.4c0.4,0.5,1,0.8,1.6,0.8c0.3,0,0.6-0.1,0.9-0.3
			c0.3-0.2,0.5-0.4,0.6-0.6c0.4,0.6,0.9,0.9,1.4,0.9c0.3,0,0.6-0.1,0.9-0.3s0.4-0.5,0.4-0.8c0-0.3-0.1-0.5-0.2-0.7
			c-0.1-0.2-0.3-0.3-0.4-0.3c-0.1,0-0.2-0.1-0.3-0.1c-0.2,0-0.3,0.1-0.4,0.2c-0.1,0.1-0.2,0.2-0.2,0.4c0,0.4,0.2,0.7,0.7,0.9
			c-0.1,0.1-0.3,0.2-0.6,0.2c-0.1,0-0.2,0-0.3,0c-0.4-0.1-0.6-0.5-0.8-0.9c-0.6-2.1-0.8-3.3-0.8-3.6c0-0.3,0.1-0.4,0.2-0.6
			c0.1-0.1,0.3-0.2,0.5-0.2c0.3,0,0.7,0.2,1,0.5c0.3,0.3,0.6,0.7,0.7,1.1c0,0.1,0.1,0.1,0.1,0.2c0,0,0.1,0,0.2,0h0.1
			c0.1,0,0.2,0,0.2-0.1c0,0,0-0.1,0-0.2c-0.1-0.5-0.4-1-0.9-1.4s-0.9-0.6-1.5-0.6c-0.7,0-1.1,0.3-1.5,0.9c-0.4-0.6-0.8-0.9-1.3-0.9
			h-0.1c-0.5,0-0.8,0.1-1,0.4c-0.2,0.2-0.3,0.5-0.3,0.8c0,0.3,0.1,0.5,0.3,0.7c0.2,0.2,0.4,0.3,0.6,0.3c0.4,0,0.6-0.2,0.6-0.6
			c0-0.2-0.1-0.3-0.2-0.5c-0.1-0.1-0.2-0.2-0.3-0.3s-0.2-0.1-0.2-0.1l0,0c0,0,0,0,0.1-0.1c0.1,0,0.1-0.1,0.2-0.1
			c0.1,0,0.2-0.1,0.3,0c0.3,0,0.6,0.2,0.9,0.6c0.1,0.1,0.2,0.5,0.3,0.9s0.3,1,0.4,1.5c0.1,0.5,0.2,0.8,0.2,0.9
			c0,0.3,0.1,0.4,0.1,0.5c0,0.3-0.1,0.4-0.2,0.6s-0.3,0.2-0.5,0.2c-0.4,0-0.7-0.1-1-0.4s-0.6-0.7-0.7-1.1c0-0.1,0-0.1-0.1-0.1
			c0,0-0.1,0-0.2,0h-0.2C111.2-16.8,111.2-16.8,111.2-16.7z"/>
	</g>
	<g transform="translate(8669,0)">
		<g>
			<path id="MJSZ2-222B_1_" d="M-8546.6-31.9c0.2-0.2,0.4-0.4,0.7-0.4h0c0.3,0,0.5,0.3,0.8,0.8s0.5,1.3,0.7,2.3s0.4,1.9,0.6,2.9
				s0.4,2,0.6,3.2c0,0.2,0.1,0.3,0.1,0.4c0.7,3.9,1.4,7.6,2.2,11s1.3,5.6,1.7,6.6c0.1,0.2,0.1,0.3,0.1,0.4c0,0.1,0.1,0.3,0.2,0.6
				c0.1,0.3,0.2,0.6,0.4,0.8c0.1,0.2,0.3,0.5,0.5,0.7c0.2,0.2,0.4,0.4,0.6,0.6c0.2,0.1,0.5,0.2,0.7,0.2c0.5,0,0.9-0.2,1.2-0.5
				s0.4-0.7,0.4-1.1c0-0.2-0.1-0.4-0.2-0.6c-0.1-0.1-0.2-0.2-0.3-0.3c-0.1,0-0.2-0.1-0.3,0c-0.2,0-0.4,0.1-0.5,0.2
				c-0.2,0.1-0.2,0.3-0.2,0.6c0,0.4,0.2,0.7,0.7,0.8l0,0.1c0,0-0.1,0.1-0.1,0.1c0,0-0.1,0.1-0.1,0.1c-0.1,0.1-0.3,0.1-0.5,0.1
				c-0.1,0-0.3-0.1-0.4-0.2c-0.1-0.1-0.3-0.4-0.4-0.8s-0.4-0.9-0.5-1.6c-0.2-0.7-0.4-1.6-0.7-2.8c-0.3-1.2-0.5-2.6-0.8-4.3
				c-0.5-3.1-1.1-6.1-1.7-8.8c-0.6-2.8-1.1-4.8-1.4-6c-0.3-1.2-0.6-2.1-0.8-2.7c-0.7-2.2-1.6-3.2-2.6-3.2c-0.4,0-0.7,0.1-1,0.4
				c-0.3,0.3-0.5,0.7-0.5,1.2c0,0.3,0.1,0.5,0.3,0.7c0.2,0.1,0.4,0.2,0.5,0.2c0.2,0,0.4-0.1,0.5-0.2s0.2-0.3,0.2-0.6
				C-8545.9-31.5-8546.1-31.8-8546.6-31.9z"/>
		</g>
		<g transform="scale(0.707)">
			<path id="MJMAIN-221E_2_" d="M-8532.9-3.5c0,0.6,0.2,1.1,0.6,1.5s0.8,0.7,1.4,0.7c0.6,0,1.1-0.2,1.6-0.6c0.3-0.2,0.5-0.5,0.7-0.8
				l0.1-0.2l0.1,0.1c0.7,1,1.4,1.5,2.3,1.5c0.6,0,1-0.2,1.4-0.7s0.5-1,0.6-1.6c0-0.6-0.2-1.1-0.5-1.5c-0.4-0.5-0.8-0.7-1.4-0.7
				c-0.6,0-1.1,0.2-1.6,0.6c-0.3,0.2-0.5,0.5-0.7,0.8l-0.1,0.2l-0.1-0.1c-0.7-1-1.4-1.5-2.3-1.5c-0.6,0-1,0.2-1.4,0.7
				C-8532.7-4.6-8532.9-4.1-8532.9-3.5z M-8524.5-3.5c0,0.4-0.1,0.9-0.4,1.2c-0.2,0.4-0.6,0.6-1.1,0.6c-0.1,0-0.3,0-0.4,0
				c-0.1,0-0.3-0.1-0.4-0.1c-0.1-0.1-0.2-0.1-0.3-0.2c-0.1-0.1-0.2-0.1-0.3-0.2c-0.1-0.1-0.2-0.2-0.2-0.2c-0.1-0.1-0.1-0.2-0.2-0.2
				s-0.1-0.2-0.1-0.2c0-0.1-0.1-0.1-0.1-0.2l0-0.1l0.3-0.4c0.2-0.3,0.4-0.5,0.5-0.6c0.1-0.1,0.3-0.3,0.4-0.4
				c0.2-0.2,0.3-0.3,0.5-0.3s0.3-0.1,0.5-0.1c0.4,0,0.7,0.2,1,0.5S-8524.5-3.9-8524.5-3.5z M-8532.5-3.5c0-0.5,0.1-0.9,0.4-1.2
				c0.3-0.4,0.6-0.6,1.1-0.6c0.8,0,1.5,0.5,2.1,1.6l-0.3,0.4c-0.4,0.5-0.7,0.9-0.9,1c-0.3,0.3-0.7,0.4-1,0.4c-0.4,0-0.7-0.2-1-0.5
				S-8532.5-3-8532.5-3.5z"/>
		</g>
		<g transform="translate(556,-898)">
			<g transform="scale(0.707)">
				<path id="MJMAIN-2212_1_" d="M-9095.6,867.1c0,0,0,0,0,0.1s0,0.2,0.1,0.2h5.7c0.1-0.1,0.1-0.1,0.1-0.2c0-0.1,0-0.1-0.1-0.2h-5.7
					c-0.1,0-0.1,0.1-0.1,0.2V867.1z"/>
			</g>
			<g transform="scale(0.707)">
				<path id="MJMAIN-221E_3_" d="M-9088.2,866.9c0,0.6,0.2,1.1,0.6,1.5s0.8,0.7,1.4,0.7c0.6,0,1.1-0.2,1.6-0.6
					c0.3-0.2,0.5-0.5,0.7-0.8l0.1-0.2l0.1,0.1c0.7,1,1.4,1.5,2.3,1.5c0.6,0,1-0.2,1.4-0.7s0.5-1,0.6-1.6c0-0.6-0.2-1.1-0.5-1.5
					c-0.4-0.5-0.8-0.7-1.4-0.7c-0.6,0-1.1,0.2-1.6,0.6c-0.3,0.2-0.5,0.5-0.7,0.8l-0.1,0.2l-0.1-0.1c-0.7-1-1.4-1.5-2.3-1.5
					c-0.6,0-1,0.2-1.4,0.7C-9088,865.7-9088.2,866.3-9088.2,866.9z M-9079.8,866.9c0,0.4-0.1,0.9-0.4,1.2c-0.2,0.4-0.6,0.6-1.1,0.6
					c-0.1,0-0.3,0-0.4,0c-0.1,0-0.3-0.1-0.4-0.1c-0.1-0.1-0.2-0.1-0.3-0.2c-0.1-0.1-0.2-0.1-0.3-0.2c-0.1-0.1-0.2-0.2-0.2-0.2
					c-0.1-0.1-0.1-0.2-0.2-0.2s-0.1-0.2-0.1-0.2s-0.1-0.1-0.1-0.2l0-0.1l0.3-0.4c0.2-0.3,0.4-0.5,0.5-0.6c0.1-0.1,0.3-0.3,0.4-0.4
					s0.3-0.3,0.5-0.3c0.2-0.1,0.3-0.1,0.5-0.1c0.4,0,0.7,0.2,1,0.5S-9079.8,866.4-9079.8,866.9z M-9087.9,866.8
					c0-0.5,0.1-0.9,0.4-1.2c0.3-0.4,0.6-0.6,1.1-0.6c0.8,0,1.5,0.5,2.1,1.6l-0.3,0.4c-0.4,0.5-0.7,0.9-0.9,1c-0.3,0.3-0.7,0.4-1,0.4
					c-0.4,0-0.7-0.2-1-0.5C-9087.7,867.7-9087.9,867.3-9087.9,866.8z"/>
			</g>
		</g>
	</g>
	<g>
		<path id="MJMATHI-64_1_" d="M154.9-11.3c0,0,0.3,0,1,0.1c0.7,0,1,0.1,1,0.1c0.1,0,0.2,0,0.2-0.1c0-0.1-0.3-1.5-1-4.2
			c-0.7-2.7-1-4.1-1-4.2s0-0.1,0-0.2c0-0.4,0.1-0.6,0.4-0.6c0.1,0,0.2,0.1,0.3,0.1c0.2,0.2,0.4,0.6,0.6,1.3c0.1,0.2,0.1,0.3,0.1,0.3
			c0,0,0.1,0,0.1,0h0.1h0.1c0.1,0,0.2,0,0.2-0.1c0,0,0-0.1,0-0.2c-0.1-0.5-0.3-0.8-0.4-1.1c-0.2-0.3-0.3-0.5-0.4-0.6
			c-0.1-0.1-0.2-0.2-0.4-0.2c-0.1,0-0.2,0-0.3,0c-0.3,0-0.6,0.1-0.8,0.2c-0.2,0.1-0.4,0.3-0.4,0.4l-0.1,0.2c0,0,0,0-0.1,0
			c0,0,0,0-0.1-0.1c-0.5-0.5-1.1-0.8-1.7-0.8c-0.5,0-1,0.2-1.4,0.6s-0.6,1-0.6,1.8c0,0.4,0.1,0.9,0.3,1.4c0.2,0.5,0.4,0.9,0.7,1.2
			c0.4,0.5,0.9,0.9,1.3,1.1c0.4,0.2,0.8,0.3,1.2,0.3c0.5,0,0.9-0.2,1.2-0.6c0-0.1,0.1-0.1,0.1-0.1c0,0,0.1,0.5,0.4,1.5
			c0.2,1,0.4,1.5,0.4,1.5c0,0.1,0,0.2-0.1,0.2s-0.2,0.1-0.5,0.1h-0.3c-0.1,0.1-0.1,0.1-0.1,0.1c0,0,0,0.1,0,0.3
			C154.8-11.3,154.8-11.3,154.9-11.3z M154.7-16.2c-0.2,0.7-0.6,1.1-1,1.1c-0.3,0-0.6-0.1-0.9-0.4c-0.3-0.3-0.5-0.7-0.7-1.1
			c-0.3-0.7-0.5-1.5-0.6-2.3c0,0,0-0.1,0-0.2s0-0.1,0-0.2c0-0.4,0.1-0.7,0.3-0.9c0.2-0.2,0.4-0.2,0.6-0.3c0.5,0,1,0.3,1.5,1l0.1,0.2
			L154.7-16.2z"/>
	</g>
	<g transform="translate(11273,0)">
		<g>
			<path id="MJMATHI-78_1_" d="M-11115.2-16.7c0.1,0.4,0.3,0.8,0.8,1.4c0.4,0.5,1,0.8,1.6,0.8c0.3,0,0.6-0.1,0.9-0.3
				c0.3-0.2,0.5-0.4,0.6-0.6c0.4,0.6,0.9,0.9,1.4,0.9c0.3,0,0.6-0.1,0.9-0.3c0.3-0.2,0.4-0.5,0.4-0.8c0-0.3-0.1-0.5-0.2-0.7
				c-0.1-0.2-0.3-0.3-0.4-0.3s-0.2-0.1-0.3-0.1c-0.2,0-0.3,0.1-0.4,0.2c-0.1,0.1-0.2,0.2-0.2,0.4c0,0.4,0.2,0.7,0.7,0.9
				c-0.1,0.1-0.3,0.2-0.6,0.2c-0.1,0-0.2,0-0.3,0c-0.4-0.1-0.6-0.5-0.8-0.9c-0.6-2.1-0.8-3.3-0.8-3.6c0-0.3,0.1-0.4,0.2-0.6
				c0.1-0.1,0.3-0.2,0.5-0.2c0.3,0,0.7,0.2,1,0.5c0.3,0.3,0.6,0.7,0.7,1.1c0,0.1,0.1,0.1,0.1,0.2c0,0,0.1,0,0.2,0h0.1
				c0.1,0,0.2,0,0.2-0.1c0,0,0-0.1,0-0.2c-0.1-0.5-0.4-1-0.9-1.4s-0.9-0.6-1.5-0.6c-0.7,0-1.1,0.3-1.5,0.9c-0.4-0.6-0.8-0.9-1.3-0.9
				h-0.1c-0.5,0-0.8,0.1-1,0.4c-0.2,0.2-0.3,0.5-0.3,0.8c0,0.3,0.1,0.5,0.3,0.7c0.2,0.2,0.4,0.3,0.6,0.3c0.4,0,0.6-0.2,0.6-0.6
				c0-0.2-0.1-0.3-0.2-0.5s-0.2-0.2-0.3-0.3s-0.2-0.1-0.2-0.1l0,0c0,0,0,0,0.1-0.1c0.1,0,0.1-0.1,0.2-0.1c0.1,0,0.2-0.1,0.3,0
				c0.3,0,0.6,0.2,0.9,0.6c0.1,0.1,0.2,0.5,0.3,0.9c0.1,0.5,0.3,1,0.4,1.5c0.1,0.5,0.2,0.8,0.2,0.9c0,0.3,0.1,0.4,0.1,0.5
				c0,0.3-0.1,0.4-0.2,0.6s-0.3,0.2-0.5,0.2c-0.4,0-0.7-0.1-1-0.4s-0.6-0.7-0.7-1.1c0-0.1,0-0.1-0.1-0.1c0,0-0.1,0-0.2,0h-0.2
				C-11115.2-16.8-11115.2-16.8-11115.2-16.7z"/>
		</g>
		<g transform="scale(0.707)">
			<path id="MJMAIN-2032" d="M-11107.2-14.6c0,0-0.1,0-0.3,0.1c-0.1,0-0.2,0.1-0.2,0.1c0,0,0.2,0.8,0.5,2.3s0.6,2.2,0.6,2.3
				c0.1,0.2,0.3,0.3,0.5,0.3c0.1,0,0.3,0,0.4-0.1s0.2-0.2,0.2-0.4c0,0,0-0.1,0-0.1c0,0-0.3-0.8-0.9-2.2
				C-11106.8-13.9-11107.1-14.6-11107.2-14.6C-11107.1-14.6-11107.1-14.6-11107.2-14.6z"/>
		</g>
	</g>
	<g transform="translate(12141,0)">
		<g>
			<path id="MJMATHI-65" d="M-11971.3-18.4c0,0.5,0.1,1,0.3,1.4s0.4,0.8,0.7,1.1c0.3,0.3,0.6,0.5,0.9,0.7c0.3,0.2,0.7,0.3,1,0.4
				s0.6,0.1,0.9,0.1h0c0.4,0,0.8-0.1,1.1-0.3s0.5-0.5,0.5-0.9c0-0.8-0.5-1.4-1.5-1.6c-0.5-0.1-1.1-0.2-1.9-0.2c-0.3,0-0.5,0-0.5,0
				c0,0,0-0.2-0.1-0.5s-0.1-0.6-0.1-0.8c0-0.4,0.1-0.8,0.3-1c0.2-0.3,0.5-0.4,0.9-0.4s0.8,0.1,1.3,0.3c0.5,0.2,0.9,0.5,1.3,0.9
				c0.1,0.1,0.1,0.1,0.2,0.1c0,0,0.1,0,0.2-0.1c0.1-0.1,0.1-0.1,0.1-0.2c0,0,0-0.1-0.1-0.2c-0.1-0.1-0.2-0.2-0.4-0.4
				c-0.2-0.1-0.4-0.3-0.6-0.4c-0.2-0.1-0.5-0.3-0.9-0.3c-0.3-0.1-0.7-0.1-1.1-0.1c-0.7,0-1.3,0.2-1.7,0.7
				S-11971.3-19.1-11971.3-18.4z M-11966.6-15.8c-0.1,0.5-0.4,0.7-0.9,0.7c-0.3,0-0.6-0.1-0.9-0.2c-0.3-0.1-0.5-0.3-0.6-0.5
				c-0.2-0.2-0.3-0.4-0.4-0.6c-0.1-0.2-0.2-0.4-0.2-0.5s-0.1-0.2-0.1-0.3c0,0,0.1,0,0.3,0c1,0,1.8,0.1,2.2,0.3
				C-11966.8-16.6-11966.6-16.3-11966.6-15.8z"/>
		</g>
		<g transform="translate(466,412)">
			<g transform="scale(0.707)">
				<path id="MJMATHI-69" d="M-12429.5-421.1c0,0.2,0.1,0.3,0.2,0.4c0.1,0.1,0.3,0.2,0.4,0.2c0.1,0,0.2,0,0.3-0.1s0.1-0.2,0.1-0.3
					c0-0.2-0.1-0.3-0.2-0.4c-0.1-0.1-0.3-0.2-0.4-0.2c-0.1,0-0.2,0-0.3,0.1C-12429.4-421.4-12429.5-421.3-12429.5-421.1z
					 M-12431.1-424.2c0,0.1,0,0.2,0.1,0.3c0.1,0.2,0.1,0.3,0.2,0.5c0.1,0.2,0.2,0.4,0.4,0.5s0.4,0.2,0.6,0.2c0.3,0,0.5-0.1,0.6-0.2
					s0.3-0.4,0.3-0.6c0-0.1,0-0.3-0.1-0.6c-0.1-0.3-0.2-0.6-0.4-1s-0.3-0.8-0.4-1.1c0-0.1,0-0.2,0-0.3c0-0.2,0.1-0.2,0.2-0.2
					c0.1,0,0.1,0,0.2,0c0.1,0,0.1,0.1,0.2,0.1c0.1,0.1,0.2,0.2,0.3,0.3c0.1,0.2,0.2,0.4,0.2,0.6c0,0.1,0,0.1,0,0.1s0.1,0,0.2,0
					c0.1,0,0.2,0,0.2-0.1c0-0.1,0-0.2-0.1-0.3c-0.1-0.2-0.1-0.3-0.2-0.5c-0.1-0.2-0.3-0.3-0.4-0.5s-0.4-0.2-0.6-0.2
					c-0.2,0-0.4,0.1-0.6,0.2c-0.2,0.1-0.3,0.3-0.3,0.6c0,0.1,0,0.2,0,0.3c0,0.1,0.2,0.5,0.4,1.1c0.3,0.7,0.4,1.1,0.4,1.2
					c0,0.1,0.1,0.3,0.1,0.4c0,0.2-0.1,0.2-0.2,0.2h0c-0.2,0-0.4-0.1-0.5-0.3c-0.2-0.2-0.3-0.5-0.4-0.8c0,0,0,0,0,0c0,0,0,0,0,0
					s0,0,0,0c0,0,0,0,0,0s0,0,0,0s0,0-0.1,0L-12431.1-424.2C-12431.1-424.2-12431.1-424.2-12431.1-424.2z"/>
			</g>
			<g transform="scale(0.707)">
				<path id="MJMATHI-70_1_" d="M-12427.7-424.2C-12427.7-424.2-12427.7-424.2-12427.7-424.2c0,0.1,0,0.2,0.1,0.3s0.1,0.2,0.1,0.3
					c0,0.1,0.1,0.2,0.1,0.3c0.1,0.1,0.1,0.2,0.2,0.3c0.1,0.1,0.2,0.1,0.3,0.2c0.1,0.1,0.2,0.1,0.3,0.1c0.5,0,0.8-0.2,0.9-0.6
					l0.1,0.1c0.4,0.4,0.8,0.5,1.2,0.5c0.4,0,0.8-0.2,1-0.5s0.4-0.7,0.4-1.1c0-0.7-0.2-1.4-0.7-2c-0.5-0.6-1.1-0.9-1.7-0.9
					c-0.1,0-0.3,0-0.4,0.1c-0.1,0-0.1,0.1-0.2,0.1c-0.1,0.1-0.1,0.1-0.2,0.2l-0.1,0.1c0,0-0.1-0.3-0.2-0.9c-0.1-0.6-0.2-0.9-0.2-0.9
					c0,0,0-0.1,0.1-0.1s0.2,0,0.4,0h0.2c0,0,0.1-0.1,0.1-0.1c0,0,0-0.1,0-0.2c0-0.1,0-0.1-0.1-0.1c0,0-0.1,0-0.1,0c0,0,0,0-0.1,0
					c-0.1,0-0.2,0-0.3,0c-0.2,0-0.4,0-0.6,0c-0.5,0-0.8,0-0.9,0h-0.1c0,0-0.1,0.1-0.1,0.1c0,0.2,0.1,0.3,0.1,0.3h0.2
					c0.2,0,0.4,0,0.4,0.1c0,0,0.2,0.8,0.6,2.4c0.4,1.5,0.6,2.3,0.6,2.4c0,0,0,0.1,0,0.1c0,0.3-0.1,0.4-0.2,0.4
					c-0.1,0-0.3-0.1-0.4-0.3c-0.1-0.2-0.2-0.4-0.2-0.6c-0.1-0.2-0.1-0.3-0.1-0.4c0,0-0.1,0-0.2,0L-12427.7-424.2
					C-12427.7-424.2-12427.7-424.2-12427.7-424.2z M-12426.2-426c0.1-0.5,0.4-0.7,0.7-0.7c0.2,0,0.4,0.1,0.6,0.2
					c0.2,0.2,0.3,0.3,0.5,0.6c0.1,0.2,0.2,0.6,0.4,1.1s0.2,0.8,0.2,1.1v0.1c0,0.5-0.2,0.7-0.6,0.7c-0.1,0-0.1,0-0.2,0
					c-0.1,0-0.1,0-0.2-0.1s-0.1-0.1-0.2-0.1c-0.1,0-0.1-0.1-0.2-0.1s-0.1-0.1-0.1-0.1c0,0-0.1-0.1-0.1-0.1c0,0-0.1-0.1-0.1-0.1l0,0
					c0,0,0-0.1,0-0.1c0-0.1-0.1-0.2-0.1-0.4c-0.1-0.2-0.1-0.4-0.1-0.5C-12426.1-425.6-12426.2-426-12426.2-426z"/>
			</g>
			<g transform="scale(0.707)">
				<path id="MJMAIN-28_1_" d="M-12422-424.6c0,0.5,0,0.9,0.1,1.3c0.1,0.4,0.1,0.8,0.2,1.1c0.1,0.3,0.2,0.6,0.4,0.9
					c0.2,0.3,0.3,0.5,0.4,0.7c0.1,0.2,0.2,0.3,0.4,0.5c0.2,0.2,0.3,0.3,0.3,0.3c0,0,0.1,0.1,0.2,0.2h0.1h0c0.1,0,0.1,0,0.1-0.1
					c0,0-0.1-0.1-0.2-0.2s-0.2-0.3-0.4-0.5c-0.2-0.2-0.3-0.5-0.5-0.8s-0.3-0.8-0.4-1.4c-0.1-0.6-0.2-1.2-0.2-1.9
					c0-0.7,0.1-1.3,0.2-1.9c0.1-0.6,0.2-1,0.4-1.4c0.2-0.3,0.3-0.6,0.5-0.8c0.2-0.2,0.3-0.4,0.4-0.5c0.1-0.1,0.2-0.2,0.2-0.2
					c0-0.1,0-0.1-0.1-0.1h0h-0.1l-0.3,0.2c-0.6,0.6-1.1,1.3-1.3,2.1C-12421.9-426.3-12422-425.5-12422-424.6z"/>
			</g>
			<g transform="scale(0.707)">
				<path id="MJMATHI-78_2_" d="M-12418.6-424.2c0,0.3,0.2,0.6,0.5,1s0.7,0.5,1.1,0.6c0.2,0,0.4-0.1,0.6-0.2s0.3-0.3,0.4-0.4
					c0.3,0.4,0.6,0.6,1,0.6c0.2,0,0.5-0.1,0.6-0.2c0.2-0.1,0.3-0.3,0.3-0.6c0-0.2,0-0.3-0.1-0.5s-0.2-0.2-0.3-0.2
					c-0.1,0-0.2,0-0.2,0c-0.1,0-0.2,0-0.3,0.1c-0.1,0.1-0.1,0.2-0.1,0.3c0,0.3,0.2,0.5,0.5,0.6c-0.1,0.1-0.2,0.1-0.4,0.1
					c-0.1,0-0.1,0-0.2,0c-0.3-0.1-0.4-0.3-0.6-0.7c-0.4-1.5-0.6-2.3-0.6-2.5c0-0.2,0.1-0.3,0.2-0.4c0.1-0.1,0.2-0.1,0.3-0.1
					c0.2,0,0.5,0.1,0.7,0.3c0.2,0.2,0.4,0.5,0.5,0.8c0,0.1,0,0.1,0.1,0.1s0.1,0,0.2,0h0c0.1,0,0.1,0,0.1-0.1c0,0,0,0,0-0.1
					c-0.1-0.4-0.3-0.7-0.6-1c-0.3-0.3-0.7-0.4-1.1-0.4c-0.5,0-0.8,0.2-1,0.6c-0.3-0.4-0.6-0.6-0.9-0.6h-0.1c-0.3,0-0.6,0.1-0.7,0.3
					c-0.1,0.2-0.2,0.4-0.2,0.5c0,0.2,0.1,0.4,0.2,0.5c0.1,0.1,0.3,0.2,0.4,0.2c0.3,0,0.4-0.1,0.4-0.4c0-0.1,0-0.2-0.1-0.3
					s-0.2-0.2-0.2-0.2s-0.1,0-0.1,0l0,0c0,0,0,0,0.1,0c0,0,0.1,0,0.2-0.1c0.1,0,0.1,0,0.2,0c0.2,0,0.4,0.1,0.6,0.4
					c0.1,0.1,0.1,0.3,0.2,0.7s0.2,0.7,0.3,1.1c0.1,0.4,0.1,0.6,0.2,0.7c0,0.2,0,0.3,0,0.4c0,0.2,0,0.3-0.1,0.4s-0.2,0.1-0.3,0.1
					c-0.3,0-0.5-0.1-0.7-0.3c-0.2-0.2-0.4-0.5-0.5-0.8c0-0.1,0-0.1,0-0.1c0,0-0.1,0-0.2,0h-0.1
					C-12418.6-424.2-12418.6-424.2-12418.6-424.2z"/>
			</g>
			<g transform="scale(0.707)">
				<path id="MJMAIN-2212_2_" d="M-12412.6-424.7c0,0,0,0,0,0.1s0,0.2,0.1,0.2h5.7c0.1-0.1,0.1-0.1,0.1-0.2s0-0.1-0.1-0.2h-5.7
					c-0.1,0-0.1,0.1-0.1,0.2V-424.7z"/>
			</g>
			<g transform="translate(1831,0)">
				<g transform="scale(0.707)">
					<path id="MJMATHI-78_3_" d="M-14236.3-424.2c0,0.3,0.2,0.6,0.5,1c0.3,0.4,0.7,0.5,1.1,0.6c0.2,0,0.4-0.1,0.6-0.2
						s0.3-0.3,0.4-0.4c0.3,0.4,0.6,0.6,1,0.6c0.2,0,0.5-0.1,0.6-0.2s0.3-0.3,0.3-0.6c0-0.2,0-0.3-0.1-0.5s-0.2-0.2-0.3-0.2
						c-0.1,0-0.2,0-0.2,0c-0.1,0-0.2,0-0.3,0.1c-0.1,0.1-0.1,0.2-0.1,0.3c0,0.3,0.2,0.5,0.5,0.6c-0.1,0.1-0.2,0.1-0.4,0.1
						c-0.1,0-0.1,0-0.2,0c-0.2-0.1-0.4-0.3-0.6-0.7c-0.4-1.5-0.6-2.3-0.6-2.5c0-0.2,0.1-0.3,0.2-0.4c0.1-0.1,0.2-0.1,0.3-0.1
						c0.2,0,0.5,0.1,0.7,0.3s0.4,0.5,0.5,0.8c0,0.1,0,0.1,0.1,0.1s0.1,0,0.2,0h0c0.1,0,0.1,0,0.1-0.1c0,0,0,0,0-0.1
						c-0.1-0.4-0.3-0.7-0.6-1c-0.3-0.3-0.7-0.4-1.1-0.4c-0.5,0-0.8,0.2-1,0.6c-0.3-0.4-0.6-0.6-0.9-0.6h-0.1c-0.3,0-0.6,0.1-0.7,0.3
						s-0.2,0.4-0.2,0.5c0,0.2,0.1,0.4,0.2,0.5c0.1,0.1,0.3,0.2,0.4,0.2c0.3,0,0.4-0.1,0.4-0.4c0-0.1,0-0.2-0.1-0.3
						c-0.1-0.1-0.2-0.2-0.2-0.2c-0.1,0-0.1,0-0.1,0l0,0c0,0,0,0,0.1,0c0,0,0.1,0,0.2-0.1s0.1,0,0.2,0c0.2,0,0.4,0.1,0.6,0.4
						c0.1,0.1,0.1,0.3,0.2,0.7s0.2,0.7,0.3,1.1s0.1,0.6,0.2,0.7c0,0.2,0,0.3,0,0.4c0,0.2,0,0.3-0.1,0.4s-0.2,0.1-0.3,0.1
						c-0.3,0-0.5-0.1-0.7-0.3c-0.2-0.2-0.4-0.5-0.5-0.8c0-0.1,0-0.1,0-0.1c0,0-0.1,0-0.2,0h-0.1
						C-14236.3-424.2-14236.3-424.2-14236.3-424.2z"/>
				</g>
				<g transform="scale(0.5)">
					<path id="MJMAIN-2032_1_" d="M-14230.6-423.2c0,0-0.1,0-0.2,0s-0.1,0.1-0.2,0.1c0,0,0.1,0.6,0.4,1.6c0.3,1,0.4,1.6,0.4,1.6
						c0.1,0.1,0.2,0.2,0.4,0.2c0.1,0,0.2,0,0.3-0.1c0.1-0.1,0.2-0.2,0.2-0.3c0,0,0-0.1,0-0.1c0,0-0.2-0.6-0.6-1.6
						S-14230.6-423.1-14230.6-423.2C-14230.6-423.1-14230.6-423.2-14230.6-423.2z"/>
				</g>
			</g>
			<g transform="scale(0.707)">
				<path id="MJMAIN-29_1_" d="M-12396.7-419.6L-12396.7-419.6c0.1,0,0.1,0,0.1,0h0.1l0.3-0.2c0.6-0.6,1.1-1.3,1.3-2.1
					c0.3-0.8,0.4-1.7,0.4-2.6c0-0.4,0-0.9-0.1-1.3c-0.1-0.4-0.1-0.8-0.2-1.1c-0.1-0.3-0.2-0.6-0.4-0.9c-0.2-0.3-0.3-0.5-0.4-0.7
					c-0.1-0.2-0.2-0.3-0.4-0.5c-0.2-0.2-0.3-0.3-0.3-0.3s-0.1-0.1-0.2-0.2c0,0,0,0,0,0h-0.1c-0.1,0-0.1,0-0.1,0c0,0,0,0,0,0
					c0,0,0,0,0,0.1c0,0,0,0,0.1,0.1c1,1.1,1.5,2.6,1.5,4.7s-0.5,3.6-1.5,4.7c-0.1,0.1-0.1,0.1-0.1,0.1
					C-12396.7-419.7-12396.7-419.7-12396.7-419.6z"/>
			</g>
		</g>
	</g>
	<g>
		<path id="MJMATHI-3C1" d="M215.8-23.8c-0.3,0-0.5,0.1-0.5,0.4c0,0.1,0.2,1.1,0.7,3s0.7,2.8,0.8,2.9c0.1,0.5,0.4,1,0.8,1.5
			c0.7,0.8,1.4,1.3,2.2,1.4c0,0,0.1,0,0.1,0s0.1,0,0.1,0c0.7,0,1.2-0.2,1.6-0.7c0.4-0.4,0.5-1,0.5-1.6c0-0.5-0.1-1-0.3-1.5
			c-0.2-0.5-0.5-0.9-0.9-1.3s-0.7-0.6-1.1-0.9s-0.8-0.3-1.1-0.3h-0.2h-0.1c-0.5,0-0.9,0.2-1.2,0.6l-0.1,0.1l-0.4-1.6
			c-0.2-0.9-0.4-1.4-0.4-1.5c0-0.1-0.1-0.2-0.2-0.3C216.1-23.7,216-23.8,215.8-23.8z M220.9-16.3c0,0.3-0.1,0.6-0.2,0.8
			c-0.2,0.2-0.4,0.3-0.7,0.3c-0.3,0-0.7-0.1-1-0.4c-0.3-0.3-0.6-0.6-0.8-1.1c-0.1-0.3-0.3-0.9-0.5-1.8l-0.2-0.9
			c0.2-0.7,0.5-1.1,1.2-1.1c0.4,0,0.7,0.2,1,0.5c0.3,0.3,0.6,0.7,0.8,1.3c0.2,0.6,0.3,1.1,0.4,1.5C220.9-16.7,220.9-16.4,220.9-16.3
			z"/>
	</g>
	<g>
		<path id="MJMAIN-28_2_" d="M223.5-17.3c0,0.6,0,1.2,0.1,1.8c0.1,0.6,0.2,1.1,0.3,1.5s0.3,0.8,0.5,1.2c0.2,0.4,0.4,0.7,0.5,0.9
			c0.1,0.2,0.3,0.5,0.6,0.7s0.4,0.4,0.5,0.5c0,0.1,0.2,0.2,0.3,0.3h0.2h0.1c0.1,0,0.2,0,0.2-0.1c0,0-0.1-0.1-0.2-0.3
			c-0.2-0.2-0.3-0.4-0.6-0.7c-0.2-0.3-0.5-0.7-0.7-1.2c-0.2-0.5-0.4-1.1-0.6-1.9c-0.2-0.8-0.2-1.7-0.2-2.7s0.1-1.9,0.2-2.7
			c0.2-0.8,0.3-1.4,0.6-1.9c0.2-0.5,0.5-0.9,0.7-1.2c0.2-0.3,0.4-0.6,0.6-0.7c0.2-0.2,0.2-0.3,0.2-0.3c0-0.1-0.1-0.1-0.2-0.1h0h-0.2
			l-0.4,0.3c-0.9,0.8-1.5,1.8-1.9,3S223.5-18.6,223.5-17.3z"/>
	</g>
	<g>
		<path id="MJMATHI-78_4_" d="M228.3-16.7c0.1,0.4,0.3,0.8,0.8,1.4c0.4,0.5,1,0.8,1.6,0.8c0.3,0,0.6-0.1,0.9-0.3
			c0.3-0.2,0.5-0.4,0.6-0.6c0.4,0.6,0.9,0.9,1.4,0.9c0.3,0,0.6-0.1,0.9-0.3s0.4-0.5,0.4-0.8c0-0.3-0.1-0.5-0.2-0.7
			c-0.1-0.2-0.3-0.3-0.4-0.3s-0.2-0.1-0.3-0.1c-0.2,0-0.3,0.1-0.4,0.2c-0.1,0.1-0.2,0.2-0.2,0.4c0,0.4,0.2,0.7,0.7,0.9
			c-0.1,0.1-0.3,0.2-0.6,0.2c-0.1,0-0.2,0-0.3,0c-0.4-0.1-0.6-0.5-0.8-0.9c-0.6-2.1-0.8-3.3-0.8-3.6c0-0.3,0.1-0.4,0.2-0.6
			c0.1-0.1,0.3-0.2,0.5-0.2c0.3,0,0.7,0.2,1,0.5c0.3,0.3,0.6,0.7,0.7,1.1c0,0.1,0.1,0.1,0.1,0.2c0,0,0.1,0,0.2,0h0.1
			c0.1,0,0.2,0,0.2-0.1c0,0,0-0.1,0-0.2c-0.1-0.5-0.4-1-0.9-1.4c-0.4-0.4-0.9-0.6-1.5-0.6c-0.7,0-1.1,0.3-1.5,0.9
			c-0.4-0.6-0.8-0.9-1.3-0.9h-0.1c-0.5,0-0.8,0.1-1,0.4c-0.2,0.2-0.3,0.5-0.3,0.8c0,0.3,0.1,0.5,0.3,0.7s0.4,0.3,0.6,0.3
			c0.4,0,0.6-0.2,0.6-0.6c0-0.2-0.1-0.3-0.2-0.5s-0.2-0.2-0.3-0.3c-0.1,0-0.2-0.1-0.2-0.1l0,0c0,0,0,0,0.1-0.1
			c0.1,0,0.1-0.1,0.2-0.1c0.1,0,0.2-0.1,0.3,0c0.3,0,0.6,0.2,0.9,0.6c0.1,0.1,0.2,0.5,0.3,0.9s0.3,1,0.4,1.5
			c0.1,0.5,0.2,0.8,0.2,0.9c0,0.3,0.1,0.4,0.1,0.5c0,0.3-0.1,0.4-0.2,0.6s-0.3,0.2-0.5,0.2c-0.4,0-0.7-0.1-1-0.4
			c-0.3-0.3-0.6-0.7-0.7-1.1c0-0.1,0-0.1-0.1-0.1c0,0-0.1,0-0.2,0h-0.2C228.4-16.8,228.3-16.8,228.3-16.7z"/>
	</g>
	<g>
		<path id="MJMAIN-2C" d="M236.7-20.3c0,0,0,0.1,0,0.3s0.1,0.4,0.2,0.6s0.3,0.3,0.6,0.3c0.3,0,0.5-0.1,0.7-0.3s0.3-0.6,0.3-1.2
			c0-0.3,0-0.6-0.1-0.9s-0.2-0.6-0.3-0.8s-0.2-0.4-0.4-0.6c-0.1-0.2-0.2-0.3-0.3-0.4c-0.1-0.1-0.2-0.1-0.2-0.1c0,0-0.1,0-0.2,0.1
			s-0.1,0.1-0.1,0.2c0,0,0.1,0.1,0.2,0.2c0.1,0.1,0.2,0.3,0.3,0.4s0.3,0.4,0.4,0.7c0.1,0.3,0.2,0.6,0.2,1v0.2l0,0c0,0,0,0-0.1,0
			c0,0-0.1,0-0.1,0c0,0-0.1,0-0.1,0s-0.1,0-0.2,0c-0.3,0-0.5,0.1-0.6,0.2L236.7-20.3z"/>
	</g>
	<g transform="translate(17351,0)">
		<g>
			<path id="MJMATHI-78_5_" d="M-17108.5-16.7c0.1,0.4,0.3,0.8,0.8,1.4c0.4,0.5,1,0.8,1.6,0.8c0.3,0,0.6-0.1,0.9-0.3
				c0.3-0.2,0.5-0.4,0.6-0.6c0.4,0.6,0.9,0.9,1.4,0.9c0.3,0,0.6-0.1,0.9-0.3c0.3-0.2,0.4-0.5,0.4-0.8c0-0.3-0.1-0.5-0.2-0.7
				c-0.1-0.2-0.3-0.3-0.4-0.3c-0.1,0-0.2-0.1-0.3-0.1c-0.2,0-0.3,0.1-0.4,0.2s-0.2,0.2-0.2,0.4c0,0.4,0.2,0.7,0.7,0.9
				c-0.1,0.1-0.3,0.2-0.6,0.2c-0.1,0-0.2,0-0.3,0c-0.4-0.1-0.6-0.5-0.8-0.9c-0.6-2.1-0.8-3.3-0.8-3.6c0-0.3,0.1-0.4,0.2-0.6
				c0.1-0.1,0.3-0.2,0.5-0.2c0.3,0,0.7,0.2,1,0.5c0.3,0.3,0.6,0.7,0.7,1.1c0,0.1,0.1,0.1,0.1,0.2c0,0,0.1,0,0.2,0h0.1
				c0.1,0,0.2,0,0.2-0.1c0,0,0-0.1,0-0.2c-0.1-0.5-0.4-1-0.9-1.4s-0.9-0.6-1.5-0.6c-0.7,0-1.1,0.3-1.5,0.9c-0.4-0.6-0.8-0.9-1.3-0.9
				h-0.1c-0.5,0-0.8,0.1-1,0.4c-0.2,0.2-0.3,0.5-0.3,0.8c0,0.3,0.1,0.5,0.3,0.7c0.2,0.2,0.4,0.3,0.6,0.3c0.4,0,0.6-0.2,0.6-0.6
				c0-0.2-0.1-0.3-0.2-0.5s-0.2-0.2-0.3-0.3s-0.2-0.1-0.2-0.1l0,0c0,0,0,0,0.1-0.1c0.1,0,0.1-0.1,0.2-0.1c0.1,0,0.2-0.1,0.3,0
				c0.3,0,0.6,0.2,0.9,0.6c0.1,0.1,0.2,0.5,0.3,0.9c0.1,0.5,0.3,1,0.4,1.5c0.1,0.5,0.2,0.8,0.2,0.9c0,0.3,0.1,0.4,0.1,0.5
				c0,0.3-0.1,0.4-0.2,0.6c-0.1,0.1-0.3,0.2-0.5,0.2c-0.4,0-0.7-0.1-1-0.4c-0.3-0.3-0.6-0.7-0.7-1.1c0-0.1,0-0.1-0.1-0.1
				c0,0-0.1,0-0.2,0h-0.2C-17108.4-16.8-17108.5-16.8-17108.5-16.7z"/>
		</g>
		<g transform="scale(0.707)">
			<path id="MJMAIN-2032_2_" d="M-17100.5-14.6c0,0-0.1,0-0.3,0.1c-0.1,0-0.2,0.1-0.2,0.1c0,0,0.2,0.8,0.5,2.3s0.6,2.2,0.6,2.3
				c0.1,0.2,0.3,0.3,0.5,0.3c0.1,0,0.3,0,0.4-0.1s0.2-0.2,0.2-0.4c0,0,0-0.1,0-0.1c0,0-0.3-0.8-0.9-2.2S-17100.4-14.6-17100.5-14.6
				C-17100.4-14.6-17100.4-14.6-17100.5-14.6z"/>
		</g>
	</g>
	<g>
		<path id="MJMAIN-29_2_" d="M254.7-10.3L254.7-10.3c0.1,0,0.1,0,0.2,0h0.2l0.4-0.3c0.9-0.8,1.5-1.8,1.9-3c0.4-1.2,0.6-2.4,0.6-3.7
			c0-0.6,0-1.2-0.1-1.8c-0.1-0.6-0.2-1.1-0.3-1.5c-0.1-0.4-0.3-0.8-0.5-1.2s-0.4-0.7-0.5-0.9s-0.3-0.5-0.6-0.7
			c-0.3-0.3-0.4-0.4-0.4-0.5c0,0-0.2-0.1-0.3-0.3c0,0,0,0-0.1-0.1h-0.2c-0.1,0-0.1,0-0.2,0s-0.1,0-0.1,0c0,0,0,0.1,0,0.1
			c0,0,0.1,0.1,0.2,0.2c1.4,1.5,2.2,3.7,2.2,6.6s-0.7,5.1-2.2,6.6c-0.1,0.1-0.1,0.2-0.2,0.2C254.7-10.4,254.7-10.4,254.7-10.3z"/>
	</g>
</g>
</svg>
