<?xml version="1.0" encoding="utf-8"?>
<!-- Generator: Adobe Illustrator 22.1.0, SVG Export Plug-In . SVG Version: 6.00 Build 0)  -->
<svg version="1.1" id="Layer_1" focusable="false" xmlns="http://www.w3.org/2000/svg" xmlns:xlink="http://www.w3.org/1999/xlink"
	 x="0px" y="0px" viewBox="0 0 193.2 39.3" style="enable-background:new 0 0 193.2 39.3;" xml:space="preserve">
<g transform="matrix(1 0 0 -1 0 0)">
	<g transform="translate(190,0)">
		<g>
			<path id="MJMAIN-6C" d="M-186.4-24.6h0.2c0.4,0,0.6,0.1,0.7,0.2v0.1c0,0.1,0,0.2,0,0.3s0,0.3,0,0.5s0,0.4,0,0.6
				c0,0.2,0,0.5,0,0.7c0,0.2,0,0.5,0,0.8c0,0.3,0,0.5,0,0.8c0,0.3,0,0.7,0,1.1s0,0.7,0,1c0,0.3,0,0.6,0,0.8c0,0.2,0,0.4,0,0.6
				s0,0.2,0,0.2c0,0.2-0.1,0.3-0.2,0.3c-0.1,0.1-0.3,0.1-0.6,0.1h-0.3v0.3c0,0.2,0,0.3,0,0.3l0.1,0c0.1,0,0.2,0,0.4,0s0.3,0,0.5,0
				c0.2,0,0.3,0,0.5,0s0.3,0,0.4,0c0.1,0,0.1,0,0.2,0h0v-4.4c0-2.9,0-4.4,0-4.4c0-0.1,0.1-0.1,0.2-0.2c0.2,0,0.4,0,0.7,0h0.2v-0.6
				h-0.1l-0.3,0c-0.2,0-0.4,0-0.7,0s-0.4,0-0.5,0s-0.3,0-0.5,0c-0.2,0-0.5,0-0.7,0l-0.3,0h-0.1v0.6H-186.4z"/>
		</g>
		<g>
			<path id="MJMAIN-69" d="M-182.1-16.7c0,0.3,0.1,0.5,0.3,0.6c0.2,0.1,0.4,0.2,0.6,0.2c0.2,0,0.4-0.1,0.6-0.2
				c0.2-0.1,0.2-0.3,0.2-0.6c0-0.3-0.1-0.5-0.2-0.6c-0.2-0.1-0.4-0.2-0.6-0.2c-0.2,0-0.4,0.1-0.6,0.2C-182-17.2-182.1-17-182.1-16.7
				z M-179.7-25.2c-0.1,0-0.6,0-1.4,0c-0.1,0-0.3,0-0.5,0c-0.2,0-0.5,0-0.7,0l-0.3,0h-0.1v0.6h0.2c0.3,0,0.5,0,0.7,0
				c0.1,0,0.1,0.1,0.2,0.2c0,0.1,0,0.3,0,0.6v1.4v1.2c0,0.5,0,0.8,0,0.9c0,0.1-0.1,0.2-0.2,0.3c-0.1,0.1-0.3,0.1-0.7,0.1h-0.2v0.3
				c0,0.2,0,0.3,0,0.3l0.1,0c0.1,0,0.2,0,0.4,0c0.2,0,0.3,0,0.5,0c0.2,0,0.3,0,0.5,0s0.3,0,0.4,0s0.1,0,0.2,0h0v-5.3
				c0-0.1,0.1-0.1,0.2-0.2s0.2,0,0.5-0.1h0.3v-0.6H-179.7z"/>
		</g>
		<g>
			<path id="MJMAIN-6D" d="M-178.6-24.6h0.2c0.4,0,0.6,0.1,0.7,0.2v0.1c0,0.1,0,0.2,0,0.3s0,0.3,0,0.4s0,0.3,0,0.5
				c0,0.2,0,0.4,0,0.6c0,0.3,0,0.6,0,0.9c0,0.3,0,0.6,0,0.8v0.3c0,0.2-0.1,0.3-0.2,0.3c-0.1,0.1-0.3,0.1-0.6,0.1h-0.3v0.3
				c0,0.2,0,0.3,0,0.3l0.1,0c0.1,0,0.2,0,0.4,0s0.3,0,0.5,0c0.2,0,0.3,0,0.5,0c0.2,0,0.3,0,0.4,0c0.1,0,0.1,0,0.2,0h0v-0.6
				c0-0.4,0-0.5,0-0.5s0,0,0.1,0.1c0,0,0.1,0.1,0.2,0.2s0.2,0.2,0.3,0.3c0.1,0.1,0.2,0.2,0.4,0.3c0.2,0.1,0.3,0.2,0.5,0.2
				s0.4,0.1,0.7,0.1c0.1,0,0.3,0,0.4,0c0.1,0,0.2,0,0.3-0.1s0.2-0.1,0.3-0.1c0.1,0,0.2-0.1,0.2-0.1c0.1,0,0.1-0.1,0.2-0.2
				c0-0.1,0.1-0.1,0.1-0.2c0,0,0.1-0.1,0.1-0.2c0-0.1,0-0.1,0.1-0.1c0,0,0-0.1,0-0.1l0-0.1l0,0.1c0,0,0.1,0.1,0.1,0.1
				c0,0,0.1,0.1,0.1,0.2s0.1,0.1,0.2,0.2s0.1,0.1,0.2,0.2s0.2,0.1,0.3,0.2c0.1,0,0.2,0.1,0.3,0.1c0.1,0,0.2,0.1,0.4,0.1
				c0.1,0,0.3,0,0.4,0c1.2,0,1.8-0.5,1.9-1.6c0-0.1,0-0.7,0-1.9v-1.2c0-0.4,0-0.6,0-0.6c0-0.1,0.1-0.1,0.2-0.1c0.2,0,0.4,0,0.7,0
				h0.2v-0.6h-0.1l-0.3,0c-0.2,0-0.5,0-0.7,0s-0.4,0-0.5,0c-1,0-1.5,0-1.6,0h-0.1v0.6h0.2c0.6,0,0.9,0.1,0.9,0.2c0,0,0,0.7,0,1.9
				c0,1.3,0,1.9,0,2c-0.1,0.3-0.1,0.5-0.3,0.6s-0.2,0.2-0.3,0.2c-0.1,0-0.2,0-0.4,0c-0.4,0-0.8-0.2-1.1-0.5
				c-0.3-0.3-0.4-0.5-0.5-0.8c-0.1-0.3-0.1-0.6-0.1-1.2v-0.9v-0.8c0-0.3,0-0.5,0-0.6c0-0.1,0-0.2,0-0.2c0,0,0.1-0.1,0.1-0.1
				c0.2,0,0.4,0,0.7,0h0.2v-0.6h-0.1l-0.3,0c-0.2,0-0.4,0-0.7,0s-0.4,0-0.5,0c-1,0-1.5,0-1.6,0h-0.1v0.6h0.2c0.6,0,0.9,0.1,0.9,0.2
				c0,0,0,0.7,0,1.9c0,1.3,0,1.9,0,2c-0.1,0.3-0.1,0.5-0.3,0.6s-0.2,0.2-0.3,0.2c-0.1,0-0.2,0-0.4,0c-0.4,0-0.8-0.2-1.1-0.5
				c-0.3-0.3-0.4-0.5-0.5-0.8c-0.1-0.3-0.1-0.6-0.1-1.2v-0.9v-0.8c0-0.3,0-0.5,0-0.6c0-0.1,0-0.2,0-0.2c0,0,0.1-0.1,0.1-0.1
				c0.2,0,0.4,0,0.7,0h0.2v-0.6h-0.1l-0.3,0c-0.2,0-0.5,0-0.7,0s-0.4,0-0.5,0c-1,0-1.5,0-1.6,0h-0.1v0.6H-178.6z"/>
		</g>
	</g>
	<g transform="translate(0,-601)">
		<g transform="scale(0.707)">
			<path id="MJMATHI-70" d="M0.6,570.2C0.6,570.3,0.6,570.3,0.6,570.2c0,0.1,0,0.2,0.1,0.3c0,0.1,0.1,0.2,0.1,0.3
				c0,0.1,0.1,0.2,0.1,0.3c0.1,0.1,0.1,0.2,0.2,0.3c0.1,0.1,0.2,0.1,0.3,0.2c0.1,0.1,0.2,0.1,0.3,0.1c0.5,0,0.8-0.2,0.9-0.6l0.1,0.1
				c0.4,0.4,0.8,0.5,1.2,0.5c0.4,0,0.8-0.2,1-0.5c0.2-0.3,0.4-0.7,0.4-1.1c0-0.7-0.2-1.4-0.7-2s-1.1-0.9-1.7-0.9
				c-0.1,0-0.3,0-0.4,0.1c-0.1,0-0.1,0.1-0.2,0.1c-0.1,0.1-0.1,0.1-0.2,0.2L2,567.8c0,0-0.1-0.3-0.2-0.9s-0.2-0.9-0.2-0.9
				c0,0,0-0.1,0.1-0.1c0.1,0,0.2,0,0.4,0h0.2c0,0,0.1-0.1,0.1-0.1c0,0,0-0.1,0-0.2c0-0.1,0-0.1-0.1-0.1c0,0-0.1,0-0.1,0
				c0,0,0,0-0.1,0c-0.1,0-0.2,0-0.3,0c-0.2,0-0.4,0-0.6,0c-0.5,0-0.8,0-0.9,0H0.1c0,0-0.1,0.1-0.1,0.1c0,0.2,0.1,0.3,0.1,0.3h0.2
				c0.2,0,0.4,0,0.4,0.1c0,0,0.2,0.8,0.6,2.4c0.4,1.5,0.6,2.3,0.6,2.4c0,0,0,0.1,0,0.1c0,0.3-0.1,0.4-0.2,0.4
				c-0.1,0-0.3-0.1-0.4-0.3c-0.1-0.2-0.2-0.4-0.2-0.6C1,570.3,1,570.2,1,570.2c0,0-0.1,0-0.2,0L0.6,570.2
				C0.6,570.2,0.6,570.2,0.6,570.2z M2.1,568.4c0.1-0.5,0.4-0.7,0.7-0.7c0.2,0,0.4,0.1,0.6,0.2c0.2,0.2,0.3,0.3,0.5,0.6
				c0.1,0.2,0.2,0.6,0.4,1.1c0.1,0.5,0.2,0.8,0.2,1.1v0.1c0,0.5-0.2,0.7-0.6,0.7c-0.1,0-0.1,0-0.2,0s-0.1,0-0.2-0.1
				s-0.1-0.1-0.2-0.1c-0.1,0-0.1-0.1-0.2-0.1c-0.1-0.1-0.1-0.1-0.1-0.1c0,0-0.1-0.1-0.1-0.1c0,0-0.1-0.1-0.1-0.1l0,0
				c0,0,0-0.1,0-0.1c0-0.1-0.1-0.2-0.1-0.4c-0.1-0.2-0.1-0.4-0.1-0.5C2.2,568.8,2.1,568.4,2.1,568.4z"/>
		</g>
		<g transform="scale(0.707)">
			<path id="MJMAIN-2192" d="M5.9,569.7c0,0,0,0,0,0.1s0,0.2,0.1,0.2h7.5c-0.8,0.6-1.2,1.3-1.4,2.2c0,0,0,0,0,0c0,0,0,0,0,0
				c0,0.1,0.1,0.1,0.2,0.1h0c0.1,0,0.1,0,0.1,0c0,0,0,0,0.1,0c0,0,0,0,0-0.1s0-0.1,0-0.2s0-0.1,0.1-0.2c0.1-0.4,0.4-0.8,0.7-1.2
				c0.3-0.3,0.7-0.6,1.2-0.7c0.1,0,0.1-0.1,0.1-0.1c0,0,0-0.1,0-0.1c0,0-0.1-0.1-0.2-0.1c-0.1,0-0.2-0.1-0.4-0.2
				c-0.3-0.2-0.5-0.4-0.7-0.6c-0.2-0.2-0.3-0.4-0.4-0.7c-0.1-0.2-0.2-0.4-0.2-0.5c0-0.1-0.1-0.2-0.1-0.3c0-0.1,0-0.1,0-0.1
				c0,0-0.1,0-0.2,0c-0.1,0-0.2,0-0.2,0.1c0,0,0,0.1,0,0.2c0.2,0.8,0.7,1.5,1.4,2H6c-0.1,0-0.1,0.1-0.1,0.2V569.7z"/>
		</g>
		<g transform="scale(0.707)">
			<path id="MJMAIN-221E" d="M15.7,569.5c0,0.6,0.2,1.1,0.6,1.5c0.4,0.4,0.8,0.7,1.4,0.7c0.6,0,1.1-0.2,1.6-0.6
				c0.2-0.2,0.5-0.5,0.7-0.8l0.1-0.2l0.1,0.1c0.7,1,1.4,1.5,2.3,1.5c0.6,0,1-0.2,1.4-0.7s0.5-1,0.6-1.6c0-0.6-0.2-1.1-0.5-1.5
				c-0.4-0.5-0.8-0.7-1.4-0.7c-0.6,0-1.1,0.2-1.6,0.6c-0.2,0.2-0.5,0.5-0.7,0.8l-0.1,0.2l-0.1-0.1c-0.7-1-1.4-1.5-2.3-1.5
				c-0.6,0-1,0.2-1.4,0.7S15.7,568.9,15.7,569.5z M24.1,569.5c0,0.4-0.1,0.9-0.4,1.2c-0.2,0.4-0.6,0.6-1.1,0.6c-0.1,0-0.3,0-0.4,0
				c-0.1,0-0.3-0.1-0.4-0.1c-0.1-0.1-0.2-0.1-0.3-0.2c-0.1-0.1-0.2-0.1-0.3-0.2c-0.1-0.1-0.2-0.2-0.2-0.2s-0.1-0.2-0.2-0.2
				c-0.1-0.1-0.1-0.2-0.1-0.2s-0.1-0.1-0.1-0.2l0-0.1l0.3-0.4c0.2-0.3,0.4-0.5,0.5-0.6c0.1-0.1,0.2-0.3,0.4-0.4
				c0.2-0.2,0.3-0.3,0.5-0.3c0.2-0.1,0.3-0.1,0.5-0.1c0.4,0,0.7,0.2,1,0.5C24,568.7,24.1,569.1,24.1,569.5z M16.1,569.5
				c0-0.5,0.1-0.9,0.4-1.2c0.3-0.4,0.6-0.6,1.1-0.6c0.8,0,1.5,0.5,2.1,1.6l-0.3,0.4c-0.4,0.5-0.7,0.9-0.9,1c-0.3,0.3-0.7,0.4-1,0.4
				c-0.4,0-0.7-0.2-1-0.5S16.1,570,16.1,569.5z"/>
		</g>
	</g>
	<g>
		<path id="MJMAIN-3D" d="M29.7-20.4c0,0.1,0.1,0.2,0.2,0.3h8.9c0.1-0.1,0.2-0.2,0.2-0.3c0-0.1-0.1-0.2-0.2-0.3l-4.4,0h-4.4
			C29.8-20.6,29.7-20.5,29.7-20.4z M29.7-23.1c0,0.1,0.1,0.2,0.2,0.3h8.9c0.1-0.1,0.2-0.2,0.2-0.3c0-0.1-0.1-0.2-0.2-0.3h-8.9
			C29.8-23.3,29.7-23.2,29.7-23.1z"/>
	</g>
	<g transform="translate(3105,0)">
		<g>
			<path id="MJSZ3-28" d="M-3051.6-38.3c0,0,0-0.1-0.1-0.1h-0.4c0,0-0.1,0.1-0.4,0.4c-0.2,0.2-0.5,0.4-0.6,0.6s-0.4,0.5-0.8,0.9
				c-0.3,0.4-0.6,0.8-0.9,1.1c-0.3,0.4-0.5,0.8-0.9,1.4c-0.3,0.6-0.6,1.2-0.9,1.7c-0.2,0.6-0.5,1.3-0.8,2.1
				c-0.3,0.8-0.5,1.6-0.6,2.5c-0.1,0.8-0.3,1.8-0.4,2.8c-0.1,1.1-0.2,2.1-0.2,3.3c0,6.6,1.7,11.8,5.1,15.5c0.2,0.2,0.4,0.4,0.6,0.6
				c0.2,0.2,0.3,0.3,0.5,0.4c0.1,0.1,0.2,0.2,0.2,0.2h0.4c0.1-0.1,0.1-0.1,0.1-0.1c0,0-0.1-0.2-0.3-0.4s-0.4-0.5-0.7-0.8
				s-0.6-0.8-1-1.3s-0.7-1.2-1.1-2c-0.4-0.8-0.7-1.7-1.1-2.7c-0.3-1-0.6-2.1-0.8-3.5c-0.2-1.4-0.4-2.8-0.4-4.4c0-0.4,0-0.9,0-1.5
				c0-3.6,0.4-6.8,1.3-9.5s2.2-5,4-6.9C-3051.6-38.2-3051.6-38.3-3051.6-38.3z"/>
		</g>
		<g transform="translate(736,0)">
			<g transform="translate(120,0)">
				<rect x="-3905.4" y="-21.3" width="9.7" height="-0.8"/>
				<g>
					<path id="MJMAIN-32" d="M-3902.6-9.8c-0.3,0-0.5,0.1-0.6,0.3s-0.2,0.4-0.2,0.6c0,0.7,0.2,1.2,0.7,1.7s1.1,0.7,1.8,0.7
						c0.8,0,1.6-0.3,2.1-0.8s0.9-1.2,0.9-2c0-0.4-0.1-0.8-0.3-1.1c-0.2-0.4-0.4-0.7-0.7-0.9c-0.3-0.3-0.6-0.6-1.1-1
						c-0.3-0.3-0.8-0.7-1.4-1.3l-0.8-0.8l1.1,0c1.5,0,2.2,0,2.3,0.1c0.1,0,0.2,0.4,0.3,1.2v0h0.6v0c0,0-0.1-0.5-0.2-1.3
						c-0.1-0.8-0.2-1.2-0.2-1.3v0h-5.2v0.3v0.2c0,0.1,0,0.1,0.1,0.2c0.1,0.1,0.2,0.2,0.4,0.5c0.3,0.3,0.5,0.6,0.7,0.8
						c0.1,0.1,0.2,0.3,0.5,0.5c0.2,0.3,0.4,0.4,0.5,0.5c0.1,0.1,0.2,0.2,0.4,0.5c0.2,0.2,0.3,0.4,0.4,0.5c0.1,0.1,0.2,0.2,0.3,0.4
						c0.1,0.2,0.2,0.3,0.3,0.4c0.1,0.1,0.1,0.3,0.2,0.4c0.1,0.1,0.1,0.3,0.2,0.4c0,0.1,0.1,0.3,0.1,0.4c0,0.1,0,0.3,0,0.5
						c0,0.6-0.2,1.1-0.5,1.5c-0.3,0.4-0.8,0.6-1.4,0.6c-0.3,0-0.6-0.1-0.8-0.2c-0.2-0.2-0.4-0.3-0.5-0.5c-0.1-0.1-0.1-0.2-0.1-0.3
						c0,0,0,0,0.1,0c0.2,0,0.3-0.1,0.5-0.2c0.2-0.1,0.3-0.3,0.3-0.6c0-0.2-0.1-0.4-0.2-0.6S-3902.3-9.8-3902.6-9.8z"/>
				</g>
				<g>
					<path id="MJMATHI-3C0" d="M-3902.7-34.9c-0.3,0-0.5,0.2-0.5,0.5v0.2l0.2,0.4c0.7,1.5,1.2,2.7,1.5,3.8l0.1,0.3h-0.4
						c-0.4,0-0.6,0-0.8,0c-0.1,0-0.3-0.1-0.5-0.3c-0.1-0.1-0.2-0.1-0.3-0.3c-0.1-0.1-0.2-0.2-0.3-0.3c-0.1-0.1-0.1-0.1-0.1-0.2
						c0,0-0.1,0-0.2,0c-0.2,0-0.3,0-0.3,0.1c0,0.1,0.1,0.2,0.3,0.5c0.2,0.3,0.4,0.6,0.8,0.9c0.3,0.3,0.7,0.5,1,0.5
						c0.1,0,1.1,0,3.1,0c1.5,0,2.2,0,2.3,0c0.2-0.1,0.3-0.2,0.3-0.4c0-0.3-0.1-0.5-0.4-0.6c-0.1,0-0.4,0-1,0h-0.9l0-0.2
						c-0.1-0.7-0.2-1.2-0.2-1.7c0-0.5,0-0.9,0.1-1.3c0.1-0.4,0.2-0.7,0.3-0.9c0.1-0.2,0.1-0.3,0.1-0.4c0-0.2-0.1-0.3-0.2-0.4
						c-0.1-0.1-0.3-0.2-0.5-0.2c-0.1,0-0.2,0-0.3,0c-0.1,0-0.1,0.1-0.2,0.3c-0.1,0.2-0.2,0.5-0.2,0.8c0,0.1,0,0.3,0,0.6
						c0,0.5,0,0.9,0.1,1.5c0.1,0.5,0.2,0.9,0.3,1.3c0.1,0.3,0.1,0.5,0.1,0.6h-1.4l0-0.1c0,0-0.1-0.4-0.3-1.1s-0.4-1.5-0.6-2.2
						c-0.2-0.8-0.4-1.2-0.4-1.4C-3902.2-34.8-3902.4-34.9-3902.7-34.9z"/>
				</g>
			</g>
		</g>
		<g>
			<path id="MJSZ3-29" d="M-3037.6-5.2c0,0.1,0,0.1,0,0.1c0,0,0.1,0,0.2,0h0.1h0.2c0,0,0.1-0.1,0.4-0.4c0.2-0.2,0.5-0.4,0.6-0.6
				s0.4-0.5,0.8-0.9s0.6-0.8,0.9-1.1c0.3-0.4,0.5-0.8,0.9-1.4s0.6-1.2,0.9-1.7c0.2-0.6,0.5-1.3,0.8-2.1c0.3-0.8,0.5-1.6,0.6-2.5
				c0.1-0.8,0.3-1.8,0.4-2.8c0.1-1.1,0.2-2.2,0.2-3.3c0-1.1,0-2-0.1-2.8c-0.4-5.3-2.1-9.6-5-12.7c-0.2-0.2-0.4-0.4-0.6-0.6
				s-0.3-0.3-0.5-0.4c-0.1-0.1-0.2-0.2-0.2-0.2h-0.2c-0.1,0-0.2,0-0.2,0c0,0-0.1,0.1-0.1,0.1c0.5,0.5,1,1.1,1.5,1.7
				c2.7,3.6,4,8.5,4,14.8c0,1.9-0.1,3.6-0.4,5.3c-0.2,1.6-0.5,3-0.9,4.1c-0.4,1.1-0.8,2.1-1.3,3.1s-1,1.7-1.4,2.3s-0.9,1.1-1.4,1.6
				c0,0,0,0-0.1,0.1C-3037.5-5.3-3037.5-5.3-3037.6-5.2C-3037.5-5.2-3037.6-5.2-3037.6-5.2L-3037.6-5.2z"/>
		</g>
		<g transform="translate(2406,1177)">
			<g transform="scale(0.707)">
				<path id="MJMAIN-33" d="M-5432.6-1181.3c-0.2,0-0.3,0.1-0.4,0.2s-0.2,0.3-0.2,0.4c0,0.4,0.2,0.7,0.5,1c0.3,0.3,0.7,0.4,1.1,0.4
					c0.2,0,0.4,0,0.4,0c0.5-0.1,0.9-0.3,1.1-0.5s0.4-0.6,0.4-0.9c0-0.3-0.1-0.7-0.3-1c-0.2-0.3-0.5-0.6-0.9-0.7l0,0c0,0,0,0,0.1,0
					c0.1,0,0.2,0,0.3-0.1c0.1,0,0.3-0.1,0.4-0.2c0.5-0.3,0.8-0.8,0.8-1.4c0-0.5-0.2-1-0.6-1.4c-0.4-0.4-0.9-0.6-1.5-0.6
					c-0.5,0-1,0.1-1.4,0.4c-0.4,0.3-0.6,0.6-0.6,1.1c0,0.2,0.1,0.3,0.2,0.4c0.1,0.1,0.3,0.2,0.4,0.2c0.2,0,0.3-0.1,0.5-0.2
					c0.1-0.1,0.2-0.3,0.2-0.4c0-0.1,0-0.1,0-0.2c0-0.1,0-0.1-0.1-0.2c0,0-0.1-0.1-0.1-0.1s-0.1-0.1-0.1-0.1c0,0-0.1,0-0.1,0
					s-0.1,0-0.1,0l0,0c0.3-0.3,0.7-0.4,1.2-0.4c0.4,0,0.6,0.2,0.8,0.5c0.1,0.2,0.2,0.5,0.2,1v0.2c0,0.6-0.2,1-0.6,1.3
					c-0.1,0-0.3,0.1-0.6,0.1l-0.4,0l0,0c0,0,0,0.1,0,0.2c0,0.1,0,0.2,0.1,0.2c0.2,0,0.4,0,0.6,0c0.2,0,0.4,0.2,0.6,0.4
					s0.3,0.6,0.3,1.1v0.1c0,0.4-0.1,0.6-0.3,0.8c-0.1,0.1-0.3,0.1-0.5,0.1c-0.2,0-0.4,0-0.6-0.1s-0.3-0.1-0.4-0.2
					c-0.1-0.1-0.1-0.1-0.1-0.1h0c0,0,0,0,0.1,0c0,0,0.1,0,0.1,0s0.1,0,0.1-0.1c0,0,0.1-0.1,0.1-0.1c0-0.1,0-0.1,0.1-0.1
					c0,0,0-0.1,0-0.2c0-0.1,0-0.3-0.1-0.4C-5432.2-1181.2-5432.4-1181.2-5432.6-1181.3z"/>
			</g>
			<g transform="scale(0.707)">
				<path id="MJMAIN-2F" d="M-5424.7-1178.4c0.1,0,0.1,0,0.1-0.1c0,0,0.1-0.1,0.1-0.1c0,0-0.6-1.6-1.7-4.7s-1.7-4.7-1.8-4.8
					c0-0.1-0.1-0.1-0.2-0.1c0,0-0.1,0-0.1,0c0,0-0.1,0.1-0.1,0.1c0,0.1,0.6,1.7,1.7,4.8c1.1,3.1,1.7,4.7,1.7,4.8
					C-5424.9-1178.5-5424.8-1178.4-5424.7-1178.4z"/>
			</g>
			<g transform="scale(0.707)">
				<path id="MJMAIN-32_1_" d="M-5422.9-1181.6c-0.2,0-0.3,0.1-0.4,0.2c-0.1,0.1-0.2,0.3-0.2,0.4c0,0.5,0.2,0.9,0.5,1.2
					s0.8,0.5,1.3,0.5c0.6,0,1.1-0.2,1.5-0.6c0.4-0.4,0.6-0.8,0.6-1.4c0-0.3-0.1-0.6-0.2-0.8c-0.1-0.3-0.3-0.5-0.5-0.7
					c-0.2-0.2-0.4-0.4-0.8-0.7c-0.2-0.2-0.6-0.5-1-0.9l-0.6-0.6l0.7,0c1,0,1.6,0,1.6,0c0,0,0.1,0.3,0.2,0.9v0h0.4v0
					c0,0,0-0.3-0.1-0.9c-0.1-0.6-0.1-0.9-0.1-0.9v0h-3.7v0.2v0.1c0,0,0,0.1,0.1,0.1c0,0.1,0.1,0.2,0.3,0.3c0.2,0.2,0.4,0.4,0.5,0.6
					c0.1,0.1,0.2,0.2,0.3,0.4s0.3,0.3,0.3,0.4c0.1,0.1,0.2,0.2,0.3,0.3s0.2,0.3,0.3,0.3c0.1,0.1,0.1,0.2,0.2,0.3
					c0.1,0.1,0.2,0.2,0.2,0.3c0,0.1,0.1,0.2,0.1,0.3s0.1,0.2,0.1,0.3s0,0.2,0.1,0.3c0,0.1,0,0.2,0,0.3c0,0.4-0.1,0.8-0.3,1.1
					c-0.2,0.3-0.5,0.5-1,0.5c-0.2,0-0.4-0.1-0.6-0.2c-0.2-0.1-0.3-0.2-0.3-0.3c-0.1-0.1-0.1-0.2-0.1-0.2c0,0,0,0,0,0
					c0.1,0,0.2,0,0.4-0.1c0.1-0.1,0.2-0.2,0.2-0.5c0-0.2-0.1-0.3-0.2-0.4C-5422.5-1181.5-5422.7-1181.6-5422.9-1181.6z"/>
			</g>
		</g>
	</g>
	<g transform="translate(6673,0)">
		<g transform="translate(120,0)">
			<rect x="-6698" y="-21.3" width="55.8" height="-0.8"/>
			<g transform="translate(60,854)">
				<g>
					<path id="MJMAIN-63" d="M-6752-863.1c0,0-0.1,0-0.3,0s-0.4,0.1-0.5,0.2c-0.1,0.1-0.2,0.3-0.2,0.5c0,0.2,0.1,0.4,0.2,0.5
						c0,0,0.1,0.1,0.1,0.1s0,0-0.1,0c-0.2,0-0.5,0.1-0.7,0.1c-0.5,0-0.8-0.1-1.1-0.4c-0.4-0.4-0.7-1.2-0.7-2.2
						c0-0.8,0.1-1.4,0.4-1.8c0.4-0.6,0.9-0.9,1.5-0.9c0.4,0,0.7,0.1,0.9,0.4s0.4,0.5,0.5,0.9c0,0.1,0,0.1,0.1,0.1c0,0,0.1,0,0.2,0
						h0.2c0.1-0.1,0.1-0.1,0.1-0.1c0,0,0-0.1-0.1-0.2c0-0.1-0.1-0.3-0.2-0.5c-0.1-0.2-0.2-0.4-0.4-0.5c-0.2-0.2-0.4-0.3-0.7-0.4
						s-0.6-0.2-1-0.2c-0.8,0-1.5,0.3-2.1,0.9c-0.6,0.6-0.9,1.3-0.9,2.2c0,1,0.3,1.8,0.9,2.4s1.3,0.9,2.1,0.9c0.8,0,1.4-0.1,1.7-0.4
						c0.3-0.3,0.5-0.5,0.5-0.9c0-0.2-0.1-0.4-0.2-0.5L-6752-863.1z"/>
				</g>
				<g>
					<path id="MJMAIN-6F" d="M-6750.5-864.3c0,0.9,0.3,1.6,0.9,2.3c0.6,0.6,1.3,1,2.2,1c0.8,0,1.6-0.3,2.2-0.9
						c0.6-0.6,0.9-1.4,0.9-2.3c0-0.9-0.3-1.6-0.9-2.2s-1.3-0.9-2.2-0.9c-0.9,0-1.6,0.3-2.2,0.9
						C-6750.2-865.9-6750.5-865.2-6750.5-864.3z M-6747.4-866.9c1.1,0,1.7,0.8,1.7,2.3v0.4v0.3c0,0.2,0,0.4,0,0.5
						c0,0.1,0,0.3-0.1,0.5s-0.1,0.4-0.2,0.5c-0.1,0.1-0.2,0.3-0.4,0.4c-0.2,0.1-0.4,0.2-0.7,0.3c0,0-0.1,0-0.2,0
						c-0.3,0-0.5-0.1-0.8-0.2c-0.4-0.2-0.7-0.5-0.8-0.9c-0.1-0.4-0.2-0.8-0.2-1.3v-0.3c0-0.9,0.1-1.5,0.3-1.9
						C-6748.6-866.6-6748.1-866.9-6747.4-866.9z"/>
				</g>
				<g>
					<path id="MJMAIN-73" d="M-6739.8-862.9c0,0.4-0.1,0.7-0.4,1c-0.3,0.3-0.6,0.4-1.1,0.4c-0.3,0-0.6-0.1-0.9-0.2
						c-0.3-0.2-0.4-0.4-0.4-0.7c0,0,0-0.1,0-0.2s0.1-0.2,0.2-0.3c0.1-0.1,0.3-0.3,0.6-0.3c0.2,0,0.4-0.1,0.6-0.1
						c0.2,0,0.4-0.1,0.6-0.1c0.2,0,0.3-0.1,0.4-0.2c0.2-0.1,0.3-0.2,0.5-0.3c0.1-0.1,0.3-0.3,0.4-0.6c0.1-0.3,0.2-0.6,0.2-0.9
						c0-0.6-0.2-1-0.5-1.4c-0.4-0.4-0.9-0.6-1.7-0.6h-0.1c-0.5,0-0.9,0.2-1.3,0.5l-0.1-0.1l-0.1-0.1c-0.1-0.1-0.1-0.1-0.2-0.2
						l-0.2-0.1h-0.1h-0.1c0,0-0.1,0-0.1,0.1v1.1v0.8c0,0.2,0,0.3,0,0.3s0.1,0.1,0.1,0.1h0.1c0.1,0,0.2,0,0.2-0.1s0.1-0.1,0.1-0.2
						s0-0.2,0.1-0.4c0.1-0.2,0.1-0.4,0.3-0.6c0.3-0.5,0.8-0.7,1.4-0.7c0.9,0,1.4,0.4,1.4,1.1c0,0.3-0.1,0.5-0.3,0.7
						c-0.2,0.2-0.6,0.4-1.2,0.5c-0.6,0.1-1,0.2-1.2,0.3c-0.3,0.2-0.6,0.4-0.8,0.6c-0.2,0.3-0.3,0.6-0.3,0.9c0,0.4,0.1,0.7,0.2,0.9
						c0.2,0.3,0.4,0.4,0.6,0.6c0.2,0.1,0.5,0.2,0.7,0.3s0.4,0.1,0.6,0.1h0.2c0.4,0,0.7-0.1,1-0.2l0.2-0.1l0.1,0.1
						c0.1,0.1,0.2,0.2,0.3,0.2h0.1h0.1c0,0,0.1,0,0.1-0.1v-1.8l-0.1-0.1h-0.4C-6739.8-863-6739.8-863-6739.8-862.9z"/>
				</g>
				<g transform="scale(0.707)">
					<path id="MJMAIN-32_2_" d="M-6737.4-858c-0.2,0-0.3,0.1-0.4,0.2s-0.2,0.3-0.2,0.4c0,0.5,0.2,0.9,0.5,1.2s0.8,0.5,1.3,0.5
						c0.6,0,1.1-0.2,1.5-0.6c0.4-0.4,0.6-0.8,0.6-1.4c0-0.3-0.1-0.6-0.2-0.8s-0.3-0.5-0.5-0.7c-0.2-0.2-0.4-0.4-0.8-0.7
						c-0.2-0.2-0.6-0.5-1-0.9l-0.6-0.6l0.7,0c1,0,1.6,0,1.6,0c0,0,0.1,0.3,0.2,0.9v0h0.4v0c0,0,0-0.3-0.1-0.9
						c-0.1-0.6-0.1-0.9-0.1-0.9v0h-3.7v0.2v0.1c0,0,0,0.1,0.1,0.1c0,0.1,0.1,0.2,0.3,0.3c0.2,0.2,0.4,0.4,0.5,0.6
						c0.1,0.1,0.2,0.2,0.3,0.4c0.2,0.2,0.3,0.3,0.3,0.4c0.1,0.1,0.2,0.2,0.3,0.3c0.1,0.2,0.2,0.3,0.3,0.3c0.1,0.1,0.1,0.2,0.2,0.3
						c0.1,0.1,0.2,0.2,0.2,0.3c0,0.1,0.1,0.2,0.1,0.3s0.1,0.2,0.1,0.3c0,0.1,0,0.2,0.1,0.3c0,0.1,0,0.2,0,0.3c0,0.4-0.1,0.8-0.3,1.1
						c-0.2,0.3-0.5,0.5-1,0.5c-0.2,0-0.4-0.1-0.6-0.2c-0.2-0.1-0.3-0.2-0.3-0.3c-0.1-0.1-0.1-0.2-0.1-0.2c0,0,0,0,0,0
						c0.1,0,0.2,0,0.4-0.1c0.1-0.1,0.2-0.2,0.2-0.5c0-0.2-0.1-0.3-0.2-0.4C-6737-858-6737.2-858-6737.4-858z"/>
				</g>
				<g transform="translate(1793,0)">
					<g>
						<path id="MJSZ1-28" d="M-8523-863.8c0,3.7,1.1,6.5,3.3,8.3h0.4c0.1-0.1,0.1-0.1,0.1-0.1c0,0-0.1-0.2-0.3-0.3
							c-0.2-0.2-0.4-0.5-0.6-0.9s-0.5-0.9-0.8-1.4c-0.3-0.6-0.5-1.4-0.7-2.3c-0.2-1-0.3-2.1-0.3-3.2c0-1.2,0.1-2.2,0.3-3.2
							c0.2-1,0.4-1.7,0.6-2.3s0.5-1,0.8-1.4s0.5-0.7,0.7-0.9c0.2-0.2,0.3-0.3,0.3-0.3c0,0,0-0.1-0.1-0.1h-0.4
							c-0.3,0.2-0.5,0.5-0.8,0.7c-0.3,0.3-0.5,0.7-0.9,1.2c-0.3,0.5-0.6,1-0.8,1.6c-0.2,0.6-0.4,1.3-0.6,2.1
							C-8522.9-865.7-8523-864.8-8523-863.8z"/>
					</g>
					<g transform="translate(458,0)">
						<g transform="translate(120,0)">
							<rect x="-9095.1" y="-863.4" width="13" height="-0.8"/>
							<g transform="translate(60,418)">
								<g transform="scale(0.707)">
									<path id="MJMATHI-3C0_1_" d="M-9152.9-1279.6c-0.2,0-0.3,0.1-0.3,0.3v0.1l0.1,0.3c0.5,1,0.9,1.9,1.1,2.7l0.1,0.2h-0.3
										c-0.3,0-0.4,0-0.5,0c-0.1,0-0.2-0.1-0.4-0.2c-0.1,0-0.1-0.1-0.2-0.2s-0.1-0.1-0.2-0.2s-0.1-0.1-0.1-0.1c0,0-0.1,0-0.1,0
										c-0.1,0-0.2,0-0.2,0.1c0,0,0.1,0.2,0.2,0.3c0.1,0.2,0.3,0.4,0.5,0.6c0.2,0.2,0.5,0.3,0.7,0.4c0,0,0.8,0,2.2,0
										c1.1,0,1.6,0,1.6,0c0.1,0,0.2-0.1,0.2-0.3c0-0.2-0.1-0.3-0.3-0.4c0,0-0.3,0-0.7,0h-0.6l0-0.2c-0.1-0.5-0.1-0.9-0.1-1.2
										c0-0.3,0-0.6,0.1-0.9c0.1-0.3,0.1-0.5,0.2-0.6c0.1-0.2,0.1-0.2,0.1-0.3c0-0.1,0-0.2-0.1-0.3s-0.2-0.1-0.4-0.1
										c-0.1,0-0.1,0-0.2,0c0,0-0.1,0.1-0.2,0.2c-0.1,0.1-0.1,0.3-0.2,0.6c0,0.1,0,0.2,0,0.4c0,0.3,0,0.7,0.1,1
										c0.1,0.4,0.1,0.7,0.2,0.9s0.1,0.4,0.1,0.4h-1l0,0c0,0-0.1-0.3-0.2-0.8c-0.1-0.5-0.3-1-0.4-1.6c-0.2-0.6-0.3-0.9-0.3-1
										C-9152.6-1279.5-9152.7-1279.6-9152.9-1279.6z"/>
								</g>
								<g transform="scale(0.707)">
									<path id="MJMATHI-3BA" d="M-9147.8-1279.6c-0.1,0-0.2,0-0.2,0.1s-0.1,0.1-0.1,0.1s0,0.1,0,0.1c0,0.1,0.2,0.7,0.5,2
										s0.5,1.9,0.5,1.9c0.1,0.2,0.2,0.3,0.5,0.3c0.1,0,0.1,0,0.2-0.1s0.1-0.1,0.1-0.1s0-0.1,0-0.1c0-0.1-0.1-0.3-0.2-0.7
										l-0.2-0.7c0,0,0.1,0,0.2,0.1c0.1,0.1,0.2,0.1,0.3,0.1c0.1,0.1,0.3,0.3,0.7,0.6c0.4,0.3,0.7,0.5,0.9,0.6
										c0.2,0.1,0.5,0.2,0.7,0.2c0.1,0,0.3,0,0.3-0.1c0.1-0.1,0.1-0.2,0.1-0.3c0-0.2-0.1-0.3-0.2-0.4c-0.1-0.1-0.3-0.2-0.4-0.2
										c-0.1,0-0.2,0-0.3,0.1c-0.1,0.1-0.1,0.2-0.1,0.3c0,0,0,0.1,0,0.1l-0.1,0c-0.2-0.1-0.5-0.3-0.8-0.6l-0.6-0.5l-0.1-0.1h0
										c0.1,0,0.3,0,0.5-0.1c0.2,0,0.5-0.1,0.7-0.2c0.4-0.2,0.6-0.4,0.6-0.8c0-0.1,0-0.2,0-0.4c0-0.2-0.1-0.3-0.1-0.5
										c0-0.3,0.1-0.4,0.3-0.4c0.3,0,0.6,0.4,0.7,1.1c0,0.1,0,0.1,0.1,0.1c0,0,0.1,0,0.2,0c0.1,0,0.2,0,0.2-0.1
										c0-0.2-0.1-0.4-0.3-0.8s-0.4-0.6-0.7-0.7c-0.1,0-0.2,0-0.3,0c-0.3,0-0.5,0.1-0.7,0.3s-0.3,0.4-0.3,0.7c0,0.1,0,0.2,0,0.3
										c0,0.1,0,0.2,0,0.2c0,0.2-0.1,0.3-0.2,0.4c-0.1,0.1-0.3,0.2-0.5,0.2c-0.2,0-0.4,0.1-0.5,0.1c-0.1,0-0.2,0-0.4,0h0l-0.2-1
										c-0.2-0.7-0.3-1-0.3-1C-9147.4-1279.5-9147.6-1279.6-9147.8-1279.6z"/>
								</g>
							</g>
							<g transform="scale(0.707)">
								<path id="MJMAIN-32_3_" d="M-9090-868.4c-0.2,0-0.3,0.1-0.4,0.2c-0.1,0.1-0.2,0.3-0.2,0.4c0,0.5,0.2,0.9,0.5,1.2
									c0.3,0.3,0.8,0.5,1.3,0.5c0.6,0,1.1-0.2,1.5-0.6s0.6-0.8,0.6-1.4c0-0.3-0.1-0.6-0.2-0.8c-0.1-0.3-0.3-0.5-0.5-0.7
									c-0.2-0.2-0.4-0.4-0.8-0.7c-0.2-0.2-0.6-0.5-1-0.9l-0.6-0.6l0.7,0c1,0,1.6,0,1.6,0c0,0,0.1,0.3,0.2,0.9v0h0.4v0
									c0,0,0-0.3-0.1-0.9s-0.1-0.9-0.1-0.9v0h-3.7v0.2v0.1c0,0,0,0.1,0.1,0.1c0,0.1,0.1,0.2,0.3,0.3c0.2,0.2,0.4,0.4,0.5,0.6
									c0.1,0.1,0.2,0.2,0.3,0.4c0.2,0.2,0.3,0.3,0.3,0.4c0.1,0.1,0.2,0.2,0.3,0.3c0.1,0.2,0.2,0.3,0.3,0.3
									c0.1,0.1,0.1,0.2,0.2,0.3c0.1,0.1,0.2,0.2,0.2,0.3c0,0.1,0.1,0.2,0.1,0.3c0.1,0.1,0.1,0.2,0.1,0.3c0,0.1,0,0.2,0.1,0.3
									c0,0.1,0,0.2,0,0.3c0,0.4-0.1,0.8-0.3,1.1c-0.2,0.3-0.5,0.5-1,0.5c-0.2,0-0.4-0.1-0.6-0.2c-0.2-0.1-0.3-0.2-0.3-0.3
									c-0.1-0.1-0.1-0.2-0.1-0.2c0,0,0,0,0,0c0.1,0,0.2,0,0.4-0.1c0.1-0.1,0.2-0.2,0.2-0.5c0-0.2-0.1-0.3-0.2-0.4
									S-9089.8-868.4-9090-868.4z"/>
							</g>
						</g>
					</g>
					<g>
						<path id="MJSZ1-29" d="M-8498.2-863.8c0-3.7-1.1-6.5-3.3-8.4h-0.2c-0.1,0-0.2,0-0.2,0c0,0-0.1,0.1-0.1,0.1
							c0,0,0.1,0.2,0.3,0.4c0.2,0.2,0.4,0.6,0.7,0.9c0.2,0.4,0.5,0.9,0.7,1.4c0.3,0.6,0.5,1.3,0.6,2.3c0.2,0.9,0.2,2,0.2,3.1
							s-0.1,2.2-0.2,3.1c-0.2,0.9-0.4,1.7-0.6,2.3c-0.3,0.6-0.5,1-0.7,1.4c-0.2,0.4-0.5,0.7-0.7,0.9c-0.2,0.2-0.3,0.4-0.3,0.4
							c0,0.1,0.1,0.2,0.2,0.2h0.1h0.2c1.2-1,2.1-2.3,2.6-4C-8498.4-860.8-8498.2-862.2-8498.2-863.8z"/>
					</g>
				</g>
			</g>
			<g transform="translate(1523,-742)">
				<g>
					<path id="MJMATHI-70_1_" d="M-8199.4,710.4c0,0,0,0.1,0,0.1c0,0,0,0.1,0.1,0.3c0,0.2,0.1,0.3,0.1,0.4s0.1,0.3,0.2,0.5
						c0.1,0.2,0.2,0.3,0.3,0.4c0.1,0.1,0.2,0.2,0.4,0.3c0.1,0.1,0.3,0.1,0.5,0.1c0.7,0,1.1-0.3,1.3-0.9l0.1,0.1
						c0.6,0.5,1.1,0.8,1.6,0.8c0.6,0,1.1-0.2,1.4-0.7s0.5-1,0.5-1.6c0-1-0.4-1.9-1.1-2.8c-0.7-0.8-1.5-1.3-2.4-1.3
						c-0.2,0-0.4,0-0.5,0.1c-0.1,0-0.2,0.1-0.3,0.2s-0.2,0.2-0.3,0.2l-0.1,0.1c0,0-0.1-0.4-0.3-1.2c-0.2-0.8-0.3-1.2-0.3-1.2
						c0-0.1,0-0.1,0.1-0.1s0.2,0,0.5,0h0.3c0.1-0.1,0.1-0.1,0.1-0.1c0,0,0-0.1,0-0.3c0-0.1-0.1-0.2-0.1-0.2c0,0-0.1,0-0.2-0.1
						c0,0-0.1,0-0.2,0c-0.1,0-0.2,0-0.5,0c-0.2,0-0.5,0-0.9,0c-0.7,0-1.1,0-1.2,0h-0.1c-0.1,0.1-0.1,0.1-0.1,0.2
						c0,0.3,0.1,0.4,0.2,0.5h0.3c0.3,0,0.5,0.1,0.5,0.2c0,0.1,0.3,1.2,0.8,3.3c0.5,2.2,0.8,3.3,0.9,3.4c0,0,0,0.1,0,0.2
						c0,0.4-0.1,0.6-0.3,0.6c-0.2,0-0.4-0.1-0.5-0.4c-0.1-0.3-0.2-0.5-0.3-0.9s-0.1-0.5-0.2-0.5c0,0-0.1,0-0.2,0h-0.2
						C-8199.4,710.4-8199.4,710.4-8199.4,710.4z M-8197.3,707.9c0.2-0.7,0.5-1.1,1-1.1c0.3,0,0.5,0.1,0.8,0.3
						c0.3,0.2,0.5,0.5,0.6,0.8c0.2,0.3,0.3,0.8,0.5,1.5c0.2,0.7,0.3,1.2,0.3,1.5v0.1c0,0.7-0.3,1-0.9,1c-0.1,0-0.2,0-0.3,0
						c-0.1,0-0.2-0.1-0.3-0.1c-0.1-0.1-0.2-0.1-0.3-0.2c-0.1-0.1-0.2-0.1-0.2-0.2c-0.1-0.1-0.1-0.1-0.2-0.2
						c-0.1-0.1-0.1-0.1-0.2-0.2c0-0.1-0.1-0.1-0.1-0.1l0-0.1c0,0,0-0.1,0-0.2c0-0.1-0.1-0.3-0.2-0.6c-0.1-0.3-0.1-0.5-0.2-0.7
						C-8197.1,708.4-8197.3,707.9-8197.3,707.9z"/>
				</g>
				<g transform="scale(0.707)">
					<path id="MJMAIN-34" d="M-8188.2,710.5c-0.1,0-0.5,0-1.3,0c-0.8,0-1.2,0-1.3,0h-0.1v0.5h0.3c0.1,0,0.2,0,0.3,0c0,0,0.1,0,0.2,0
						c0.1,0,0.1,0,0.1,0c0,0,0,0,0.1,0.1c0,0,0,0.2,0,0.5v0.5h-2.6v0.5l1.5,2.3c1,1.5,1.5,2.3,1.5,2.3c0,0,0.1,0,0.2,0h0.2l0.1-0.1
						v-4.5h0.9v-0.5h-0.9v-0.5c0-0.3,0-0.4,0-0.5s0-0.1,0.1-0.1c0.1,0,0.2-0.1,0.6-0.1h0.3L-8188.2,710.5L-8188.2,710.5z
						 M-8189.8,712.5v3.3l-2.2-3.3l1.1,0H-8189.8z"/>
				</g>
			</g>
		</g>
	</g>
	<g>
		<path id="MJMAIN-3D_1_" d="M157.2-20.4c0,0.1,0.1,0.2,0.2,0.3h8.9c0.1-0.1,0.2-0.2,0.2-0.3c0-0.1-0.1-0.2-0.2-0.3l-4.4,0h-4.4
			C157.2-20.6,157.2-20.5,157.2-20.4z M157.2-23.1c0,0.1,0.1,0.2,0.2,0.3h8.9c0.1-0.1,0.2-0.2,0.2-0.3c0-0.1-0.1-0.2-0.2-0.3h-8.9
			C157.2-23.3,157.2-23.2,157.2-23.1z"/>
	</g>
	<g transform="translate(11973,0)">
		<g transform="translate(397,0)">
			<rect x="-12197.2" y="-21.3" width="18.7" height="-0.8"/>
			<g transform="translate(60,676)">
				<g>
					<path id="MJMATHI-43" d="M-12255.7-688.3c0,1.1,0.3,2.1,0.9,3.1c0.6,1,1.4,1.8,2.4,2.3s1.9,0.9,2.8,0.9c0.8,0,1.5-0.2,2-0.7
						c0.1-0.1,0.2-0.2,0.2-0.2c0.1-0.1,0.1-0.1,0.1-0.1l0,0c0,0,0.2,0.1,0.4,0.4c0.1,0.1,0.1,0.1,0.2,0.2c0.1,0.1,0.1,0.1,0.2,0.2
						s0.1,0.1,0.1,0.2l0.2,0.2h0.1c0.1,0,0.2,0,0.2-0.1c0,0-0.1-0.7-0.4-1.9c-0.3-1.3-0.5-1.9-0.5-2c0,0,0-0.1-0.1-0.1
						c0,0-0.1,0-0.3,0h-0.2c-0.1,0.1-0.1,0.1-0.1,0.1c0,0,0,0,0,0.1c0,0.1,0,0.1,0,0.3c0,0.1,0,0.3,0,0.4c0,0.7-0.1,1.2-0.4,1.7
						c-0.3,0.5-0.8,0.7-1.5,0.8c-0.2,0-0.5,0-0.8-0.1c-0.3-0.1-0.6-0.2-1-0.3c-0.4-0.2-0.8-0.4-1.2-0.8c-0.4-0.4-0.7-0.8-1-1.3
						c-0.3-0.5-0.5-1.1-0.7-1.9s-0.3-1.3-0.3-1.7c0-1.1,0.4-1.8,1.1-2.3c0.4-0.3,1-0.5,1.6-0.5c0.8,0,1.6,0.3,2.3,0.9
						c0.7,0.6,1.1,1.3,1.3,2.1c0,0.1,0.1,0.2,0.1,0.2s0.1,0,0.2,0c0.2,0,0.3,0,0.3-0.1c0,0,0-0.1,0-0.1c-0.3-1-0.8-1.8-1.7-2.6
						c-0.9-0.7-1.8-1.1-2.8-1.1c-1,0-1.9,0.3-2.7,1S-12255.7-689.4-12255.7-688.3z"/>
				</g>
				<g transform="scale(0.707)">
					<path id="MJMATHI-3BA_1_" d="M-12245.6-694c-0.1,0-0.2,0-0.2,0.1c-0.1,0-0.1,0.1-0.1,0.1s0,0.1,0,0.1c0,0.1,0.2,0.7,0.5,2
						s0.5,1.9,0.5,1.9c0.1,0.2,0.2,0.3,0.5,0.3c0.1,0,0.1,0,0.2-0.1c0.1,0,0.1-0.1,0.1-0.1c0,0,0-0.1,0-0.1c0-0.1-0.1-0.3-0.2-0.7
						l-0.2-0.7c0,0,0.1,0,0.2,0.1s0.2,0.1,0.3,0.1c0.1,0.1,0.3,0.3,0.7,0.6c0.4,0.3,0.7,0.5,0.9,0.6s0.5,0.2,0.7,0.2
						c0.1,0,0.3,0,0.3-0.1s0.1-0.2,0.1-0.3c0-0.2-0.1-0.3-0.2-0.4s-0.3-0.2-0.4-0.2c-0.1,0-0.2,0-0.3,0.1s-0.1,0.2-0.1,0.3
						c0,0,0,0.1,0,0.1l-0.1,0c-0.2-0.1-0.5-0.3-0.8-0.6l-0.6-0.5l-0.1-0.1h0c0.1,0,0.3,0,0.5-0.1c0.3,0,0.5-0.1,0.7-0.2
						c0.4-0.2,0.6-0.4,0.6-0.8c0-0.1,0-0.2,0-0.4c0-0.2-0.1-0.3-0.1-0.5c0-0.3,0.1-0.4,0.3-0.4c0.3,0,0.6,0.4,0.7,1.1
						c0,0.1,0,0.1,0.1,0.1s0.1,0,0.2,0c0.1,0,0.2,0,0.2-0.1c0-0.2-0.1-0.4-0.3-0.8c-0.2-0.4-0.4-0.6-0.7-0.7c-0.1,0-0.2,0-0.3,0
						c-0.3,0-0.5,0.1-0.7,0.3c-0.2,0.2-0.3,0.4-0.3,0.7c0,0.1,0,0.2,0,0.3c0,0.1,0,0.2,0,0.2c0,0.2-0.1,0.3-0.2,0.4
						s-0.3,0.2-0.5,0.2c-0.2,0-0.4,0.1-0.5,0.1c-0.1,0-0.2,0-0.4,0h0l-0.2-1c-0.2-0.7-0.3-1-0.3-1
						C-12245.3-693.9-12245.4-694-12245.6-694z"/>
				</g>
			</g>
			<g transform="translate(192,-742)">
				<g>
					<path id="MJMATHI-70_2_" d="M-12386.2,710.4c0,0,0,0.1,0,0.1c0,0,0,0.1,0.1,0.3c0,0.2,0.1,0.3,0.1,0.4s0.1,0.3,0.2,0.5
						c0.1,0.2,0.2,0.3,0.3,0.4c0.1,0.1,0.2,0.2,0.4,0.3c0.1,0.1,0.3,0.1,0.5,0.1c0.7,0,1.1-0.3,1.3-0.9l0.1,0.1
						c0.6,0.5,1.1,0.8,1.6,0.8c0.6,0,1.1-0.2,1.4-0.7s0.5-1,0.5-1.6c0-1-0.4-1.9-1.1-2.8c-0.7-0.8-1.5-1.3-2.4-1.3
						c-0.2,0-0.4,0-0.5,0.1c-0.1,0-0.2,0.1-0.3,0.2s-0.2,0.2-0.3,0.2l-0.1,0.1c0,0-0.1-0.4-0.3-1.2c-0.2-0.8-0.3-1.2-0.3-1.2
						c0-0.1,0-0.1,0.1-0.1c0.1,0,0.2,0,0.5,0h0.3c0.1-0.1,0.1-0.1,0.1-0.1c0,0,0-0.1,0-0.3c0-0.1-0.1-0.2-0.1-0.2c0,0-0.1,0-0.2-0.1
						c0,0-0.1,0-0.2,0s-0.2,0-0.5,0c-0.2,0-0.5,0-0.9,0c-0.7,0-1.1,0-1.2,0h-0.1c-0.1,0.1-0.1,0.1-0.1,0.2c0,0.3,0.1,0.4,0.2,0.5
						h0.3c0.3,0,0.5,0.1,0.5,0.2c0,0.1,0.3,1.2,0.9,3.3c0.5,2.2,0.8,3.3,0.8,3.4c0,0,0,0.1,0,0.2c0,0.4-0.1,0.6-0.3,0.6
						c-0.2,0-0.4-0.1-0.5-0.4s-0.2-0.5-0.3-0.9s-0.1-0.5-0.2-0.5c0,0-0.1,0-0.2,0h-0.2C-12386.2,710.4-12386.2,710.4-12386.2,710.4z
						 M-12384.1,707.9c0.2-0.7,0.5-1.1,1-1.1c0.3,0,0.5,0.1,0.8,0.3c0.3,0.2,0.5,0.5,0.6,0.8c0.2,0.3,0.3,0.8,0.5,1.5
						c0.2,0.7,0.3,1.2,0.3,1.5v0.1c0,0.7-0.3,1-0.8,1c-0.1,0-0.2,0-0.3,0c-0.1,0-0.2-0.1-0.3-0.1c-0.1-0.1-0.2-0.1-0.3-0.2
						c-0.1-0.1-0.2-0.1-0.2-0.2c-0.1-0.1-0.1-0.1-0.2-0.2c-0.1-0.1-0.1-0.1-0.2-0.2c0-0.1-0.1-0.1-0.1-0.1l0-0.1c0,0,0-0.1,0-0.2
						c0-0.1-0.1-0.3-0.2-0.6c-0.1-0.3-0.1-0.5-0.2-0.7C-12384,708.4-12384.1,707.9-12384.1,707.9z"/>
				</g>
				<g transform="scale(0.707)">
					<path id="MJMAIN-34_1_" d="M-12375,710.5c-0.1,0-0.5,0-1.3,0c-0.8,0-1.2,0-1.3,0h-0.1v0.5h0.3c0.1,0,0.2,0,0.3,0s0.1,0,0.2,0
						c0.1,0,0.1,0,0.1,0c0,0,0,0,0.1,0.1c0,0,0,0.2,0,0.5v0.5h-2.6v0.5l1.5,2.3c1,1.5,1.5,2.3,1.5,2.3c0,0,0.1,0,0.2,0h0.2l0.1-0.1
						v-4.5h0.9v-0.5h-0.9v-0.5c0-0.3,0-0.4,0-0.5s0-0.1,0.1-0.1c0.1,0,0.2-0.1,0.6-0.1h0.3L-12375,710.5L-12375,710.5z
						 M-12376.7,712.5v3.3l-2.2-3.3l1.1,0H-12376.7z"/>
				</g>
			</g>
		</g>
	</g>
</g>
</svg>
