<?xml version="1.0" encoding="utf-8"?>
<!-- Generator: Adobe Illustrator 22.1.0, SVG Export Plug-In . SVG Version: 6.00 Build 0)  -->
<svg version="1.1" id="Layer_1" focusable="false" xmlns="http://www.w3.org/2000/svg" xmlns:xlink="http://www.w3.org/1999/xlink"
	 x="0px" y="0px" viewBox="0 0 233.7 40.8" style="enable-background:new 0 0 233.7 40.8;" xml:space="preserve">
<g transform="matrix(1 0 0 -1 0 0)">
	<g>
		<path id="MJMATHI-43" d="M0.7-21.7c0,1.1,0.3,2.1,0.9,3.1c0.6,1,1.4,1.8,2.4,2.3s1.9,0.9,2.8,0.9c0.8,0,1.5-0.2,2-0.7
			C8.9-16.2,9-16.3,9-16.3s0.1-0.1,0.1-0.1l0,0c0,0,0.2,0.1,0.4,0.4C9.6-16.1,9.7-16,9.7-16c0.1,0.1,0.1,0.1,0.2,0.2
			c0.1,0.1,0.1,0.1,0.1,0.2l0.2,0.2h0.1c0.1,0,0.2,0,0.2-0.1c0,0-0.1-0.7-0.4-1.9c-0.3-1.3-0.5-1.9-0.5-2c0,0,0-0.1-0.1-0.1
			c0,0-0.1,0-0.3,0H9.1C9-19.4,9-19.4,9-19.3c0,0,0,0,0,0.1c0,0.1,0,0.1,0,0.3c0,0.1,0,0.3,0,0.4c0,0.7-0.1,1.2-0.4,1.7
			S7.8-16,7.1-16c-0.2,0-0.5,0-0.8-0.1s-0.6-0.2-1-0.3c-0.4-0.2-0.8-0.4-1.2-0.8c-0.4-0.4-0.7-0.8-1-1.3c-0.3-0.5-0.5-1.1-0.7-1.9
			c-0.2-0.7-0.3-1.3-0.3-1.7c0-1.1,0.4-1.8,1.1-2.3c0.4-0.3,1-0.5,1.6-0.5c0.8,0,1.6,0.3,2.3,0.9s1.1,1.3,1.3,2.1
			c0,0.1,0.1,0.2,0.1,0.2c0,0,0.1,0,0.2,0c0.2,0,0.3,0,0.3-0.1c0,0,0-0.1,0-0.1c-0.3-1-0.8-1.8-1.7-2.6c-0.9-0.7-1.8-1.1-2.8-1.1
			c-1,0-1.9,0.3-2.7,1C1.1-23.8,0.7-22.9,0.7-21.7z"/>
	</g>
	<g transform="scale(0.707)">
		<path id="MJMATHI-3BA" d="M10.8-27.4c-0.1,0-0.2,0-0.2,0.1c-0.1,0-0.1,0.1-0.1,0.1c0,0,0,0.1,0,0.1c0,0.1,0.2,0.7,0.5,2
			c0.3,1.2,0.5,1.9,0.5,1.9c0.1,0.2,0.2,0.3,0.5,0.3c0.1,0,0.1,0,0.2-0.1c0.1,0,0.1-0.1,0.1-0.1c0,0,0-0.1,0-0.1
			c0-0.1-0.1-0.3-0.2-0.7l-0.2-0.7c0,0,0.1,0,0.2,0.1c0.1,0.1,0.2,0.1,0.3,0.1c0.1,0.1,0.3,0.3,0.7,0.6c0.4,0.3,0.7,0.5,0.9,0.6
			c0.2,0.1,0.5,0.2,0.7,0.2c0.1,0,0.3,0,0.3-0.1c0.1-0.1,0.1-0.2,0.1-0.3c0-0.2-0.1-0.3-0.2-0.4s-0.3-0.2-0.4-0.2
			c-0.1,0-0.2,0-0.3,0.1C14-23.9,14-23.8,14-23.7c0,0,0,0.1,0,0.1l-0.1,0c-0.2-0.1-0.5-0.3-0.8-0.6l-0.6-0.5l-0.1-0.1h0
			c0.1,0,0.3,0,0.5-0.1c0.2,0,0.5-0.1,0.7-0.2c0.4-0.2,0.6-0.4,0.6-0.8c0-0.1,0-0.2,0-0.4c0-0.2-0.1-0.3-0.1-0.5
			c0-0.3,0.1-0.4,0.3-0.4c0.3,0,0.6,0.4,0.7,1.1c0,0.1,0,0.1,0.1,0.1s0.1,0,0.2,0c0.1,0,0.2,0,0.2-0.1c0-0.2-0.1-0.4-0.3-0.8
			c-0.2-0.4-0.4-0.6-0.7-0.7c-0.1,0-0.2,0-0.3,0c-0.3,0-0.5,0.1-0.7,0.3s-0.3,0.4-0.3,0.7c0,0.1,0,0.2,0,0.3s0,0.2,0,0.2
			c0,0.2-0.1,0.3-0.2,0.4s-0.3,0.2-0.5,0.2c-0.2,0-0.4,0.1-0.5,0.1s-0.2,0-0.4,0h0l-0.2-1c-0.2-0.7-0.3-1-0.3-1
			C11.1-27.3,11-27.4,10.8-27.4z"/>
	</g>
	<g>
		<path id="MJMAIN-28" d="M18.4-21.7c0,0.6,0,1.2,0.1,1.8c0.1,0.6,0.2,1.1,0.3,1.5s0.3,0.8,0.5,1.2c0.2,0.4,0.4,0.7,0.5,0.9
			c0.1,0.2,0.3,0.5,0.6,0.7c0.3,0.3,0.4,0.4,0.5,0.5c0,0.1,0.2,0.2,0.3,0.3h0.2h0.1c0.1,0,0.2,0,0.2-0.1c0,0-0.1-0.1-0.2-0.3
			c-0.2-0.2-0.3-0.4-0.6-0.7c-0.2-0.3-0.5-0.7-0.7-1.2c-0.2-0.5-0.4-1.1-0.6-1.9c-0.2-0.8-0.2-1.7-0.2-2.7c0-1,0.1-1.9,0.2-2.7
			c0.2-0.8,0.3-1.4,0.6-1.9c0.2-0.5,0.5-0.9,0.7-1.2s0.4-0.6,0.6-0.7c0.2-0.2,0.2-0.3,0.2-0.3c0-0.1-0.1-0.1-0.2-0.1h0h-0.2
			l-0.4,0.3c-0.9,0.8-1.5,1.8-1.9,3C18.6-24.2,18.4-23,18.4-21.7z"/>
	</g>
	<g>
		<path id="MJMATHI-74" d="M22.8-19.8c-0.1,0.1-0.1,0.1-0.1,0.1c0,0,0,0.1,0,0.2c0,0.1,0.1,0.2,0.1,0.2c0,0,0.1,0.1,0.1,0.1
			s0.3,0,0.7,0h0.7l0.3,1.1c0,0.1,0.1,0.2,0.1,0.4s0.1,0.3,0.1,0.4c0,0.1,0.1,0.2,0.1,0.3c0,0.1,0.1,0.2,0.1,0.2
			c0,0,0.1,0.1,0.1,0.2c0,0.1,0.1,0.1,0.2,0.1s0.2,0,0.3,0c0.2,0,0.3-0.1,0.3-0.2c0.1-0.1,0.1-0.2,0.1-0.3c0-0.1,0-0.3-0.1-0.7
			s-0.2-0.7-0.3-1.1l-0.1-0.5c0,0,0.2,0,0.7,0H27c0.1-0.1,0.1-0.1,0.1-0.2c0-0.2-0.1-0.4-0.2-0.5h-1.5l-0.5-2
			c-0.4-1.5-0.5-2.3-0.5-2.4c0-0.4,0.1-0.6,0.4-0.6c0.3,0,0.6,0.2,0.9,0.5c0.3,0.3,0.6,0.7,0.7,1.2c0,0.1,0,0.1,0.1,0.1
			c0,0,0.1,0,0.2,0h0.1c0.1,0,0.2,0,0.2-0.1c0,0,0-0.1,0-0.2c0-0.1-0.1-0.3-0.3-0.5c-0.1-0.2-0.3-0.4-0.5-0.7
			c-0.2-0.2-0.4-0.4-0.7-0.6c-0.3-0.2-0.6-0.2-0.9-0.2c-0.3,0-0.5,0.1-0.8,0.2c-0.3,0.1-0.4,0.4-0.5,0.7c0,0.1,0,0.2,0,0.4v0.3
			l0.5,2c0.3,1.3,0.5,2,0.5,2c0,0-0.2,0-0.7,0H22.8z"/>
	</g>
	<g>
		<path id="MJMAIN-29" d="M28.3-14.8L28.3-14.8c0.1,0,0.1,0,0.2,0h0.2l0.4-0.3c0.9-0.8,1.5-1.8,1.9-3c0.4-1.2,0.6-2.4,0.6-3.7
			c0-0.6,0-1.2-0.1-1.8c-0.1-0.6-0.2-1.1-0.3-1.5s-0.3-0.8-0.5-1.2s-0.4-0.7-0.5-0.9c-0.1-0.2-0.3-0.5-0.6-0.7
			c-0.3-0.3-0.4-0.4-0.4-0.5c0,0-0.2-0.1-0.3-0.3c0,0,0,0-0.1-0.1h-0.2c-0.1,0-0.1,0-0.2,0s-0.1,0-0.1,0s0,0.1,0,0.1
			c0,0,0.1,0.1,0.2,0.2c1.4,1.5,2.2,3.7,2.2,6.6s-0.7,5.1-2.2,6.6c-0.1,0.1-0.1,0.2-0.2,0.2C28.3-14.9,28.3-14.8,28.3-14.8z"/>
	</g>
	<g>
		<path id="MJMAIN-3D" d="M37.6-20.4c0,0.1,0.1,0.2,0.2,0.3h8.9c0.1-0.1,0.2-0.2,0.2-0.3c0-0.1-0.1-0.2-0.2-0.3l-4.4,0h-4.4
			C37.7-20.6,37.6-20.5,37.6-20.4z M37.6-23.1c0,0.1,0.1,0.2,0.2,0.3h8.9c0.1-0.1,0.2-0.2,0.2-0.3c0-0.1-0.1-0.2-0.2-0.3h-8.9
			C37.7-23.3,37.6-23.2,37.6-23.1z"/>
	</g>
	<g transform="translate(3697,0)">
		<g>
			<path id="MJSZ3-28" d="M-3635.7-38.3c0,0,0-0.1-0.1-0.1h-0.4c0,0-0.1,0.1-0.4,0.4c-0.2,0.2-0.5,0.4-0.6,0.6s-0.4,0.5-0.8,0.9
				s-0.6,0.8-0.9,1.1c-0.3,0.4-0.5,0.8-0.9,1.4c-0.3,0.6-0.6,1.2-0.9,1.7c-0.2,0.6-0.5,1.3-0.8,2.1c-0.3,0.8-0.5,1.6-0.6,2.5
				s-0.3,1.8-0.4,2.8s-0.2,2.1-0.2,3.3c0,6.6,1.7,11.8,5.1,15.5c0.2,0.2,0.4,0.4,0.6,0.6c0.2,0.2,0.3,0.3,0.5,0.4
				c0.1,0.1,0.2,0.2,0.2,0.2h0.4c0.1-0.1,0.1-0.1,0.1-0.1c0,0-0.1-0.2-0.3-0.4c-0.2-0.2-0.4-0.5-0.7-0.8c-0.3-0.4-0.6-0.8-1-1.3
				s-0.7-1.2-1.1-2c-0.4-0.8-0.7-1.7-1.1-2.7c-0.3-1-0.6-2.1-0.8-3.5s-0.4-2.8-0.4-4.4c0-0.4,0-0.9,0-1.5c0-3.6,0.4-6.8,1.3-9.5
				c0.9-2.7,2.2-5,4-6.9C-3635.8-38.2-3635.7-38.3-3635.7-38.3z"/>
		</g>
		<g transform="translate(736,0)">
			<g transform="translate(120,0)">
				<rect x="-4489.5" y="-21.3" width="9.7" height="-0.8"/>
				<g>
					<path id="MJMAIN-32" d="M-4486.7-9.8c-0.3,0-0.5,0.1-0.6,0.3c-0.1,0.2-0.2,0.4-0.2,0.6c0,0.7,0.2,1.2,0.7,1.7
						c0.5,0.5,1.1,0.7,1.8,0.7c0.8,0,1.6-0.3,2.1-0.8c0.6-0.5,0.9-1.2,0.9-2c0-0.4-0.1-0.8-0.3-1.1c-0.2-0.4-0.4-0.7-0.7-0.9
						c-0.3-0.3-0.6-0.6-1.1-1c-0.3-0.3-0.8-0.7-1.4-1.3l-0.8-0.8l1.1,0c1.5,0,2.2,0,2.3,0.1c0.1,0,0.2,0.4,0.3,1.2v0h0.6v0
						c0,0-0.1-0.5-0.2-1.3c-0.1-0.8-0.2-1.2-0.2-1.3v0h-5.2v0.3v0.2c0,0.1,0,0.1,0.1,0.2s0.2,0.2,0.4,0.5c0.3,0.3,0.5,0.6,0.7,0.8
						c0.1,0.1,0.2,0.3,0.5,0.5c0.2,0.3,0.4,0.4,0.5,0.5s0.2,0.2,0.4,0.5c0.2,0.2,0.3,0.4,0.4,0.5c0.1,0.1,0.2,0.2,0.3,0.4
						c0.1,0.2,0.2,0.3,0.3,0.4s0.1,0.3,0.2,0.4c0.1,0.1,0.1,0.3,0.2,0.4c0,0.1,0.1,0.3,0.1,0.4c0,0.1,0,0.3,0,0.5
						c0,0.6-0.2,1.1-0.5,1.5c-0.3,0.4-0.8,0.6-1.4,0.6c-0.3,0-0.6-0.1-0.8-0.2s-0.4-0.3-0.5-0.5s-0.1-0.2-0.1-0.3c0,0,0,0,0.1,0
						c0.2,0,0.3-0.1,0.5-0.2c0.2-0.1,0.3-0.3,0.3-0.6c0-0.2-0.1-0.4-0.2-0.6C-4486.2-9.7-4486.4-9.8-4486.7-9.8z"/>
				</g>
				<g>
					<path id="MJMATHI-3C0" d="M-4486.9-34.9c-0.3,0-0.5,0.2-0.5,0.5v0.2l0.2,0.4c0.7,1.5,1.2,2.7,1.5,3.8l0.1,0.3h-0.4
						c-0.4,0-0.6,0-0.8,0c-0.1,0-0.3-0.1-0.5-0.3c-0.1-0.1-0.2-0.1-0.3-0.3s-0.2-0.2-0.3-0.3c-0.1-0.1-0.1-0.1-0.1-0.2
						c0,0-0.1,0-0.2,0c-0.2,0-0.3,0-0.3,0.1c0,0.1,0.1,0.2,0.3,0.5c0.2,0.3,0.4,0.6,0.8,0.9c0.3,0.3,0.7,0.5,1,0.5
						c0.1,0,1.1,0,3.1,0c1.5,0,2.2,0,2.3,0c0.2-0.1,0.3-0.2,0.3-0.4c0-0.3-0.1-0.5-0.4-0.6c-0.1,0-0.4,0-1,0h-0.9l0-0.2
						c-0.1-0.7-0.2-1.2-0.2-1.7c0-0.5,0-0.9,0.1-1.3s0.2-0.7,0.3-0.9c0.1-0.2,0.1-0.3,0.1-0.4c0-0.2-0.1-0.3-0.2-0.4
						s-0.3-0.2-0.5-0.2c-0.1,0-0.2,0-0.3,0s-0.1,0.1-0.2,0.3c-0.1,0.2-0.2,0.5-0.2,0.8c0,0.1,0,0.3,0,0.6c0,0.5,0,0.9,0.1,1.5
						s0.2,0.9,0.3,1.3s0.1,0.5,0.1,0.6h-1.4l0-0.1c0,0-0.1-0.4-0.3-1.1c-0.2-0.7-0.4-1.5-0.6-2.2c-0.2-0.8-0.4-1.2-0.4-1.4
						C-4486.4-34.8-4486.6-34.9-4486.9-34.9z"/>
				</g>
			</g>
		</g>
		<g>
			<path id="MJSZ3-29" d="M-3621.7-5.2c0,0.1,0,0.1,0,0.1s0.1,0,0.2,0h0.1h0.2c0,0,0.1-0.1,0.4-0.4c0.2-0.2,0.5-0.4,0.6-0.6
				c0.2-0.2,0.4-0.5,0.8-0.9s0.6-0.8,0.9-1.1s0.5-0.8,0.9-1.4s0.6-1.2,0.9-1.7c0.2-0.6,0.5-1.3,0.8-2.1c0.3-0.8,0.5-1.6,0.6-2.5
				c0.1-0.8,0.3-1.8,0.4-2.8c0.1-1.1,0.2-2.2,0.2-3.3c0-1.1,0-2-0.1-2.8c-0.4-5.3-2.1-9.6-5-12.7c-0.2-0.2-0.4-0.4-0.6-0.6
				c-0.2-0.2-0.3-0.3-0.5-0.4c-0.1-0.1-0.2-0.2-0.2-0.2h-0.2c-0.1,0-0.2,0-0.2,0c0,0-0.1,0.1-0.1,0.1c0.5,0.5,1,1.1,1.5,1.7
				c2.7,3.6,4,8.5,4,14.8c0,1.9-0.1,3.6-0.4,5.3c-0.2,1.6-0.5,3-0.9,4.1s-0.8,2.1-1.3,3.1s-1,1.7-1.4,2.3c-0.4,0.5-0.9,1.1-1.4,1.6
				c0,0,0,0-0.1,0.1C-3621.6-5.3-3621.7-5.3-3621.7-5.2C-3621.7-5.2-3621.7-5.2-3621.7-5.2L-3621.7-5.2z"/>
		</g>
		<g transform="translate(2406,1177)">
			<g transform="scale(0.707)">
				<path id="MJMAIN-33" d="M-6016.7-1181.2c-0.2,0-0.3,0.1-0.4,0.2s-0.2,0.3-0.2,0.4c0,0.4,0.2,0.7,0.5,1c0.3,0.3,0.7,0.4,1.1,0.4
					c0.2,0,0.4,0,0.4,0c0.5-0.1,0.9-0.3,1.1-0.5c0.3-0.3,0.4-0.6,0.4-0.9c0-0.3-0.1-0.7-0.3-1c-0.2-0.3-0.5-0.6-0.9-0.7l0,0
					c0,0,0,0,0.1,0c0.1,0,0.2,0,0.3-0.1s0.3-0.1,0.4-0.2c0.5-0.3,0.8-0.8,0.8-1.4c0-0.5-0.2-1-0.6-1.4c-0.4-0.4-0.9-0.6-1.5-0.6
					c-0.5,0-1,0.1-1.4,0.4c-0.4,0.3-0.6,0.6-0.6,1.1c0,0.2,0.1,0.3,0.2,0.4c0.1,0.1,0.3,0.2,0.4,0.2c0.2,0,0.3-0.1,0.5-0.2
					c0.1-0.1,0.2-0.3,0.2-0.4c0-0.1,0-0.1,0-0.2c0-0.1,0-0.1-0.1-0.2c0,0-0.1-0.1-0.1-0.1s-0.1-0.1-0.1-0.1s-0.1,0-0.1,0
					s-0.1,0-0.1,0l0,0c0.3-0.3,0.7-0.4,1.2-0.4c0.4,0,0.6,0.2,0.8,0.5c0.1,0.2,0.2,0.5,0.2,1v0.2c0,0.6-0.2,1-0.6,1.3
					c-0.1,0-0.3,0.1-0.6,0.1l-0.4,0l0,0c0,0,0,0.1,0,0.2c0,0.1,0,0.2,0.1,0.2c0.2,0,0.4,0,0.6,0c0.2,0,0.4,0.2,0.6,0.4
					c0.2,0.2,0.3,0.6,0.3,1.1v0.1c0,0.4-0.1,0.6-0.3,0.8c-0.1,0.1-0.3,0.1-0.5,0.1c-0.2,0-0.4,0-0.6-0.1s-0.3-0.1-0.4-0.2
					s-0.1-0.1-0.1-0.1h0c0,0,0,0,0.1,0s0.1,0,0.1,0c0,0,0.1,0,0.1-0.1c0,0,0.1-0.1,0.1-0.1c0-0.1,0-0.1,0.1-0.1c0,0,0-0.1,0-0.2
					c0-0.1,0-0.3-0.1-0.4C-6016.3-1181.2-6016.5-1181.2-6016.7-1181.2z"/>
			</g>
			<g transform="scale(0.707)">
				<path id="MJMAIN-2F" d="M-6008.9-1178.4c0.1,0,0.1,0,0.1-0.1c0,0,0.1-0.1,0.1-0.1c0,0-0.6-1.6-1.7-4.7s-1.7-4.7-1.8-4.8
					c0-0.1-0.1-0.1-0.2-0.1c0,0-0.1,0-0.1,0s-0.1,0.1-0.1,0.1c0,0.1,0.6,1.7,1.7,4.8c1.1,3.1,1.7,4.7,1.7,4.8
					C-6009-1178.5-6008.9-1178.4-6008.9-1178.4z"/>
			</g>
			<g transform="scale(0.707)">
				<path id="MJMAIN-32_1_" d="M-6007-1181.6c-0.2,0-0.3,0.1-0.4,0.2c-0.1,0.1-0.2,0.3-0.2,0.4c0,0.5,0.2,0.9,0.5,1.2
					c0.3,0.3,0.8,0.5,1.3,0.5c0.6,0,1.1-0.2,1.5-0.6c0.4-0.4,0.6-0.8,0.6-1.4c0-0.3-0.1-0.6-0.2-0.8c-0.1-0.3-0.3-0.5-0.5-0.7
					c-0.2-0.2-0.4-0.4-0.8-0.7c-0.2-0.2-0.6-0.5-1-0.9l-0.6-0.6l0.7,0c1,0,1.6,0,1.6,0c0,0,0.1,0.3,0.2,0.9v0h0.4v0
					c0,0,0-0.3-0.1-0.9c-0.1-0.6-0.1-0.9-0.1-0.9v0h-3.7v0.2v0.1c0,0,0,0.1,0.1,0.1c0,0.1,0.1,0.2,0.3,0.3c0.2,0.2,0.4,0.4,0.5,0.6
					c0.1,0.1,0.2,0.2,0.3,0.4c0.2,0.2,0.3,0.3,0.3,0.4s0.2,0.2,0.3,0.3c0.1,0.2,0.2,0.3,0.3,0.3c0.1,0.1,0.1,0.2,0.2,0.3
					c0.1,0.1,0.2,0.2,0.2,0.3c0,0.1,0.1,0.2,0.1,0.3c0.1,0.1,0.1,0.2,0.1,0.3c0,0.1,0,0.2,0.1,0.3c0,0.1,0,0.2,0,0.3
					c0,0.4-0.1,0.8-0.3,1.1c-0.2,0.3-0.5,0.5-1,0.5c-0.2,0-0.4-0.1-0.6-0.2s-0.3-0.2-0.3-0.3c-0.1-0.1-0.1-0.2-0.1-0.2c0,0,0,0,0,0
					c0.1,0,0.2,0,0.4-0.1c0.1-0.1,0.2-0.2,0.2-0.5c0-0.2-0.1-0.3-0.2-0.4C-6006.7-1181.5-6006.8-1181.6-6007-1181.6z"/>
			</g>
		</g>
	</g>
	<g transform="translate(7432,0)">
		<g>
			<path id="MJMAIN-63" d="M-7323.3-21c0,0-0.1,0-0.3,0c-0.2,0-0.4,0.1-0.5,0.2c-0.1,0.1-0.2,0.3-0.2,0.5c0,0.2,0.1,0.4,0.2,0.5
				c0,0,0.1,0.1,0.1,0.1c0,0,0,0-0.1,0c-0.2,0-0.5,0.1-0.7,0.1c-0.5,0-0.8-0.1-1.1-0.4c-0.4-0.4-0.7-1.2-0.7-2.2
				c0-0.8,0.1-1.4,0.4-1.8c0.4-0.6,0.9-0.9,1.5-0.9c0.4,0,0.7,0.1,0.9,0.4c0.2,0.2,0.4,0.5,0.5,0.9c0,0.1,0,0.1,0.1,0.1s0.1,0,0.2,0
				h0.2c0.1-0.1,0.1-0.1,0.1-0.1c0,0,0-0.1-0.1-0.2c0-0.1-0.1-0.3-0.2-0.5c-0.1-0.2-0.2-0.4-0.4-0.5c-0.2-0.2-0.4-0.3-0.7-0.4
				c-0.3-0.1-0.6-0.2-1-0.2c-0.8,0-1.5,0.3-2.1,0.9c-0.6,0.6-0.9,1.3-0.9,2.2c0,1,0.3,1.8,0.9,2.4c0.6,0.6,1.3,0.9,2.1,0.9
				s1.4-0.1,1.7-0.4c0.3-0.3,0.5-0.5,0.5-0.9c0-0.2-0.1-0.4-0.2-0.5L-7323.3-21z"/>
		</g>
		<g>
			<path id="MJMAIN-6F" d="M-7321.9-22.2c0,0.9,0.3,1.6,0.9,2.3c0.6,0.6,1.3,1,2.2,1c0.8,0,1.6-0.3,2.2-0.9c0.6-0.6,0.9-1.4,0.9-2.3
				c0-0.9-0.3-1.6-0.9-2.2c-0.6-0.6-1.3-0.9-2.2-0.9c-0.9,0-1.6,0.3-2.2,0.9C-7321.6-23.8-7321.8-23.1-7321.9-22.2z M-7318.8-24.8
				c1.1,0,1.7,0.8,1.7,2.3v0.4v0.3c0,0.2,0,0.4,0,0.5s0,0.3-0.1,0.5s-0.1,0.4-0.2,0.5c-0.1,0.1-0.2,0.3-0.4,0.4s-0.4,0.2-0.7,0.3
				c0,0-0.1,0-0.2,0c-0.3,0-0.5-0.1-0.8-0.2c-0.4-0.2-0.7-0.5-0.8-0.9c-0.1-0.4-0.2-0.8-0.2-1.3v-0.3c0-0.9,0.1-1.5,0.3-1.9
				C-7319.9-24.5-7319.4-24.8-7318.8-24.8z"/>
		</g>
		<g>
			<path id="MJMAIN-73" d="M-7311.2-20.8c0,0.4-0.1,0.7-0.4,1c-0.3,0.3-0.6,0.4-1.1,0.4c-0.3,0-0.6-0.1-0.9-0.2
				c-0.3-0.2-0.4-0.4-0.4-0.7c0,0,0-0.1,0-0.2c0-0.1,0.1-0.2,0.2-0.3c0.1-0.1,0.3-0.3,0.6-0.3c0.2,0,0.4-0.1,0.6-0.1
				c0.2,0,0.4-0.1,0.6-0.1s0.3-0.1,0.4-0.2c0.2-0.1,0.3-0.2,0.5-0.3c0.1-0.1,0.3-0.3,0.4-0.6c0.1-0.3,0.2-0.6,0.2-0.9
				c0-0.6-0.2-1-0.5-1.4s-0.9-0.6-1.7-0.6h-0.1c-0.5,0-0.9,0.2-1.3,0.5l-0.1-0.1l-0.1-0.1c-0.1-0.1-0.1-0.1-0.2-0.2l-0.2-0.1h-0.1
				h-0.1c0,0-0.1,0-0.1,0.1v1.1v0.8c0,0.2,0,0.3,0,0.3c0,0,0.1,0.1,0.1,0.1h0.1c0.1,0,0.2,0,0.2-0.1c0,0,0.1-0.1,0.1-0.2
				c0-0.1,0-0.2,0.1-0.4c0.1-0.2,0.1-0.4,0.3-0.6c0.3-0.5,0.8-0.7,1.4-0.7c0.9,0,1.4,0.4,1.4,1.1c0,0.3-0.1,0.5-0.3,0.7
				c-0.2,0.2-0.6,0.4-1.2,0.5c-0.6,0.1-1,0.2-1.2,0.3c-0.3,0.2-0.6,0.4-0.8,0.6c-0.2,0.3-0.3,0.6-0.3,0.9c0,0.4,0.1,0.7,0.2,0.9
				s0.4,0.4,0.6,0.6s0.5,0.2,0.7,0.3s0.4,0.1,0.6,0.1h0.2c0.4,0,0.7-0.1,1-0.2l0.2-0.1l0.1,0.1c0.1,0.1,0.2,0.2,0.3,0.2h0.1h0.1
				c0,0,0.1,0,0.1-0.1v-1.8l-0.1-0.1h-0.4C-7311.1-20.9-7311.2-20.9-7311.2-20.8z"/>
		</g>
		<g transform="scale(0.707)">
			<path id="MJMAIN-32_2_" d="M-7308.7-15.2c-0.2,0-0.3,0.1-0.4,0.2c-0.1,0.1-0.2,0.3-0.2,0.4c0,0.5,0.2,0.9,0.5,1.2
				s0.8,0.5,1.3,0.5c0.6,0,1.1-0.2,1.5-0.6c0.4-0.4,0.6-0.8,0.6-1.4c0-0.3-0.1-0.6-0.2-0.8s-0.3-0.5-0.5-0.7
				c-0.2-0.2-0.4-0.4-0.8-0.7c-0.2-0.2-0.6-0.5-1-0.9l-0.6-0.6l0.7,0c1,0,1.6,0,1.6,0c0,0,0.1,0.3,0.2,0.9v0h0.4v0
				c0,0,0-0.3-0.1-0.9c-0.1-0.6-0.1-0.9-0.1-0.9v0h-3.7v0.2v0.1c0,0,0,0.1,0.1,0.1c0,0.1,0.1,0.2,0.3,0.3c0.2,0.2,0.4,0.4,0.5,0.6
				c0.1,0.1,0.2,0.2,0.3,0.4s0.3,0.3,0.3,0.4s0.2,0.2,0.3,0.3s0.2,0.3,0.3,0.3c0.1,0.1,0.1,0.2,0.2,0.3s0.2,0.2,0.2,0.3
				c0,0.1,0.1,0.2,0.1,0.3s0.1,0.2,0.1,0.3c0,0.1,0,0.2,0.1,0.3c0,0.1,0,0.2,0,0.3c0,0.4-0.1,0.8-0.3,1.1c-0.2,0.3-0.5,0.5-1,0.5
				c-0.2,0-0.4-0.1-0.6-0.2s-0.3-0.2-0.3-0.3c-0.1-0.1-0.1-0.2-0.1-0.2c0,0,0,0,0,0c0.1,0,0.2,0,0.4-0.1c0.1-0.1,0.2-0.2,0.2-0.5
				c0-0.2-0.1-0.3-0.2-0.4S-7308.5-15.2-7308.7-15.2z"/>
		</g>
	</g>
	<g transform="translate(9225,0)">
		<g>
			<path id="MJSZ2-28" d="M-9093.9-23.9c0,0,0,0.7,0,2.1c0,1.4,0.1,2.8,0.3,4.1c0.2,1.3,0.5,2.3,0.9,3.2c0.3,0.9,0.7,1.7,1.2,2.4
				c0.5,0.8,0.9,1.3,1.3,1.7c0.4,0.4,0.8,0.8,1.2,1.1h0.4c0.1-0.1,0.1-0.1,0.1-0.1c0,0-0.1-0.1-0.2-0.3c-0.1-0.2-0.3-0.4-0.6-0.7
				c-0.2-0.3-0.5-0.6-0.8-1.1c-0.3-0.4-0.6-1-0.9-1.6s-0.5-1.4-0.8-2.2c-0.3-0.8-0.4-1.8-0.6-2.9c-0.1-1.1-0.2-2.4-0.2-3.7
				c0-1.1,0-2,0.1-2.7c0.1-1.3,0.3-2.6,0.6-3.7c0.3-1.1,0.6-2,1-2.7c0.4-0.7,0.7-1.3,1.1-1.8c0.3-0.5,0.6-0.8,0.9-1.1
				c0.2-0.2,0.3-0.4,0.3-0.4c0,0,0-0.1-0.1-0.1h-0.4c-0.4,0.3-0.8,0.7-1.2,1.1c-0.4,0.4-0.8,1-1.3,1.7c-0.5,0.8-0.9,1.6-1.2,2.4
				s-0.6,1.9-0.9,3.2L-9093.9-23.9z"/>
		</g>
		<g transform="translate(597,0)">
			<g transform="translate(120,0)">
				<rect x="-9803.5" y="-21.3" width="17.7" height="-0.8"/>
				<g transform="translate(60,676)">
					<g>
						<path id="MJMATHI-3C0_1_" d="M-9860.8-691.9c-0.3,0-0.5,0.2-0.5,0.5v0.2l0.2,0.4c0.7,1.5,1.2,2.7,1.5,3.8l0.1,0.3h-0.4
							c-0.4,0-0.6,0-0.8,0c-0.1,0-0.3-0.1-0.5-0.3c-0.1-0.1-0.2-0.1-0.3-0.3c-0.1-0.1-0.2-0.2-0.3-0.3s-0.1-0.1-0.1-0.2
							c0,0-0.1,0-0.2,0c-0.2,0-0.3,0-0.3,0.1c0,0.1,0.1,0.2,0.3,0.5c0.2,0.3,0.4,0.6,0.8,0.9c0.3,0.3,0.7,0.5,1,0.5
							c0.1,0,1.1,0,3.1,0c1.5,0,2.2,0,2.3,0c0.2-0.1,0.3-0.2,0.3-0.4c0-0.3-0.1-0.5-0.4-0.6c-0.1,0-0.4,0-1,0h-0.9l0-0.2
							c-0.1-0.7-0.2-1.2-0.2-1.7c0-0.5,0-0.9,0.1-1.3c0.1-0.4,0.2-0.7,0.3-0.9c0.1-0.2,0.1-0.3,0.1-0.4c0-0.2-0.1-0.3-0.2-0.4
							s-0.3-0.2-0.5-0.2c-0.1,0-0.2,0-0.3,0c-0.1,0-0.1,0.1-0.2,0.3c-0.1,0.2-0.2,0.5-0.2,0.8c0,0.1,0,0.3,0,0.6
							c0,0.5,0,0.9,0.1,1.5c0.1,0.5,0.2,0.9,0.3,1.3c0.1,0.3,0.1,0.5,0.1,0.6h-1.4l0-0.1c0,0-0.1-0.4-0.3-1.1
							c-0.2-0.7-0.4-1.5-0.6-2.2c-0.2-0.8-0.4-1.2-0.4-1.4C-9860.3-691.8-9860.5-691.9-9860.8-691.9z"/>
					</g>
					<g>
						<path id="MJMATHI-3BA_1_" d="M-9853.5-691.9c-0.1,0-0.2,0-0.3,0.1c-0.1,0.1-0.1,0.1-0.2,0.2c0,0,0,0.1,0,0.1
							c0,0.1,0.2,1,0.7,2.8c0.4,1.7,0.7,2.7,0.7,2.7c0.1,0.3,0.3,0.4,0.6,0.4c0.1,0,0.2,0,0.3-0.1s0.1-0.1,0.1-0.2
							c0-0.1,0-0.1,0-0.1c0-0.1-0.1-0.5-0.2-1l-0.2-0.9c0,0,0.1,0,0.2,0.1c0.1,0.1,0.3,0.1,0.4,0.2c0.2,0.1,0.5,0.4,1,0.8
							s0.9,0.7,1.3,0.9c0.3,0.2,0.7,0.3,1,0.3c0.2,0,0.4-0.1,0.5-0.2c0.1-0.1,0.2-0.2,0.2-0.4c0-0.2-0.1-0.4-0.3-0.6
							c-0.2-0.2-0.4-0.3-0.6-0.3c-0.2,0-0.3,0.1-0.4,0.2c-0.1,0.1-0.2,0.2-0.2,0.4c0,0,0,0.1,0,0.2l-0.1-0.1
							c-0.3-0.1-0.7-0.4-1.1-0.8l-0.9-0.7l-0.2-0.1h0.1c0.2,0,0.4,0,0.8-0.1c0.4-0.1,0.7-0.2,0.9-0.3c0.5-0.3,0.8-0.6,0.8-1.1
							c0-0.1,0-0.3-0.1-0.5c0-0.2-0.1-0.5-0.1-0.7c0-0.4,0.1-0.6,0.4-0.6c0.4,0,0.8,0.5,1.1,1.5c0,0.1,0.1,0.2,0.1,0.2
							c0,0,0.1,0,0.2,0c0.2,0,0.3,0,0.3-0.1c0-0.2-0.1-0.6-0.4-1.1c-0.3-0.5-0.6-0.9-1-1c-0.1,0-0.2,0-0.4,0c-0.4,0-0.7,0.1-1,0.4
							c-0.2,0.3-0.4,0.6-0.4,1c0,0.2,0,0.3,0,0.4c0,0.1,0,0.2,0,0.3c0,0.2-0.1,0.4-0.3,0.6c-0.2,0.1-0.4,0.3-0.7,0.3
							c-0.3,0.1-0.5,0.1-0.7,0.1c-0.2,0-0.3,0-0.5,0h-0.1l-0.3-1.4c-0.2-0.9-0.4-1.4-0.4-1.5C-9853-691.8-9853.2-691.9-9853.5-691.9
							z"/>
					</g>
				</g>
				<g>
					<path id="MJMAIN-32_3_" d="M-9796.6-28.8c-0.3,0-0.5,0.1-0.6,0.3c-0.1,0.2-0.2,0.4-0.2,0.6c0,0.7,0.2,1.2,0.7,1.7
						c0.5,0.5,1.1,0.7,1.8,0.7c0.8,0,1.6-0.3,2.1-0.8c0.6-0.5,0.9-1.2,0.9-2c0-0.4-0.1-0.8-0.3-1.1c-0.2-0.4-0.4-0.7-0.7-0.9
						c-0.3-0.3-0.6-0.6-1.1-1c-0.3-0.3-0.8-0.7-1.4-1.3l-0.8-0.8l1.1,0c1.5,0,2.2,0,2.3,0.1c0.1,0,0.2,0.4,0.3,1.2v0h0.6v0
						c0,0-0.1-0.5-0.2-1.3s-0.2-1.2-0.2-1.3v0h-5.2v0.3v0.2c0,0.1,0,0.1,0.1,0.2s0.2,0.2,0.4,0.5c0.3,0.3,0.5,0.6,0.7,0.8
						c0.1,0.1,0.2,0.3,0.5,0.5c0.2,0.3,0.4,0.4,0.5,0.5c0.1,0.1,0.2,0.2,0.4,0.5c0.2,0.2,0.3,0.4,0.4,0.5s0.2,0.2,0.3,0.4
						s0.2,0.3,0.3,0.4s0.1,0.3,0.2,0.4c0.1,0.1,0.1,0.3,0.2,0.4c0,0.1,0.1,0.3,0.1,0.4c0,0.1,0,0.3,0,0.5c0,0.6-0.2,1.1-0.5,1.5
						c-0.3,0.4-0.8,0.6-1.4,0.6c-0.3,0-0.6-0.1-0.8-0.2c-0.2-0.2-0.4-0.3-0.5-0.5s-0.1-0.2-0.1-0.3c0,0,0,0,0.1,0
						c0.2,0,0.3-0.1,0.5-0.2c0.2-0.1,0.3-0.3,0.3-0.6c0-0.2-0.1-0.4-0.2-0.6C-9796.1-28.7-9796.3-28.8-9796.6-28.8z"/>
				</g>
			</g>
		</g>
		<g>
			<path id="MJSZ2-29" d="M-9066.6-9.4c0,0.1,0.1,0.2,0.2,0.2h0.1h0.2c0.4-0.3,0.8-0.7,1.2-1.1c0.4-0.4,0.8-1,1.3-1.7
				s0.9-1.6,1.2-2.4s0.6-1.9,0.9-3.2c0.2-1.3,0.3-2.6,0.3-4.1c0-1.4-0.1-2.8-0.3-4c-0.2-1.3-0.5-2.3-0.9-3.2s-0.7-1.7-1.2-2.4
				c-0.5-0.7-0.9-1.3-1.3-1.7s-0.7-0.8-1.2-1.1h-0.2c-0.1,0-0.2,0-0.2,0s-0.1,0.1-0.1,0.1c0.3,0.3,0.6,0.7,1,1.2
				c1.6,2.2,2.6,5,2.9,8.4c0.1,0.7,0.1,1.6,0.1,2.7c0,1.1,0,2-0.1,2.7c-0.4,4-1.6,7.2-3.7,9.4C-9066.5-9.4-9066.6-9.4-9066.6-9.4z"
				/>
		</g>
	</g>
	<g transform="translate(11930,0)">
		<g transform="translate(120,0)">
			<rect x="-11882.1" y="-21.3" width="64.1" height="-0.8"/>
			<g>
				<path id="MJMAIN-31" d="M-11850.6-7.7l-0.2-0.1c-0.1,0-0.3-0.1-0.6-0.1c-0.2,0-0.5-0.1-0.8-0.1h-0.3v0.6h0.3
					c0.4,0,0.8,0.1,1.2,0.2c0.4,0.1,0.6,0.2,0.8,0.3c0.1,0.1,0.3,0.2,0.4,0.3c0,0,0.1,0,0.2,0c0.1,0,0.2,0,0.2-0.1v-4.2l0-4.2
					c0.1-0.1,0.1-0.1,0.2-0.1c0,0,0.2,0,0.3-0.1c0.2,0,0.5,0,0.9,0h0.4v-0.6h-0.2c-0.2,0-0.9,0-2.2,0c-1.3,0-2,0-2.2,0h-0.2v0.6h0.4
					c0.2,0,0.4,0,0.5,0s0.3,0,0.3,0s0.2,0,0.2,0c0.1,0,0.1,0,0.1,0c0,0,0,0,0.1,0.1c0,0,0.1,0.1,0.1,0.1V-7.7z"/>
			</g>
			<g transform="translate(60,-793)">
				<g>
					<path id="MJMAIN-28_1_" d="M-11939.9,760.2c0,0.6,0,1.2,0.1,1.8c0.1,0.6,0.2,1.1,0.3,1.5c0.1,0.4,0.3,0.8,0.5,1.2
						c0.2,0.4,0.4,0.7,0.5,0.9s0.3,0.5,0.6,0.7c0.3,0.3,0.4,0.4,0.5,0.5c0,0.1,0.2,0.2,0.3,0.3h0.2h0.1c0.1,0,0.2,0,0.2-0.1
						c0,0-0.1-0.1-0.2-0.3c-0.2-0.2-0.3-0.4-0.6-0.7c-0.2-0.3-0.5-0.7-0.7-1.2c-0.2-0.5-0.4-1.1-0.6-1.9c-0.2-0.8-0.2-1.7-0.2-2.7
						c0-1,0.1-1.9,0.2-2.7c0.2-0.8,0.3-1.4,0.6-1.9c0.2-0.5,0.5-0.9,0.7-1.2c0.2-0.3,0.4-0.6,0.6-0.7s0.2-0.3,0.2-0.3
						c0-0.1-0.1-0.1-0.2-0.1h0h-0.2l-0.4,0.3c-0.9,0.8-1.5,1.8-1.9,3S-11939.9,758.9-11939.9,760.2z"/>
				</g>
				<g>
					<path id="MJMAIN-31_1_" d="M-11932.9,764.8l-0.2-0.1c-0.1,0-0.3-0.1-0.6-0.1c-0.2,0-0.5-0.1-0.8-0.1h-0.3v0.6h0.3
						c0.4,0,0.8,0.1,1.2,0.2c0.4,0.1,0.6,0.2,0.8,0.3c0.1,0.1,0.3,0.2,0.4,0.3c0,0,0.1,0,0.2,0c0.1,0,0.2,0,0.2-0.1v-4.2l0-4.2
						c0.1-0.1,0.1-0.1,0.2-0.1c0,0,0.2,0,0.3-0.1c0.2,0,0.5,0,0.9,0h0.4v-0.6h-0.2c-0.2,0-0.9,0-2.2,0c-1.3,0-2,0-2.2,0h-0.2v0.6
						h0.4c0.2,0,0.4,0,0.5,0c0.1,0,0.3,0,0.3,0c0.1,0,0.2,0,0.2,0c0.1,0,0.1,0,0.1,0c0,0,0,0,0.1,0.1c0,0,0.1,0.1,0.1,0.1V764.8z"/>
				</g>
				<g>
					<path id="MJMAIN-2B" d="M-11925,760c0,0,0,0.1,0,0.2c0,0.1,0.1,0.2,0.2,0.3h4.2v2.1l0,2.1c0.1,0.1,0.2,0.2,0.3,0.2
						c0.1,0,0.2-0.1,0.3-0.2v-4.2h4.2c0.1-0.1,0.2-0.2,0.2-0.3c0-0.1-0.1-0.2-0.2-0.3h-4.2v-4.2c-0.1-0.1-0.2-0.2-0.3-0.2h0h0
						c-0.1,0-0.2,0.1-0.3,0.2v4.2h-4.2c-0.1,0.1-0.2,0.2-0.2,0.3V760z"/>
				</g>
				<g transform="translate(2112,0)">
					<g>
						<path id="MJMATHI-74_1_" d="M-14023.5,762.1c-0.1,0.1-0.1,0.1-0.1,0.1c0,0,0,0.1,0,0.2c0,0.1,0.1,0.2,0.1,0.2
							c0,0,0.1,0.1,0.1,0.1c0.1,0,0.3,0,0.7,0h0.7l0.3,1.1c0,0.1,0.1,0.2,0.1,0.4c0,0.2,0.1,0.3,0.1,0.4c0,0.1,0.1,0.2,0.1,0.3
							c0,0.1,0.1,0.2,0.1,0.2c0,0,0.1,0.1,0.1,0.2c0,0.1,0.1,0.1,0.2,0.1c0.1,0,0.2,0,0.3,0c0.2,0,0.3-0.1,0.3-0.2
							c0.1-0.1,0.1-0.2,0.1-0.3c0-0.1,0-0.3-0.1-0.7c-0.1-0.4-0.2-0.7-0.3-1.1l-0.1-0.5c0,0,0.2,0,0.7,0h0.7
							c0.1-0.1,0.1-0.1,0.1-0.2c0-0.2-0.1-0.4-0.2-0.5h-1.5l-0.5-2c-0.4-1.5-0.5-2.3-0.5-2.4c0-0.4,0.1-0.6,0.4-0.6
							c0.3,0,0.6,0.2,0.9,0.5s0.6,0.7,0.7,1.2c0,0.1,0,0.1,0.1,0.1s0.1,0,0.2,0h0.1c0.1,0,0.2,0,0.2-0.1c0,0,0-0.1,0-0.2
							c0-0.1-0.1-0.3-0.3-0.5c-0.1-0.2-0.3-0.4-0.5-0.7c-0.2-0.2-0.4-0.4-0.7-0.6c-0.3-0.2-0.6-0.2-0.9-0.2c-0.3,0-0.5,0.1-0.8,0.2
							s-0.4,0.4-0.5,0.7c0,0.1,0,0.2,0,0.4v0.3l0.5,2c0.3,1.3,0.5,2,0.5,2c0,0-0.2,0-0.7,0H-14023.5z"/>
					</g>
					<g transform="scale(0.707)">
						<path id="MJMAIN-32_4_" d="M-14017.7,765c-0.2,0-0.3,0.1-0.4,0.2c-0.1,0.1-0.2,0.3-0.2,0.4c0,0.5,0.2,0.9,0.5,1.2
							c0.3,0.3,0.8,0.5,1.3,0.5c0.6,0,1.1-0.2,1.5-0.6s0.6-0.8,0.6-1.4c0-0.3-0.1-0.6-0.2-0.8c-0.1-0.3-0.3-0.5-0.5-0.7
							c-0.2-0.2-0.4-0.4-0.8-0.7c-0.2-0.2-0.6-0.5-1-0.9l-0.6-0.6l0.7,0c1,0,1.6,0,1.6,0c0,0,0.1,0.3,0.2,0.9v0h0.4v0
							c0,0,0-0.3-0.1-0.9c-0.1-0.6-0.1-0.9-0.1-0.9v0h-3.7v0.2v0.1c0,0,0,0.1,0.1,0.1c0,0.1,0.1,0.2,0.3,0.3
							c0.2,0.2,0.4,0.4,0.5,0.6c0.1,0.1,0.2,0.2,0.3,0.4c0.2,0.2,0.3,0.3,0.3,0.4c0.1,0.1,0.2,0.2,0.3,0.3c0.1,0.2,0.2,0.3,0.3,0.3
							c0.1,0.1,0.1,0.2,0.2,0.3c0.1,0.1,0.2,0.2,0.2,0.3c0,0.1,0.1,0.2,0.1,0.3c0.1,0.1,0.1,0.2,0.1,0.3c0,0.1,0,0.2,0.1,0.3
							c0,0.1,0,0.2,0,0.3c0,0.4-0.1,0.8-0.3,1.1s-0.5,0.5-1,0.5c-0.2,0-0.4-0.1-0.6-0.2c-0.2-0.1-0.3-0.2-0.3-0.3s-0.1-0.2-0.1-0.2
							c0,0,0,0,0,0c0.1,0,0.2,0,0.4-0.1c0.1-0.1,0.2-0.2,0.2-0.5c0-0.2-0.1-0.3-0.2-0.4C-14017.4,765-14017.5,765-14017.7,765z"/>
					</g>
				</g>
				<g transform="translate(2928,0)">
					<g>
						<path id="MJMAIN-29_1_" d="M-14827.6,767.2L-14827.6,767.2c0.1,0,0.1,0,0.2,0h0.2l0.4-0.3c0.9-0.8,1.5-1.8,1.9-3
							s0.6-2.4,0.6-3.7c0-0.6,0-1.2-0.1-1.8c-0.1-0.6-0.2-1.1-0.3-1.5c-0.1-0.4-0.3-0.8-0.5-1.2c-0.2-0.4-0.4-0.7-0.5-0.9
							c-0.1-0.2-0.3-0.5-0.6-0.7s-0.4-0.4-0.4-0.5c0,0-0.2-0.1-0.3-0.3c0,0,0,0-0.1-0.1h-0.2c-0.1,0-0.1,0-0.2,0c0,0-0.1,0-0.1,0
							c0,0,0,0.1,0,0.1c0,0,0.1,0.1,0.2,0.2c1.4,1.5,2.2,3.7,2.2,6.6c0,2.9-0.7,5.1-2.2,6.6c-0.1,0.1-0.1,0.2-0.2,0.2
							C-14827.7,767.1-14827.7,767.1-14827.6,767.2z"/>
					</g>
					<g transform="translate(389,288)">
						<g transform="scale(0.707)">
							<path id="MJMAIN-33_1_" d="M-15210.8,477.3c-0.2,0-0.3,0.1-0.4,0.2c-0.1,0.1-0.2,0.3-0.2,0.4c0,0.4,0.2,0.7,0.5,1
								c0.3,0.3,0.7,0.4,1.1,0.4c0.2,0,0.4,0,0.4,0c0.5-0.1,0.9-0.3,1.1-0.5c0.3-0.3,0.4-0.6,0.4-0.9c0-0.3-0.1-0.7-0.3-1
								c-0.2-0.3-0.5-0.6-0.9-0.7l0,0c0,0,0,0,0.1,0c0.1,0,0.2,0,0.3-0.1c0.1,0,0.3-0.1,0.4-0.2c0.5-0.3,0.8-0.8,0.8-1.4
								c0-0.5-0.2-1-0.6-1.4c-0.4-0.4-0.9-0.6-1.5-0.6c-0.5,0-1,0.1-1.4,0.4c-0.4,0.3-0.6,0.6-0.6,1.1c0,0.2,0.1,0.3,0.2,0.4
								c0.1,0.1,0.3,0.2,0.4,0.2c0.2,0,0.3-0.1,0.5-0.2c0.1-0.1,0.2-0.3,0.2-0.4c0-0.1,0-0.1,0-0.2c0-0.1,0-0.1-0.1-0.2
								c0,0-0.1-0.1-0.1-0.1s-0.1-0.1-0.1-0.1c0,0-0.1,0-0.1,0s-0.1,0-0.1,0l0,0c0.3-0.3,0.7-0.4,1.2-0.4c0.4,0,0.6,0.2,0.8,0.5
								c0.1,0.2,0.2,0.5,0.2,1v0.2c0,0.6-0.2,1-0.6,1.3c-0.1,0-0.3,0.1-0.6,0.1l-0.4,0l0,0c0,0,0,0.1,0,0.2c0,0.1,0,0.2,0.1,0.2
								c0.2,0,0.4,0,0.6,0c0.2,0,0.4,0.2,0.6,0.4c0.2,0.2,0.3,0.6,0.3,1.1v0.1c0,0.4-0.1,0.6-0.3,0.8c-0.1,0.1-0.3,0.1-0.5,0.1
								c-0.2,0-0.4,0-0.6-0.1c-0.2-0.1-0.3-0.1-0.4-0.2s-0.1-0.1-0.1-0.1h0c0,0,0,0,0.1,0c0,0,0.1,0,0.1,0c0,0,0.1,0,0.1-0.1
								c0,0,0.1-0.1,0.1-0.1c0-0.1,0-0.1,0.1-0.1c0,0,0-0.1,0-0.2c0-0.1,0-0.3-0.1-0.4C-15210.4,477.4-15210.6,477.3-15210.8,477.3z
								"/>
						</g>
						<g transform="scale(0.707)">
							<path id="MJMAIN-2F_1_" d="M-15202.9,480.1c0.1,0,0.1,0,0.1-0.1c0,0,0.1-0.1,0.1-0.1c0,0-0.6-1.6-1.7-4.7
								c-1.1-3.1-1.7-4.7-1.8-4.8c0-0.1-0.1-0.1-0.2-0.1c0,0-0.1,0-0.1,0c0,0-0.1,0.1-0.1,0.1c0,0.1,0.6,1.7,1.7,4.8
								c1.1,3.1,1.7,4.7,1.7,4.8C-15203.1,480.1-15203,480.1-15202.9,480.1z"/>
						</g>
						<g transform="scale(0.707)">
							<path id="MJMAIN-32_5_" d="M-15201.1,477c-0.2,0-0.3,0.1-0.4,0.2s-0.2,0.3-0.2,0.4c0,0.5,0.2,0.9,0.5,1.2
								c0.3,0.3,0.8,0.5,1.3,0.5c0.6,0,1.1-0.2,1.5-0.6c0.4-0.4,0.6-0.8,0.6-1.4c0-0.3-0.1-0.6-0.2-0.8c-0.1-0.3-0.3-0.5-0.5-0.7
								s-0.4-0.4-0.8-0.7c-0.2-0.2-0.6-0.5-1-0.9l-0.6-0.6l0.7,0c1,0,1.6,0,1.6,0c0,0,0.1,0.3,0.2,0.9v0h0.4v0c0,0,0-0.3-0.1-0.9
								c-0.1-0.6-0.1-0.9-0.1-0.9v0h-3.7v0.2v0.1c0,0,0,0.1,0.1,0.1c0,0.1,0.1,0.2,0.3,0.3c0.2,0.2,0.4,0.4,0.5,0.6
								c0.1,0.1,0.2,0.2,0.3,0.4s0.3,0.3,0.3,0.4c0.1,0.1,0.2,0.2,0.3,0.3c0.1,0.2,0.2,0.3,0.3,0.3c0.1,0.1,0.1,0.2,0.2,0.3
								c0.1,0.1,0.2,0.2,0.2,0.3c0,0.1,0.1,0.2,0.1,0.3c0.1,0.1,0.1,0.2,0.1,0.3c0,0.1,0,0.2,0.1,0.3s0,0.2,0,0.3
								c0,0.4-0.1,0.8-0.3,1.1c-0.2,0.3-0.5,0.5-1,0.5c-0.2,0-0.4-0.1-0.6-0.2c-0.2-0.1-0.3-0.2-0.3-0.3c-0.1-0.1-0.1-0.2-0.1-0.2
								c0,0,0,0,0,0c0.1,0,0.2,0,0.4-0.1c0.1-0.1,0.2-0.2,0.2-0.5c0-0.2-0.1-0.3-0.2-0.4C-15200.7,477-15200.9,477-15201.1,477z"/>
						</g>
					</g>
				</g>
			</g>
		</g>
	</g>
</g>
</svg>
