<?xml version="1.0" encoding="utf-8"?>
<!-- Generator: Adobe Illustrator 22.1.0, SVG Export Plug-In . SVG Version: 6.00 Build 0)  -->
<svg version="1.1" id="Layer_1" focusable="false" xmlns="http://www.w3.org/2000/svg" xmlns:xlink="http://www.w3.org/1999/xlink"
	 x="0px" y="0px" viewBox="0 0 39.9 36.4" style="enable-background:new 0 0 39.9 36.4;" xml:space="preserve">
<g transform="matrix(1 0 0 -1 0 0)">
	<g transform="translate(120,0)">
		<rect x="-118.3" y="-17.6" width="36.5" height="-0.8"/>
		<g transform="translate(129,723)">
			<g>
				<path id="MJMATHI-43" d="M-244.8-730.9c0,1.1,0.3,2.1,0.9,3.1s1.4,1.8,2.4,2.3c0.9,0.6,1.9,0.9,2.8,0.9c0.8,0,1.5-0.2,2-0.7
					c0.1-0.1,0.2-0.2,0.2-0.2c0.1-0.1,0.1-0.1,0.1-0.1l0,0c0,0,0.2,0.1,0.4,0.4c0.1,0.1,0.1,0.1,0.2,0.2s0.1,0.1,0.2,0.2
					c0.1,0.1,0.1,0.1,0.1,0.2l0.2,0.2h0.1c0.1,0,0.2,0,0.2-0.1c0,0-0.1-0.7-0.4-1.9c-0.3-1.3-0.5-1.9-0.5-2c0,0,0-0.1-0.1-0.1
					c0,0-0.1,0-0.3,0h-0.2c-0.1,0.1-0.1,0.1-0.1,0.1c0,0,0,0,0,0.1c0,0.1,0,0.1,0,0.3c0,0.1,0,0.3,0,0.4c0,0.7-0.1,1.2-0.4,1.7
					c-0.3,0.5-0.8,0.7-1.5,0.8c-0.2,0-0.5,0-0.8-0.1c-0.3-0.1-0.6-0.2-1-0.3c-0.4-0.2-0.8-0.4-1.2-0.8c-0.4-0.4-0.7-0.8-1-1.3
					c-0.3-0.5-0.5-1.1-0.7-1.9s-0.3-1.3-0.3-1.7c0-1.1,0.4-1.8,1.1-2.3c0.4-0.3,1-0.5,1.6-0.5c0.8,0,1.6,0.3,2.3,0.9
					c0.7,0.6,1.1,1.3,1.3,2.1c0,0.1,0.1,0.2,0.1,0.2c0,0,0.1,0,0.2,0c0.2,0,0.3,0,0.3-0.1c0,0,0-0.1,0-0.1c-0.3-1-0.8-1.8-1.7-2.6
					c-0.9-0.7-1.8-1.1-2.8-1.1c-1,0-1.9,0.3-2.7,1C-244.5-733-244.8-732.1-244.8-730.9z"/>
			</g>
			<g transform="scale(0.707)">
				<path id="MJMATHI-3BA" d="M-234.8-736.6c-0.1,0-0.2,0-0.2,0.1c-0.1,0-0.1,0.1-0.1,0.1c0,0,0,0.1,0,0.1c0,0.1,0.2,0.7,0.5,2
					c0.3,1.2,0.5,1.9,0.5,1.9c0.1,0.2,0.2,0.3,0.5,0.3c0.1,0,0.1,0,0.2-0.1s0.1-0.1,0.1-0.1c0,0,0-0.1,0-0.1c0-0.1-0.1-0.3-0.2-0.7
					l-0.2-0.7c0,0,0.1,0,0.2,0.1c0.1,0.1,0.2,0.1,0.3,0.1c0.1,0.1,0.3,0.3,0.7,0.6s0.7,0.5,0.9,0.6s0.5,0.2,0.7,0.2
					c0.1,0,0.3,0,0.3-0.1c0.1-0.1,0.1-0.2,0.1-0.3c0-0.2-0.1-0.3-0.2-0.4c-0.1-0.1-0.3-0.2-0.4-0.2c-0.1,0-0.2,0-0.3,0.1
					c-0.1,0.1-0.1,0.2-0.1,0.3c0,0,0,0.1,0,0.1l-0.1,0c-0.2-0.1-0.5-0.3-0.8-0.6l-0.6-0.5l-0.1-0.1h0c0.1,0,0.3,0,0.5-0.1
					c0.2,0,0.5-0.1,0.7-0.2c0.4-0.2,0.6-0.4,0.6-0.8c0-0.1,0-0.2,0-0.4s-0.1-0.3-0.1-0.5c0-0.3,0.1-0.4,0.3-0.4
					c0.3,0,0.6,0.4,0.7,1.1c0,0.1,0,0.1,0.1,0.1c0,0,0.1,0,0.2,0c0.1,0,0.2,0,0.2-0.1c0-0.2-0.1-0.4-0.3-0.8
					c-0.2-0.4-0.4-0.6-0.7-0.7c-0.1,0-0.2,0-0.3,0c-0.3,0-0.5,0.1-0.7,0.3c-0.2,0.2-0.3,0.4-0.3,0.7c0,0.1,0,0.2,0,0.3
					c0,0.1,0,0.2,0,0.2c0,0.2-0.1,0.3-0.2,0.4s-0.3,0.2-0.5,0.2c-0.2,0-0.4,0.1-0.5,0.1c-0.1,0-0.2,0-0.4,0h0l-0.2-1
					c-0.2-0.7-0.3-1-0.3-1C-234.4-736.6-234.6-736.6-234.8-736.6z"/>
			</g>
			<g>
				<path id="MJMAIN-28" d="M-227.2-731c0,0.6,0,1.2,0.1,1.8c0.1,0.6,0.2,1.1,0.3,1.5c0.1,0.4,0.3,0.8,0.5,1.2
					c0.2,0.4,0.4,0.7,0.5,0.9c0.1,0.2,0.3,0.5,0.6,0.7c0.3,0.3,0.4,0.4,0.5,0.5c0,0.1,0.2,0.2,0.3,0.3h0.2h0.1c0.1,0,0.2,0,0.2-0.1
					c0,0-0.1-0.1-0.2-0.3s-0.3-0.4-0.6-0.7c-0.2-0.3-0.5-0.7-0.7-1.2s-0.4-1.1-0.6-1.9s-0.2-1.7-0.2-2.7c0-1,0.1-1.9,0.2-2.7
					s0.3-1.4,0.6-1.9c0.2-0.5,0.5-0.9,0.7-1.2c0.2-0.3,0.4-0.6,0.6-0.7c0.2-0.2,0.2-0.3,0.2-0.3c0-0.1-0.1-0.1-0.2-0.1h0h-0.2
					l-0.4,0.3c-0.9,0.8-1.5,1.8-1.9,3S-227.2-732.2-227.2-731z"/>
			</g>
			<g>
				<path id="MJMATHI-74" d="M-222.7-729.1c-0.1,0.1-0.1,0.1-0.1,0.1c0,0,0,0.1,0,0.2c0,0.1,0.1,0.2,0.1,0.2c0,0,0.1,0.1,0.1,0.1
					s0.3,0,0.7,0h0.7l0.3,1.1c0,0.1,0.1,0.2,0.1,0.4c0,0.2,0.1,0.3,0.1,0.4c0,0.1,0.1,0.2,0.1,0.3c0,0.1,0.1,0.2,0.1,0.2
					c0,0,0.1,0.1,0.1,0.2c0,0.1,0.1,0.1,0.2,0.1s0.2,0,0.3,0c0.2,0,0.3-0.1,0.3-0.2s0.1-0.2,0.1-0.3c0-0.1,0-0.3-0.1-0.7
					s-0.2-0.7-0.3-1.1l-0.1-0.5c0,0,0.2,0,0.7,0h0.7c0.1-0.1,0.1-0.1,0.1-0.2c0-0.2-0.1-0.4-0.2-0.5h-1.5l-0.5-2
					c-0.4-1.5-0.5-2.3-0.5-2.4c0-0.4,0.1-0.6,0.4-0.6c0.3,0,0.6,0.2,0.9,0.5c0.3,0.3,0.6,0.7,0.7,1.2c0,0.1,0,0.1,0.1,0.1
					c0,0,0.1,0,0.2,0h0.1c0.1,0,0.2,0,0.2-0.1c0,0,0-0.1,0-0.2c0-0.1-0.1-0.3-0.3-0.5s-0.3-0.4-0.5-0.7c-0.2-0.2-0.4-0.4-0.7-0.6
					c-0.3-0.2-0.6-0.2-0.9-0.2c-0.3,0-0.5,0.1-0.8,0.2c-0.3,0.1-0.4,0.4-0.5,0.7c0,0.1,0,0.2,0,0.4v0.3l0.5,2c0.3,1.3,0.5,2,0.5,2
					c0,0-0.2,0-0.7,0H-222.7z"/>
			</g>
			<g>
				<path id="MJMAIN-29" d="M-217.2-724L-217.2-724c0.1,0,0.1,0,0.2,0h0.2l0.4-0.3c0.9-0.8,1.5-1.8,1.9-3s0.6-2.4,0.6-3.7
					c0-0.6,0-1.2-0.1-1.8c-0.1-0.6-0.2-1.1-0.3-1.5c-0.1-0.4-0.3-0.8-0.5-1.2c-0.2-0.4-0.4-0.7-0.5-0.9s-0.3-0.5-0.6-0.7
					c-0.3-0.3-0.4-0.4-0.4-0.5c0,0-0.2-0.1-0.3-0.3c0,0,0,0-0.1-0.1h-0.2c-0.1,0-0.1,0-0.2,0s-0.1,0-0.1,0c0,0,0,0.1,0,0.1
					c0,0,0.1,0.1,0.2,0.2c1.4,1.5,2.2,3.7,2.2,6.6c0,2.9-0.7,5.1-2.2,6.6c-0.1,0.1-0.1,0.2-0.2,0.2
					C-217.3-724.1-217.2-724-217.2-724z"/>
			</g>
		</g>
		<g transform="translate(60,-724)">
			<g>
				<path id="MJMATHI-43_1_" d="M-176.8,695.9c0,1.1,0.3,2.1,0.9,3.1c0.6,1,1.4,1.8,2.4,2.3s1.9,0.9,2.8,0.9c0.8,0,1.5-0.2,2-0.7
					c0.1-0.1,0.2-0.2,0.2-0.2c0.1-0.1,0.1-0.1,0.1-0.1l0,0c0,0,0.2,0.1,0.4,0.4c0.1,0.1,0.1,0.1,0.2,0.2s0.1,0.1,0.2,0.2
					c0.1,0.1,0.1,0.1,0.1,0.2l0.2,0.2h0.1c0.1,0,0.2,0,0.2-0.1c0,0-0.1-0.7-0.4-1.9c-0.3-1.3-0.5-1.9-0.5-2c0,0,0-0.1-0.1-0.1
					s-0.1,0-0.3,0h-0.2c-0.1,0.1-0.1,0.1-0.1,0.1c0,0,0,0,0,0.1c0,0.1,0,0.1,0,0.3s0,0.3,0,0.4c0,0.7-0.1,1.2-0.4,1.7
					s-0.8,0.7-1.5,0.8c-0.2,0-0.5,0-0.8-0.1c-0.3-0.1-0.6-0.2-1-0.3c-0.4-0.2-0.8-0.4-1.2-0.8c-0.4-0.4-0.7-0.8-1-1.3
					c-0.3-0.5-0.5-1.1-0.7-1.9c-0.2-0.7-0.3-1.3-0.3-1.7c0-1.1,0.4-1.8,1.1-2.3c0.4-0.3,1-0.5,1.6-0.5c0.8,0,1.6,0.3,2.3,0.9
					c0.7,0.6,1.1,1.3,1.3,2.1c0,0.1,0.1,0.2,0.1,0.2c0,0,0.1,0,0.2,0c0.2,0,0.3,0,0.3-0.1c0,0,0-0.1,0-0.1c-0.3-1-0.8-1.8-1.7-2.6
					s-1.8-1.1-2.8-1.1c-1,0-1.9,0.3-2.7,1C-176.4,693.8-176.8,694.8-176.8,695.9z"/>
			</g>
			<g transform="scale(0.707)">
				<path id="MJMATHI-3BA_1_" d="M-166.7,690.2c-0.1,0-0.2,0-0.2,0.1c-0.1,0-0.1,0.1-0.1,0.1c0,0,0,0.1,0,0.1c0,0.1,0.2,0.7,0.5,2
					c0.3,1.2,0.5,1.9,0.5,1.9c0.1,0.2,0.2,0.3,0.5,0.3c0.1,0,0.1,0,0.2-0.1s0.1-0.1,0.1-0.1c0,0,0-0.1,0-0.1c0-0.1-0.1-0.3-0.2-0.7
					l-0.2-0.7c0,0,0.1,0,0.2,0.1s0.2,0.1,0.3,0.1c0.1,0.1,0.3,0.3,0.7,0.6s0.7,0.5,0.9,0.6c0.2,0.1,0.5,0.2,0.7,0.2
					c0.1,0,0.3,0,0.3-0.1c0.1-0.1,0.1-0.2,0.1-0.3c0-0.2-0.1-0.3-0.2-0.4c-0.1-0.1-0.3-0.2-0.4-0.2c-0.1,0-0.2,0-0.3,0.1
					c-0.1,0.1-0.1,0.2-0.1,0.3c0,0,0,0.1,0,0.1l-0.1,0c-0.2-0.1-0.5-0.3-0.8-0.6l-0.6-0.5l-0.1-0.1h0c0.1,0,0.3,0,0.5-0.1
					c0.2,0,0.5-0.1,0.7-0.2c0.4-0.2,0.6-0.4,0.6-0.8c0-0.1,0-0.2,0-0.4c0-0.2-0.1-0.3-0.1-0.5c0-0.3,0.1-0.4,0.3-0.4
					c0.3,0,0.6,0.4,0.7,1.1c0,0.1,0,0.1,0.1,0.1s0.1,0,0.2,0c0.1,0,0.2,0,0.2-0.1c0-0.2-0.1-0.4-0.3-0.8c-0.2-0.4-0.4-0.6-0.7-0.7
					c-0.1,0-0.2,0-0.3,0c-0.3,0-0.5,0.1-0.7,0.3c-0.2,0.2-0.3,0.4-0.3,0.7c0,0.1,0,0.2,0,0.3c0,0.1,0,0.2,0,0.2
					c0,0.2-0.1,0.3-0.2,0.4s-0.3,0.2-0.5,0.2c-0.2,0-0.4,0.1-0.5,0.1s-0.2,0-0.4,0h0l-0.2-1c-0.2-0.7-0.3-1-0.3-1
					C-166.4,690.3-166.5,690.2-166.7,690.2z"/>
			</g>
			<g>
				<path id="MJMAIN-28_1_" d="M-159.1,695.9c0,0.6,0,1.2,0.1,1.8s0.2,1.1,0.3,1.5c0.1,0.4,0.3,0.8,0.5,1.2c0.2,0.4,0.4,0.7,0.5,0.9
					c0.1,0.2,0.3,0.5,0.6,0.7c0.3,0.3,0.4,0.4,0.5,0.5c0,0.1,0.2,0.2,0.3,0.3h0.2h0.1c0.1,0,0.2,0,0.2-0.1c0,0-0.1-0.1-0.2-0.3
					s-0.3-0.4-0.6-0.7c-0.2-0.3-0.5-0.7-0.7-1.2s-0.4-1.1-0.6-1.9c-0.2-0.8-0.2-1.7-0.2-2.7c0-1,0.1-1.9,0.2-2.7s0.3-1.4,0.6-1.9
					s0.5-0.9,0.7-1.2c0.2-0.3,0.4-0.6,0.6-0.7s0.2-0.3,0.2-0.3c0-0.1-0.1-0.1-0.2-0.1h0h-0.2l-0.4,0.3c-0.9,0.8-1.5,1.8-1.9,3
					S-159.1,694.6-159.1,695.9z"/>
			</g>
			<g>
				<path id="MJMAIN-30" d="M-153.7,700.6c0.5,0.8,1.2,1.1,2.1,1.1c0.4,0,0.9-0.1,1.3-0.4c0.4-0.2,0.8-0.7,1.1-1.3
					c0.3-0.8,0.5-1.8,0.5-3.2c0-1.4-0.2-2.5-0.6-3.3c-0.2-0.4-0.4-0.7-0.8-0.9c-0.3-0.2-0.6-0.4-0.9-0.4c-0.2-0.1-0.5-0.1-0.7-0.1
					c-0.2,0-0.5,0-0.7,0.1c-0.2,0.1-0.5,0.2-0.9,0.4s-0.6,0.6-0.8,0.9c-0.4,0.8-0.6,1.9-0.6,3.3
					C-154.5,698.5-154.2,699.7-153.7,700.6z M-150.6,700.7c-0.3,0.3-0.6,0.4-1,0.4c-0.4,0-0.7-0.1-1-0.4c-0.2-0.2-0.4-0.6-0.5-1
					c-0.1-0.4-0.1-1.3-0.1-2.7c0-1.5,0-2.4,0.1-2.9s0.2-0.8,0.5-1.1c0.3-0.3,0.6-0.4,1-0.4c0.4,0,0.7,0.1,0.9,0.4
					c0.3,0.3,0.4,0.7,0.5,1.2s0.1,1.4,0.1,2.8c0,1.3,0,2.2-0.1,2.7S-150.3,700.5-150.6,700.7z"/>
			</g>
			<g>
				<path id="MJMAIN-29_1_" d="M-147.2,702.8L-147.2,702.8c0.1,0,0.1,0,0.2,0h0.2l0.4-0.3c0.9-0.8,1.5-1.8,1.9-3s0.6-2.4,0.6-3.7
					c0-0.6,0-1.2-0.1-1.8s-0.2-1.1-0.3-1.5c-0.1-0.4-0.3-0.8-0.5-1.2c-0.2-0.4-0.4-0.7-0.5-0.9c-0.1-0.2-0.3-0.5-0.6-0.7
					c-0.3-0.3-0.4-0.4-0.4-0.5s-0.2-0.1-0.3-0.3c0,0,0,0-0.1-0.1h-0.2c-0.1,0-0.1,0-0.2,0c0,0-0.1,0-0.1,0s0,0.1,0,0.1
					c0,0,0.1,0.1,0.2,0.2c1.4,1.5,2.2,3.7,2.2,6.6c0,2.9-0.7,5.1-2.2,6.6c-0.1,0.1-0.1,0.2-0.2,0.2
					C-147.3,702.8-147.3,702.8-147.2,702.8z"/>
			</g>
		</g>
	</g>
</g>
</svg>
