<?xml version="1.0" encoding="utf-8"?>
<!-- Generator: Adobe Illustrator 22.1.0, SVG Export Plug-In . SVG Version: 6.00 Build 0)  -->
<svg version="1.1" id="Layer_1" focusable="false" xmlns="http://www.w3.org/2000/svg" xmlns:xlink="http://www.w3.org/1999/xlink"
	 x="0px" y="0px" viewBox="0 0 33.3 16.3" style="enable-background:new 0 0 33.3 16.3;" xml:space="preserve">
<g transform="matrix(1 0 0 -1 0 0)">
	<g>
		<path id="MJMATHI-6E" d="M0.3-7.9c0,0.1,0,0.1,0,0.2c0,0.1,0.1,0.3,0.2,0.5c0.1,0.3,0.2,0.5,0.3,0.7S1-6.1,1.2-6s0.4,0.2,0.6,0.2
			c0.3,0,0.6-0.1,0.8-0.3s0.4-0.3,0.4-0.5c0.1-0.1,0.1-0.2,0.1-0.3c0,0,0,0,0,0l0.2,0.2C4-6,4.6-5.7,5.3-5.7c0.5,0,0.9-0.1,1.2-0.4
			C6.8-6.3,7-6.7,7-7.2S6.8-8.4,6.5-9.4c-0.4-1-0.5-1.6-0.5-1.8c0-0.2,0.1-0.4,0.2-0.4c0.1,0,0.1,0,0.1,0c0.3,0,0.5,0.2,0.7,0.5
			c0.2,0.3,0.4,0.7,0.5,1.1c0,0.1,0.1,0.1,0.3,0.1c0.2,0,0.3,0,0.3-0.1c0,0,0-0.1-0.1-0.2c-0.1-0.3-0.2-0.5-0.3-0.8
			c-0.1-0.3-0.3-0.5-0.6-0.8c-0.3-0.3-0.6-0.4-1-0.4c-0.4,0-0.8,0.1-0.9,0.4s-0.3,0.5-0.3,0.8c0,0.2,0.2,0.7,0.5,1.7
			c0.3,0.9,0.5,1.6,0.5,2.1c0,0.5-0.2,0.8-0.6,0.8H5.2c-0.8,0-1.5-0.5-2-1.4L3.1-7.8L2.6-9.7c-0.3-1.2-0.5-1.9-0.5-2
			C2-11.9,1.8-12,1.5-12c-0.1,0-0.2,0-0.3,0.1c-0.1,0.1-0.1,0.1-0.2,0.2c0,0.1,0,0.1,0,0.1c0,0.1,0.2,0.9,0.5,2.3s0.5,2.2,0.6,2.3
			c0,0,0,0.2,0,0.3c0,0.4-0.1,0.5-0.3,0.5c-0.4,0-0.6-0.5-0.9-1.4C0.9-7.8,0.8-7.9,0.8-7.9C0.8-8,0.7-8,0.6-8H0.4
			C0.3-7.9,0.3-7.9,0.3-7.9z"/>
	</g>
	<g transform="scale(0.707)">
		<path id="MJMATHI-3BA" d="M9.2-14.1c-0.1,0-0.2,0-0.2,0.1c-0.1,0-0.1,0.1-0.1,0.1c0,0,0,0.1,0,0.1c0,0.1,0.2,0.7,0.5,2
			c0.3,1.2,0.5,1.9,0.5,1.9c0.1,0.2,0.2,0.3,0.5,0.3c0.1,0,0.1,0,0.2-0.1c0.1,0,0.1-0.1,0.1-0.1c0,0,0-0.1,0-0.1
			c0-0.1-0.1-0.3-0.2-0.7l-0.2-0.7c0,0,0.1,0,0.2,0.1c0.1,0.1,0.2,0.1,0.3,0.1c0.1,0.1,0.3,0.3,0.7,0.6c0.4,0.3,0.7,0.5,0.9,0.6
			c0.2,0.1,0.5,0.2,0.7,0.2c0.1,0,0.3,0,0.3-0.1s0.1-0.2,0.1-0.3c0-0.2-0.1-0.3-0.2-0.4c-0.1-0.1-0.3-0.2-0.4-0.2
			c-0.1,0-0.2,0-0.3,0.1c-0.1,0.1-0.1,0.2-0.1,0.3c0,0,0,0.1,0,0.1l-0.1,0c-0.2-0.1-0.5-0.3-0.8-0.6l-0.6-0.5l-0.1-0.1h0
			c0.1,0,0.3,0,0.5-0.1c0.2,0,0.5-0.1,0.7-0.2c0.4-0.2,0.6-0.4,0.6-0.8c0-0.1,0-0.2,0-0.4c0-0.2-0.1-0.3-0.1-0.5
			c0-0.3,0.1-0.4,0.3-0.4c0.3,0,0.6,0.4,0.7,1.1c0,0.1,0,0.1,0.1,0.1s0.1,0,0.2,0c0.1,0,0.2,0,0.2-0.1c0-0.2-0.1-0.4-0.3-0.8
			c-0.2-0.4-0.4-0.6-0.7-0.7c-0.1,0-0.2,0-0.3,0c-0.3,0-0.5,0.1-0.7,0.3c-0.2,0.2-0.3,0.4-0.3,0.7c0,0.1,0,0.2,0,0.3
			c0,0.1,0,0.2,0,0.2c0,0.2-0.1,0.3-0.2,0.4C11.4-12,11.2-12,11-11.9c-0.2,0-0.4,0.1-0.5,0.1s-0.2,0-0.4,0h0l-0.2-1
			c-0.2-0.7-0.3-1-0.3-1C9.5-14,9.4-14.1,9.2-14.1z"/>
	</g>
	<g>
		<path id="MJMAIN-28" d="M16.7-8.4c0,0.6,0,1.2,0.1,1.8C17-6,17.1-5.5,17.2-5.1s0.3,0.8,0.5,1.2s0.4,0.7,0.5,0.9
			c0.1,0.2,0.3,0.5,0.6,0.7c0.3,0.3,0.4,0.4,0.5,0.5c0,0.1,0.2,0.2,0.3,0.3h0.2h0.1c0.1,0,0.2,0,0.2-0.1c0,0-0.1-0.1-0.2-0.3
			s-0.3-0.4-0.6-0.7c-0.2-0.3-0.5-0.7-0.7-1.2S18.2-4.9,18-5.7s-0.2-1.7-0.2-2.7s0.1-1.9,0.2-2.7c0.2-0.8,0.3-1.4,0.6-1.9
			c0.2-0.5,0.5-0.9,0.7-1.2c0.2-0.3,0.4-0.6,0.6-0.7c0.2-0.2,0.2-0.3,0.2-0.3c0-0.1-0.1-0.1-0.2-0.1h0h-0.2L19.3-15
			c-0.9,0.8-1.5,1.8-1.9,3C16.9-10.9,16.7-9.7,16.7-8.4z"/>
	</g>
	<g>
		<path id="MJMATHI-70" d="M21.2-7.9c0,0,0,0.1,0,0.1c0,0,0,0.1,0.1,0.3c0,0.2,0.1,0.3,0.1,0.4c0.1,0.1,0.1,0.3,0.2,0.5
			s0.2,0.3,0.3,0.4C22-6,22.1-5.9,22.3-5.8c0.1,0.1,0.3,0.1,0.5,0.1c0.7,0,1.1-0.3,1.3-0.9l0.1,0.1c0.6,0.5,1.1,0.8,1.6,0.8
			c0.6,0,1.1-0.2,1.4-0.7c0.3-0.4,0.5-1,0.5-1.6c0-1-0.4-1.9-1.1-2.8C26-11.6,25.2-12,24.3-12c-0.2,0-0.4,0-0.5,0.1
			c-0.1,0-0.2,0.1-0.3,0.2c-0.1,0.1-0.2,0.2-0.3,0.2l-0.1,0.1c0,0-0.1-0.4-0.3-1.2c-0.2-0.8-0.3-1.2-0.3-1.2c0-0.1,0-0.1,0.1-0.1
			c0.1,0,0.2,0,0.5,0h0.3c0.1-0.1,0.1-0.1,0.1-0.1c0,0,0-0.1,0-0.3c0-0.1-0.1-0.2-0.1-0.2c0,0-0.1,0-0.2-0.1c0,0-0.1,0-0.2,0
			s-0.2,0-0.5,0c-0.2,0-0.5,0-0.9,0c-0.7,0-1.1,0-1.2,0h-0.1c-0.1,0.1-0.1,0.1-0.1,0.2c0,0.3,0.1,0.4,0.2,0.5h0.3
			c0.3,0,0.5,0.1,0.5,0.2c0,0.1,0.3,1.2,0.8,3.3S23-7.1,23-7c0,0,0,0.1,0,0.2c0,0.4-0.1,0.6-0.3,0.6c-0.2,0-0.4-0.1-0.5-0.4
			c-0.1-0.3-0.2-0.5-0.3-0.8S21.7-7.9,21.7-8c0,0-0.1,0-0.2,0h-0.2C21.2-7.9,21.2-7.9,21.2-7.9z M23.3-10.5c0.2-0.7,0.5-1.1,1-1.1
			c0.3,0,0.5,0.1,0.8,0.3c0.3,0.2,0.5,0.5,0.6,0.8c0.2,0.3,0.3,0.8,0.5,1.5c0.2,0.7,0.3,1.2,0.3,1.5v0.1c0,0.7-0.3,1-0.8,1
			c-0.1,0-0.2,0-0.3,0s-0.2-0.1-0.3-0.1c-0.1-0.1-0.2-0.1-0.3-0.2c-0.1-0.1-0.2-0.1-0.2-0.2S24.5-6.9,24.4-7
			c-0.1-0.1-0.1-0.1-0.2-0.2c0-0.1-0.1-0.1-0.1-0.1l0-0.1c0,0,0-0.1,0-0.2c0-0.1-0.1-0.3-0.2-0.6s-0.1-0.5-0.2-0.7
			C23.5-9.9,23.3-10.4,23.3-10.5z"/>
	</g>
	<g>
		<path id="MJMAIN-29" d="M28.7-1.4L28.7-1.4c0.1,0,0.1,0,0.2,0h0.2l0.4-0.3c0.9-0.8,1.5-1.8,1.9-3S32-7.1,32-8.4
			c0-0.6,0-1.2-0.1-1.8s-0.2-1.1-0.3-1.5s-0.3-0.8-0.5-1.2c-0.2-0.4-0.4-0.7-0.5-0.9c-0.1-0.2-0.3-0.5-0.6-0.7
			c-0.3-0.3-0.4-0.4-0.4-0.5c0,0-0.2-0.1-0.3-0.3c0,0,0,0-0.1-0.1h-0.2c-0.1,0-0.1,0-0.2,0c0,0-0.1,0-0.1,0c0,0,0,0.1,0,0.1
			c0,0,0.1,0.1,0.2,0.2c1.4,1.5,2.2,3.7,2.2,6.6s-0.7,5.1-2.2,6.6c-0.1,0.1-0.1,0.2-0.2,0.2C28.6-1.5,28.7-1.5,28.7-1.4z"/>
	</g>
</g>
</svg>
