<?xml version="1.0" encoding="utf-8"?>
<!-- Generator: Adobe Illustrator 22.1.0, SVG Export Plug-In . SVG Version: 6.00 Build 0)  -->
<svg version="1.1" id="Layer_1" focusable="false" xmlns="http://www.w3.org/2000/svg" xmlns:xlink="http://www.w3.org/1999/xlink"
	 x="0px" y="0px" viewBox="0 0 35 16.3" style="enable-background:new 0 0 35 16.3;" xml:space="preserve">
<g transform="matrix(1 0 0 -1 0 0)">
	<g>
		<path id="MJMATHI-6E" d="M0.3-7.9c0,0.1,0,0.1,0,0.2c0,0.1,0.1,0.3,0.2,0.5c0.1,0.3,0.2,0.5,0.3,0.7S1-6.1,1.2-6s0.4,0.2,0.6,0.2
			c0.3,0,0.6-0.1,0.8-0.3s0.4-0.3,0.4-0.5c0.1-0.1,0.1-0.2,0.1-0.3c0,0,0,0,0,0l0.2,0.2C4-6,4.6-5.7,5.3-5.7c0.5,0,0.9-0.1,1.2-0.4
			C6.8-6.3,7-6.7,7-7.2S6.8-8.4,6.5-9.4c-0.4-1-0.5-1.6-0.5-1.8c0-0.2,0.1-0.4,0.2-0.4c0.1,0,0.1,0,0.1,0c0.3,0,0.5,0.2,0.7,0.5
			c0.2,0.3,0.4,0.7,0.5,1.1c0,0.1,0.1,0.1,0.3,0.1c0.2,0,0.3,0,0.3-0.1c0,0,0-0.1-0.1-0.2c-0.1-0.3-0.2-0.5-0.3-0.8
			c-0.1-0.3-0.3-0.5-0.6-0.8c-0.3-0.3-0.6-0.4-1-0.4c-0.4,0-0.8,0.1-0.9,0.4s-0.3,0.5-0.3,0.8c0,0.2,0.2,0.7,0.5,1.7
			c0.3,0.9,0.5,1.6,0.5,2.1c0,0.5-0.2,0.8-0.6,0.8H5.2c-0.8,0-1.5-0.5-2-1.4L3.1-7.8L2.6-9.7c-0.3-1.2-0.5-1.9-0.5-2
			C2-11.9,1.8-12,1.5-12c-0.1,0-0.2,0-0.3,0.1c-0.1,0.1-0.1,0.1-0.2,0.2c0,0.1,0,0.1,0,0.1c0,0.1,0.2,0.9,0.5,2.3s0.5,2.2,0.6,2.3
			c0,0,0,0.2,0,0.3c0,0.4-0.1,0.5-0.3,0.5c-0.4,0-0.6-0.5-0.9-1.4C0.9-7.8,0.8-7.9,0.8-7.9C0.8-8,0.7-8,0.6-8H0.4
			C0.3-7.9,0.3-7.9,0.3-7.9z"/>
	</g>
	<g transform="scale(0.707)">
		<path id="MJMATHI-46" d="M8.8-14c-0.1,0-0.2,0-0.2,0.1c0,0,0,0.1,0,0.1c0,0.1,0.1,0.2,0.1,0.2s0.1,0,0.2,0c0.2,0,0.4,0,0.6,0
			c0.1,0,0.2,0.1,0.2,0.1c0,0,0.2,1,0.7,2.8c0.5,1.8,0.7,2.7,0.7,2.8c0,0,0,0.1,0,0.1c-0.1,0-0.2,0-0.5,0h-0.3c0,0-0.1,0.1-0.1,0.1
			c0,0,0,0.1,0,0.2c0,0.1,0.1,0.2,0.1,0.2h5.3c0,0,0.1-0.1,0.1-0.1c0,0,0-0.4-0.1-1.1s-0.1-1.1-0.1-1.1c0,0-0.1-0.1-0.2-0.1h-0.1
			c0,0-0.1,0.1-0.1,0.1c0,0,0,0.1,0,0.2c0,0.2,0,0.3,0,0.5c0,0.2,0,0.4-0.1,0.5C15-8.1,15-8,14.9-8c-0.1,0.1-0.2,0.1-0.4,0.2
			c-0.2,0-0.3,0-0.5,0.1c-0.2,0-0.4,0-0.7,0h-0.2c-0.5,0-0.8,0-0.9,0c0,0-0.1,0-0.1-0.1c0,0-0.1-0.4-0.3-1.3l-0.3-1.3h0.5
			c0,0,0.1,0,0.2,0c0.1,0,0.2,0,0.3,0c0.1,0,0.1,0,0.2,0c0.1,0,0.2,0,0.2,0.1c0.1,0,0.1,0.1,0.2,0.1c0.1,0.1,0.2,0.2,0.2,0.3
			c0.1,0.1,0.1,0.3,0.1,0.4s0,0.2,0,0.2c0,0,0.1,0,0.2,0h0.1c0,0,0.1-0.1,0.1-0.1c0,0-0.1-0.4-0.3-1.3s-0.3-1.3-0.3-1.3
			c0,0-0.1-0.1-0.2-0.1H13c0,0-0.1,0.1-0.1,0.1c0,0,0,0.1,0,0.2c0,0.1,0,0.3,0,0.4c0,0.2-0.1,0.3-0.2,0.4c-0.1,0-0.4,0.1-0.9,0.1
			h-0.5l-0.3-1.3c-0.2-0.8-0.3-1.2-0.3-1.3c0-0.1,0.3-0.1,0.9-0.1h0.2c0,0,0.1-0.1,0.1-0.1c0,0,0-0.1,0-0.2c0-0.1-0.1-0.1-0.1-0.2
			h-0.2c-0.3,0-0.8,0-1.5,0c-0.4,0-0.8,0-1,0C9-14,8.9-14,8.8-14z"/>
	</g>
	<g>
		<path id="MJMAIN-28" d="M18.5-8.4c0,0.6,0,1.2,0.1,1.8s0.2,1.1,0.3,1.5s0.3,0.8,0.5,1.2c0.2,0.4,0.4,0.7,0.5,0.9
			c0.1,0.2,0.3,0.5,0.6,0.7C20.8-1.9,21-1.8,21-1.7s0.2,0.2,0.3,0.3h0.2h0.1c0.1,0,0.2,0,0.2-0.1c0,0-0.1-0.1-0.2-0.3
			S21.2-2.3,21-2.6c-0.2-0.3-0.5-0.7-0.7-1.2s-0.4-1.1-0.6-1.9s-0.2-1.7-0.2-2.7s0.1-1.9,0.2-2.7c0.2-0.8,0.3-1.4,0.6-1.9
			c0.2-0.5,0.5-0.9,0.7-1.2c0.2-0.3,0.4-0.6,0.6-0.7c0.2-0.2,0.2-0.3,0.2-0.3c0-0.1-0.1-0.1-0.2-0.1h0h-0.2L21-15
			c-0.9,0.8-1.5,1.8-1.9,3S18.5-9.7,18.5-8.4z"/>
	</g>
	<g>
		<path id="MJMATHI-70" d="M22.9-7.9c0,0,0,0.1,0,0.1s0,0.1,0.1,0.3c0,0.2,0.1,0.3,0.1,0.4c0.1,0.1,0.1,0.3,0.2,0.5s0.2,0.3,0.3,0.4
			s0.2,0.2,0.4,0.3c0.1,0.1,0.3,0.1,0.5,0.1c0.7,0,1.1-0.3,1.3-0.9l0.1,0.1C26.5-6,27-5.7,27.6-5.7c0.6,0,1.1-0.2,1.4-0.7
			s0.5-1,0.5-1.6c0-1-0.4-1.9-1.1-2.8C27.7-11.6,26.9-12,26-12c-0.2,0-0.4,0-0.5,0.1c-0.1,0-0.2,0.1-0.3,0.2s-0.2,0.2-0.3,0.2
			l-0.1,0.1c0,0-0.1-0.4-0.3-1.2c-0.2-0.8-0.3-1.2-0.3-1.2c0-0.1,0-0.1,0.1-0.1c0.1,0,0.2,0,0.5,0h0.3c0.1-0.1,0.1-0.1,0.1-0.1
			c0,0,0-0.1,0-0.3c0-0.1-0.1-0.2-0.1-0.2c0,0-0.1,0-0.2-0.1c0,0-0.1,0-0.2,0s-0.2,0-0.5,0c-0.2,0-0.5,0-0.9,0c-0.7,0-1.1,0-1.2,0
			h-0.1c-0.1,0.1-0.1,0.1-0.1,0.2c0,0.3,0.1,0.4,0.2,0.5h0.3c0.3,0,0.5,0.1,0.5,0.2c0,0.1,0.3,1.2,0.8,3.3s0.8,3.3,0.8,3.4
			c0,0,0,0.1,0,0.2c0,0.4-0.1,0.6-0.3,0.6c-0.2,0-0.4-0.1-0.5-0.4c-0.1-0.3-0.2-0.5-0.3-0.8S23.4-7.9,23.4-8c0,0-0.1,0-0.2,0H23
			C22.9-7.9,22.9-7.9,22.9-7.9z M25-10.5c0.2-0.7,0.5-1.1,1-1.1c0.3,0,0.5,0.1,0.8,0.3c0.3,0.2,0.5,0.5,0.6,0.8
			c0.2,0.3,0.3,0.8,0.5,1.5c0.2,0.7,0.3,1.2,0.3,1.5v0.1c0,0.7-0.3,1-0.8,1c-0.1,0-0.2,0-0.3,0s-0.2-0.1-0.3-0.1
			c-0.1-0.1-0.2-0.1-0.3-0.2c-0.1-0.1-0.2-0.1-0.2-0.2S26.2-6.9,26.1-7C26-7.1,26-7.1,25.9-7.2c0-0.1-0.1-0.1-0.1-0.1l0-0.1
			c0,0,0-0.1,0-0.2c0-0.1-0.1-0.3-0.2-0.6c-0.1-0.3-0.1-0.5-0.2-0.7C25.2-9.9,25-10.4,25-10.5z"/>
	</g>
	<g>
		<path id="MJMAIN-29" d="M30.4-1.4L30.4-1.4c0.1,0,0.1,0,0.2,0h0.2l0.4-0.3c0.9-0.8,1.5-1.8,1.9-3c0.4-1.2,0.6-2.4,0.6-3.7
			c0-0.6,0-1.2-0.1-1.8s-0.2-1.1-0.3-1.5c-0.1-0.4-0.3-0.8-0.5-1.2c-0.2-0.4-0.4-0.7-0.5-0.9c-0.1-0.2-0.3-0.5-0.6-0.7
			c-0.3-0.3-0.4-0.4-0.4-0.5c0,0-0.2-0.1-0.3-0.3c0,0,0,0-0.1-0.1h-0.2c-0.1,0-0.1,0-0.2,0c0,0-0.1,0-0.1,0c0,0,0,0.1,0,0.1
			c0,0,0.1,0.1,0.2,0.2c1.4,1.5,2.2,3.7,2.2,6.6s-0.7,5.1-2.2,6.6c-0.1,0.1-0.1,0.2-0.2,0.2C30.4-1.5,30.4-1.5,30.4-1.4z"/>
	</g>
</g>
</svg>
