<?xml version="1.0" encoding="utf-8"?>
<!-- Generator: Adobe Illustrator 22.1.0, SVG Export Plug-In . SVG Version: 6.00 Build 0)  -->
<svg version="1.1" id="Layer_1" focusable="false" xmlns="http://www.w3.org/2000/svg" xmlns:xlink="http://www.w3.org/1999/xlink"
	 x="0px" y="0px" viewBox="0 0 91.5 12.6" style="enable-background:new 0 0 91.5 12.6;" xml:space="preserve">
<g transform="matrix(1 0 0 -1 0 0)">
	<g>
		<path id="MJMAIN-210F" d="M2.5-2.8c0,0.1,0,0.2-0.1,0.2c-0.1,0-0.3,0.1-0.6,0.1c-0.1,0-0.2,0-0.3,0c0,0-0.1,0.1-0.1,0.1
			c0,0.1,0,0.2,0.1,0.4c0,0.2,0.1,0.3,0.1,0.3c0,0,0.4,0.1,1.1,0.1c0.7,0.1,1,0.1,1.2,0.1c0.2,0,0.3-0.1,0.3-0.2c0,0,0-0.2-0.1-0.6
			S4-2.7,3.9-2.8c0,0,0.4-0.1,1.1-0.1h0.5c0.3,0,0.5,0,0.6-0.1c0.1,0,0.2-0.2,0.2-0.3c0-0.1,0-0.2-0.1-0.3L6.2-3.7H3.7L3.5-4.6
			c0-0.1-0.1-0.3-0.1-0.4S3.3-5.3,3.3-5.4c0-0.1,0-0.1,0-0.1c0,0,0.1,0,0.2,0.1C3.9-5.2,4.4-5,5-5c0.4,0,0.9-0.1,1.2-0.3
			s0.6-0.6,0.6-1.2c0-0.5-0.2-1.2-0.5-2.2c-0.3-1-0.5-1.5-0.5-1.7c0-0.1,0.1-0.2,0.2-0.2c0.2,0,0.4,0.1,0.6,0.3
			C6.7-10,6.8-9.7,7-9.3L7.1-9h0.3h0.2c0.2,0,0.3,0,0.3-0.1c0-0.1-0.1-0.4-0.2-0.7c-0.1-0.3-0.4-0.7-0.7-1c-0.3-0.3-0.7-0.5-1.1-0.5
			c-0.3,0-0.5,0.1-0.8,0.2c-0.2,0.1-0.4,0.3-0.5,0.6c0,0.1-0.1,0.2-0.1,0.5c0,0.2,0.2,0.8,0.5,1.7c0.3,0.9,0.5,1.6,0.5,2
			c0,0.5-0.2,0.7-0.6,0.7C4.6-5.8,4.3-5.8,4-6C3.8-6.1,3.6-6.2,3.4-6.4C3.2-6.6,3.1-6.9,2.9-7.1c0,0-0.1-0.3-0.3-0.8
			c-0.1-0.5-0.3-1-0.4-1.7c-0.2-0.7-0.3-1.1-0.3-1.3c-0.1-0.1-0.2-0.2-0.2-0.2c-0.2-0.1-0.3-0.2-0.5-0.2c-0.2,0-0.3,0-0.4,0.1
			s-0.2,0.2-0.2,0.4l1.7,7c0,0,0,0.1-0.1,0.1c0,0-0.2,0-0.4,0c0,0-0.1,0-0.1,0c0,0-0.1,0-0.1,0C1.2-3.7,1-3.6,1-3.3
			c0,0.1,0,0.1,0,0.2C1.1-3.1,1.1-3,1.2-3c0,0,0.1,0,0.2,0.1s0.1,0,0.2,0c0,0,0.1,0,0.2,0c0.1,0,0.2,0,0.2,0L2.5-2.8L2.5-2.8z"/>
	</g>
	<g>
		<path id="MJMAIN-3D" d="M12.5-6.3c0,0.1,0.1,0.2,0.2,0.3h8.9c0.1-0.1,0.2-0.2,0.2-0.3c0-0.1-0.1-0.2-0.2-0.3l-4.4,0h-4.4
			C12.6-6.5,12.5-6.4,12.5-6.3z M12.5-9c0,0.1,0.1,0.2,0.2,0.3h8.9c0.1-0.1,0.2-0.2,0.2-0.3c0-0.1-0.1-0.2-0.2-0.3h-8.9
			C12.6-9.2,12.5-9.1,12.5-9z"/>
	</g>
	<g>
		<path id="MJMATHI-6D" d="M26.7-7.1c0,0.1,0,0.1,0,0.2s0.1,0.3,0.2,0.5c0.1,0.3,0.2,0.5,0.3,0.7c0.1,0.2,0.2,0.3,0.4,0.5
			C27.9-5,28.1-5,28.3-5s0.4,0,0.6-0.1c0.2-0.1,0.3-0.1,0.4-0.3c0.1-0.1,0.2-0.2,0.2-0.3c0.1-0.1,0.1-0.2,0.1-0.3l0-0.1c0,0,0,0,0,0
			l0.2,0.2C30.4-5.3,31-5,31.8-5c0.2,0,0.3,0,0.4,0c0.1,0,0.3-0.1,0.4-0.1c0.1,0,0.2-0.1,0.3-0.1c0.1,0,0.1-0.1,0.2-0.2
			c0.1-0.1,0.1-0.1,0.1-0.2c0-0.1,0.1-0.1,0.1-0.2c0.1-0.1,0.1-0.1,0.1-0.2s0-0.1,0-0.1c0,0,0.1-0.1,0-0.1L33.5-6
			c0.6,0.7,1.3,1,2.1,1c0.5,0,0.9-0.1,1.2-0.4c0.3-0.3,0.5-0.6,0.5-1.1c0-0.5-0.2-1.2-0.5-2.2c-0.4-1-0.5-1.6-0.5-1.8
			c0-0.1,0-0.2,0.1-0.3c0,0,0.1-0.1,0.2-0.1c0.3,0,0.5,0.1,0.7,0.4c0.2,0.3,0.4,0.7,0.5,1.1c0,0.1,0.1,0.2,0.1,0.2c0,0,0.1,0,0.2,0
			c0.2,0,0.3,0,0.3-0.1c0,0,0-0.1-0.1-0.2c-0.1-0.3-0.2-0.5-0.3-0.8c-0.1-0.3-0.3-0.5-0.6-0.8c-0.3-0.3-0.6-0.4-1-0.4
			c-0.4,0-0.8,0.1-0.9,0.4s-0.3,0.5-0.3,0.8c0,0.2,0.2,0.7,0.5,1.7c0.3,0.9,0.5,1.6,0.5,2.1c0,0.5-0.2,0.8-0.6,0.8h-0.1
			c-0.8,0-1.5-0.5-2-1.4l-0.1-0.2L32.9-9c-0.3-1.2-0.5-1.9-0.5-2c-0.1-0.3-0.3-0.4-0.6-0.4c-0.1,0-0.2,0-0.3,0.1s-0.1,0.1-0.2,0.2
			c0,0,0,0.1,0,0.1c0,0.1,0.2,0.8,0.5,2l0.5,2c0,0.1,0,0.3,0,0.5c0,0.5-0.2,0.8-0.6,0.8h-0.1c-0.8,0-1.5-0.5-2-1.4l-0.1-0.2L29.1-9
			c-0.3-1.2-0.5-1.9-0.5-2c-0.1-0.3-0.3-0.4-0.6-0.4c-0.1,0-0.2,0-0.3,0.1s-0.1,0.1-0.2,0.2c0,0.1,0,0.1,0,0.1
			c0,0.1,0.2,0.9,0.5,2.3c0.4,1.4,0.5,2.2,0.5,2.2c0,0.1,0,0.3,0,0.4c0,0.3-0.1,0.5-0.3,0.5c-0.2,0-0.4-0.1-0.5-0.4
			c-0.1-0.3-0.2-0.5-0.3-0.9s-0.1-0.5-0.2-0.5c0,0-0.1,0-0.2,0h-0.2C26.7-7.2,26.7-7.2,26.7-7.1z"/>
	</g>
	<g>
		<path id="MJMAIN-3D_1_" d="M43.3-6.3c0,0.1,0.1,0.2,0.2,0.3h8.9c0.1-0.1,0.2-0.2,0.2-0.3c0-0.1-0.1-0.2-0.2-0.3l-4.4,0h-4.4
			C43.4-6.5,43.3-6.4,43.3-6.3z M43.3-9c0,0.1,0.1,0.2,0.2,0.3h8.9c0.1-0.1,0.2-0.2,0.2-0.3c0-0.1-0.1-0.2-0.2-0.3h-8.9
			C43.4-9.2,43.3-9.1,43.3-9z"/>
	</g>
	<g>
		<path id="MJMATHI-3C9" d="M64.2-5.8c0,0.2,0.1,0.4,0.3,0.6C64.6-5.1,64.8-5,65-5c0.2,0,0.3-0.1,0.5-0.3c0.1-0.2,0.2-0.5,0.2-0.9
			c0-0.3-0.1-0.7-0.2-1.2C65.4-7.8,65.2-8.4,65-9s-0.6-1.2-1-1.6c-0.4-0.5-0.9-0.7-1.5-0.7c-0.7,0-1.3,0.4-1.5,1.1c0,0,0,0-0.1-0.1
			c-0.5-0.7-1.2-1-1.9-1c-1,0-1.5,0.7-1.5,2.1c0,0.8,0.2,1.7,0.6,2.6c0.4,0.9,0.7,1.4,0.9,1.5c0.1,0.1,0.2,0.1,0.3,0
			c0.1-0.1,0.2-0.1,0.2-0.3c0-0.1-0.1-0.3-0.3-0.5c-0.2-0.3-0.4-0.6-0.6-1c-0.2-0.4-0.4-0.9-0.4-1.4c0-0.1,0-0.2,0-0.3
			c0-0.6,0.1-1,0.3-1.2c0.2-0.2,0.5-0.3,0.8-0.3c0.5,0,1,0.2,1.4,0.7l0.1,0.1V-9c0,1.3,0.3,2,0.9,2c0.3,0,0.4-0.2,0.4-0.5
			c0-0.2,0-0.4-0.1-0.7c-0.1-0.3-0.2-0.5-0.3-0.8l-0.1-0.3c0,0,0,0,0-0.1s0-0.1,0.1-0.2c0.1-0.1,0.1-0.2,0.2-0.3
			c0.1-0.1,0.2-0.1,0.3-0.2c0.1-0.1,0.3-0.1,0.5-0.1c0.6,0,1.1,0.3,1.5,1c0.4,0.7,0.6,1.3,0.6,1.8c0,0.3-0.1,0.5-0.2,0.7
			c-0.1,0.2-0.2,0.3-0.3,0.4C64.2-6.1,64.2-5.9,64.2-5.8z"/>
	</g>
	<g>
		<path id="MJMAIN-3D_2_" d="M70.6-6.3c0,0.1,0.1,0.2,0.2,0.3h8.9c0.1-0.1,0.2-0.2,0.2-0.3c0-0.1-0.1-0.2-0.2-0.3l-4.4,0h-4.4
			C70.7-6.5,70.6-6.4,70.6-6.3z M70.6-9c0,0.1,0.1,0.2,0.2,0.3h8.9c0.1-0.1,0.2-0.2,0.2-0.3c0-0.1-0.1-0.2-0.2-0.3h-8.9
			C70.6-9.2,70.6-9.1,70.6-9z"/>
	</g>
	<g>
		<path id="MJMAIN-31" d="M87.5-3.1l-0.2-0.1c-0.1,0-0.3-0.1-0.6-0.1c-0.2,0-0.5-0.1-0.8-0.1h-0.3v0.6h0.3c0.4,0,0.8,0.1,1.2,0.2
			c0.4,0.1,0.6,0.2,0.8,0.3c0.1,0.1,0.3,0.2,0.4,0.3c0,0,0.1,0,0.2,0c0.1,0,0.2,0,0.2-0.1v-4.2l0-4.2c0.1-0.1,0.1-0.1,0.2-0.1
			c0,0,0.2,0,0.3-0.1c0.2,0,0.5,0,0.9,0h0.4v-0.6h-0.2c-0.2,0-0.9,0-2.2,0c-1.3,0-2,0-2.2,0h-0.2v0.6h0.4c0.2,0,0.4,0,0.5,0
			c0.1,0,0.3,0,0.3,0c0.1,0,0.2,0,0.2,0c0.1,0,0.1,0,0.1,0c0,0,0,0,0.1,0.1c0,0,0.1,0.1,0.1,0.1V-3.1z"/>
	</g>
</g>
</svg>
