<?xml version="1.0" encoding="utf-8"?>
<!-- Generator: Adobe Illustrator 22.1.0, SVG Export Plug-In . SVG Version: 6.00 Build 0)  -->
<svg version="1.1" id="Layer_1" focusable="false" xmlns="http://www.w3.org/2000/svg" xmlns:xlink="http://www.w3.org/1999/xlink"
	 x="0px" y="0px" viewBox="0 0 44.3 17.1" style="enable-background:new 0 0 44.3 17.1;" xml:space="preserve">
<g transform="matrix(1 0 0 -1 0 0)">
	<g>
		<path id="MJMATHI-3C1" d="M0.8-15.6c-0.3,0-0.5,0.1-0.5,0.4c0,0.1,0.2,1.1,0.7,3s0.7,2.8,0.8,2.9c0.1,0.5,0.4,1,0.8,1.5
			c0.7,0.8,1.4,1.3,2.2,1.4c0,0,0.1,0,0.1,0s0.1,0,0.1,0c0.7,0,1.2-0.2,1.6-0.7s0.5-1,0.5-1.6c0-0.5-0.1-1-0.3-1.5
			c-0.2-0.5-0.5-0.9-0.9-1.3c-0.3-0.3-0.7-0.6-1.1-0.9c-0.4-0.2-0.8-0.3-1.1-0.3H3.6H3.5c-0.5,0-0.9,0.2-1.2,0.6L2.2-12l-0.4-1.6
			c-0.2-0.9-0.4-1.4-0.4-1.5s-0.1-0.2-0.2-0.3C1.1-15.6,1-15.6,0.8-15.6z M5.9-8.1c0,0.3-0.1,0.6-0.2,0.8C5.5-7.1,5.3-7,5-7
			C4.6-7,4.3-7.1,4-7.4C3.7-7.7,3.4-8,3.2-8.4c-0.1-0.3-0.3-0.9-0.5-1.8l-0.2-0.9c0.2-0.7,0.5-1.1,1.2-1.1c0.4,0,0.7,0.2,1,0.5
			C5-11.5,5.2-11,5.4-10.4c0.2,0.6,0.3,1.1,0.4,1.5C5.9-8.5,5.9-8.3,5.9-8.1z"/>
	</g>
	<g>
		<path id="MJMAIN-28" d="M8.5-9.1c0,0.6,0,1.2,0.1,1.8C8.7-6.7,8.9-6.2,9-5.8C9.1-5.4,9.3-5,9.5-4.6C9.7-4.2,9.9-3.9,10-3.7
			s0.3,0.5,0.6,0.7s0.4,0.4,0.5,0.5s0.2,0.2,0.3,0.3h0.2h0.1c0.1,0,0.2,0,0.2-0.1c0,0-0.1-0.1-0.2-0.3C11.4-2.8,11.3-3,11-3.3
			c-0.2-0.3-0.5-0.7-0.7-1.2S9.9-5.6,9.8-6.4S9.5-8.2,9.5-9.1s0.1-1.9,0.2-2.7c0.2-0.8,0.3-1.4,0.6-1.9c0.2-0.5,0.5-0.9,0.7-1.2
			c0.2-0.3,0.4-0.6,0.6-0.7c0.2-0.2,0.2-0.3,0.2-0.3c0-0.1-0.1-0.1-0.2-0.1h0h-0.2L11-15.8c-0.9,0.8-1.5,1.8-1.9,3
			C8.7-11.6,8.5-10.4,8.5-9.1z"/>
	</g>
	<g>
		<path id="MJMATHI-78" d="M13.4-8.6c0.1,0.4,0.3,0.8,0.8,1.4c0.4,0.5,1,0.8,1.6,0.8c0.3,0,0.6-0.1,0.9-0.3c0.3-0.2,0.5-0.4,0.6-0.6
			c0.4,0.6,0.9,0.9,1.4,0.9c0.3,0,0.6-0.1,0.9-0.3c0.3-0.2,0.4-0.5,0.4-0.8c0-0.3-0.1-0.5-0.2-0.7c-0.1-0.2-0.3-0.3-0.4-0.3
			S19.1-8.6,19-8.6c-0.2,0-0.3,0.1-0.4,0.2c-0.1,0.1-0.2,0.2-0.2,0.4c0,0.4,0.2,0.7,0.7,0.9C19-7.1,18.8-7,18.6-7
			c-0.1,0-0.2,0-0.3,0c-0.4-0.1-0.6-0.5-0.8-0.9c-0.6-2.1-0.8-3.3-0.8-3.6c0-0.3,0.1-0.4,0.2-0.6s0.3-0.2,0.5-0.2
			c0.3,0,0.7,0.2,1,0.5c0.3,0.3,0.6,0.7,0.7,1.1c0,0.1,0.1,0.1,0.1,0.2s0.1,0,0.2,0h0.1c0.1,0,0.2,0,0.2-0.1c0,0,0-0.1,0-0.2
			c-0.1-0.5-0.4-1-0.9-1.4s-0.9-0.6-1.5-0.6c-0.7,0-1.1,0.3-1.5,0.9c-0.4-0.6-0.8-0.9-1.3-0.9h-0.1c-0.5,0-0.8,0.1-1,0.4
			c-0.2,0.2-0.3,0.5-0.3,0.8c0,0.3,0.1,0.5,0.3,0.7c0.2,0.2,0.4,0.3,0.6,0.3c0.4,0,0.6-0.2,0.6-0.6c0-0.2-0.1-0.3-0.2-0.5
			c-0.1-0.1-0.2-0.2-0.3-0.3C14-12,14-12,13.9-12l0,0c0,0,0,0,0.1-0.1c0.1,0,0.1-0.1,0.2-0.1c0.1,0,0.2-0.1,0.3,0
			c0.3,0,0.6,0.2,0.9,0.6c0.1,0.1,0.2,0.5,0.3,0.9s0.3,1,0.4,1.5c0.1,0.5,0.2,0.8,0.2,0.9c0,0.3,0.1,0.4,0.1,0.5
			c0,0.3-0.1,0.4-0.2,0.6C16-7,15.8-7,15.7-7c-0.4,0-0.7-0.1-1-0.4s-0.6-0.7-0.7-1.1c0-0.1,0-0.1-0.1-0.1c0,0-0.1,0-0.2,0h-0.2
			C13.4-8.7,13.4-8.6,13.4-8.6z"/>
	</g>
	<g>
		<path id="MJMAIN-2C" d="M21.7-12.1c0,0,0,0.1,0,0.3c0,0.2,0.1,0.4,0.2,0.6c0.1,0.2,0.3,0.3,0.6,0.3c0.3,0,0.5-0.1,0.7-0.3
			c0.2-0.2,0.3-0.6,0.3-1.2c0-0.3,0-0.6-0.1-0.9c-0.1-0.3-0.2-0.6-0.3-0.8c-0.1-0.2-0.2-0.4-0.4-0.6c-0.1-0.2-0.2-0.3-0.3-0.4
			c-0.1-0.1-0.2-0.1-0.2-0.1c0,0-0.1,0-0.2,0.1c-0.1,0.1-0.1,0.1-0.1,0.2s0.1,0.1,0.2,0.2s0.2,0.3,0.3,0.4s0.3,0.4,0.4,0.7
			s0.2,0.6,0.2,1v0.2l0,0c0,0,0,0-0.1,0s-0.1,0-0.1,0c0,0-0.1,0-0.1,0c-0.1,0-0.1,0-0.2,0c-0.3,0-0.5,0.1-0.6,0.2L21.7-12.1z"/>
	</g>
	<g transform="translate(1924,0)">
		<g>
			<path id="MJMATHI-78_1_" d="M-1896.5-8.6c0.1,0.4,0.3,0.8,0.8,1.4s1,0.8,1.6,0.8c0.3,0,0.6-0.1,0.9-0.3s0.5-0.4,0.6-0.6
				c0.4,0.6,0.9,0.9,1.4,0.9c0.3,0,0.6-0.1,0.9-0.3c0.3-0.2,0.4-0.5,0.4-0.8c0-0.3-0.1-0.5-0.2-0.7s-0.3-0.3-0.4-0.3
				c-0.1,0-0.2-0.1-0.3-0.1c-0.2,0-0.3,0.1-0.4,0.2c-0.1,0.1-0.2,0.2-0.2,0.4c0,0.4,0.2,0.7,0.7,0.9c-0.1,0.1-0.3,0.2-0.6,0.2
				c-0.1,0-0.2,0-0.3,0c-0.4-0.1-0.6-0.5-0.8-0.9c-0.6-2.1-0.8-3.3-0.8-3.6c0-0.3,0.1-0.4,0.2-0.6c0.1-0.1,0.3-0.2,0.5-0.2
				c0.3,0,0.7,0.2,1,0.5c0.3,0.3,0.6,0.7,0.7,1.1c0,0.1,0.1,0.1,0.1,0.2s0.1,0,0.2,0h0.1c0.1,0,0.2,0,0.2-0.1c0,0,0-0.1,0-0.2
				c-0.1-0.5-0.4-1-0.9-1.4c-0.4-0.4-0.9-0.6-1.5-0.6c-0.7,0-1.1,0.3-1.5,0.9c-0.4-0.6-0.8-0.9-1.3-0.9h-0.1c-0.5,0-0.8,0.1-1,0.4
				c-0.2,0.2-0.3,0.5-0.3,0.8c0,0.3,0.1,0.5,0.3,0.7c0.2,0.2,0.4,0.3,0.6,0.3c0.4,0,0.6-0.2,0.6-0.6c0-0.2-0.1-0.3-0.2-0.5
				c-0.1-0.1-0.2-0.2-0.3-0.3s-0.2-0.1-0.2-0.1l0,0c0,0,0,0,0.1-0.1c0.1,0,0.1-0.1,0.2-0.1s0.2-0.1,0.3,0c0.3,0,0.6,0.2,0.9,0.6
				c0.1,0.1,0.2,0.5,0.3,0.9c0.1,0.5,0.3,1,0.4,1.5c0.1,0.5,0.2,0.8,0.2,0.9c0,0.3,0.1,0.4,0.1,0.5c0,0.3-0.1,0.4-0.2,0.6
				c-0.1,0.1-0.3,0.2-0.5,0.2c-0.4,0-0.7-0.1-1-0.4c-0.3-0.3-0.6-0.7-0.7-1.1c0-0.1,0-0.1-0.1-0.1s-0.1,0-0.2,0h-0.2
				C-1896.4-8.7-1896.5-8.6-1896.5-8.6z"/>
		</g>
		<g transform="scale(0.707)">
			<path id="MJMAIN-2032" d="M-1888.4-6.5c0,0-0.1,0-0.3,0.1c-0.1,0-0.2,0.1-0.2,0.1c0,0,0.2,0.8,0.5,2.3s0.6,2.2,0.6,2.3
				c0.1,0.2,0.3,0.3,0.5,0.3c0.1,0,0.3,0,0.4-0.1c0.1-0.1,0.2-0.2,0.2-0.4c0,0,0-0.1,0-0.1c0,0-0.3-0.8-0.9-2.2
				S-1888.4-6.4-1888.4-6.5C-1888.4-6.4-1888.4-6.5-1888.4-6.5z"/>
		</g>
	</g>
	<g>
		<path id="MJMAIN-29" d="M39.7-2.2L39.7-2.2c0.1,0,0.1,0,0.2,0h0.2l0.4-0.3c0.9-0.8,1.5-1.8,1.9-3S43-7.9,43-9.1
			c0-0.6,0-1.2-0.1-1.8s-0.2-1.1-0.3-1.5s-0.3-0.8-0.5-1.2c-0.2-0.4-0.4-0.7-0.5-0.9s-0.3-0.5-0.6-0.7c-0.3-0.3-0.4-0.4-0.4-0.5
			c0,0-0.2-0.1-0.3-0.3c0,0,0,0-0.1-0.1h-0.2c-0.1,0-0.1,0-0.2,0s-0.1,0-0.1,0s0,0.1,0,0.1c0,0,0.1,0.1,0.2,0.2
			c1.4,1.5,2.2,3.7,2.2,6.6S41.3-4,39.8-2.5c-0.1,0.1-0.1,0.2-0.2,0.2C39.7-2.3,39.7-2.2,39.7-2.2z"/>
	</g>
</g>
</svg>
