<?xml version="1.0" encoding="utf-8"?>
<!-- Generator: Adobe Illustrator 22.1.0, SVG Export Plug-In . SVG Version: 6.00 Build 0)  -->
<svg version="1.1" id="Layer_1" focusable="false" xmlns="http://www.w3.org/2000/svg" xmlns:xlink="http://www.w3.org/1999/xlink"
	 x="0px" y="0px" viewBox="0 0 228.6 34.9" style="enable-background:new 0 0 228.6 34.9;" xml:space="preserve">
<g transform="matrix(1 0 0 -1 0 0)">
	<g>
		<path id="MJMATHI-3C1" d="M0.8-23.8c-0.3,0-0.5,0.1-0.5,0.4c0,0.1,0.2,1.1,0.7,3c0.5,1.9,0.7,2.8,0.8,2.9c0.1,0.5,0.4,1,0.8,1.5
			c0.7,0.8,1.4,1.3,2.2,1.4c0,0,0.1,0,0.1,0c0.1,0,0.1,0,0.1,0c0.7,0,1.2-0.2,1.6-0.7c0.4-0.4,0.5-1,0.5-1.6c0-0.5-0.1-1-0.3-1.5
			c-0.2-0.5-0.5-0.9-0.9-1.3c-0.3-0.3-0.7-0.6-1.1-0.9c-0.4-0.2-0.8-0.3-1.1-0.3H3.6H3.5c-0.5,0-0.9,0.2-1.2,0.6l-0.1,0.1l-0.4-1.6
			c-0.2-0.9-0.4-1.4-0.4-1.5c0-0.1-0.1-0.2-0.2-0.3C1.1-23.7,1-23.8,0.8-23.8z M5.9-16.3c0,0.3-0.1,0.6-0.2,0.8
			c-0.2,0.2-0.4,0.3-0.7,0.3c-0.3,0-0.7-0.1-1-0.4s-0.6-0.6-0.8-1.1c-0.1-0.3-0.3-0.9-0.5-1.8l-0.2-0.9c0.2-0.7,0.5-1.1,1.2-1.1
			c0.4,0,0.7,0.2,1,0.5c0.3,0.3,0.6,0.7,0.8,1.3s0.3,1.1,0.4,1.5C5.9-16.7,5.9-16.4,5.9-16.3z"/>
	</g>
	<g>
		<path id="MJMAIN-28" d="M8.5-17.3c0,0.6,0,1.2,0.1,1.8C8.7-14.9,8.9-14.4,9-14s0.3,0.8,0.5,1.2c0.2,0.4,0.4,0.7,0.5,0.9
			c0.1,0.2,0.3,0.5,0.6,0.7c0.3,0.3,0.4,0.4,0.5,0.5c0,0.1,0.2,0.2,0.3,0.3h0.2h0.1c0.1,0,0.2,0,0.2-0.1c0,0-0.1-0.1-0.2-0.3
			s-0.3-0.4-0.6-0.7s-0.5-0.7-0.7-1.2c-0.2-0.5-0.4-1.1-0.6-1.9s-0.2-1.7-0.2-2.7c0-1,0.1-1.9,0.2-2.7c0.2-0.8,0.3-1.4,0.6-1.9
			s0.5-0.9,0.7-1.2c0.2-0.3,0.4-0.6,0.6-0.7c0.2-0.2,0.2-0.3,0.2-0.3c0-0.1-0.1-0.1-0.2-0.1h0h-0.2L11-23.9c-0.9,0.8-1.5,1.8-1.9,3
			C8.7-19.8,8.5-18.6,8.5-17.3z"/>
	</g>
	<g>
		<path id="MJMATHI-78" d="M13.4-16.7c0.1,0.4,0.3,0.8,0.8,1.4c0.4,0.5,1,0.8,1.6,0.8c0.3,0,0.6-0.1,0.9-0.3
			c0.3-0.2,0.5-0.4,0.6-0.6c0.4,0.6,0.9,0.9,1.4,0.9c0.3,0,0.6-0.1,0.9-0.3c0.3-0.2,0.4-0.5,0.4-0.8c0-0.3-0.1-0.5-0.2-0.7
			c-0.1-0.2-0.3-0.3-0.4-0.3c-0.1,0-0.2-0.1-0.3-0.1c-0.2,0-0.3,0.1-0.4,0.2c-0.1,0.1-0.2,0.2-0.2,0.4c0,0.4,0.2,0.7,0.7,0.9
			c-0.1,0.1-0.3,0.2-0.6,0.2c-0.1,0-0.2,0-0.3,0c-0.4-0.1-0.6-0.5-0.8-0.9c-0.6-2.1-0.8-3.3-0.8-3.6c0-0.3,0.1-0.4,0.2-0.6
			c0.1-0.1,0.3-0.2,0.5-0.2c0.3,0,0.7,0.2,1,0.5c0.3,0.3,0.6,0.7,0.7,1.1c0,0.1,0.1,0.1,0.1,0.2c0,0,0.1,0,0.2,0h0.1
			c0.1,0,0.2,0,0.2-0.1c0,0,0-0.1,0-0.2c-0.1-0.5-0.4-1-0.9-1.4c-0.4-0.4-0.9-0.6-1.5-0.6c-0.7,0-1.1,0.3-1.5,0.9
			c-0.4-0.6-0.8-0.9-1.3-0.9h-0.1c-0.5,0-0.8,0.1-1,0.4c-0.2,0.2-0.3,0.5-0.3,0.8c0,0.3,0.1,0.5,0.3,0.7c0.2,0.2,0.4,0.3,0.6,0.3
			c0.4,0,0.6-0.2,0.6-0.6c0-0.2-0.1-0.3-0.2-0.5c-0.1-0.1-0.2-0.2-0.3-0.3s-0.2-0.1-0.2-0.1l0,0c0,0,0,0,0.1-0.1
			c0.1,0,0.1-0.1,0.2-0.1s0.2-0.1,0.3,0c0.3,0,0.6,0.2,0.9,0.6c0.1,0.1,0.2,0.5,0.3,0.9s0.3,1,0.4,1.5c0.1,0.5,0.2,0.8,0.2,0.9
			c0,0.3,0.1,0.4,0.1,0.5c0,0.3-0.1,0.4-0.2,0.6c-0.1,0.1-0.3,0.2-0.5,0.2c-0.4,0-0.7-0.1-1-0.4s-0.6-0.7-0.7-1.1
			c0-0.1,0-0.1-0.1-0.1s-0.1,0-0.2,0h-0.2C13.4-16.8,13.4-16.8,13.4-16.7z"/>
	</g>
	<g>
		<path id="MJMAIN-2C" d="M21.7-20.3c0,0,0,0.1,0,0.3s0.1,0.4,0.2,0.6s0.3,0.3,0.6,0.3c0.3,0,0.5-0.1,0.7-0.3
			c0.2-0.2,0.3-0.6,0.3-1.2c0-0.3,0-0.6-0.1-0.9c-0.1-0.3-0.2-0.6-0.3-0.8s-0.2-0.4-0.4-0.6c-0.1-0.2-0.2-0.3-0.3-0.4
			c-0.1-0.1-0.2-0.1-0.2-0.1c0,0-0.1,0-0.2,0.1c-0.1,0.1-0.1,0.1-0.1,0.2c0,0,0.1,0.1,0.2,0.2s0.2,0.3,0.3,0.4
			c0.1,0.2,0.3,0.4,0.4,0.7c0.1,0.3,0.2,0.6,0.2,1v0.2l0,0c0,0,0,0-0.1,0c0,0-0.1,0-0.1,0c0,0-0.1,0-0.1,0s-0.1,0-0.2,0
			c-0.3,0-0.5,0.1-0.6,0.2L21.7-20.3z"/>
	</g>
	<g transform="translate(1924,0)">
		<g>
			<path id="MJMATHI-78_1_" d="M-1896.5-16.7c0.1,0.4,0.3,0.8,0.8,1.4s1,0.8,1.6,0.8c0.3,0,0.6-0.1,0.9-0.3s0.5-0.4,0.6-0.6
				c0.4,0.6,0.9,0.9,1.4,0.9c0.3,0,0.6-0.1,0.9-0.3c0.3-0.2,0.4-0.5,0.4-0.8c0-0.3-0.1-0.5-0.2-0.7c-0.1-0.2-0.3-0.3-0.4-0.3
				s-0.2-0.1-0.3-0.1c-0.2,0-0.3,0.1-0.4,0.2c-0.1,0.1-0.2,0.2-0.2,0.4c0,0.4,0.2,0.7,0.7,0.9c-0.1,0.1-0.3,0.2-0.6,0.2
				c-0.1,0-0.2,0-0.3,0c-0.4-0.1-0.6-0.5-0.8-0.9c-0.6-2.1-0.8-3.3-0.8-3.6c0-0.3,0.1-0.4,0.2-0.6s0.3-0.2,0.5-0.2
				c0.3,0,0.7,0.2,1,0.5c0.3,0.3,0.6,0.7,0.7,1.1c0,0.1,0.1,0.1,0.1,0.2s0.1,0,0.2,0h0.1c0.1,0,0.2,0,0.2-0.1c0,0,0-0.1,0-0.2
				c-0.1-0.5-0.4-1-0.9-1.4c-0.4-0.4-0.9-0.6-1.5-0.6c-0.7,0-1.1,0.3-1.5,0.9c-0.4-0.6-0.8-0.9-1.3-0.9h-0.1c-0.5,0-0.8,0.1-1,0.4
				s-0.3,0.5-0.3,0.8c0,0.3,0.1,0.5,0.3,0.7c0.2,0.2,0.4,0.3,0.6,0.3c0.4,0,0.6-0.2,0.6-0.6c0-0.2-0.1-0.3-0.2-0.5
				c-0.1-0.1-0.2-0.2-0.3-0.3s-0.2-0.1-0.2-0.1l0,0c0,0,0,0,0.1-0.1c0.1,0,0.1-0.1,0.2-0.1s0.2-0.1,0.3,0c0.3,0,0.6,0.2,0.9,0.6
				c0.1,0.1,0.2,0.5,0.3,0.9c0.1,0.5,0.3,1,0.4,1.5c0.1,0.5,0.2,0.8,0.2,0.9c0,0.3,0.1,0.4,0.1,0.5c0,0.3-0.1,0.4-0.2,0.6
				c-0.1,0.1-0.3,0.2-0.5,0.2c-0.4,0-0.7-0.1-1-0.4c-0.3-0.3-0.6-0.7-0.7-1.1c0-0.1,0-0.1-0.1-0.1s-0.1,0-0.2,0h-0.2
				C-1896.4-16.8-1896.5-16.8-1896.5-16.7z"/>
		</g>
		<g transform="scale(0.707)">
			<path id="MJMAIN-2032" d="M-1888.4-14.6c0,0-0.1,0-0.3,0.1s-0.2,0.1-0.2,0.1c0,0,0.2,0.8,0.5,2.3c0.4,1.5,0.6,2.2,0.6,2.3
				c0.1,0.2,0.3,0.3,0.5,0.3c0.1,0,0.3,0,0.4-0.1c0.1-0.1,0.2-0.2,0.2-0.4c0,0,0-0.1,0-0.1c0,0-0.3-0.8-0.9-2.2
				C-1888.1-13.9-1888.4-14.6-1888.4-14.6C-1888.4-14.6-1888.4-14.6-1888.4-14.6z"/>
		</g>
	</g>
	<g>
		<path id="MJMAIN-29" d="M39.7-10.3L39.7-10.3c0.1,0,0.1,0,0.2,0h0.2l0.4-0.3c0.9-0.8,1.5-1.8,1.9-3S43-16,43-17.3
			c0-0.6,0-1.2-0.1-1.8c-0.1-0.6-0.2-1.1-0.3-1.5c-0.1-0.4-0.3-0.8-0.5-1.2c-0.2-0.4-0.4-0.7-0.5-0.9c-0.1-0.2-0.3-0.5-0.6-0.7
			c-0.3-0.3-0.4-0.4-0.4-0.5s-0.2-0.1-0.3-0.3c0,0,0,0-0.1-0.1h-0.2c-0.1,0-0.1,0-0.2,0s-0.1,0-0.1,0c0,0,0,0.1,0,0.1
			c0,0,0.1,0.1,0.2,0.2c1.4,1.5,2.2,3.7,2.2,6.6s-0.7,5.1-2.2,6.6c-0.1,0.1-0.1,0.2-0.2,0.2C39.7-10.4,39.7-10.4,39.7-10.3z"/>
	</g>
	<g>
		<path id="MJMAIN-3D" d="M49-15.9c0,0.1,0.1,0.2,0.2,0.3h8.9c0.1-0.1,0.2-0.2,0.2-0.3c0-0.1-0.1-0.2-0.2-0.3l-4.4,0h-4.4
			C49.1-16.2,49-16.1,49-15.9z M49-18.6c0,0.1,0.1,0.2,0.2,0.3h8.9c0.1-0.1,0.2-0.2,0.2-0.3c0-0.1-0.1-0.2-0.2-0.3h-8.9
			C49-18.9,49-18.8,49-18.6z"/>
	</g>
	<g transform="translate(4515,0)">
		<g>
			<path id="MJSZ2-222B" d="M-4450.5-31.9c0.2-0.2,0.4-0.4,0.7-0.4h0c0.3,0,0.5,0.3,0.8,0.8c0.3,0.6,0.5,1.3,0.7,2.3
				c0.2,1,0.4,1.9,0.6,2.9s0.4,2,0.6,3.2c0,0.2,0.1,0.3,0.1,0.4c0.7,3.9,1.4,7.6,2.2,11c0.8,3.4,1.3,5.6,1.7,6.6
				c0.1,0.2,0.1,0.3,0.1,0.4s0.1,0.3,0.2,0.6c0.1,0.3,0.2,0.6,0.4,0.8c0.1,0.2,0.3,0.5,0.5,0.7c0.2,0.2,0.4,0.4,0.6,0.6
				c0.2,0.1,0.5,0.2,0.7,0.2c0.5,0,0.9-0.2,1.2-0.5c0.3-0.3,0.4-0.7,0.4-1.1c0-0.2-0.1-0.4-0.2-0.6c-0.1-0.1-0.2-0.2-0.3-0.3
				c-0.1,0-0.2-0.1-0.3,0c-0.2,0-0.4,0.1-0.5,0.2c-0.2,0.1-0.2,0.3-0.2,0.6c0,0.4,0.2,0.7,0.7,0.8l0,0.1c0,0-0.1,0.1-0.1,0.1
				s-0.1,0.1-0.1,0.1c-0.1,0.1-0.3,0.1-0.5,0.1c-0.1,0-0.3-0.1-0.4-0.2s-0.3-0.4-0.4-0.8c-0.2-0.4-0.4-0.9-0.5-1.6
				c-0.2-0.7-0.4-1.6-0.7-2.8c-0.3-1.2-0.5-2.6-0.8-4.3c-0.5-3.1-1.1-6.1-1.7-8.8c-0.6-2.8-1.1-4.8-1.4-6c-0.3-1.2-0.6-2.1-0.8-2.7
				c-0.7-2.2-1.6-3.2-2.6-3.2c-0.4,0-0.7,0.1-1,0.4s-0.5,0.7-0.5,1.2c0,0.3,0.1,0.5,0.3,0.7c0.2,0.1,0.4,0.2,0.5,0.2
				c0.2,0,0.4-0.1,0.5-0.2c0.2-0.1,0.2-0.3,0.2-0.6C-4449.8-31.5-4450-31.8-4450.5-31.9z"/>
		</g>
		<g transform="scale(0.707)">
			<path id="MJMAIN-221E" d="M-4436.8-3.5c0,0.6,0.2,1.1,0.6,1.5c0.4,0.4,0.8,0.7,1.4,0.7c0.6,0,1.1-0.2,1.6-0.6
				c0.3-0.2,0.5-0.5,0.7-0.8l0.1-0.2l0.1,0.1c0.7,1,1.4,1.5,2.3,1.5c0.6,0,1-0.2,1.4-0.7s0.5-1,0.6-1.6c0-0.6-0.2-1.1-0.5-1.5
				s-0.8-0.7-1.4-0.7c-0.6,0-1.1,0.2-1.6,0.6c-0.2,0.2-0.5,0.5-0.7,0.8l-0.1,0.2l-0.1-0.1c-0.7-1-1.4-1.5-2.3-1.5
				c-0.6,0-1,0.2-1.4,0.7C-4436.6-4.6-4436.8-4.1-4436.8-3.5z M-4428.4-3.5c0,0.4-0.1,0.9-0.4,1.2c-0.2,0.4-0.6,0.6-1.1,0.6
				c-0.1,0-0.3,0-0.4,0s-0.3-0.1-0.4-0.1c-0.1-0.1-0.2-0.1-0.3-0.2c-0.1-0.1-0.2-0.1-0.3-0.2c-0.1-0.1-0.2-0.2-0.2-0.2
				c-0.1-0.1-0.1-0.2-0.2-0.2c-0.1-0.1-0.1-0.2-0.1-0.2c0-0.1-0.1-0.1-0.1-0.2l0-0.1l0.3-0.4c0.2-0.3,0.4-0.5,0.5-0.6
				c0.1-0.1,0.3-0.3,0.4-0.4s0.3-0.3,0.5-0.3c0.2-0.1,0.3-0.1,0.5-0.1c0.4,0,0.7,0.2,1,0.5S-4428.4-3.9-4428.4-3.5z M-4436.4-3.5
				c0-0.5,0.1-0.9,0.4-1.2c0.3-0.4,0.6-0.6,1.1-0.6c0.8,0,1.5,0.5,2.1,1.6l-0.3,0.4c-0.4,0.5-0.7,0.9-0.9,1c-0.3,0.3-0.7,0.4-1,0.4
				c-0.4,0-0.7-0.2-1-0.5C-4436.3-2.7-4436.4-3-4436.4-3.5z"/>
		</g>
		<g transform="translate(556,-898)">
			<g transform="scale(0.707)">
				<path id="MJMAIN-2212" d="M-4999.5,867.1c0,0,0,0,0,0.1s0,0.2,0.1,0.2h5.7c0.1-0.1,0.1-0.1,0.1-0.2c0-0.1,0-0.1-0.1-0.2h-5.7
					c-0.1,0-0.1,0.1-0.1,0.2V867.1z"/>
			</g>
			<g transform="scale(0.707)">
				<path id="MJMAIN-221E_1_" d="M-4992.1,866.9c0,0.6,0.2,1.1,0.6,1.5c0.4,0.4,0.8,0.7,1.4,0.7c0.6,0,1.1-0.2,1.6-0.6
					c0.2-0.2,0.5-0.5,0.7-0.8l0.1-0.2l0.1,0.1c0.7,1,1.4,1.5,2.3,1.5c0.6,0,1-0.2,1.4-0.7s0.5-1,0.6-1.6c0-0.6-0.2-1.1-0.5-1.5
					c-0.4-0.5-0.8-0.7-1.4-0.7c-0.6,0-1.1,0.2-1.6,0.6c-0.2,0.2-0.5,0.5-0.7,0.8l-0.1,0.2l-0.1-0.1c-0.7-1-1.4-1.5-2.3-1.5
					c-0.6,0-1,0.2-1.4,0.7C-4991.9,865.7-4992.1,866.3-4992.1,866.9z M-4983.7,866.9c0,0.4-0.1,0.9-0.4,1.2
					c-0.2,0.4-0.6,0.6-1.1,0.6c-0.1,0-0.3,0-0.4,0s-0.3-0.1-0.4-0.1c-0.1-0.1-0.2-0.1-0.3-0.2s-0.2-0.1-0.3-0.2
					c-0.1-0.1-0.2-0.2-0.2-0.2c-0.1-0.1-0.1-0.2-0.2-0.2c-0.1-0.1-0.1-0.2-0.1-0.2s-0.1-0.1-0.1-0.2l0-0.1l0.3-0.4
					c0.2-0.3,0.4-0.5,0.5-0.6c0.1-0.1,0.3-0.3,0.4-0.4s0.3-0.3,0.5-0.3c0.2-0.1,0.3-0.1,0.5-0.1c0.4,0,0.7,0.2,1,0.5
					C-4983.9,866-4983.7,866.4-4983.7,866.9z M-4991.8,866.8c0-0.5,0.1-0.9,0.4-1.2c0.3-0.4,0.6-0.6,1.1-0.6c0.8,0,1.5,0.5,2.1,1.6
					l-0.3,0.4c-0.4,0.5-0.7,0.9-0.9,1c-0.3,0.3-0.7,0.4-1,0.4c-0.4,0-0.7-0.2-1-0.5C-4991.6,867.7-4991.8,867.3-4991.8,866.8z"/>
			</g>
		</g>
	</g>
	<g>
		<path id="MJMATHI-64" d="M97-11.3c0,0,0.3,0,1,0.1c0.7,0,1,0.1,1,0.1c0.1,0,0.2,0,0.2-0.1c0-0.1-0.3-1.5-1-4.2
			c-0.7-2.7-1-4.1-1-4.2c0-0.1,0-0.1,0-0.2c0-0.4,0.1-0.6,0.4-0.6c0.1,0,0.2,0.1,0.3,0.1c0.2,0.2,0.4,0.6,0.6,1.3
			c0.1,0.2,0.1,0.3,0.1,0.3c0,0,0.1,0,0.1,0h0.1h0.1c0.1,0,0.2,0,0.2-0.1c0,0,0-0.1,0-0.2c-0.1-0.5-0.3-0.8-0.4-1.1
			s-0.3-0.5-0.4-0.6c-0.1-0.1-0.2-0.2-0.4-0.2c-0.1,0-0.2,0-0.3,0c-0.3,0-0.6,0.1-0.8,0.2c-0.2,0.1-0.4,0.3-0.4,0.4l-0.1,0.2
			c0,0,0,0-0.1,0c0,0,0,0-0.1-0.1c-0.5-0.5-1.1-0.8-1.7-0.8c-0.5,0-1,0.2-1.4,0.6c-0.4,0.4-0.6,1-0.6,1.8c0,0.4,0.1,0.9,0.3,1.4
			c0.2,0.5,0.4,0.9,0.7,1.2c0.4,0.5,0.9,0.9,1.3,1.1c0.4,0.2,0.8,0.3,1.2,0.3c0.5,0,0.9-0.2,1.2-0.6c0-0.1,0.1-0.1,0.1-0.1
			c0,0,0.1,0.5,0.4,1.5c0.2,1,0.4,1.5,0.4,1.5c0,0.1,0,0.2-0.1,0.2s-0.2,0.1-0.5,0.1h-0.3c-0.1,0.1-0.1,0.1-0.1,0.1s0,0.1,0,0.3
			C96.9-11.3,96.9-11.3,97-11.3z M96.8-16.2c-0.2,0.7-0.6,1.1-1,1.1c-0.3,0-0.6-0.1-0.9-0.4c-0.3-0.3-0.5-0.7-0.7-1.1
			c-0.3-0.7-0.5-1.5-0.6-2.3c0,0,0-0.1,0-0.2s0-0.1,0-0.2c0-0.4,0.1-0.7,0.3-0.9s0.4-0.2,0.6-0.3c0.5,0,1,0.3,1.5,1l0.1,0.2
			L96.8-16.2z"/>
	</g>
	<g transform="translate(7120,0)">
		<g>
			<path id="MJMATHI-78_2_" d="M-7020.1-16.7c0.1,0.4,0.3,0.8,0.8,1.4s1,0.8,1.6,0.8c0.3,0,0.6-0.1,0.9-0.3c0.3-0.2,0.5-0.4,0.6-0.6
				c0.4,0.6,0.9,0.9,1.4,0.9c0.3,0,0.6-0.1,0.9-0.3c0.3-0.2,0.4-0.5,0.4-0.8c0-0.3-0.1-0.5-0.2-0.7c-0.1-0.2-0.3-0.3-0.4-0.3
				c-0.1,0-0.2-0.1-0.3-0.1c-0.2,0-0.3,0.1-0.4,0.2c-0.1,0.1-0.2,0.2-0.2,0.4c0,0.4,0.2,0.7,0.7,0.9c-0.1,0.1-0.3,0.2-0.6,0.2
				c-0.1,0-0.2,0-0.3,0c-0.4-0.1-0.6-0.5-0.8-0.9c-0.6-2.1-0.8-3.3-0.8-3.6c0-0.3,0.1-0.4,0.2-0.6c0.1-0.1,0.3-0.2,0.5-0.2
				c0.3,0,0.7,0.2,1,0.5c0.3,0.3,0.6,0.7,0.7,1.1c0,0.1,0.1,0.1,0.1,0.2s0.1,0,0.2,0h0.1c0.1,0,0.2,0,0.2-0.1c0,0,0-0.1,0-0.2
				c-0.1-0.5-0.4-1-0.9-1.4c-0.4-0.4-0.9-0.6-1.5-0.6c-0.7,0-1.1,0.3-1.5,0.9c-0.4-0.6-0.8-0.9-1.3-0.9h-0.1c-0.5,0-0.8,0.1-1,0.4
				c-0.2,0.2-0.3,0.5-0.3,0.8c0,0.3,0.1,0.5,0.3,0.7c0.2,0.2,0.4,0.3,0.6,0.3c0.4,0,0.6-0.2,0.6-0.6c0-0.2-0.1-0.3-0.2-0.5
				c-0.1-0.1-0.2-0.2-0.3-0.3c-0.1,0-0.2-0.1-0.2-0.1l0,0c0,0,0,0,0.1-0.1c0.1,0,0.1-0.1,0.2-0.1s0.2-0.1,0.3,0
				c0.3,0,0.6,0.2,0.9,0.6c0.1,0.1,0.2,0.5,0.3,0.9c0.1,0.5,0.3,1,0.4,1.5c0.1,0.5,0.2,0.8,0.2,0.9c0,0.3,0.1,0.4,0.1,0.5
				c0,0.3-0.1,0.4-0.2,0.6c-0.1,0.1-0.3,0.2-0.5,0.2c-0.4,0-0.7-0.1-1-0.4s-0.6-0.7-0.7-1.1c0-0.1,0-0.1-0.1-0.1c0,0-0.1,0-0.2,0
				h-0.2C-7020-16.8-7020.1-16.8-7020.1-16.7z"/>
		</g>
		<g transform="scale(0.707)">
			<path id="MJMAIN-32" d="M-7011.7-18.6c-0.2,0-0.3,0.1-0.4,0.2c-0.1,0.1-0.2,0.3-0.2,0.4c0,0.5,0.2,0.9,0.5,1.2s0.8,0.5,1.3,0.5
				c0.6,0,1.1-0.2,1.5-0.6c0.4-0.4,0.6-0.8,0.6-1.4c0-0.3-0.1-0.6-0.2-0.8c-0.1-0.3-0.3-0.5-0.5-0.7c-0.2-0.2-0.4-0.4-0.8-0.7
				c-0.2-0.2-0.6-0.5-1-0.9l-0.6-0.6l0.7,0c1,0,1.6,0,1.6,0c0,0,0.1,0.3,0.2,0.9v0h0.4v0c0,0,0-0.3-0.1-0.9
				c-0.1-0.6-0.1-0.9-0.1-0.9v0h-3.7v0.2v0.1c0,0,0,0.1,0.1,0.1c0,0.1,0.1,0.2,0.3,0.3c0.2,0.2,0.4,0.4,0.5,0.6
				c0.1,0.1,0.2,0.2,0.3,0.4s0.3,0.3,0.3,0.4s0.2,0.2,0.3,0.3s0.2,0.3,0.3,0.3c0.1,0.1,0.1,0.2,0.2,0.3c0.1,0.1,0.2,0.2,0.2,0.3
				c0,0.1,0.1,0.2,0.1,0.3c0.1,0.1,0.1,0.2,0.1,0.3s0,0.2,0.1,0.3c0,0.1,0,0.2,0,0.3c0,0.4-0.1,0.8-0.3,1.1c-0.2,0.3-0.5,0.5-1,0.5
				c-0.2,0-0.4-0.1-0.6-0.2c-0.2-0.1-0.3-0.2-0.3-0.3c-0.1-0.1-0.1-0.2-0.1-0.2c0,0,0,0,0,0c0.1,0,0.2,0,0.4-0.1
				c0.1-0.1,0.2-0.2,0.2-0.5c0-0.2-0.1-0.3-0.2-0.4C-7011.4-18.6-7011.5-18.6-7011.7-18.6z"/>
		</g>
	</g>
	<g transform="translate(8146,0)">
		<g>
			<path id="MJMATHI-3C8" d="M-8030.2-14.6c0.4,0,0.7-0.1,0.9-0.3s0.3-0.5,0.3-0.8c0-0.2-0.1-0.7-0.4-1.5c-0.3-0.8-0.4-1.4-0.4-1.7
				c0-0.4,0.2-0.7,0.4-0.9c0.2-0.2,0.4-0.3,0.6-0.3c0.2-0.1,0.3-0.1,0.4-0.1h0l1.1,4.6c0.8,3.1,1.2,4.6,1.2,4.6c0,0,0.1,0,0.2,0
				c0.2,0,0.3,0,0.3-0.1c0-0.1-0.4-1.6-1.1-4.6c-0.8-3-1.1-4.6-1.1-4.6c0,0,0,0,0.1,0c0.8,0,1.6,0.4,2.3,1.2s1.1,1.6,1.1,2.3
				c0,0.2,0,0.4-0.1,0.6c-0.1,0.2-0.2,0.3-0.3,0.3s-0.2,0.1-0.3,0.3c-0.1,0.1-0.1,0.2-0.1,0.3c0,0.2,0.1,0.4,0.2,0.6
				c0.2,0.2,0.4,0.3,0.6,0.3c0.2,0,0.3-0.1,0.5-0.3c0.1-0.2,0.2-0.4,0.2-0.8c0-0.3-0.1-0.6-0.2-1.1c-0.1-0.5-0.2-0.8-0.3-0.9
				c-0.3-0.9-0.8-1.6-1.6-2.3c-0.8-0.6-1.5-0.9-2.3-0.9h-0.1l-0.3-1.3c-0.2-0.9-0.3-1.3-0.3-1.3c0-0.1-0.1-0.1-0.3-0.1h-0.2
				c-0.1,0.1-0.1,0.1-0.1,0.1c0,0,0.1,0.5,0.3,1.3c0.2,0.8,0.3,1.3,0.3,1.3c-0.1,0-0.1,0-0.2,0c-1.5,0.2-2.2,0.9-2.2,2
				c0,0.3,0.2,0.9,0.5,1.7s0.5,1.4,0.5,1.6c0,0,0,0,0,0c0,0.1,0,0.1,0,0.2s0,0.1-0.1,0.1c0,0-0.1,0.1-0.2,0.1h-0.1
				c-0.2,0-0.4-0.1-0.6-0.3c-0.2-0.2-0.3-0.4-0.4-0.6c-0.1-0.2-0.2-0.4-0.2-0.6c-0.1-0.2-0.1-0.3-0.1-0.3s-0.1,0-0.2,0h-0.2
				c-0.1,0.1-0.1,0.1-0.1,0.1c0,0.1,0.1,0.3,0.2,0.6c0.1,0.3,0.3,0.6,0.7,1S-8030.6-14.6-8030.2-14.6z"/>
		</g>
		<g transform="scale(0.707)">
			<path id="MJMAIN-2217" d="M-8021.2-13.5c-0.1,0.9-0.1,1.4-0.1,1.5c0,0.1,0.1,0.2,0.2,0.3c0,0,0,0,0,0c0,0,0,0,0.1,0
				c0.1,0,0.2,0,0.2-0.1c0.1-0.1,0.1-0.1,0.1-0.2c0-0.1,0-0.4-0.1-0.8s-0.1-0.6-0.1-0.7l0.6,0.4c0.4,0.3,0.6,0.4,0.6,0.4
				s0.1,0,0.1,0c0.1,0,0.2,0,0.2-0.1c0.1-0.1,0.1-0.2,0.1-0.3c0-0.1,0-0.2-0.1-0.2c0,0-0.3-0.1-0.7-0.3c-0.4-0.2-0.6-0.3-0.7-0.3
				l0.7-0.3l0.7-0.3c0.1-0.1,0.1-0.1,0.1-0.2c0-0.1,0-0.2-0.1-0.2s-0.1-0.1-0.2-0.1c-0.1,0-0.1,0-0.2,0.1c-0.1,0-0.2,0.2-0.5,0.4
				l-0.6,0.4c0.1-0.9,0.1-1.4,0.1-1.5c0-0.1,0-0.1-0.1-0.2s-0.1-0.1-0.3-0.1c-0.1,0-0.2,0-0.3,0.1c0,0.1-0.1,0.1-0.1,0.2
				c0,0.1,0,0.4,0.1,0.8c0,0.4,0.1,0.6,0.1,0.7l-0.6-0.4c-0.4-0.3-0.6-0.4-0.6-0.4c0,0-0.1,0-0.1,0c-0.1,0-0.2,0-0.2,0.1
				s-0.1,0.2-0.1,0.3c0,0,0,0.1,0,0.1s0,0,0,0.1c0,0,0,0,0,0.1c0,0,0,0,0.1,0.1c0,0,0.1,0,0.1,0.1c0,0,0.1,0,0.2,0.1
				s0.2,0.1,0.2,0.1c0.1,0,0.2,0.1,0.3,0.1s0.3,0.1,0.4,0.2l-1.3,0.6c-0.1,0.1-0.1,0.1-0.1,0.2c0,0.1,0,0.2,0.1,0.2
				c0.1,0.1,0.1,0.1,0.2,0.1c0.1,0,0.1,0,0.2-0.1c0.1,0,0.2-0.2,0.5-0.4L-8021.2-13.5z"/>
		</g>
		<g transform="scale(0.707)">
			<path id="MJMATHI-3BA" d="M-8022.6-23c-0.1,0-0.2,0-0.2,0.1c-0.1,0-0.1,0.1-0.1,0.1c0,0,0,0.1,0,0.1c0,0.1,0.2,0.7,0.5,2
				s0.5,1.9,0.5,1.9c0.1,0.2,0.2,0.3,0.5,0.3c0.1,0,0.1,0,0.2-0.1c0.1,0,0.1-0.1,0.1-0.1c0,0,0-0.1,0-0.1c0-0.1-0.1-0.3-0.2-0.7
				l-0.2-0.7c0,0,0.1,0,0.2,0.1c0.1,0.1,0.2,0.1,0.3,0.1c0.1,0.1,0.3,0.3,0.7,0.6c0.4,0.3,0.7,0.5,0.9,0.6s0.5,0.2,0.7,0.2
				c0.1,0,0.3,0,0.3-0.1c0.1-0.1,0.1-0.2,0.1-0.3c0-0.2-0.1-0.3-0.2-0.4c-0.1-0.1-0.3-0.2-0.4-0.2c-0.1,0-0.2,0-0.3,0.1
				c-0.1,0.1-0.1,0.2-0.1,0.3c0,0,0,0.1,0,0.1l-0.1,0c-0.2-0.1-0.5-0.3-0.8-0.6l-0.6-0.5l-0.1-0.1h0c0.1,0,0.3,0,0.5-0.1
				s0.5-0.1,0.7-0.2c0.4-0.2,0.6-0.4,0.6-0.8c0-0.1,0-0.2,0-0.4s-0.1-0.3-0.1-0.5c0-0.3,0.1-0.4,0.3-0.4c0.3,0,0.6,0.4,0.7,1.1
				c0,0.1,0,0.1,0.1,0.1s0.1,0,0.2,0c0.1,0,0.2,0,0.2-0.1c0-0.2-0.1-0.4-0.3-0.8c-0.2-0.4-0.4-0.6-0.7-0.7c-0.1,0-0.2,0-0.3,0
				c-0.3,0-0.5,0.1-0.7,0.3s-0.3,0.4-0.3,0.7c0,0.1,0,0.2,0,0.3c0,0.1,0,0.2,0,0.2c0,0.2-0.1,0.3-0.2,0.4c-0.1,0.1-0.3,0.2-0.5,0.2
				s-0.4,0.1-0.5,0.1c-0.1,0-0.2,0-0.4,0h0l-0.2-1c-0.2-0.7-0.3-1-0.3-1C-8022.3-22.9-8022.4-23-8022.6-23z"/>
		</g>
	</g>
	<g>
		<path id="MJMAIN-28_1_" d="M131-17.3c0,0.6,0,1.2,0.1,1.8c0.1,0.6,0.2,1.1,0.3,1.5s0.3,0.8,0.5,1.2c0.2,0.4,0.4,0.7,0.5,0.9
			c0.1,0.2,0.3,0.5,0.6,0.7s0.4,0.4,0.5,0.5c0,0.1,0.2,0.2,0.3,0.3h0.2h0.1c0.1,0,0.2,0,0.2-0.1c0,0-0.1-0.1-0.2-0.3
			c-0.2-0.2-0.3-0.4-0.6-0.7c-0.2-0.3-0.5-0.7-0.7-1.2s-0.4-1.1-0.6-1.9c-0.2-0.8-0.2-1.7-0.2-2.7c0-1,0.1-1.9,0.2-2.7
			c0.2-0.8,0.3-1.4,0.6-1.9c0.2-0.5,0.5-0.9,0.7-1.2c0.2-0.3,0.4-0.6,0.6-0.7c0.2-0.2,0.2-0.3,0.2-0.3c0-0.1-0.1-0.1-0.2-0.1h0h-0.2
			l-0.4,0.3c-0.9,0.8-1.5,1.8-1.9,3C131.2-19.8,131-18.6,131-17.3z"/>
	</g>
	<g>
		<path id="MJMATHI-78_3_" d="M135.8-16.7c0.1,0.4,0.3,0.8,0.8,1.4s1,0.8,1.6,0.8c0.3,0,0.6-0.1,0.9-0.3c0.3-0.2,0.5-0.4,0.6-0.6
			c0.4,0.6,0.9,0.9,1.4,0.9c0.3,0,0.6-0.1,0.9-0.3c0.3-0.2,0.4-0.5,0.4-0.8c0-0.3-0.1-0.5-0.2-0.7s-0.3-0.3-0.4-0.3
			s-0.2-0.1-0.3-0.1c-0.2,0-0.3,0.1-0.4,0.2c-0.1,0.1-0.2,0.2-0.2,0.4c0,0.4,0.2,0.7,0.7,0.9c-0.1,0.1-0.3,0.2-0.6,0.2
			c-0.1,0-0.2,0-0.3,0c-0.4-0.1-0.6-0.5-0.8-0.9c-0.6-2.1-0.8-3.3-0.8-3.6c0-0.3,0.1-0.4,0.2-0.6s0.3-0.2,0.5-0.2
			c0.3,0,0.7,0.2,1,0.5c0.3,0.3,0.6,0.7,0.7,1.1c0,0.1,0.1,0.1,0.1,0.2c0,0,0.1,0,0.2,0h0.1c0.1,0,0.2,0,0.2-0.1c0,0,0-0.1,0-0.2
			c-0.1-0.5-0.4-1-0.9-1.4c-0.4-0.4-0.9-0.6-1.5-0.6c-0.7,0-1.1,0.3-1.5,0.9c-0.4-0.6-0.8-0.9-1.3-0.9h-0.1c-0.5,0-0.8,0.1-1,0.4
			s-0.3,0.5-0.3,0.8c0,0.3,0.1,0.5,0.3,0.7c0.2,0.2,0.4,0.3,0.6,0.3c0.4,0,0.6-0.2,0.6-0.6c0-0.2-0.1-0.3-0.2-0.5
			c-0.1-0.1-0.2-0.2-0.3-0.3s-0.2-0.1-0.2-0.1l0,0c0,0,0,0,0.1-0.1c0.1,0,0.1-0.1,0.2-0.1c0.1,0,0.2-0.1,0.3,0
			c0.3,0,0.6,0.2,0.9,0.6c0.1,0.1,0.2,0.5,0.3,0.9s0.3,1,0.4,1.5c0.1,0.5,0.2,0.8,0.2,0.9c0,0.3,0.1,0.4,0.1,0.5
			c0,0.3-0.1,0.4-0.2,0.6c-0.1,0.1-0.3,0.2-0.5,0.2c-0.4,0-0.7-0.1-1-0.4s-0.6-0.7-0.7-1.1c0-0.1,0-0.1-0.1-0.1c0,0-0.1,0-0.2,0
			h-0.2C135.9-16.8,135.8-16.8,135.8-16.7z"/>
	</g>
	<g>
		<path id="MJMAIN-2C_1_" d="M144.2-20.3c0,0,0,0.1,0,0.3s0.1,0.4,0.2,0.6s0.3,0.3,0.6,0.3c0.3,0,0.5-0.1,0.7-0.3
			c0.2-0.2,0.3-0.6,0.3-1.2c0-0.3,0-0.6-0.1-0.9c-0.1-0.3-0.2-0.6-0.3-0.8s-0.2-0.4-0.4-0.6s-0.2-0.3-0.3-0.4
			c-0.1-0.1-0.2-0.1-0.2-0.1c0,0-0.1,0-0.2,0.1c-0.1,0.1-0.1,0.1-0.1,0.2c0,0,0.1,0.1,0.2,0.2c0.1,0.1,0.2,0.3,0.3,0.4
			s0.3,0.4,0.4,0.7c0.1,0.3,0.2,0.6,0.2,1v0.2l0,0c0,0,0,0-0.1,0c0,0-0.1,0-0.1,0c0,0-0.1,0-0.1,0s-0.1,0-0.2,0
			c-0.3,0-0.5,0.1-0.6,0.2L144.2-20.3z"/>
	</g>
	<g transform="translate(10712,0)">
		<g>
			<path id="MJMATHI-78_4_" d="M-10562-16.7c0.1,0.4,0.3,0.8,0.8,1.4s1,0.8,1.6,0.8c0.3,0,0.6-0.1,0.9-0.3c0.3-0.2,0.5-0.4,0.6-0.6
				c0.4,0.6,0.9,0.9,1.4,0.9c0.3,0,0.6-0.1,0.9-0.3c0.3-0.2,0.4-0.5,0.4-0.8c0-0.3-0.1-0.5-0.2-0.7c-0.1-0.2-0.3-0.3-0.4-0.3
				c-0.1,0-0.2-0.1-0.3-0.1c-0.2,0-0.3,0.1-0.4,0.2c-0.1,0.1-0.2,0.2-0.2,0.4c0,0.4,0.2,0.7,0.7,0.9c-0.1,0.1-0.3,0.2-0.6,0.2
				c-0.1,0-0.2,0-0.3,0c-0.4-0.1-0.6-0.5-0.8-0.9c-0.6-2.1-0.8-3.3-0.8-3.6c0-0.3,0.1-0.4,0.2-0.6s0.3-0.2,0.5-0.2
				c0.3,0,0.7,0.2,1,0.5c0.3,0.3,0.6,0.7,0.7,1.1c0,0.1,0.1,0.1,0.1,0.2s0.1,0,0.2,0h0.1c0.1,0,0.2,0,0.2-0.1c0,0,0-0.1,0-0.2
				c-0.1-0.5-0.4-1-0.9-1.4c-0.4-0.4-0.9-0.6-1.5-0.6c-0.7,0-1.1,0.3-1.5,0.9c-0.4-0.6-0.8-0.9-1.3-0.9h-0.1c-0.5,0-0.8,0.1-1,0.4
				s-0.3,0.5-0.3,0.8c0,0.3,0.1,0.5,0.3,0.7c0.2,0.2,0.4,0.3,0.6,0.3c0.4,0,0.6-0.2,0.6-0.6c0-0.2-0.1-0.3-0.2-0.5
				c-0.1-0.1-0.2-0.2-0.3-0.3c-0.1,0-0.2-0.1-0.2-0.1l0,0c0,0,0,0,0.1-0.1c0.1,0,0.1-0.1,0.2-0.1s0.2-0.1,0.3,0
				c0.3,0,0.6,0.2,0.9,0.6c0.1,0.1,0.2,0.5,0.3,0.9s0.3,1,0.4,1.5c0.1,0.5,0.2,0.8,0.2,0.9c0,0.3,0.1,0.4,0.1,0.5
				c0,0.3-0.1,0.4-0.2,0.6s-0.3,0.2-0.5,0.2c-0.4,0-0.7-0.1-1-0.4s-0.6-0.7-0.7-1.1c0-0.1,0-0.1-0.1-0.1c0,0-0.1,0-0.2,0h-0.2
				C-10562-16.8-10562-16.8-10562-16.7z"/>
		</g>
		<g transform="scale(0.707)">
			<path id="MJMAIN-32_1_" d="M-10553.7-18.6c-0.2,0-0.3,0.1-0.4,0.2c-0.1,0.1-0.2,0.3-0.2,0.4c0,0.5,0.2,0.9,0.5,1.2
				c0.3,0.3,0.8,0.5,1.3,0.5c0.6,0,1.1-0.2,1.5-0.6c0.4-0.4,0.6-0.8,0.6-1.4c0-0.3-0.1-0.6-0.2-0.8c-0.1-0.3-0.3-0.5-0.5-0.7
				c-0.2-0.2-0.4-0.4-0.8-0.7c-0.2-0.2-0.6-0.5-1-0.9l-0.6-0.6l0.7,0c1,0,1.6,0,1.6,0c0,0,0.1,0.3,0.2,0.9v0h0.4v0
				c0,0,0-0.3-0.1-0.9s-0.1-0.9-0.1-0.9v0h-3.7v0.2v0.1c0,0,0,0.1,0.1,0.1c0,0.1,0.1,0.2,0.3,0.3c0.2,0.2,0.4,0.4,0.5,0.6
				c0.1,0.1,0.2,0.2,0.3,0.4c0.2,0.2,0.3,0.3,0.3,0.4c0.1,0.1,0.2,0.2,0.3,0.3s0.2,0.3,0.3,0.3c0.1,0.1,0.1,0.2,0.2,0.3
				c0.1,0.1,0.2,0.2,0.2,0.3c0,0.1,0.1,0.2,0.1,0.3c0.1,0.1,0.1,0.2,0.1,0.3s0,0.2,0.1,0.3c0,0.1,0,0.2,0,0.3c0,0.4-0.1,0.8-0.3,1.1
				c-0.2,0.3-0.5,0.5-1,0.5c-0.2,0-0.4-0.1-0.6-0.2c-0.2-0.1-0.3-0.2-0.3-0.3s-0.1-0.2-0.1-0.2c0,0,0,0,0,0c0.1,0,0.2,0,0.4-0.1
				c0.1-0.1,0.2-0.2,0.2-0.5c0-0.2-0.1-0.3-0.2-0.4C-10553.3-18.6-10553.5-18.6-10553.7-18.6z"/>
		</g>
	</g>
	<g>
		<path id="MJMAIN-29_1_" d="M164.4-10.3L164.4-10.3c0.1,0,0.1,0,0.2,0h0.2l0.4-0.3c0.9-0.8,1.5-1.8,1.9-3c0.4-1.2,0.6-2.4,0.6-3.7
			c0-0.6,0-1.2-0.1-1.8c-0.1-0.6-0.2-1.1-0.3-1.5c-0.1-0.4-0.3-0.8-0.5-1.2c-0.2-0.4-0.4-0.7-0.5-0.9s-0.3-0.5-0.6-0.7
			c-0.3-0.3-0.4-0.4-0.4-0.5c0,0-0.2-0.1-0.3-0.3c0,0,0,0-0.1-0.1h-0.2c-0.1,0-0.1,0-0.2,0c0,0-0.1,0-0.1,0c0,0,0,0.1,0,0.1
			c0,0,0.1,0.1,0.2,0.2c1.4,1.5,2.2,3.7,2.2,6.6s-0.7,5.1-2.2,6.6c-0.1,0.1-0.1,0.2-0.2,0.2C164.4-10.4,164.4-10.4,164.4-10.3z"/>
	</g>
	<g transform="translate(12128,0)">
		<g>
			<path id="MJMATHI-3C8_1_" d="M-11956.7-14.6c0.4,0,0.7-0.1,0.9-0.3c0.2-0.2,0.3-0.5,0.3-0.8c0-0.2-0.1-0.7-0.4-1.5
				c-0.3-0.8-0.4-1.4-0.4-1.7c0-0.4,0.2-0.7,0.4-0.9c0.2-0.2,0.4-0.3,0.6-0.3c0.2-0.1,0.3-0.1,0.4-0.1h0l1.1,4.6
				c0.8,3.1,1.2,4.6,1.2,4.6c0,0,0.1,0,0.2,0c0.2,0,0.3,0,0.3-0.1c0-0.1-0.4-1.6-1.1-4.6c-0.8-3-1.1-4.6-1.1-4.6c0,0,0,0,0.1,0
				c0.8,0,1.6,0.4,2.3,1.2c0.7,0.8,1.1,1.6,1.1,2.3c0,0.2,0,0.4-0.1,0.6c-0.1,0.2-0.2,0.3-0.3,0.3s-0.2,0.1-0.3,0.3
				c-0.1,0.1-0.1,0.2-0.1,0.3c0,0.2,0.1,0.4,0.2,0.6c0.2,0.2,0.4,0.3,0.6,0.3c0.2,0,0.3-0.1,0.5-0.3c0.1-0.2,0.2-0.4,0.2-0.8
				c0-0.3-0.1-0.6-0.2-1.1s-0.2-0.8-0.3-0.9c-0.3-0.9-0.8-1.6-1.6-2.3c-0.8-0.6-1.5-0.9-2.3-0.9h-0.1l-0.3-1.3
				c-0.2-0.9-0.3-1.3-0.3-1.3c0-0.1-0.1-0.1-0.3-0.1h-0.2c-0.1,0.1-0.1,0.1-0.1,0.1c0,0,0.1,0.5,0.3,1.3s0.3,1.3,0.3,1.3
				c-0.1,0-0.1,0-0.2,0c-1.5,0.2-2.2,0.9-2.2,2c0,0.3,0.2,0.9,0.5,1.7s0.5,1.4,0.5,1.6c0,0,0,0,0,0c0,0.1,0,0.1,0,0.2s0,0.1-0.1,0.1
				c0,0-0.1,0.1-0.2,0.1h-0.1c-0.2,0-0.4-0.1-0.6-0.3c-0.2-0.2-0.3-0.4-0.4-0.6c-0.1-0.2-0.2-0.4-0.2-0.6c-0.1-0.2-0.1-0.3-0.1-0.3
				s-0.1,0-0.2,0h-0.2c-0.1,0.1-0.1,0.1-0.1,0.1c0,0.1,0.1,0.3,0.2,0.6s0.3,0.6,0.7,1S-11957.2-14.6-11956.7-14.6z"/>
		</g>
		<g transform="scale(0.707)">
			<path id="MJMATHI-3BA_1_" d="M-11949.1-23c-0.1,0-0.2,0-0.2,0.1s-0.1,0.1-0.1,0.1c0,0,0,0.1,0,0.1c0,0.1,0.2,0.7,0.5,2
				s0.5,1.9,0.5,1.9c0.1,0.2,0.2,0.3,0.5,0.3c0.1,0,0.1,0,0.2-0.1c0.1,0,0.1-0.1,0.1-0.1c0,0,0-0.1,0-0.1c0-0.1-0.1-0.3-0.2-0.7
				l-0.2-0.7c0,0,0.1,0,0.2,0.1c0.1,0.1,0.2,0.1,0.3,0.1c0.1,0.1,0.3,0.3,0.7,0.6c0.4,0.3,0.7,0.5,0.9,0.6s0.5,0.2,0.7,0.2
				c0.1,0,0.3,0,0.3-0.1c0.1-0.1,0.1-0.2,0.1-0.3c0-0.2-0.1-0.3-0.2-0.4c-0.1-0.1-0.3-0.2-0.4-0.2c-0.1,0-0.2,0-0.3,0.1
				c-0.1,0.1-0.1,0.2-0.1,0.3c0,0,0,0.1,0,0.1l-0.1,0c-0.2-0.1-0.5-0.3-0.8-0.6l-0.6-0.5l-0.1-0.1h0c0.1,0,0.3,0,0.5-0.1
				c0.3,0,0.5-0.1,0.7-0.2c0.4-0.2,0.6-0.4,0.6-0.8c0-0.1,0-0.2,0-0.4c0-0.2-0.1-0.3-0.1-0.5c0-0.3,0.1-0.4,0.3-0.4
				c0.3,0,0.6,0.4,0.7,1.1c0,0.1,0,0.1,0.1,0.1s0.1,0,0.2,0c0.1,0,0.2,0,0.2-0.1c0-0.2-0.1-0.4-0.3-0.8c-0.2-0.4-0.4-0.6-0.7-0.7
				c-0.1,0-0.2,0-0.3,0c-0.3,0-0.5,0.1-0.7,0.3c-0.2,0.2-0.3,0.4-0.3,0.7c0,0.1,0,0.2,0,0.3c0,0.1,0,0.2,0,0.2
				c0,0.2-0.1,0.3-0.2,0.4s-0.3,0.2-0.5,0.2c-0.2,0-0.4,0.1-0.5,0.1c-0.1,0-0.2,0-0.4,0h0l-0.2-1c-0.2-0.7-0.3-1-0.3-1
				C-11948.8-22.9-11948.9-23-11949.1-23z"/>
		</g>
	</g>
	<g>
		<path id="MJMAIN-28_2_" d="M186.5-17.3c0,0.6,0,1.2,0.1,1.8c0.1,0.6,0.2,1.1,0.3,1.5s0.3,0.8,0.5,1.2c0.2,0.4,0.4,0.7,0.5,0.9
			c0.1,0.2,0.3,0.5,0.6,0.7s0.4,0.4,0.5,0.5c0,0.1,0.2,0.2,0.3,0.3h0.2h0.1c0.1,0,0.2,0,0.2-0.1c0,0-0.1-0.1-0.2-0.3
			c-0.2-0.2-0.3-0.4-0.6-0.7c-0.2-0.3-0.5-0.7-0.7-1.2s-0.4-1.1-0.6-1.9c-0.2-0.8-0.2-1.7-0.2-2.7c0-1,0.1-1.9,0.2-2.7
			c0.2-0.8,0.3-1.4,0.6-1.9c0.2-0.5,0.5-0.9,0.7-1.2c0.2-0.3,0.4-0.6,0.6-0.7c0.2-0.2,0.2-0.3,0.2-0.3c0-0.1-0.1-0.1-0.2-0.1h0h-0.2
			l-0.4,0.3c-0.9,0.8-1.5,1.8-1.9,3C186.7-19.8,186.5-18.6,186.5-17.3z"/>
	</g>
	<g transform="translate(13677,0)">
		<g>
			<path id="MJMATHI-78_5_" d="M-13485.7-16.7c0.1,0.4,0.3,0.8,0.8,1.4c0.4,0.5,1,0.8,1.6,0.8c0.3,0,0.6-0.1,0.9-0.3
				s0.5-0.4,0.6-0.6c0.4,0.6,0.9,0.9,1.4,0.9c0.3,0,0.6-0.1,0.9-0.3c0.3-0.2,0.4-0.5,0.4-0.8c0-0.3-0.1-0.5-0.2-0.7
				s-0.3-0.3-0.4-0.3s-0.2-0.1-0.3-0.1c-0.2,0-0.3,0.1-0.4,0.2c-0.1,0.1-0.2,0.2-0.2,0.4c0,0.4,0.2,0.7,0.7,0.9
				c-0.1,0.1-0.3,0.2-0.6,0.2c-0.1,0-0.2,0-0.3,0c-0.4-0.1-0.6-0.5-0.8-0.9c-0.6-2.1-0.8-3.3-0.8-3.6c0-0.3,0.1-0.4,0.2-0.6
				c0.1-0.1,0.3-0.2,0.5-0.2c0.3,0,0.7,0.2,1,0.5c0.3,0.3,0.6,0.7,0.7,1.1c0,0.1,0.1,0.1,0.1,0.2c0,0,0.1,0,0.2,0h0.1
				c0.1,0,0.2,0,0.2-0.1c0,0,0-0.1,0-0.2c-0.1-0.5-0.4-1-0.9-1.4c-0.4-0.4-0.9-0.6-1.5-0.6c-0.7,0-1.1,0.3-1.5,0.9
				c-0.4-0.6-0.8-0.9-1.3-0.9h-0.1c-0.5,0-0.8,0.1-1,0.4c-0.2,0.2-0.3,0.5-0.3,0.8c0,0.3,0.1,0.5,0.3,0.7c0.2,0.2,0.4,0.3,0.6,0.3
				c0.4,0,0.6-0.2,0.6-0.6c0-0.2-0.1-0.3-0.2-0.5c-0.1-0.1-0.2-0.2-0.3-0.3c-0.1,0-0.2-0.1-0.2-0.1l0,0c0,0,0,0,0.1-0.1
				c0.1,0,0.1-0.1,0.2-0.1c0.1,0,0.2-0.1,0.3,0c0.3,0,0.6,0.2,0.9,0.6c0.1,0.1,0.2,0.5,0.3,0.9c0.1,0.5,0.3,1,0.4,1.5
				c0.1,0.5,0.2,0.8,0.2,0.9c0,0.3,0.1,0.4,0.1,0.5c0,0.3-0.1,0.4-0.2,0.6c-0.1,0.1-0.3,0.2-0.5,0.2c-0.4,0-0.7-0.1-1-0.4
				s-0.6-0.7-0.7-1.1c0-0.1,0-0.1-0.1-0.1c0,0-0.1,0-0.2,0h-0.2C-13485.7-16.8-13485.7-16.8-13485.7-16.7z"/>
		</g>
		<g transform="scale(0.707)">
			<path id="MJMAIN-2032_1_" d="M-13477.7-14.6c0,0-0.1,0-0.3,0.1c-0.1,0-0.2,0.1-0.2,0.1c0,0,0.2,0.8,0.5,2.3
				c0.4,1.5,0.6,2.2,0.6,2.3c0.1,0.2,0.3,0.3,0.5,0.3c0.1,0,0.3,0,0.4-0.1c0.1-0.1,0.2-0.2,0.2-0.4c0,0,0-0.1,0-0.1
				c0,0-0.3-0.8-0.9-2.2C-13477.3-13.9-13477.6-14.6-13477.7-14.6C-13477.6-14.6-13477.6-14.6-13477.7-14.6z"/>
		</g>
	</g>
	<g>
		<path id="MJMAIN-2C_2_" d="M203.8-20.3c0,0,0,0.1,0,0.3s0.1,0.4,0.2,0.6c0.1,0.2,0.3,0.3,0.6,0.3c0.3,0,0.5-0.1,0.7-0.3
			c0.2-0.2,0.3-0.6,0.3-1.2c0-0.3,0-0.6-0.1-0.9c-0.1-0.3-0.2-0.6-0.3-0.8s-0.2-0.4-0.4-0.6s-0.2-0.3-0.3-0.4
			c-0.1-0.1-0.2-0.1-0.2-0.1c0,0-0.1,0-0.2,0.1c-0.1,0.1-0.1,0.1-0.1,0.2c0,0,0.1,0.1,0.2,0.2c0.1,0.1,0.2,0.3,0.3,0.4
			s0.3,0.4,0.4,0.7c0.1,0.3,0.2,0.6,0.2,1v0.2l0,0c0,0,0,0-0.1,0c0,0-0.1,0-0.1,0c0,0-0.1,0-0.1,0s-0.1,0-0.2,0
			c-0.3,0-0.5,0.1-0.6,0.2L203.8-20.3z"/>
	</g>
	<g transform="translate(14989,0)">
		<g>
			<path id="MJMATHI-78_6_" d="M-14779.4-16.7c0.1,0.4,0.3,0.8,0.8,1.4s1,0.8,1.6,0.8c0.3,0,0.6-0.1,0.9-0.3
				c0.3-0.2,0.5-0.4,0.6-0.6c0.4,0.6,0.9,0.9,1.4,0.9c0.3,0,0.6-0.1,0.9-0.3c0.3-0.2,0.4-0.5,0.4-0.8c0-0.3-0.1-0.5-0.2-0.7
				c-0.1-0.2-0.3-0.3-0.4-0.3s-0.2-0.1-0.3-0.1c-0.2,0-0.3,0.1-0.4,0.2c-0.1,0.1-0.2,0.2-0.2,0.4c0,0.4,0.2,0.7,0.7,0.9
				c-0.1,0.1-0.3,0.2-0.6,0.2c-0.1,0-0.2,0-0.3,0c-0.4-0.1-0.6-0.5-0.8-0.9c-0.6-2.1-0.8-3.3-0.8-3.6c0-0.3,0.1-0.4,0.2-0.6
				s0.3-0.2,0.5-0.2c0.3,0,0.7,0.2,1,0.5c0.3,0.3,0.6,0.7,0.7,1.1c0,0.1,0.1,0.1,0.1,0.2c0,0,0.1,0,0.2,0h0.1c0.1,0,0.2,0,0.2-0.1
				c0,0,0-0.1,0-0.2c-0.1-0.5-0.4-1-0.9-1.4c-0.4-0.4-0.9-0.6-1.5-0.6c-0.7,0-1.1,0.3-1.5,0.9c-0.4-0.6-0.8-0.9-1.3-0.9h-0.1
				c-0.5,0-0.8,0.1-1,0.4c-0.2,0.2-0.3,0.5-0.3,0.8c0,0.3,0.1,0.5,0.3,0.7c0.2,0.2,0.4,0.3,0.6,0.3c0.4,0,0.6-0.2,0.6-0.6
				c0-0.2-0.1-0.3-0.2-0.5c-0.1-0.1-0.2-0.2-0.3-0.3s-0.2-0.1-0.2-0.1l0,0c0,0,0,0,0.1-0.1c0.1,0,0.1-0.1,0.2-0.1s0.2-0.1,0.3,0
				c0.3,0,0.6,0.2,0.9,0.6c0.1,0.1,0.2,0.5,0.3,0.9s0.3,1,0.4,1.5c0.1,0.5,0.2,0.8,0.2,0.9c0,0.3,0.1,0.4,0.1,0.5
				c0,0.3-0.1,0.4-0.2,0.6s-0.3,0.2-0.5,0.2c-0.4,0-0.7-0.1-1-0.4s-0.6-0.7-0.7-1.1c0-0.1,0-0.1-0.1-0.1s-0.1,0-0.2,0h-0.2
				C-14779.4-16.8-14779.4-16.8-14779.4-16.7z"/>
		</g>
		<g transform="scale(0.707)">
			<path id="MJMAIN-32_2_" d="M-14771.1-18.6c-0.2,0-0.3,0.1-0.4,0.2s-0.2,0.3-0.2,0.4c0,0.5,0.2,0.9,0.5,1.2
				c0.3,0.3,0.8,0.5,1.3,0.5c0.6,0,1.1-0.2,1.5-0.6c0.4-0.4,0.6-0.8,0.6-1.4c0-0.3-0.1-0.6-0.2-0.8c-0.1-0.3-0.3-0.5-0.5-0.7
				c-0.2-0.2-0.4-0.4-0.8-0.7c-0.2-0.2-0.6-0.5-1-0.9l-0.6-0.6l0.7,0c1,0,1.6,0,1.6,0c0,0,0.1,0.3,0.2,0.9v0h0.4v0
				c0,0,0-0.3-0.1-0.9s-0.1-0.9-0.1-0.9v0h-3.7v0.2v0.1c0,0,0,0.1,0.1,0.1c0,0.1,0.1,0.2,0.3,0.3c0.2,0.2,0.4,0.4,0.5,0.6
				c0.1,0.1,0.2,0.2,0.3,0.4s0.3,0.3,0.3,0.4c0.1,0.1,0.2,0.2,0.3,0.3c0.1,0.2,0.2,0.3,0.3,0.3c0.1,0.1,0.1,0.2,0.2,0.3
				s0.2,0.2,0.2,0.3c0,0.1,0.1,0.2,0.1,0.3c0.1,0.1,0.1,0.2,0.1,0.3s0,0.2,0.1,0.3c0,0.1,0,0.2,0,0.3c0,0.4-0.1,0.8-0.3,1.1
				c-0.2,0.3-0.5,0.5-1,0.5c-0.2,0-0.4-0.1-0.6-0.2c-0.2-0.1-0.3-0.2-0.3-0.3c-0.1-0.1-0.1-0.2-0.1-0.2c0,0,0,0,0,0
				c0.1,0,0.2,0,0.4-0.1c0.1-0.1,0.2-0.2,0.2-0.5c0-0.2-0.1-0.3-0.2-0.4C-14770.7-18.6-14770.9-18.6-14771.1-18.6z"/>
		</g>
	</g>
	<g>
		<path id="MJMAIN-29_2_" d="M224-10.3L224-10.3c0.1,0,0.1,0,0.2,0h0.2l0.4-0.3c0.9-0.8,1.5-1.8,1.9-3s0.6-2.4,0.6-3.7
			c0-0.6,0-1.2-0.1-1.8c-0.1-0.6-0.2-1.1-0.3-1.5c-0.1-0.4-0.3-0.8-0.5-1.2c-0.2-0.4-0.4-0.7-0.5-0.9s-0.3-0.5-0.6-0.7
			c-0.3-0.3-0.4-0.4-0.4-0.5c0,0-0.2-0.1-0.3-0.3c0,0,0,0-0.1-0.1h-0.2c-0.1,0-0.1,0-0.2,0c0,0-0.1,0-0.1,0c0,0,0,0.1,0,0.1
			c0,0,0.1,0.1,0.2,0.2c1.4,1.5,2.2,3.7,2.2,6.6s-0.7,5.1-2.2,6.6c-0.1,0.1-0.1,0.2-0.2,0.2C224-10.4,224-10.4,224-10.3z"/>
	</g>
</g>
</svg>
