<?xml version="1.0" encoding="utf-8"?>
<!-- Generator: Adobe Illustrator 22.1.0, SVG Export Plug-In . SVG Version: 6.00 Build 0)  -->
<svg version="1.1" id="Layer_1" focusable="false" xmlns="http://www.w3.org/2000/svg" xmlns:xlink="http://www.w3.org/1999/xlink"
	 x="0px" y="0px" viewBox="0 0 5 11.2" style="enable-background:new 0 0 5 11.2;" xml:space="preserve">
<g transform="matrix(1 0 0 -1 0 0)">
	<g>
		<path id="MJMATHI-74" d="M0.4-4.3C0.3-4.2,0.3-4.2,0.3-4.2c0,0,0,0.1,0,0.2c0,0.1,0.1,0.2,0.1,0.2c0,0,0.1,0.1,0.1,0.1
			s0.3,0,0.7,0H2l0.3,1.1c0,0.1,0.1,0.2,0.1,0.4c0,0.2,0.1,0.3,0.1,0.4c0,0.1,0.1,0.2,0.1,0.3c0,0.1,0.1,0.2,0.1,0.2
			c0,0,0.1,0.1,0.1,0.2S2.9-1,2.9-1c0.1,0,0.2,0,0.3,0c0.2,0,0.3-0.1,0.3-0.2c0.1-0.1,0.1-0.2,0.1-0.3c0-0.1,0-0.3-0.1-0.7
			S3.3-2.7,3.2-3.1L3.1-3.6c0,0,0.2,0,0.7,0h0.7c0.1-0.1,0.1-0.1,0.1-0.2c0-0.2-0.1-0.4-0.2-0.5H2.9l-0.5-2C2.1-7.8,1.9-8.6,1.9-8.7
			c0-0.4,0.1-0.6,0.4-0.6c0.3,0,0.6,0.2,0.9,0.5s0.6,0.7,0.7,1.2C4-7.6,4-7.6,4-7.6c0,0,0.1,0,0.2,0h0.1c0.1,0,0.2,0,0.2-0.1
			c0,0,0-0.1,0-0.2c0-0.1-0.1-0.3-0.3-0.5C4.1-8.5,3.9-8.8,3.7-9S3.3-9.4,3-9.6C2.7-9.7,2.4-9.8,2.2-9.8c-0.3,0-0.5,0.1-0.8,0.2
			S0.9-9.2,0.8-8.9c0,0.1,0,0.2,0,0.4v0.3l0.5,2c0.3,1.3,0.5,2,0.5,2c0,0-0.2,0-0.7,0H0.4z"/>
	</g>
</g>
</svg>
