<?xml version="1.0" encoding="utf-8"?>
<!-- Generator: Adobe Illustrator 22.1.0, SVG Export Plug-In . SVG Version: 6.00 Build 0)  -->
<svg version="1.1" id="Layer_1" focusable="false" xmlns="http://www.w3.org/2000/svg" xmlns:xlink="http://www.w3.org/1999/xlink"
	 x="0px" y="0px" viewBox="0 0 90.2 11.9" style="enable-background:new 0 0 90.2 11.9;" xml:space="preserve">
<g transform="matrix(1 0 0 -1 0 0)">
	<g>
		<path id="MJMATHI-3C9" d="M6.9-5c0,0.2,0.1,0.4,0.3,0.6c0.2,0.2,0.4,0.3,0.6,0.3c0.2,0,0.3-0.1,0.5-0.3c0.1-0.2,0.2-0.5,0.2-0.9
			c0-0.3-0.1-0.7-0.2-1.2S8-7.6,7.7-8.2s-0.6-1.2-1-1.6s-0.9-0.7-1.5-0.7c-0.7,0-1.3,0.4-1.5,1.1c0,0,0,0-0.1-0.1
			c-0.5-0.7-1.2-1-1.9-1c-1,0-1.5,0.7-1.5,2.1c0,0.8,0.2,1.7,0.6,2.6s0.7,1.4,0.9,1.5c0.1,0.1,0.2,0.1,0.3,0
			c0.1-0.1,0.2-0.1,0.2-0.3c0-0.1-0.1-0.3-0.3-0.5c-0.2-0.3-0.4-0.6-0.6-1S0.9-7,0.9-7.5c0-0.1,0-0.2,0-0.3c0-0.6,0.1-1,0.3-1.2
			S1.7-9.3,2-9.3c0.5,0,1,0.2,1.4,0.7l0.1,0.1v0.3c0,1.3,0.3,2,0.9,2c0.3,0,0.4-0.2,0.4-0.5c0-0.2,0-0.4-0.1-0.7
			C4.6-7.7,4.5-8,4.4-8.2L4.3-8.5c0,0,0,0,0-0.1c0,0,0-0.1,0.1-0.2C4.5-8.9,4.6-9,4.7-9C4.7-9.1,4.8-9.2,5-9.2
			c0.1-0.1,0.3-0.1,0.5-0.1c0.6,0,1.1,0.3,1.5,1c0.4,0.7,0.6,1.3,0.6,1.8c0,0.3-0.1,0.5-0.2,0.7S7.2-5.5,7.1-5.4
			C7-5.3,6.9-5.2,6.9-5z"/>
	</g>
	<g>
		<path id="MJMAIN-3D" d="M13.3-5.6c0,0.1,0.1,0.2,0.2,0.3h8.9c0.1-0.1,0.2-0.2,0.2-0.3c0-0.1-0.1-0.2-0.2-0.3l-4.4,0h-4.4
			C13.4-5.8,13.3-5.7,13.3-5.6z M13.3-8.3c0,0.1,0.1,0.2,0.2,0.3h8.9c0.1-0.1,0.2-0.2,0.2-0.3c0-0.1-0.1-0.2-0.2-0.3h-8.9
			C13.4-8.5,13.3-8.4,13.3-8.3z"/>
	</g>
	<g>
		<path id="MJMAIN-31" d="M30.2-2.3L30-2.4c-0.1,0-0.3-0.1-0.6-0.1c-0.2,0-0.5-0.1-0.8-0.1h-0.3V-2h0.3c0.4,0,0.8,0.1,1.2,0.2
			s0.6,0.2,0.8,0.3c0.1,0.1,0.3,0.2,0.4,0.3c0,0,0.1,0,0.2,0c0.1,0,0.2,0,0.2-0.1v-4.2l0-4.2c0.1-0.1,0.1-0.1,0.2-0.1
			c0,0,0.2,0,0.3-0.1c0.2,0,0.5,0,0.9,0h0.4v-0.6h-0.2c-0.2,0-0.9,0-2.2,0c-1.3,0-2,0-2.2,0h-0.2v0.6h0.4c0.2,0,0.4,0,0.5,0
			s0.3,0,0.3,0c0.1,0,0.2,0,0.2,0c0.1,0,0.1,0,0.1,0s0,0,0.1,0.1c0,0,0.1,0.1,0.1,0.1V-2.3z"/>
	</g>
	<g>
		<path id="MJMAIN-2192" d="M38.9-7.1c0,0,0,0.1,0,0.2s0.1,0.2,0.2,0.3h10.7c-1.1,0.8-1.7,1.8-2,3.1c0,0,0,0,0,0c0,0,0,0,0,0
			c0,0.1,0.1,0.2,0.2,0.2h0c0.1,0,0.1,0,0.2,0c0,0,0.1,0,0.1-0.1c0,0,0-0.1,0-0.1c0-0.1,0-0.1,0-0.2c0-0.1,0.1-0.2,0.1-0.3
			c0.2-0.6,0.5-1.2,1-1.7s1-0.8,1.7-1c0.1,0,0.1-0.1,0.1-0.2c0-0.1,0-0.1-0.1-0.1c0,0-0.2-0.1-0.3-0.1s-0.4-0.2-0.5-0.3
			c-0.4-0.2-0.7-0.5-1-0.8c-0.3-0.3-0.5-0.6-0.6-0.9c-0.1-0.3-0.2-0.5-0.3-0.7c-0.1-0.2-0.1-0.3-0.1-0.4c0-0.1,0-0.1-0.1-0.2
			c0,0-0.1,0-0.2,0c-0.2,0-0.3,0.1-0.3,0.2c0,0.1,0,0.2,0.1,0.3c0.3,1.2,0.9,2.1,1.9,2.9H39.1c-0.1,0.1-0.2,0.2-0.2,0.3V-7.1z"/>
	</g>
	<g>
		<path id="MJMATHI-3C9_1_" d="M62.8-5c0,0.2,0.1,0.4,0.3,0.6c0.2,0.2,0.4,0.3,0.6,0.3c0.2,0,0.3-0.1,0.5-0.3s0.2-0.5,0.2-0.9
			c0-0.3-0.1-0.7-0.2-1.2s-0.3-1.1-0.5-1.7s-0.6-1.2-1-1.6s-0.9-0.7-1.5-0.7c-0.7,0-1.3,0.4-1.5,1.1c0,0,0,0-0.1-0.1
			c-0.5-0.7-1.2-1-1.9-1c-1,0-1.5,0.7-1.5,2.1c0,0.8,0.2,1.7,0.6,2.6c0.4,0.9,0.7,1.4,0.9,1.5c0.1,0.1,0.2,0.1,0.3,0
			c0.1-0.1,0.2-0.1,0.2-0.3c0-0.1-0.1-0.3-0.3-0.5c-0.2-0.3-0.4-0.6-0.6-1C57-6.6,56.8-7,56.8-7.5c0-0.1,0-0.2,0-0.3
			c0-0.6,0.1-1,0.3-1.2c0.2-0.2,0.5-0.3,0.8-0.3c0.5,0,1,0.2,1.4,0.7l0.1,0.1v0.3c0,1.3,0.3,2,0.9,2c0.3,0,0.4-0.2,0.4-0.5
			c0-0.2,0-0.4-0.1-0.7c-0.1-0.3-0.2-0.5-0.3-0.8l-0.1-0.3c0,0,0,0,0-0.1c0,0,0-0.1,0.1-0.2C60.4-8.9,60.5-9,60.6-9
			c0.1-0.1,0.2-0.1,0.3-0.2c0.1-0.1,0.3-0.1,0.5-0.1c0.6,0,1.1,0.3,1.5,1c0.4,0.7,0.6,1.3,0.6,1.8c0,0.3-0.1,0.5-0.2,0.7
			c-0.1,0.2-0.2,0.3-0.3,0.4C62.9-5.3,62.8-5.2,62.8-5z"/>
	</g>
	<g>
		<path id="MJMAIN-3D_1_" d="M69.2-5.6c0,0.1,0.1,0.2,0.2,0.3h8.9c0.1-0.1,0.2-0.2,0.2-0.3c0-0.1-0.1-0.2-0.2-0.3l-4.4,0h-4.4
			C69.3-5.8,69.2-5.7,69.2-5.6z M69.2-8.3c0,0.1,0.1,0.2,0.2,0.3h8.9c0.1-0.1,0.2-0.2,0.2-0.3c0-0.1-0.1-0.2-0.2-0.3h-8.9
			C69.3-8.5,69.2-8.4,69.2-8.3z"/>
	</g>
	<g>
		<path id="MJMAIN-30" d="M84.5-2.2c0.5,0.8,1.2,1.1,2.1,1.1c0.4,0,0.9-0.1,1.3-0.4c0.4-0.2,0.8-0.7,1.1-1.3
			c0.3-0.8,0.5-1.8,0.5-3.2c0-1.4-0.2-2.5-0.6-3.3c-0.2-0.4-0.4-0.7-0.8-0.9c-0.3-0.2-0.6-0.4-0.9-0.4c-0.2-0.1-0.5-0.1-0.7-0.1
			c-0.2,0-0.5,0-0.7,0.1c-0.2,0.1-0.5,0.2-0.9,0.4c-0.3,0.2-0.6,0.6-0.8,0.9c-0.4,0.8-0.6,1.9-0.6,3.3C83.7-4.3,84-3.1,84.5-2.2z
			 M87.7-2.1c-0.3,0.3-0.6,0.4-1,0.4c-0.4,0-0.7-0.1-1-0.4c-0.2-0.2-0.4-0.6-0.5-1s-0.1-1.3-0.1-2.7c0-1.5,0-2.4,0.1-2.9
			s0.2-0.8,0.5-1.1c0.3-0.3,0.6-0.4,1-0.4c0.4,0,0.7,0.1,0.9,0.4c0.3,0.3,0.4,0.7,0.5,1.2s0.1,1.4,0.1,2.8c0,1.3,0,2.2-0.1,2.7
			C88-2.7,87.9-2.3,87.7-2.1z"/>
	</g>
</g>
</svg>
